G04 #@! TF.FileFunction,Copper,L1,Top,Signal*
%FSLAX46Y46*%
G04 Gerber Fmt 4.6, Leading zero omitted, Abs format (unit mm)*
G04 Created by KiCad (PCBNEW 4.0.6) date Sunday, 24 September 2017 'AMt' 11:09:54*
%MOMM*%
%LPD*%
G01*
G04 APERTURE LIST*
%ADD10C,0.100000*%
%ADD11C,4.064000*%
%ADD12R,2.500000X2.500000*%
%ADD13C,2.500000*%
%ADD14R,1.727200X2.032000*%
%ADD15O,1.727200X2.032000*%
%ADD16O,1.600000X1.600000*%
%ADD17R,1.250000X1.500000*%
%ADD18R,1.300000X1.500000*%
%ADD19R,1.198880X1.198880*%
%ADD20R,0.800000X1.900000*%
%ADD21R,1.900000X0.800000*%
%ADD22R,1.500000X1.300000*%
%ADD23R,2.032000X2.032000*%
%ADD24O,2.032000X2.032000*%
%ADD25R,1.100000X4.600000*%
%ADD26R,10.800000X9.400000*%
%ADD27C,0.600000*%
%ADD28C,0.250000*%
%ADD29C,3.000000*%
%ADD30C,1.000000*%
%ADD31C,0.500000*%
%ADD32C,2.000000*%
%ADD33C,1.500000*%
%ADD34C,0.254000*%
G04 APERTURE END LIST*
D10*
D11*
X131191000Y-31242000D03*
X183388000Y-31305500D03*
X131191000Y-100457000D03*
D12*
X177038000Y-34290000D03*
D13*
X172038000Y-34290000D03*
D14*
X163741100Y-97294700D03*
D15*
X166281100Y-97294700D03*
X168821100Y-97294700D03*
X171361100Y-97294700D03*
X173901100Y-97294700D03*
X176441100Y-97294700D03*
D12*
X159639000Y-34290000D03*
D13*
X154639000Y-34290000D03*
D12*
X142240000Y-34290000D03*
D13*
X137240000Y-34290000D03*
D12*
X140144500Y-95377000D03*
D13*
X145144500Y-95377000D03*
D16*
X143891000Y-73215500D03*
X143891000Y-75755500D03*
X143891000Y-78295500D03*
X143891000Y-80835500D03*
X151511000Y-80835500D03*
X151511000Y-78295500D03*
X151511000Y-75755500D03*
X151511000Y-73215500D03*
X164592000Y-73279000D03*
X164592000Y-75819000D03*
X164592000Y-78359000D03*
X164592000Y-80899000D03*
X172212000Y-80899000D03*
X172212000Y-78359000D03*
X172212000Y-75819000D03*
X172212000Y-73279000D03*
D17*
X155448000Y-63734000D03*
X155448000Y-61234000D03*
X172847000Y-63480000D03*
X172847000Y-60980000D03*
X138049000Y-63734000D03*
X138049000Y-61234000D03*
D18*
X176276000Y-60880000D03*
X176276000Y-63580000D03*
X158750000Y-61134000D03*
X158750000Y-63834000D03*
X141478000Y-61134000D03*
X141478000Y-63834000D03*
D11*
X183388000Y-100393500D03*
D19*
X135796020Y-71628000D03*
X133697980Y-71628000D03*
D20*
X139888000Y-79589500D03*
X137988000Y-79589500D03*
X138938000Y-82589500D03*
X140015000Y-71525000D03*
X138115000Y-71525000D03*
X139065000Y-74525000D03*
D21*
X157504000Y-74792800D03*
X157504000Y-76692800D03*
X160504000Y-75742800D03*
D18*
X163766500Y-91266000D03*
X163766500Y-88566000D03*
D22*
X157654000Y-79197200D03*
X160354000Y-79197200D03*
X157654000Y-72390000D03*
X160354000Y-72390000D03*
X135716000Y-82550000D03*
X133016000Y-82550000D03*
X135843000Y-74549000D03*
X133143000Y-74549000D03*
X134827000Y-91821000D03*
X132127000Y-91821000D03*
D19*
X135669020Y-79883000D03*
X133570980Y-79883000D03*
X132110480Y-94678500D03*
X134208520Y-94678500D03*
D23*
X159956500Y-91059000D03*
D24*
X159956500Y-88519000D03*
D23*
X156337000Y-88519000D03*
D24*
X156337000Y-91059000D03*
D23*
X152717500Y-88519000D03*
D24*
X152717500Y-91059000D03*
D25*
X177898000Y-56515000D03*
X176198000Y-56515000D03*
X172798000Y-56515000D03*
D26*
X174498000Y-47365000D03*
D25*
X174498000Y-56515000D03*
X171098000Y-56515000D03*
X160499000Y-56515000D03*
X158799000Y-56515000D03*
X155399000Y-56515000D03*
D26*
X157099000Y-47365000D03*
D25*
X157099000Y-56515000D03*
X153699000Y-56515000D03*
X143100000Y-56515000D03*
X141400000Y-56515000D03*
X138000000Y-56515000D03*
D26*
X139700000Y-47365000D03*
D25*
X139700000Y-56515000D03*
X136300000Y-56515000D03*
D13*
X180022500Y-72169000D03*
D12*
X180022500Y-82169000D03*
D13*
X180022500Y-77169000D03*
D27*
X154838400Y-76708000D03*
X137985500Y-77533500D03*
X138112500Y-69342000D03*
X158089600Y-84328000D03*
X150622000Y-59563000D03*
X133197600Y-56540400D03*
X167767000Y-59563000D03*
X155067000Y-70040500D03*
X154533600Y-84328000D03*
D28*
X163766500Y-91266000D02*
X163766500Y-91325700D01*
X163766500Y-91325700D02*
X166281100Y-93840300D01*
X166281100Y-93840300D02*
X166281100Y-97294700D01*
X157654000Y-72390000D02*
X157654000Y-71860400D01*
X157654000Y-71860400D02*
X162712400Y-66802000D01*
X134827000Y-91821000D02*
X134827000Y-90885000D01*
X134827000Y-90885000D02*
X129984500Y-86042500D01*
D29*
X145144500Y-95377000D02*
X145144500Y-90788500D01*
X140398500Y-86042500D02*
X129984500Y-86042500D01*
X129984500Y-86042500D02*
X129857500Y-86042500D01*
X145144500Y-90788500D02*
X140398500Y-86042500D01*
D28*
X133016000Y-82550000D02*
X133016000Y-82884000D01*
X133016000Y-82884000D02*
X129857500Y-86042500D01*
D29*
X129857500Y-70421500D02*
X129857500Y-86042500D01*
D28*
X133016000Y-82550000D02*
X133016000Y-83011000D01*
D30*
X172212000Y-73279000D02*
X172212000Y-69977000D01*
X172212000Y-69977000D02*
X169037000Y-66802000D01*
X143891000Y-73215500D02*
X144970500Y-73215500D01*
X144970500Y-73215500D02*
X151384000Y-66802000D01*
D31*
X143891000Y-73215500D02*
X143891000Y-72707500D01*
D30*
X155448000Y-61234000D02*
X154325000Y-61234000D01*
X154325000Y-61234000D02*
X151384000Y-64175000D01*
X151384000Y-64175000D02*
X151384000Y-66802000D01*
X169037000Y-66802000D02*
X169037000Y-63627000D01*
X169037000Y-63627000D02*
X171684000Y-60980000D01*
X172847000Y-60980000D02*
X171684000Y-60980000D01*
D29*
X169037000Y-66802000D02*
X162712400Y-66802000D01*
X162712400Y-66802000D02*
X151384000Y-66802000D01*
X151384000Y-66802000D02*
X133477000Y-66802000D01*
D30*
X138049000Y-61234000D02*
X131679000Y-61234000D01*
X131679000Y-61234000D02*
X129794000Y-63119000D01*
D28*
X133143000Y-74549000D02*
X133143000Y-73707000D01*
X133143000Y-73707000D02*
X129857500Y-70421500D01*
D29*
X172038000Y-34290000D02*
X171704000Y-34290000D01*
X171704000Y-34290000D02*
X168275000Y-30861000D01*
X158068000Y-30861000D02*
X154639000Y-34290000D01*
X168275000Y-30861000D02*
X158068000Y-30861000D01*
X137240000Y-34290000D02*
X137240000Y-33067000D01*
X137240000Y-33067000D02*
X139573000Y-30734000D01*
X151083000Y-30734000D02*
X154639000Y-34290000D01*
X139573000Y-30734000D02*
X151083000Y-30734000D01*
X137240000Y-34290000D02*
X137240000Y-34337000D01*
X137240000Y-34337000D02*
X129794000Y-41783000D01*
X129794000Y-41783000D02*
X129794000Y-63119000D01*
X129794000Y-63119000D02*
X133477000Y-66802000D01*
X129857500Y-70421500D02*
X133477000Y-66802000D01*
D32*
X154639000Y-34290000D02*
X154639000Y-34243000D01*
X172038000Y-34290000D02*
X172038000Y-34243000D01*
D30*
X138049000Y-61234000D02*
X138029000Y-61234000D01*
X155448000Y-61234000D02*
X155428000Y-61234000D01*
X172847000Y-60980000D02*
X172827000Y-60980000D01*
X138000000Y-56515000D02*
X138000000Y-61185000D01*
X138000000Y-61185000D02*
X138049000Y-61234000D01*
X155399000Y-56515000D02*
X155399000Y-61185000D01*
X155399000Y-61185000D02*
X155448000Y-61234000D01*
X172798000Y-56261000D02*
X172798000Y-60931000D01*
X172798000Y-60931000D02*
X172847000Y-60980000D01*
D28*
X163846500Y-91059000D02*
X163893500Y-91106000D01*
X164211000Y-91139000D02*
X164211000Y-91567000D01*
X157504000Y-76692800D02*
X154853600Y-76692800D01*
X154853600Y-76692800D02*
X154838400Y-76708000D01*
D30*
X157073600Y-63734000D02*
X157073600Y-56540400D01*
X157073600Y-56540400D02*
X157099000Y-56515000D01*
X155448000Y-63734000D02*
X157073600Y-63734000D01*
X157073600Y-63734000D02*
X158650000Y-63734000D01*
X158650000Y-63734000D02*
X158750000Y-63834000D01*
X157035500Y-56578500D02*
X157099000Y-56515000D01*
X158650000Y-63734000D02*
X158750000Y-63834000D01*
X174561500Y-63480000D02*
X174561500Y-56578500D01*
X174561500Y-56578500D02*
X174498000Y-56515000D01*
X172847000Y-63480000D02*
X174561500Y-63480000D01*
X174561500Y-63480000D02*
X176176000Y-63480000D01*
X176176000Y-63480000D02*
X176276000Y-63580000D01*
X158650000Y-63734000D02*
X158750000Y-63834000D01*
X139763500Y-63734000D02*
X139763500Y-56578500D01*
X139763500Y-56578500D02*
X139700000Y-56515000D01*
X138049000Y-63734000D02*
X139763500Y-63734000D01*
X139763500Y-63734000D02*
X141378000Y-63734000D01*
X141378000Y-63734000D02*
X141478000Y-63834000D01*
D28*
X172212000Y-80899000D02*
X178752500Y-80899000D01*
X178752500Y-80899000D02*
X180022500Y-82169000D01*
X137988000Y-79780000D02*
X137988000Y-77536000D01*
X137988000Y-77536000D02*
X137985500Y-77533500D01*
X138115000Y-71207500D02*
X138115000Y-69344500D01*
X138115000Y-69344500D02*
X138112500Y-69342000D01*
D33*
X177898000Y-56261000D02*
X179578000Y-56261000D01*
X181483000Y-38735000D02*
X177038000Y-34290000D01*
X181483000Y-54356000D02*
X181483000Y-38735000D01*
X179578000Y-56261000D02*
X181483000Y-54356000D01*
D28*
X139888000Y-79589500D02*
X150217000Y-79589500D01*
X150217000Y-79589500D02*
X151511000Y-78295500D01*
X140039000Y-79629000D02*
X139888000Y-79780000D01*
X139827000Y-79653000D02*
X139724000Y-79653000D01*
X139827000Y-79653000D02*
X139827000Y-79375000D01*
X151511000Y-75755500D02*
X145923000Y-75755500D01*
X142912000Y-74422000D02*
X140015000Y-71525000D01*
X144589500Y-74422000D02*
X142912000Y-74422000D01*
X145923000Y-75755500D02*
X144589500Y-74422000D01*
X139827000Y-71525000D02*
X139827000Y-71247000D01*
X163741100Y-97294700D02*
X163741100Y-94843600D01*
X163741100Y-94843600D02*
X159956500Y-91059000D01*
X159956500Y-91059000D02*
X157988000Y-93027500D01*
X143891000Y-85152102D02*
X151766398Y-93027500D01*
X143891000Y-85152102D02*
X143891000Y-80835500D01*
X157988000Y-93027500D02*
X151766398Y-93027500D01*
D33*
X160499000Y-56515000D02*
X162179000Y-56515000D01*
X164084000Y-38735000D02*
X159639000Y-34290000D01*
X164084000Y-54610000D02*
X164084000Y-38735000D01*
X162179000Y-56515000D02*
X164084000Y-54610000D01*
X143100000Y-56515000D02*
X144780000Y-56515000D01*
X146685000Y-38735000D02*
X142240000Y-34290000D01*
X146685000Y-54610000D02*
X146685000Y-38735000D01*
X144780000Y-56515000D02*
X146685000Y-54610000D01*
D28*
X172212000Y-75819000D02*
X176372500Y-75819000D01*
X176372500Y-75819000D02*
X180022500Y-72169000D01*
X172212000Y-78359000D02*
X178832500Y-78359000D01*
X178832500Y-78359000D02*
X180022500Y-77169000D01*
X158115000Y-89281000D02*
X158089600Y-84328000D01*
X158115000Y-89281000D02*
X156337000Y-91059000D01*
D30*
X176198000Y-56261000D02*
X176198000Y-60802000D01*
X176198000Y-60802000D02*
X176276000Y-60880000D01*
X158799000Y-56515000D02*
X158799000Y-61085000D01*
X158799000Y-61085000D02*
X158750000Y-61134000D01*
X141400000Y-56515000D02*
X141400000Y-61056000D01*
X141400000Y-61056000D02*
X141478000Y-61134000D01*
D28*
X153670000Y-56515000D02*
X150622000Y-59563000D01*
X153699000Y-56515000D02*
X153670000Y-56515000D01*
X133197600Y-56540400D02*
X133226600Y-56540400D01*
X136300000Y-56515000D02*
X133226600Y-56540400D01*
X136300000Y-56515000D02*
X136271000Y-56515000D01*
X151511000Y-80835500D02*
X153162000Y-79184500D01*
X167767000Y-59563000D02*
X171069000Y-56261000D01*
X153162000Y-71945500D02*
X155067000Y-70040500D01*
X153162000Y-79184500D02*
X153162000Y-71945500D01*
X171098000Y-56261000D02*
X171069000Y-56261000D01*
X135716000Y-82550000D02*
X138914000Y-82550000D01*
X138914000Y-82804000D02*
X138938000Y-82780000D01*
X135669020Y-80010000D02*
X135669020Y-82503020D01*
X135669020Y-82503020D02*
X135716000Y-82550000D01*
X132127000Y-91821000D02*
X132127000Y-94661980D01*
X132127000Y-94661980D02*
X132110480Y-94678500D01*
X135843000Y-74549000D02*
X139041000Y-74549000D01*
X139041000Y-74549000D02*
X139065000Y-74525000D01*
X138853000Y-74549000D02*
X138877000Y-74525000D01*
X135796020Y-71628000D02*
X135796020Y-74502020D01*
X135796020Y-74502020D02*
X135843000Y-74549000D01*
X160354000Y-79197200D02*
X162890200Y-79197200D01*
X162890200Y-79197200D02*
X164592000Y-80899000D01*
X154559000Y-89217500D02*
X154533600Y-84328000D01*
X152717500Y-91059000D02*
X154559000Y-89217500D01*
X157654000Y-79197200D02*
X154272402Y-79197200D01*
X154315200Y-74792800D02*
X157504000Y-74792800D01*
X153670000Y-75438000D02*
X154315200Y-74792800D01*
X153670000Y-78594798D02*
X153670000Y-75438000D01*
X154272402Y-79197200D02*
X153670000Y-78594798D01*
X157298400Y-79209900D02*
X157298400Y-79187898D01*
X160504000Y-75742800D02*
X164515800Y-75742800D01*
X164515800Y-75742800D02*
X164592000Y-75819000D01*
X160354000Y-72390000D02*
X160354000Y-75592800D01*
X160354000Y-75592800D02*
X160504000Y-75742800D01*
X164592000Y-75819000D02*
X164592000Y-78359000D01*
X159956500Y-88519000D02*
X163719500Y-88519000D01*
X163719500Y-88519000D02*
X163766500Y-88566000D01*
D34*
G36*
X184601098Y-28224082D02*
X185624731Y-28859773D01*
X186327176Y-29838800D01*
X186615000Y-31069895D01*
X186615000Y-100514069D01*
X186366175Y-101764995D01*
X185697196Y-102766196D01*
X184695995Y-103435176D01*
X183445069Y-103684000D01*
X130739177Y-103684000D01*
X129660830Y-103512292D01*
X128802766Y-102985493D01*
X128211616Y-102170426D01*
X127964000Y-101135266D01*
X127964000Y-100985172D01*
X128523538Y-100985172D01*
X128928709Y-101965761D01*
X129678293Y-102716655D01*
X130658173Y-103123536D01*
X131719172Y-103124462D01*
X132699761Y-102719291D01*
X133450655Y-101969707D01*
X133857536Y-100989827D01*
X133857595Y-100921672D01*
X180720538Y-100921672D01*
X181125709Y-101902261D01*
X181875293Y-102653155D01*
X182855173Y-103060036D01*
X183916172Y-103060962D01*
X184896761Y-102655791D01*
X185647655Y-101906207D01*
X186054536Y-100926327D01*
X186055462Y-99865328D01*
X185650291Y-98884739D01*
X184900707Y-98133845D01*
X183920827Y-97726964D01*
X182859828Y-97726038D01*
X181879239Y-98131209D01*
X181128345Y-98880793D01*
X180721464Y-99860673D01*
X180720538Y-100921672D01*
X133857595Y-100921672D01*
X133858462Y-99928828D01*
X133453291Y-98948239D01*
X132703707Y-98197345D01*
X131723827Y-97790464D01*
X130662828Y-97789538D01*
X129682239Y-98194709D01*
X128931345Y-98944293D01*
X128524464Y-99924173D01*
X128523538Y-100985172D01*
X127964000Y-100985172D01*
X127964000Y-86977735D01*
X128347827Y-87552173D01*
X129040471Y-88014983D01*
X129857500Y-88177500D01*
X131044698Y-88177500D01*
X133604674Y-90737476D01*
X133480569Y-90919110D01*
X133477919Y-90932197D01*
X133341090Y-90719559D01*
X133128890Y-90574569D01*
X132877000Y-90523560D01*
X131377000Y-90523560D01*
X131141683Y-90567838D01*
X130925559Y-90706910D01*
X130780569Y-90919110D01*
X130729560Y-91171000D01*
X130729560Y-92471000D01*
X130773838Y-92706317D01*
X130912910Y-92922441D01*
X131125110Y-93067431D01*
X131367000Y-93116415D01*
X131367000Y-93458723D01*
X131275723Y-93475898D01*
X131059599Y-93614970D01*
X130914609Y-93827170D01*
X130863600Y-94079060D01*
X130863600Y-95277940D01*
X130907878Y-95513257D01*
X131046950Y-95729381D01*
X131259150Y-95874371D01*
X131511040Y-95925380D01*
X132709920Y-95925380D01*
X132945237Y-95881102D01*
X133161361Y-95742030D01*
X133166956Y-95733841D01*
X133249382Y-95816267D01*
X133482771Y-95912940D01*
X133922770Y-95912940D01*
X134081520Y-95754190D01*
X134081520Y-94805500D01*
X134335520Y-94805500D01*
X134335520Y-95754190D01*
X134494270Y-95912940D01*
X134934269Y-95912940D01*
X135167658Y-95816267D01*
X135321175Y-95662750D01*
X138259500Y-95662750D01*
X138259500Y-96753310D01*
X138356173Y-96986699D01*
X138534802Y-97165327D01*
X138768191Y-97262000D01*
X139858750Y-97262000D01*
X140017500Y-97103250D01*
X140017500Y-95504000D01*
X140271500Y-95504000D01*
X140271500Y-97103250D01*
X140430250Y-97262000D01*
X141520809Y-97262000D01*
X141754198Y-97165327D01*
X141932827Y-96986699D01*
X142029500Y-96753310D01*
X142029500Y-95662750D01*
X141870750Y-95504000D01*
X140271500Y-95504000D01*
X140017500Y-95504000D01*
X138418250Y-95504000D01*
X138259500Y-95662750D01*
X135321175Y-95662750D01*
X135346287Y-95637639D01*
X135442960Y-95404250D01*
X135442960Y-94964250D01*
X135284210Y-94805500D01*
X134335520Y-94805500D01*
X134081520Y-94805500D01*
X134061520Y-94805500D01*
X134061520Y-94551500D01*
X134081520Y-94551500D01*
X134081520Y-93602810D01*
X134335520Y-93602810D01*
X134335520Y-94551500D01*
X135284210Y-94551500D01*
X135442960Y-94392750D01*
X135442960Y-94000690D01*
X138259500Y-94000690D01*
X138259500Y-95091250D01*
X138418250Y-95250000D01*
X140017500Y-95250000D01*
X140017500Y-93650750D01*
X140271500Y-93650750D01*
X140271500Y-95250000D01*
X141870750Y-95250000D01*
X142029500Y-95091250D01*
X142029500Y-94000690D01*
X141932827Y-93767301D01*
X141754198Y-93588673D01*
X141520809Y-93492000D01*
X140430250Y-93492000D01*
X140271500Y-93650750D01*
X140017500Y-93650750D01*
X139858750Y-93492000D01*
X138768191Y-93492000D01*
X138534802Y-93588673D01*
X138356173Y-93767301D01*
X138259500Y-94000690D01*
X135442960Y-94000690D01*
X135442960Y-93952750D01*
X135346287Y-93719361D01*
X135167658Y-93540733D01*
X134934269Y-93444060D01*
X134494270Y-93444060D01*
X134335520Y-93602810D01*
X134081520Y-93602810D01*
X133922770Y-93444060D01*
X133482771Y-93444060D01*
X133249382Y-93540733D01*
X133167169Y-93622945D01*
X132961810Y-93482629D01*
X132887000Y-93467480D01*
X132887000Y-93116558D01*
X133112317Y-93074162D01*
X133328441Y-92935090D01*
X133473431Y-92722890D01*
X133476081Y-92709803D01*
X133612910Y-92922441D01*
X133825110Y-93067431D01*
X134077000Y-93118440D01*
X135577000Y-93118440D01*
X135812317Y-93074162D01*
X136028441Y-92935090D01*
X136173431Y-92722890D01*
X136224440Y-92471000D01*
X136224440Y-91171000D01*
X136180162Y-90935683D01*
X136041090Y-90719559D01*
X135828890Y-90574569D01*
X135577000Y-90523560D01*
X135481975Y-90523560D01*
X135364401Y-90347599D01*
X133194302Y-88177500D01*
X139514154Y-88177500D01*
X143009500Y-91672846D01*
X143009500Y-95377000D01*
X143172017Y-96194029D01*
X143634827Y-96886673D01*
X144327471Y-97349483D01*
X145144500Y-97512000D01*
X145961529Y-97349483D01*
X146654173Y-96886673D01*
X147116983Y-96194029D01*
X147279500Y-95377000D01*
X147279500Y-90788500D01*
X147116983Y-89971471D01*
X146654173Y-89278827D01*
X141908173Y-84532827D01*
X141215529Y-84070017D01*
X140398500Y-83907500D01*
X139855096Y-83907500D01*
X139934431Y-83791390D01*
X139985440Y-83539500D01*
X139985440Y-81639500D01*
X139941162Y-81404183D01*
X139802090Y-81188059D01*
X139800452Y-81186940D01*
X140288000Y-81186940D01*
X140523317Y-81142662D01*
X140739441Y-81003590D01*
X140884431Y-80791390D01*
X140935440Y-80539500D01*
X140935440Y-80349500D01*
X142524558Y-80349500D01*
X142427887Y-80835500D01*
X142537120Y-81384651D01*
X142848189Y-81850198D01*
X143131000Y-82039167D01*
X143131000Y-85152102D01*
X143188852Y-85442941D01*
X143353599Y-85689503D01*
X151228997Y-93564901D01*
X151475559Y-93729648D01*
X151766398Y-93787500D01*
X157988000Y-93787500D01*
X158278839Y-93729648D01*
X158525401Y-93564901D01*
X159367862Y-92722440D01*
X160545138Y-92722440D01*
X162981100Y-95158402D01*
X162981100Y-95631260D01*
X162877500Y-95631260D01*
X162642183Y-95675538D01*
X162426059Y-95814610D01*
X162281069Y-96026810D01*
X162230060Y-96278700D01*
X162230060Y-98310700D01*
X162274338Y-98546017D01*
X162413410Y-98762141D01*
X162625610Y-98907131D01*
X162877500Y-98958140D01*
X164604700Y-98958140D01*
X164840017Y-98913862D01*
X165056141Y-98774790D01*
X165201131Y-98562590D01*
X165209500Y-98521261D01*
X165221430Y-98539115D01*
X165707611Y-98863971D01*
X166281100Y-98978045D01*
X166854589Y-98863971D01*
X167340770Y-98539115D01*
X167547561Y-98229631D01*
X167919064Y-98645432D01*
X168446309Y-98899409D01*
X168462074Y-98902058D01*
X168694100Y-98780917D01*
X168694100Y-97421700D01*
X168674100Y-97421700D01*
X168674100Y-97167700D01*
X168694100Y-97167700D01*
X168694100Y-95808483D01*
X168948100Y-95808483D01*
X168948100Y-97167700D01*
X168968100Y-97167700D01*
X168968100Y-97421700D01*
X168948100Y-97421700D01*
X168948100Y-98780917D01*
X169180126Y-98902058D01*
X169195891Y-98899409D01*
X169723136Y-98645432D01*
X170094639Y-98229631D01*
X170301430Y-98539115D01*
X170787611Y-98863971D01*
X171361100Y-98978045D01*
X171934589Y-98863971D01*
X172420770Y-98539115D01*
X172631100Y-98224334D01*
X172841430Y-98539115D01*
X173327611Y-98863971D01*
X173901100Y-98978045D01*
X174474589Y-98863971D01*
X174960770Y-98539115D01*
X175171100Y-98224334D01*
X175381430Y-98539115D01*
X175867611Y-98863971D01*
X176441100Y-98978045D01*
X177014589Y-98863971D01*
X177500770Y-98539115D01*
X177825626Y-98052934D01*
X177939700Y-97479445D01*
X177939700Y-97109955D01*
X177825626Y-96536466D01*
X177500770Y-96050285D01*
X177014589Y-95725429D01*
X176441100Y-95611355D01*
X175867611Y-95725429D01*
X175381430Y-96050285D01*
X175171100Y-96365066D01*
X174960770Y-96050285D01*
X174474589Y-95725429D01*
X173901100Y-95611355D01*
X173327611Y-95725429D01*
X172841430Y-96050285D01*
X172631100Y-96365066D01*
X172420770Y-96050285D01*
X171934589Y-95725429D01*
X171361100Y-95611355D01*
X170787611Y-95725429D01*
X170301430Y-96050285D01*
X170094639Y-96359769D01*
X169723136Y-95943968D01*
X169195891Y-95689991D01*
X169180126Y-95687342D01*
X168948100Y-95808483D01*
X168694100Y-95808483D01*
X168462074Y-95687342D01*
X168446309Y-95689991D01*
X167919064Y-95943968D01*
X167547561Y-96359769D01*
X167340770Y-96050285D01*
X167041100Y-95850052D01*
X167041100Y-93840300D01*
X166983248Y-93549461D01*
X166983248Y-93549460D01*
X166818501Y-93302899D01*
X165063940Y-91548338D01*
X165063940Y-90516000D01*
X165019662Y-90280683D01*
X164880590Y-90064559D01*
X164668390Y-89919569D01*
X164655303Y-89916919D01*
X164867941Y-89780090D01*
X165012931Y-89567890D01*
X165063940Y-89316000D01*
X165063940Y-87816000D01*
X165019662Y-87580683D01*
X164880590Y-87364559D01*
X164668390Y-87219569D01*
X164416500Y-87168560D01*
X163116500Y-87168560D01*
X162881183Y-87212838D01*
X162665059Y-87351910D01*
X162520069Y-87564110D01*
X162480603Y-87759000D01*
X161428516Y-87759000D01*
X161156278Y-87351567D01*
X160620655Y-86993675D01*
X159988845Y-86868000D01*
X159924155Y-86868000D01*
X159292345Y-86993675D01*
X158864745Y-87279388D01*
X158852480Y-84887588D01*
X158881792Y-84858327D01*
X159024438Y-84514799D01*
X159024762Y-84142833D01*
X158882717Y-83799057D01*
X158619927Y-83535808D01*
X158276399Y-83393162D01*
X157904433Y-83392838D01*
X157560657Y-83534883D01*
X157297408Y-83797673D01*
X157154762Y-84141201D01*
X157154438Y-84513167D01*
X157296483Y-84856943D01*
X157332488Y-84893010D01*
X157342552Y-86855560D01*
X155321000Y-86855560D01*
X155306755Y-86858240D01*
X155296517Y-84887551D01*
X155325792Y-84858327D01*
X155468438Y-84514799D01*
X155468762Y-84142833D01*
X155326717Y-83799057D01*
X155063927Y-83535808D01*
X154720399Y-83393162D01*
X154348433Y-83392838D01*
X154004657Y-83534883D01*
X153741408Y-83797673D01*
X153598762Y-84141201D01*
X153598438Y-84513167D01*
X153740483Y-84856943D01*
X153776525Y-84893048D01*
X153786776Y-86866349D01*
X153733500Y-86855560D01*
X151701500Y-86855560D01*
X151466183Y-86899838D01*
X151250059Y-87038910D01*
X151105069Y-87251110D01*
X151054060Y-87503000D01*
X151054060Y-89535000D01*
X151098338Y-89770317D01*
X151237410Y-89986441D01*
X151386337Y-90088198D01*
X151159830Y-90427190D01*
X151034155Y-91059000D01*
X151074245Y-91260545D01*
X144651000Y-84837300D01*
X144651000Y-82454750D01*
X178137500Y-82454750D01*
X178137500Y-83545309D01*
X178234173Y-83778698D01*
X178412801Y-83957327D01*
X178646190Y-84054000D01*
X179736750Y-84054000D01*
X179895500Y-83895250D01*
X179895500Y-82296000D01*
X180149500Y-82296000D01*
X180149500Y-83895250D01*
X180308250Y-84054000D01*
X181398810Y-84054000D01*
X181632199Y-83957327D01*
X181810827Y-83778698D01*
X181907500Y-83545309D01*
X181907500Y-82454750D01*
X181748750Y-82296000D01*
X180149500Y-82296000D01*
X179895500Y-82296000D01*
X178296250Y-82296000D01*
X178137500Y-82454750D01*
X144651000Y-82454750D01*
X144651000Y-82039167D01*
X144933811Y-81850198D01*
X145244880Y-81384651D01*
X145354113Y-80835500D01*
X145257442Y-80349500D01*
X150144558Y-80349500D01*
X150047887Y-80835500D01*
X150157120Y-81384651D01*
X150468189Y-81850198D01*
X150933736Y-82161267D01*
X151482887Y-82270500D01*
X151539113Y-82270500D01*
X152088264Y-82161267D01*
X152553811Y-81850198D01*
X152864880Y-81384651D01*
X152974113Y-80835500D01*
X152909688Y-80511614D01*
X153699401Y-79721901D01*
X153708573Y-79708173D01*
X153735001Y-79734601D01*
X153981563Y-79899348D01*
X154272402Y-79957200D01*
X156277258Y-79957200D01*
X156300838Y-80082517D01*
X156439910Y-80298641D01*
X156652110Y-80443631D01*
X156904000Y-80494640D01*
X158404000Y-80494640D01*
X158639317Y-80450362D01*
X158855441Y-80311290D01*
X159000431Y-80099090D01*
X159003081Y-80086003D01*
X159139910Y-80298641D01*
X159352110Y-80443631D01*
X159604000Y-80494640D01*
X161104000Y-80494640D01*
X161339317Y-80450362D01*
X161555441Y-80311290D01*
X161700431Y-80099090D01*
X161729164Y-79957200D01*
X162575398Y-79957200D01*
X163193312Y-80575114D01*
X163128887Y-80899000D01*
X163238120Y-81448151D01*
X163549189Y-81913698D01*
X164014736Y-82224767D01*
X164563887Y-82334000D01*
X164620113Y-82334000D01*
X165169264Y-82224767D01*
X165634811Y-81913698D01*
X165945880Y-81448151D01*
X165985684Y-81248039D01*
X170820096Y-81248039D01*
X170980959Y-81636423D01*
X171356866Y-82051389D01*
X171862959Y-82290914D01*
X172085000Y-82169629D01*
X172085000Y-81026000D01*
X172339000Y-81026000D01*
X172339000Y-82169629D01*
X172561041Y-82290914D01*
X173067134Y-82051389D01*
X173443041Y-81636423D01*
X173603904Y-81248039D01*
X173481915Y-81026000D01*
X172339000Y-81026000D01*
X172085000Y-81026000D01*
X170942085Y-81026000D01*
X170820096Y-81248039D01*
X165985684Y-81248039D01*
X166055113Y-80899000D01*
X166033967Y-80792691D01*
X178137500Y-80792691D01*
X178137500Y-81883250D01*
X178296250Y-82042000D01*
X179895500Y-82042000D01*
X179895500Y-80442750D01*
X180149500Y-80442750D01*
X180149500Y-82042000D01*
X181748750Y-82042000D01*
X181907500Y-81883250D01*
X181907500Y-80792691D01*
X181810827Y-80559302D01*
X181632199Y-80380673D01*
X181398810Y-80284000D01*
X180308250Y-80284000D01*
X180149500Y-80442750D01*
X179895500Y-80442750D01*
X179736750Y-80284000D01*
X178646190Y-80284000D01*
X178412801Y-80380673D01*
X178234173Y-80559302D01*
X178137500Y-80792691D01*
X166033967Y-80792691D01*
X165945880Y-80349849D01*
X165634811Y-79884302D01*
X165252725Y-79629000D01*
X165634811Y-79373698D01*
X165945880Y-78908151D01*
X166055113Y-78359000D01*
X165945880Y-77809849D01*
X165634811Y-77344302D01*
X165352000Y-77155333D01*
X165352000Y-77022667D01*
X165634811Y-76833698D01*
X165945880Y-76368151D01*
X166055113Y-75819000D01*
X165945880Y-75269849D01*
X165634811Y-74804302D01*
X165252725Y-74549000D01*
X165634811Y-74293698D01*
X165945880Y-73828151D01*
X166055113Y-73279000D01*
X165945880Y-72729849D01*
X165634811Y-72264302D01*
X165169264Y-71953233D01*
X164620113Y-71844000D01*
X164563887Y-71844000D01*
X164014736Y-71953233D01*
X163549189Y-72264302D01*
X163238120Y-72729849D01*
X163128887Y-73279000D01*
X163238120Y-73828151D01*
X163549189Y-74293698D01*
X163931275Y-74549000D01*
X163549189Y-74804302D01*
X163429920Y-74982800D01*
X161976931Y-74982800D01*
X161918090Y-74891359D01*
X161705890Y-74746369D01*
X161454000Y-74695360D01*
X161114000Y-74695360D01*
X161114000Y-73685558D01*
X161339317Y-73643162D01*
X161555441Y-73504090D01*
X161700431Y-73291890D01*
X161751440Y-73040000D01*
X161751440Y-71740000D01*
X161707162Y-71504683D01*
X161568090Y-71288559D01*
X161355890Y-71143569D01*
X161104000Y-71092560D01*
X159604000Y-71092560D01*
X159471759Y-71117443D01*
X161652202Y-68937000D01*
X169037000Y-68937000D01*
X169478957Y-68849089D01*
X171077000Y-70447132D01*
X171077000Y-72402272D01*
X170858120Y-72729849D01*
X170748887Y-73279000D01*
X170858120Y-73828151D01*
X171169189Y-74293698D01*
X171551275Y-74549000D01*
X171169189Y-74804302D01*
X170858120Y-75269849D01*
X170748887Y-75819000D01*
X170858120Y-76368151D01*
X171169189Y-76833698D01*
X171551275Y-77089000D01*
X171169189Y-77344302D01*
X170858120Y-77809849D01*
X170748887Y-78359000D01*
X170858120Y-78908151D01*
X171169189Y-79373698D01*
X171573703Y-79643986D01*
X171356866Y-79746611D01*
X170980959Y-80161577D01*
X170820096Y-80549961D01*
X170942085Y-80772000D01*
X172085000Y-80772000D01*
X172085000Y-80752000D01*
X172339000Y-80752000D01*
X172339000Y-80772000D01*
X173481915Y-80772000D01*
X173603904Y-80549961D01*
X173443041Y-80161577D01*
X173067134Y-79746611D01*
X172850297Y-79643986D01*
X173254811Y-79373698D01*
X173424995Y-79119000D01*
X178832500Y-79119000D01*
X179123339Y-79061148D01*
X179330522Y-78922713D01*
X179645905Y-79053672D01*
X180395805Y-79054326D01*
X181088872Y-78767957D01*
X181619593Y-78238161D01*
X181907172Y-77545595D01*
X181907826Y-76795695D01*
X181621457Y-76102628D01*
X181091661Y-75571907D01*
X180399095Y-75284328D01*
X179649195Y-75283674D01*
X178956128Y-75570043D01*
X178425407Y-76099839D01*
X178137828Y-76792405D01*
X178137174Y-77542305D01*
X178160600Y-77599000D01*
X173424995Y-77599000D01*
X173254811Y-77344302D01*
X172872725Y-77089000D01*
X173254811Y-76833698D01*
X173424995Y-76579000D01*
X176372500Y-76579000D01*
X176663339Y-76521148D01*
X176909901Y-76356401D01*
X179339755Y-73926547D01*
X179645905Y-74053672D01*
X180395805Y-74054326D01*
X181088872Y-73767957D01*
X181619593Y-73238161D01*
X181907172Y-72545595D01*
X181907826Y-71795695D01*
X181621457Y-71102628D01*
X181091661Y-70571907D01*
X180399095Y-70284328D01*
X179649195Y-70283674D01*
X178956128Y-70570043D01*
X178425407Y-71099839D01*
X178137828Y-71792405D01*
X178137174Y-72542305D01*
X178265009Y-72851689D01*
X176057698Y-75059000D01*
X173424995Y-75059000D01*
X173254811Y-74804302D01*
X172872725Y-74549000D01*
X173254811Y-74293698D01*
X173565880Y-73828151D01*
X173675113Y-73279000D01*
X173565880Y-72729849D01*
X173347000Y-72402272D01*
X173347000Y-69977000D01*
X173260603Y-69542654D01*
X173014566Y-69174434D01*
X171084089Y-67243957D01*
X171172000Y-66802000D01*
X171009483Y-65984971D01*
X170546673Y-65292327D01*
X170172000Y-65041978D01*
X170172000Y-64097132D01*
X170503382Y-63765750D01*
X171587000Y-63765750D01*
X171587000Y-64356309D01*
X171683673Y-64589698D01*
X171862301Y-64768327D01*
X172095690Y-64865000D01*
X172561250Y-64865000D01*
X172720000Y-64706250D01*
X172720000Y-63607000D01*
X172974000Y-63607000D01*
X172974000Y-64706250D01*
X173132750Y-64865000D01*
X173598310Y-64865000D01*
X173831699Y-64768327D01*
X174010327Y-64589698D01*
X174107000Y-64356309D01*
X174107000Y-63865750D01*
X174991000Y-63865750D01*
X174991000Y-64456309D01*
X175087673Y-64689698D01*
X175266301Y-64868327D01*
X175499690Y-64965000D01*
X175990250Y-64965000D01*
X176149000Y-64806250D01*
X176149000Y-63707000D01*
X176403000Y-63707000D01*
X176403000Y-64806250D01*
X176561750Y-64965000D01*
X177052310Y-64965000D01*
X177285699Y-64868327D01*
X177464327Y-64689698D01*
X177561000Y-64456309D01*
X177561000Y-63865750D01*
X177402250Y-63707000D01*
X176403000Y-63707000D01*
X176149000Y-63707000D01*
X175149750Y-63707000D01*
X174991000Y-63865750D01*
X174107000Y-63865750D01*
X174107000Y-63765750D01*
X173948250Y-63607000D01*
X172974000Y-63607000D01*
X172720000Y-63607000D01*
X171745750Y-63607000D01*
X171587000Y-63765750D01*
X170503382Y-63765750D01*
X171587000Y-62682132D01*
X171587000Y-63194250D01*
X171745750Y-63353000D01*
X172720000Y-63353000D01*
X172720000Y-63333000D01*
X172974000Y-63333000D01*
X172974000Y-63353000D01*
X173948250Y-63353000D01*
X174107000Y-63194250D01*
X174107000Y-62603691D01*
X174010327Y-62370302D01*
X173869090Y-62229064D01*
X173923441Y-62194090D01*
X174068431Y-61981890D01*
X174119440Y-61730000D01*
X174119440Y-60230000D01*
X174075162Y-59994683D01*
X173936090Y-59778559D01*
X173933000Y-59776448D01*
X173933000Y-59450000D01*
X174212250Y-59450000D01*
X174371000Y-59291250D01*
X174371000Y-56642000D01*
X174351000Y-56642000D01*
X174351000Y-56388000D01*
X174371000Y-56388000D01*
X174371000Y-53738750D01*
X174212250Y-53580000D01*
X173821690Y-53580000D01*
X173648459Y-53651755D01*
X173599890Y-53618569D01*
X173348000Y-53567560D01*
X172248000Y-53567560D01*
X172012683Y-53611838D01*
X171949522Y-53652481D01*
X171899890Y-53618569D01*
X171648000Y-53567560D01*
X170548000Y-53567560D01*
X170312683Y-53611838D01*
X170096559Y-53750910D01*
X169951569Y-53963110D01*
X169900560Y-54215000D01*
X169900560Y-56354638D01*
X167627320Y-58627878D01*
X167581833Y-58627838D01*
X167238057Y-58769883D01*
X166974808Y-59032673D01*
X166832162Y-59376201D01*
X166831838Y-59748167D01*
X166973883Y-60091943D01*
X167236673Y-60355192D01*
X167580201Y-60497838D01*
X167952167Y-60498162D01*
X168295943Y-60356117D01*
X168559192Y-60093327D01*
X168701838Y-59749799D01*
X168701879Y-59702923D01*
X169900560Y-58504242D01*
X169900560Y-58815000D01*
X169944838Y-59050317D01*
X170083910Y-59266441D01*
X170296110Y-59411431D01*
X170548000Y-59462440D01*
X171648000Y-59462440D01*
X171663000Y-59459618D01*
X171663000Y-59849177D01*
X171249654Y-59931397D01*
X170881434Y-60177434D01*
X168234434Y-62824434D01*
X167988397Y-63192654D01*
X167902000Y-63627000D01*
X167902000Y-64667000D01*
X160035000Y-64667000D01*
X160035000Y-64119750D01*
X159876250Y-63961000D01*
X158877000Y-63961000D01*
X158877000Y-63981000D01*
X158623000Y-63981000D01*
X158623000Y-63961000D01*
X157623750Y-63961000D01*
X157465000Y-64119750D01*
X157465000Y-64667000D01*
X156684518Y-64667000D01*
X156708000Y-64610309D01*
X156708000Y-64019750D01*
X156549250Y-63861000D01*
X155575000Y-63861000D01*
X155575000Y-63881000D01*
X155321000Y-63881000D01*
X155321000Y-63861000D01*
X154346750Y-63861000D01*
X154188000Y-64019750D01*
X154188000Y-64610309D01*
X154211482Y-64667000D01*
X152519000Y-64667000D01*
X152519000Y-64645132D01*
X154188000Y-62976132D01*
X154188000Y-63448250D01*
X154346750Y-63607000D01*
X155321000Y-63607000D01*
X155321000Y-63587000D01*
X155575000Y-63587000D01*
X155575000Y-63607000D01*
X156549250Y-63607000D01*
X156708000Y-63448250D01*
X156708000Y-62857691D01*
X156611327Y-62624302D01*
X156470090Y-62483064D01*
X156524441Y-62448090D01*
X156669431Y-62235890D01*
X156720440Y-61984000D01*
X156720440Y-60484000D01*
X156676162Y-60248683D01*
X156537090Y-60032559D01*
X156534000Y-60030448D01*
X156534000Y-59450000D01*
X156813250Y-59450000D01*
X156972000Y-59291250D01*
X156972000Y-56642000D01*
X156952000Y-56642000D01*
X156952000Y-56388000D01*
X156972000Y-56388000D01*
X156972000Y-53738750D01*
X156813250Y-53580000D01*
X156422690Y-53580000D01*
X156249459Y-53651755D01*
X156200890Y-53618569D01*
X155949000Y-53567560D01*
X154849000Y-53567560D01*
X154613683Y-53611838D01*
X154550522Y-53652481D01*
X154500890Y-53618569D01*
X154249000Y-53567560D01*
X153149000Y-53567560D01*
X152913683Y-53611838D01*
X152697559Y-53750910D01*
X152552569Y-53963110D01*
X152501560Y-54215000D01*
X152501560Y-56608638D01*
X150482320Y-58627878D01*
X150436833Y-58627838D01*
X150093057Y-58769883D01*
X149829808Y-59032673D01*
X149687162Y-59376201D01*
X149686838Y-59748167D01*
X149828883Y-60091943D01*
X150091673Y-60355192D01*
X150435201Y-60497838D01*
X150807167Y-60498162D01*
X151150943Y-60356117D01*
X151414192Y-60093327D01*
X151556838Y-59749799D01*
X151556879Y-59702923D01*
X152501560Y-58758242D01*
X152501560Y-58815000D01*
X152545838Y-59050317D01*
X152684910Y-59266441D01*
X152897110Y-59411431D01*
X153149000Y-59462440D01*
X154249000Y-59462440D01*
X154264000Y-59459618D01*
X154264000Y-60111134D01*
X153890654Y-60185397D01*
X153636538Y-60355192D01*
X153522434Y-60431434D01*
X150581434Y-63372434D01*
X150335397Y-63740654D01*
X150249000Y-64175000D01*
X150249000Y-64667000D01*
X142763000Y-64667000D01*
X142763000Y-64119750D01*
X142604250Y-63961000D01*
X141605000Y-63961000D01*
X141605000Y-63981000D01*
X141351000Y-63981000D01*
X141351000Y-63961000D01*
X140351750Y-63961000D01*
X140193000Y-64119750D01*
X140193000Y-64667000D01*
X139285518Y-64667000D01*
X139309000Y-64610309D01*
X139309000Y-64019750D01*
X139150250Y-63861000D01*
X138176000Y-63861000D01*
X138176000Y-63881000D01*
X137922000Y-63881000D01*
X137922000Y-63861000D01*
X136947750Y-63861000D01*
X136789000Y-64019750D01*
X136789000Y-64610309D01*
X136812482Y-64667000D01*
X134361346Y-64667000D01*
X132106239Y-62411893D01*
X132149133Y-62369000D01*
X136917156Y-62369000D01*
X136959910Y-62435441D01*
X137028006Y-62481969D01*
X136885673Y-62624302D01*
X136789000Y-62857691D01*
X136789000Y-63448250D01*
X136947750Y-63607000D01*
X137922000Y-63607000D01*
X137922000Y-63587000D01*
X138176000Y-63587000D01*
X138176000Y-63607000D01*
X139150250Y-63607000D01*
X139309000Y-63448250D01*
X139309000Y-62857691D01*
X139212327Y-62624302D01*
X139071090Y-62483064D01*
X139125441Y-62448090D01*
X139270431Y-62235890D01*
X139321440Y-61984000D01*
X139321440Y-60484000D01*
X139277162Y-60248683D01*
X139138090Y-60032559D01*
X139135000Y-60030448D01*
X139135000Y-59450000D01*
X139414250Y-59450000D01*
X139573000Y-59291250D01*
X139573000Y-56642000D01*
X139553000Y-56642000D01*
X139553000Y-56388000D01*
X139573000Y-56388000D01*
X139573000Y-53738750D01*
X139414250Y-53580000D01*
X139023690Y-53580000D01*
X138850459Y-53651755D01*
X138801890Y-53618569D01*
X138550000Y-53567560D01*
X137450000Y-53567560D01*
X137214683Y-53611838D01*
X137151522Y-53652481D01*
X137101890Y-53618569D01*
X136850000Y-53567560D01*
X135750000Y-53567560D01*
X135514683Y-53611838D01*
X135298559Y-53750910D01*
X135153569Y-53963110D01*
X135102560Y-54215000D01*
X135102560Y-55764870D01*
X133755672Y-55776002D01*
X133727927Y-55748208D01*
X133384399Y-55605562D01*
X133012433Y-55605238D01*
X132668657Y-55747283D01*
X132405408Y-56010073D01*
X132262762Y-56353601D01*
X132262438Y-56725567D01*
X132404483Y-57069343D01*
X132667273Y-57332592D01*
X133010801Y-57475238D01*
X133382767Y-57475562D01*
X133726543Y-57333517D01*
X133764142Y-57295983D01*
X135102560Y-57284922D01*
X135102560Y-58815000D01*
X135146838Y-59050317D01*
X135285910Y-59266441D01*
X135498110Y-59411431D01*
X135750000Y-59462440D01*
X136850000Y-59462440D01*
X136865000Y-59459618D01*
X136865000Y-60099000D01*
X131929000Y-60099000D01*
X131929000Y-47650750D01*
X133665000Y-47650750D01*
X133665000Y-52191309D01*
X133761673Y-52424698D01*
X133940301Y-52603327D01*
X134173690Y-52700000D01*
X139414250Y-52700000D01*
X139573000Y-52541250D01*
X139573000Y-47492000D01*
X133823750Y-47492000D01*
X133665000Y-47650750D01*
X131929000Y-47650750D01*
X131929000Y-42667346D01*
X132057655Y-42538691D01*
X133665000Y-42538691D01*
X133665000Y-47079250D01*
X133823750Y-47238000D01*
X139573000Y-47238000D01*
X139573000Y-42188750D01*
X139414250Y-42030000D01*
X134173690Y-42030000D01*
X133940301Y-42126673D01*
X133761673Y-42305302D01*
X133665000Y-42538691D01*
X132057655Y-42538691D01*
X138749673Y-35846673D01*
X139212483Y-35154029D01*
X139375000Y-34337000D01*
X139375000Y-33951346D01*
X140356834Y-32969512D01*
X140342560Y-33040000D01*
X140342560Y-35540000D01*
X140386838Y-35775317D01*
X140525910Y-35991441D01*
X140738110Y-36136431D01*
X140990000Y-36187440D01*
X142178754Y-36187440D01*
X145300000Y-39308686D01*
X145300000Y-42060523D01*
X145226310Y-42030000D01*
X139985750Y-42030000D01*
X139827000Y-42188750D01*
X139827000Y-47238000D01*
X139847000Y-47238000D01*
X139847000Y-47492000D01*
X139827000Y-47492000D01*
X139827000Y-52541250D01*
X139985750Y-52700000D01*
X145226310Y-52700000D01*
X145300000Y-52669477D01*
X145300000Y-54036314D01*
X144297440Y-55038874D01*
X144297440Y-54215000D01*
X144253162Y-53979683D01*
X144114090Y-53763559D01*
X143901890Y-53618569D01*
X143650000Y-53567560D01*
X142550000Y-53567560D01*
X142314683Y-53611838D01*
X142251522Y-53652481D01*
X142201890Y-53618569D01*
X141950000Y-53567560D01*
X140850000Y-53567560D01*
X140614683Y-53611838D01*
X140551433Y-53652538D01*
X140376310Y-53580000D01*
X139985750Y-53580000D01*
X139827000Y-53738750D01*
X139827000Y-56388000D01*
X139847000Y-56388000D01*
X139847000Y-56642000D01*
X139827000Y-56642000D01*
X139827000Y-59291250D01*
X139985750Y-59450000D01*
X140265000Y-59450000D01*
X140265000Y-60083182D01*
X140231569Y-60132110D01*
X140180560Y-60384000D01*
X140180560Y-61884000D01*
X140224838Y-62119317D01*
X140363910Y-62335441D01*
X140576110Y-62480431D01*
X140609490Y-62487191D01*
X140468301Y-62545673D01*
X140289673Y-62724302D01*
X140193000Y-62957691D01*
X140193000Y-63548250D01*
X140351750Y-63707000D01*
X141351000Y-63707000D01*
X141351000Y-63687000D01*
X141605000Y-63687000D01*
X141605000Y-63707000D01*
X142604250Y-63707000D01*
X142763000Y-63548250D01*
X142763000Y-62957691D01*
X142666327Y-62724302D01*
X142487699Y-62545673D01*
X142351713Y-62489346D01*
X142363317Y-62487162D01*
X142579441Y-62348090D01*
X142724431Y-62135890D01*
X142775440Y-61884000D01*
X142775440Y-60384000D01*
X142731162Y-60148683D01*
X142592090Y-59932559D01*
X142535000Y-59893551D01*
X142535000Y-59459402D01*
X142550000Y-59462440D01*
X143650000Y-59462440D01*
X143885317Y-59418162D01*
X144101441Y-59279090D01*
X144246431Y-59066890D01*
X144297440Y-58815000D01*
X144297440Y-57900000D01*
X144780000Y-57900000D01*
X145310017Y-57794573D01*
X145759343Y-57494343D01*
X147664343Y-55589343D01*
X147746493Y-55466397D01*
X147964573Y-55140017D01*
X148070000Y-54610000D01*
X148070000Y-47650750D01*
X151064000Y-47650750D01*
X151064000Y-52191309D01*
X151160673Y-52424698D01*
X151339301Y-52603327D01*
X151572690Y-52700000D01*
X156813250Y-52700000D01*
X156972000Y-52541250D01*
X156972000Y-47492000D01*
X151222750Y-47492000D01*
X151064000Y-47650750D01*
X148070000Y-47650750D01*
X148070000Y-42538691D01*
X151064000Y-42538691D01*
X151064000Y-47079250D01*
X151222750Y-47238000D01*
X156972000Y-47238000D01*
X156972000Y-42188750D01*
X156813250Y-42030000D01*
X151572690Y-42030000D01*
X151339301Y-42126673D01*
X151160673Y-42305302D01*
X151064000Y-42538691D01*
X148070000Y-42538691D01*
X148070000Y-38735000D01*
X147964573Y-38204983D01*
X147664343Y-37755657D01*
X144137440Y-34228754D01*
X144137440Y-33040000D01*
X144105264Y-32869000D01*
X150198654Y-32869000D01*
X153129327Y-35799673D01*
X153821970Y-36262483D01*
X154639000Y-36425000D01*
X155456029Y-36262483D01*
X156148673Y-35799673D01*
X157741560Y-34206786D01*
X157741560Y-35540000D01*
X157785838Y-35775317D01*
X157924910Y-35991441D01*
X158137110Y-36136431D01*
X158389000Y-36187440D01*
X159577754Y-36187440D01*
X162699000Y-39308686D01*
X162699000Y-42060523D01*
X162625310Y-42030000D01*
X157384750Y-42030000D01*
X157226000Y-42188750D01*
X157226000Y-47238000D01*
X157246000Y-47238000D01*
X157246000Y-47492000D01*
X157226000Y-47492000D01*
X157226000Y-52541250D01*
X157384750Y-52700000D01*
X162625310Y-52700000D01*
X162699000Y-52669477D01*
X162699000Y-54036314D01*
X161696440Y-55038874D01*
X161696440Y-54215000D01*
X161652162Y-53979683D01*
X161513090Y-53763559D01*
X161300890Y-53618569D01*
X161049000Y-53567560D01*
X159949000Y-53567560D01*
X159713683Y-53611838D01*
X159650522Y-53652481D01*
X159600890Y-53618569D01*
X159349000Y-53567560D01*
X158249000Y-53567560D01*
X158013683Y-53611838D01*
X157950433Y-53652538D01*
X157775310Y-53580000D01*
X157384750Y-53580000D01*
X157226000Y-53738750D01*
X157226000Y-56388000D01*
X157246000Y-56388000D01*
X157246000Y-56642000D01*
X157226000Y-56642000D01*
X157226000Y-59291250D01*
X157384750Y-59450000D01*
X157664000Y-59450000D01*
X157664000Y-59909974D01*
X157648559Y-59919910D01*
X157503569Y-60132110D01*
X157452560Y-60384000D01*
X157452560Y-61884000D01*
X157496838Y-62119317D01*
X157635910Y-62335441D01*
X157848110Y-62480431D01*
X157881490Y-62487191D01*
X157740301Y-62545673D01*
X157561673Y-62724302D01*
X157465000Y-62957691D01*
X157465000Y-63548250D01*
X157623750Y-63707000D01*
X158623000Y-63707000D01*
X158623000Y-63687000D01*
X158877000Y-63687000D01*
X158877000Y-63707000D01*
X159876250Y-63707000D01*
X160035000Y-63548250D01*
X160035000Y-62957691D01*
X159938327Y-62724302D01*
X159759699Y-62545673D01*
X159623713Y-62489346D01*
X159635317Y-62487162D01*
X159851441Y-62348090D01*
X159996431Y-62135890D01*
X160047440Y-61884000D01*
X160047440Y-60384000D01*
X160003162Y-60148683D01*
X159934000Y-60041202D01*
X159934000Y-59459402D01*
X159949000Y-59462440D01*
X161049000Y-59462440D01*
X161284317Y-59418162D01*
X161500441Y-59279090D01*
X161645431Y-59066890D01*
X161696440Y-58815000D01*
X161696440Y-57900000D01*
X162179000Y-57900000D01*
X162709017Y-57794573D01*
X163158343Y-57494343D01*
X165063343Y-55589343D01*
X165145493Y-55466397D01*
X165363573Y-55140017D01*
X165469000Y-54610000D01*
X165469000Y-47650750D01*
X168463000Y-47650750D01*
X168463000Y-52191309D01*
X168559673Y-52424698D01*
X168738301Y-52603327D01*
X168971690Y-52700000D01*
X174212250Y-52700000D01*
X174371000Y-52541250D01*
X174371000Y-47492000D01*
X168621750Y-47492000D01*
X168463000Y-47650750D01*
X165469000Y-47650750D01*
X165469000Y-42538691D01*
X168463000Y-42538691D01*
X168463000Y-47079250D01*
X168621750Y-47238000D01*
X174371000Y-47238000D01*
X174371000Y-42188750D01*
X174625000Y-42188750D01*
X174625000Y-47238000D01*
X174645000Y-47238000D01*
X174645000Y-47492000D01*
X174625000Y-47492000D01*
X174625000Y-52541250D01*
X174783750Y-52700000D01*
X180024310Y-52700000D01*
X180098000Y-52669477D01*
X180098000Y-53782314D01*
X179095440Y-54784874D01*
X179095440Y-54215000D01*
X179051162Y-53979683D01*
X178912090Y-53763559D01*
X178699890Y-53618569D01*
X178448000Y-53567560D01*
X177348000Y-53567560D01*
X177112683Y-53611838D01*
X177049522Y-53652481D01*
X176999890Y-53618569D01*
X176748000Y-53567560D01*
X175648000Y-53567560D01*
X175412683Y-53611838D01*
X175349433Y-53652538D01*
X175174310Y-53580000D01*
X174783750Y-53580000D01*
X174625000Y-53738750D01*
X174625000Y-56388000D01*
X174645000Y-56388000D01*
X174645000Y-56642000D01*
X174625000Y-56642000D01*
X174625000Y-59291250D01*
X174783750Y-59450000D01*
X175063000Y-59450000D01*
X175063000Y-59829182D01*
X175029569Y-59878110D01*
X174978560Y-60130000D01*
X174978560Y-61630000D01*
X175022838Y-61865317D01*
X175161910Y-62081441D01*
X175374110Y-62226431D01*
X175407490Y-62233191D01*
X175266301Y-62291673D01*
X175087673Y-62470302D01*
X174991000Y-62703691D01*
X174991000Y-63294250D01*
X175149750Y-63453000D01*
X176149000Y-63453000D01*
X176149000Y-63433000D01*
X176403000Y-63433000D01*
X176403000Y-63453000D01*
X177402250Y-63453000D01*
X177561000Y-63294250D01*
X177561000Y-62703691D01*
X177464327Y-62470302D01*
X177285699Y-62291673D01*
X177149713Y-62235346D01*
X177161317Y-62233162D01*
X177377441Y-62094090D01*
X177522431Y-61881890D01*
X177573440Y-61630000D01*
X177573440Y-60130000D01*
X177529162Y-59894683D01*
X177390090Y-59678559D01*
X177333000Y-59639551D01*
X177333000Y-59459402D01*
X177348000Y-59462440D01*
X178448000Y-59462440D01*
X178683317Y-59418162D01*
X178899441Y-59279090D01*
X179044431Y-59066890D01*
X179095440Y-58815000D01*
X179095440Y-57646000D01*
X179578000Y-57646000D01*
X180108017Y-57540573D01*
X180557343Y-57240343D01*
X182462343Y-55335343D01*
X182544493Y-55212397D01*
X182762573Y-54886017D01*
X182868000Y-54356000D01*
X182868000Y-38735000D01*
X182762573Y-38204983D01*
X182462343Y-37755657D01*
X178935440Y-34228754D01*
X178935440Y-33040000D01*
X178891162Y-32804683D01*
X178752090Y-32588559D01*
X178539890Y-32443569D01*
X178288000Y-32392560D01*
X175788000Y-32392560D01*
X175552683Y-32436838D01*
X175336559Y-32575910D01*
X175191569Y-32788110D01*
X175140560Y-33040000D01*
X175140560Y-35540000D01*
X175184838Y-35775317D01*
X175323910Y-35991441D01*
X175536110Y-36136431D01*
X175788000Y-36187440D01*
X176976754Y-36187440D01*
X180098000Y-39308686D01*
X180098000Y-42060523D01*
X180024310Y-42030000D01*
X174783750Y-42030000D01*
X174625000Y-42188750D01*
X174371000Y-42188750D01*
X174212250Y-42030000D01*
X168971690Y-42030000D01*
X168738301Y-42126673D01*
X168559673Y-42305302D01*
X168463000Y-42538691D01*
X165469000Y-42538691D01*
X165469000Y-38735000D01*
X165363573Y-38204983D01*
X165063343Y-37755657D01*
X161536440Y-34228754D01*
X161536440Y-33040000D01*
X161528161Y-32996000D01*
X167390654Y-32996000D01*
X170194327Y-35799673D01*
X170886970Y-36262483D01*
X171704000Y-36425000D01*
X172038000Y-36425000D01*
X172855029Y-36262483D01*
X173547673Y-35799673D01*
X174010483Y-35107029D01*
X174173000Y-34290000D01*
X174010483Y-33472971D01*
X173547673Y-32780327D01*
X172855029Y-32317517D01*
X172724998Y-32291652D01*
X172267018Y-31833672D01*
X180720538Y-31833672D01*
X181125709Y-32814261D01*
X181875293Y-33565155D01*
X182855173Y-33972036D01*
X183916172Y-33972962D01*
X184896761Y-33567791D01*
X185647655Y-32818207D01*
X186054536Y-31838327D01*
X186055462Y-30777328D01*
X185650291Y-29796739D01*
X184900707Y-29045845D01*
X183920827Y-28638964D01*
X182859828Y-28638038D01*
X181879239Y-29043209D01*
X181128345Y-29792793D01*
X180721464Y-30772673D01*
X180720538Y-31833672D01*
X172267018Y-31833672D01*
X169784673Y-29351327D01*
X169092029Y-28888517D01*
X168275000Y-28726000D01*
X158068000Y-28726000D01*
X157250970Y-28888517D01*
X156558327Y-29351327D01*
X154639000Y-31270654D01*
X152592673Y-29224327D01*
X151900029Y-28761517D01*
X151083000Y-28599000D01*
X139573000Y-28599000D01*
X138755970Y-28761517D01*
X138063327Y-29224327D01*
X135730327Y-31557327D01*
X135267517Y-32249971D01*
X135105000Y-33067000D01*
X135105000Y-33452654D01*
X128284327Y-40273327D01*
X127964000Y-40752730D01*
X127964000Y-31770172D01*
X128523538Y-31770172D01*
X128928709Y-32750761D01*
X129678293Y-33501655D01*
X130658173Y-33908536D01*
X131719172Y-33909462D01*
X132699761Y-33504291D01*
X133450655Y-32754707D01*
X133857536Y-31774827D01*
X133858462Y-30713828D01*
X133453291Y-29733239D01*
X132703707Y-28982345D01*
X131723827Y-28575464D01*
X130662828Y-28574538D01*
X129682239Y-28979709D01*
X128931345Y-29729293D01*
X128524464Y-30709173D01*
X128523538Y-31770172D01*
X127964000Y-31770172D01*
X127964000Y-30549931D01*
X128164488Y-29542007D01*
X128695817Y-28746817D01*
X129491007Y-28215488D01*
X130498931Y-28015000D01*
X183329994Y-28015000D01*
X184601098Y-28224082D01*
X184601098Y-28224082D01*
G37*
X184601098Y-28224082D02*
X185624731Y-28859773D01*
X186327176Y-29838800D01*
X186615000Y-31069895D01*
X186615000Y-100514069D01*
X186366175Y-101764995D01*
X185697196Y-102766196D01*
X184695995Y-103435176D01*
X183445069Y-103684000D01*
X130739177Y-103684000D01*
X129660830Y-103512292D01*
X128802766Y-102985493D01*
X128211616Y-102170426D01*
X127964000Y-101135266D01*
X127964000Y-100985172D01*
X128523538Y-100985172D01*
X128928709Y-101965761D01*
X129678293Y-102716655D01*
X130658173Y-103123536D01*
X131719172Y-103124462D01*
X132699761Y-102719291D01*
X133450655Y-101969707D01*
X133857536Y-100989827D01*
X133857595Y-100921672D01*
X180720538Y-100921672D01*
X181125709Y-101902261D01*
X181875293Y-102653155D01*
X182855173Y-103060036D01*
X183916172Y-103060962D01*
X184896761Y-102655791D01*
X185647655Y-101906207D01*
X186054536Y-100926327D01*
X186055462Y-99865328D01*
X185650291Y-98884739D01*
X184900707Y-98133845D01*
X183920827Y-97726964D01*
X182859828Y-97726038D01*
X181879239Y-98131209D01*
X181128345Y-98880793D01*
X180721464Y-99860673D01*
X180720538Y-100921672D01*
X133857595Y-100921672D01*
X133858462Y-99928828D01*
X133453291Y-98948239D01*
X132703707Y-98197345D01*
X131723827Y-97790464D01*
X130662828Y-97789538D01*
X129682239Y-98194709D01*
X128931345Y-98944293D01*
X128524464Y-99924173D01*
X128523538Y-100985172D01*
X127964000Y-100985172D01*
X127964000Y-86977735D01*
X128347827Y-87552173D01*
X129040471Y-88014983D01*
X129857500Y-88177500D01*
X131044698Y-88177500D01*
X133604674Y-90737476D01*
X133480569Y-90919110D01*
X133477919Y-90932197D01*
X133341090Y-90719559D01*
X133128890Y-90574569D01*
X132877000Y-90523560D01*
X131377000Y-90523560D01*
X131141683Y-90567838D01*
X130925559Y-90706910D01*
X130780569Y-90919110D01*
X130729560Y-91171000D01*
X130729560Y-92471000D01*
X130773838Y-92706317D01*
X130912910Y-92922441D01*
X131125110Y-93067431D01*
X131367000Y-93116415D01*
X131367000Y-93458723D01*
X131275723Y-93475898D01*
X131059599Y-93614970D01*
X130914609Y-93827170D01*
X130863600Y-94079060D01*
X130863600Y-95277940D01*
X130907878Y-95513257D01*
X131046950Y-95729381D01*
X131259150Y-95874371D01*
X131511040Y-95925380D01*
X132709920Y-95925380D01*
X132945237Y-95881102D01*
X133161361Y-95742030D01*
X133166956Y-95733841D01*
X133249382Y-95816267D01*
X133482771Y-95912940D01*
X133922770Y-95912940D01*
X134081520Y-95754190D01*
X134081520Y-94805500D01*
X134335520Y-94805500D01*
X134335520Y-95754190D01*
X134494270Y-95912940D01*
X134934269Y-95912940D01*
X135167658Y-95816267D01*
X135321175Y-95662750D01*
X138259500Y-95662750D01*
X138259500Y-96753310D01*
X138356173Y-96986699D01*
X138534802Y-97165327D01*
X138768191Y-97262000D01*
X139858750Y-97262000D01*
X140017500Y-97103250D01*
X140017500Y-95504000D01*
X140271500Y-95504000D01*
X140271500Y-97103250D01*
X140430250Y-97262000D01*
X141520809Y-97262000D01*
X141754198Y-97165327D01*
X141932827Y-96986699D01*
X142029500Y-96753310D01*
X142029500Y-95662750D01*
X141870750Y-95504000D01*
X140271500Y-95504000D01*
X140017500Y-95504000D01*
X138418250Y-95504000D01*
X138259500Y-95662750D01*
X135321175Y-95662750D01*
X135346287Y-95637639D01*
X135442960Y-95404250D01*
X135442960Y-94964250D01*
X135284210Y-94805500D01*
X134335520Y-94805500D01*
X134081520Y-94805500D01*
X134061520Y-94805500D01*
X134061520Y-94551500D01*
X134081520Y-94551500D01*
X134081520Y-93602810D01*
X134335520Y-93602810D01*
X134335520Y-94551500D01*
X135284210Y-94551500D01*
X135442960Y-94392750D01*
X135442960Y-94000690D01*
X138259500Y-94000690D01*
X138259500Y-95091250D01*
X138418250Y-95250000D01*
X140017500Y-95250000D01*
X140017500Y-93650750D01*
X140271500Y-93650750D01*
X140271500Y-95250000D01*
X141870750Y-95250000D01*
X142029500Y-95091250D01*
X142029500Y-94000690D01*
X141932827Y-93767301D01*
X141754198Y-93588673D01*
X141520809Y-93492000D01*
X140430250Y-93492000D01*
X140271500Y-93650750D01*
X140017500Y-93650750D01*
X139858750Y-93492000D01*
X138768191Y-93492000D01*
X138534802Y-93588673D01*
X138356173Y-93767301D01*
X138259500Y-94000690D01*
X135442960Y-94000690D01*
X135442960Y-93952750D01*
X135346287Y-93719361D01*
X135167658Y-93540733D01*
X134934269Y-93444060D01*
X134494270Y-93444060D01*
X134335520Y-93602810D01*
X134081520Y-93602810D01*
X133922770Y-93444060D01*
X133482771Y-93444060D01*
X133249382Y-93540733D01*
X133167169Y-93622945D01*
X132961810Y-93482629D01*
X132887000Y-93467480D01*
X132887000Y-93116558D01*
X133112317Y-93074162D01*
X133328441Y-92935090D01*
X133473431Y-92722890D01*
X133476081Y-92709803D01*
X133612910Y-92922441D01*
X133825110Y-93067431D01*
X134077000Y-93118440D01*
X135577000Y-93118440D01*
X135812317Y-93074162D01*
X136028441Y-92935090D01*
X136173431Y-92722890D01*
X136224440Y-92471000D01*
X136224440Y-91171000D01*
X136180162Y-90935683D01*
X136041090Y-90719559D01*
X135828890Y-90574569D01*
X135577000Y-90523560D01*
X135481975Y-90523560D01*
X135364401Y-90347599D01*
X133194302Y-88177500D01*
X139514154Y-88177500D01*
X143009500Y-91672846D01*
X143009500Y-95377000D01*
X143172017Y-96194029D01*
X143634827Y-96886673D01*
X144327471Y-97349483D01*
X145144500Y-97512000D01*
X145961529Y-97349483D01*
X146654173Y-96886673D01*
X147116983Y-96194029D01*
X147279500Y-95377000D01*
X147279500Y-90788500D01*
X147116983Y-89971471D01*
X146654173Y-89278827D01*
X141908173Y-84532827D01*
X141215529Y-84070017D01*
X140398500Y-83907500D01*
X139855096Y-83907500D01*
X139934431Y-83791390D01*
X139985440Y-83539500D01*
X139985440Y-81639500D01*
X139941162Y-81404183D01*
X139802090Y-81188059D01*
X139800452Y-81186940D01*
X140288000Y-81186940D01*
X140523317Y-81142662D01*
X140739441Y-81003590D01*
X140884431Y-80791390D01*
X140935440Y-80539500D01*
X140935440Y-80349500D01*
X142524558Y-80349500D01*
X142427887Y-80835500D01*
X142537120Y-81384651D01*
X142848189Y-81850198D01*
X143131000Y-82039167D01*
X143131000Y-85152102D01*
X143188852Y-85442941D01*
X143353599Y-85689503D01*
X151228997Y-93564901D01*
X151475559Y-93729648D01*
X151766398Y-93787500D01*
X157988000Y-93787500D01*
X158278839Y-93729648D01*
X158525401Y-93564901D01*
X159367862Y-92722440D01*
X160545138Y-92722440D01*
X162981100Y-95158402D01*
X162981100Y-95631260D01*
X162877500Y-95631260D01*
X162642183Y-95675538D01*
X162426059Y-95814610D01*
X162281069Y-96026810D01*
X162230060Y-96278700D01*
X162230060Y-98310700D01*
X162274338Y-98546017D01*
X162413410Y-98762141D01*
X162625610Y-98907131D01*
X162877500Y-98958140D01*
X164604700Y-98958140D01*
X164840017Y-98913862D01*
X165056141Y-98774790D01*
X165201131Y-98562590D01*
X165209500Y-98521261D01*
X165221430Y-98539115D01*
X165707611Y-98863971D01*
X166281100Y-98978045D01*
X166854589Y-98863971D01*
X167340770Y-98539115D01*
X167547561Y-98229631D01*
X167919064Y-98645432D01*
X168446309Y-98899409D01*
X168462074Y-98902058D01*
X168694100Y-98780917D01*
X168694100Y-97421700D01*
X168674100Y-97421700D01*
X168674100Y-97167700D01*
X168694100Y-97167700D01*
X168694100Y-95808483D01*
X168948100Y-95808483D01*
X168948100Y-97167700D01*
X168968100Y-97167700D01*
X168968100Y-97421700D01*
X168948100Y-97421700D01*
X168948100Y-98780917D01*
X169180126Y-98902058D01*
X169195891Y-98899409D01*
X169723136Y-98645432D01*
X170094639Y-98229631D01*
X170301430Y-98539115D01*
X170787611Y-98863971D01*
X171361100Y-98978045D01*
X171934589Y-98863971D01*
X172420770Y-98539115D01*
X172631100Y-98224334D01*
X172841430Y-98539115D01*
X173327611Y-98863971D01*
X173901100Y-98978045D01*
X174474589Y-98863971D01*
X174960770Y-98539115D01*
X175171100Y-98224334D01*
X175381430Y-98539115D01*
X175867611Y-98863971D01*
X176441100Y-98978045D01*
X177014589Y-98863971D01*
X177500770Y-98539115D01*
X177825626Y-98052934D01*
X177939700Y-97479445D01*
X177939700Y-97109955D01*
X177825626Y-96536466D01*
X177500770Y-96050285D01*
X177014589Y-95725429D01*
X176441100Y-95611355D01*
X175867611Y-95725429D01*
X175381430Y-96050285D01*
X175171100Y-96365066D01*
X174960770Y-96050285D01*
X174474589Y-95725429D01*
X173901100Y-95611355D01*
X173327611Y-95725429D01*
X172841430Y-96050285D01*
X172631100Y-96365066D01*
X172420770Y-96050285D01*
X171934589Y-95725429D01*
X171361100Y-95611355D01*
X170787611Y-95725429D01*
X170301430Y-96050285D01*
X170094639Y-96359769D01*
X169723136Y-95943968D01*
X169195891Y-95689991D01*
X169180126Y-95687342D01*
X168948100Y-95808483D01*
X168694100Y-95808483D01*
X168462074Y-95687342D01*
X168446309Y-95689991D01*
X167919064Y-95943968D01*
X167547561Y-96359769D01*
X167340770Y-96050285D01*
X167041100Y-95850052D01*
X167041100Y-93840300D01*
X166983248Y-93549461D01*
X166983248Y-93549460D01*
X166818501Y-93302899D01*
X165063940Y-91548338D01*
X165063940Y-90516000D01*
X165019662Y-90280683D01*
X164880590Y-90064559D01*
X164668390Y-89919569D01*
X164655303Y-89916919D01*
X164867941Y-89780090D01*
X165012931Y-89567890D01*
X165063940Y-89316000D01*
X165063940Y-87816000D01*
X165019662Y-87580683D01*
X164880590Y-87364559D01*
X164668390Y-87219569D01*
X164416500Y-87168560D01*
X163116500Y-87168560D01*
X162881183Y-87212838D01*
X162665059Y-87351910D01*
X162520069Y-87564110D01*
X162480603Y-87759000D01*
X161428516Y-87759000D01*
X161156278Y-87351567D01*
X160620655Y-86993675D01*
X159988845Y-86868000D01*
X159924155Y-86868000D01*
X159292345Y-86993675D01*
X158864745Y-87279388D01*
X158852480Y-84887588D01*
X158881792Y-84858327D01*
X159024438Y-84514799D01*
X159024762Y-84142833D01*
X158882717Y-83799057D01*
X158619927Y-83535808D01*
X158276399Y-83393162D01*
X157904433Y-83392838D01*
X157560657Y-83534883D01*
X157297408Y-83797673D01*
X157154762Y-84141201D01*
X157154438Y-84513167D01*
X157296483Y-84856943D01*
X157332488Y-84893010D01*
X157342552Y-86855560D01*
X155321000Y-86855560D01*
X155306755Y-86858240D01*
X155296517Y-84887551D01*
X155325792Y-84858327D01*
X155468438Y-84514799D01*
X155468762Y-84142833D01*
X155326717Y-83799057D01*
X155063927Y-83535808D01*
X154720399Y-83393162D01*
X154348433Y-83392838D01*
X154004657Y-83534883D01*
X153741408Y-83797673D01*
X153598762Y-84141201D01*
X153598438Y-84513167D01*
X153740483Y-84856943D01*
X153776525Y-84893048D01*
X153786776Y-86866349D01*
X153733500Y-86855560D01*
X151701500Y-86855560D01*
X151466183Y-86899838D01*
X151250059Y-87038910D01*
X151105069Y-87251110D01*
X151054060Y-87503000D01*
X151054060Y-89535000D01*
X151098338Y-89770317D01*
X151237410Y-89986441D01*
X151386337Y-90088198D01*
X151159830Y-90427190D01*
X151034155Y-91059000D01*
X151074245Y-91260545D01*
X144651000Y-84837300D01*
X144651000Y-82454750D01*
X178137500Y-82454750D01*
X178137500Y-83545309D01*
X178234173Y-83778698D01*
X178412801Y-83957327D01*
X178646190Y-84054000D01*
X179736750Y-84054000D01*
X179895500Y-83895250D01*
X179895500Y-82296000D01*
X180149500Y-82296000D01*
X180149500Y-83895250D01*
X180308250Y-84054000D01*
X181398810Y-84054000D01*
X181632199Y-83957327D01*
X181810827Y-83778698D01*
X181907500Y-83545309D01*
X181907500Y-82454750D01*
X181748750Y-82296000D01*
X180149500Y-82296000D01*
X179895500Y-82296000D01*
X178296250Y-82296000D01*
X178137500Y-82454750D01*
X144651000Y-82454750D01*
X144651000Y-82039167D01*
X144933811Y-81850198D01*
X145244880Y-81384651D01*
X145354113Y-80835500D01*
X145257442Y-80349500D01*
X150144558Y-80349500D01*
X150047887Y-80835500D01*
X150157120Y-81384651D01*
X150468189Y-81850198D01*
X150933736Y-82161267D01*
X151482887Y-82270500D01*
X151539113Y-82270500D01*
X152088264Y-82161267D01*
X152553811Y-81850198D01*
X152864880Y-81384651D01*
X152974113Y-80835500D01*
X152909688Y-80511614D01*
X153699401Y-79721901D01*
X153708573Y-79708173D01*
X153735001Y-79734601D01*
X153981563Y-79899348D01*
X154272402Y-79957200D01*
X156277258Y-79957200D01*
X156300838Y-80082517D01*
X156439910Y-80298641D01*
X156652110Y-80443631D01*
X156904000Y-80494640D01*
X158404000Y-80494640D01*
X158639317Y-80450362D01*
X158855441Y-80311290D01*
X159000431Y-80099090D01*
X159003081Y-80086003D01*
X159139910Y-80298641D01*
X159352110Y-80443631D01*
X159604000Y-80494640D01*
X161104000Y-80494640D01*
X161339317Y-80450362D01*
X161555441Y-80311290D01*
X161700431Y-80099090D01*
X161729164Y-79957200D01*
X162575398Y-79957200D01*
X163193312Y-80575114D01*
X163128887Y-80899000D01*
X163238120Y-81448151D01*
X163549189Y-81913698D01*
X164014736Y-82224767D01*
X164563887Y-82334000D01*
X164620113Y-82334000D01*
X165169264Y-82224767D01*
X165634811Y-81913698D01*
X165945880Y-81448151D01*
X165985684Y-81248039D01*
X170820096Y-81248039D01*
X170980959Y-81636423D01*
X171356866Y-82051389D01*
X171862959Y-82290914D01*
X172085000Y-82169629D01*
X172085000Y-81026000D01*
X172339000Y-81026000D01*
X172339000Y-82169629D01*
X172561041Y-82290914D01*
X173067134Y-82051389D01*
X173443041Y-81636423D01*
X173603904Y-81248039D01*
X173481915Y-81026000D01*
X172339000Y-81026000D01*
X172085000Y-81026000D01*
X170942085Y-81026000D01*
X170820096Y-81248039D01*
X165985684Y-81248039D01*
X166055113Y-80899000D01*
X166033967Y-80792691D01*
X178137500Y-80792691D01*
X178137500Y-81883250D01*
X178296250Y-82042000D01*
X179895500Y-82042000D01*
X179895500Y-80442750D01*
X180149500Y-80442750D01*
X180149500Y-82042000D01*
X181748750Y-82042000D01*
X181907500Y-81883250D01*
X181907500Y-80792691D01*
X181810827Y-80559302D01*
X181632199Y-80380673D01*
X181398810Y-80284000D01*
X180308250Y-80284000D01*
X180149500Y-80442750D01*
X179895500Y-80442750D01*
X179736750Y-80284000D01*
X178646190Y-80284000D01*
X178412801Y-80380673D01*
X178234173Y-80559302D01*
X178137500Y-80792691D01*
X166033967Y-80792691D01*
X165945880Y-80349849D01*
X165634811Y-79884302D01*
X165252725Y-79629000D01*
X165634811Y-79373698D01*
X165945880Y-78908151D01*
X166055113Y-78359000D01*
X165945880Y-77809849D01*
X165634811Y-77344302D01*
X165352000Y-77155333D01*
X165352000Y-77022667D01*
X165634811Y-76833698D01*
X165945880Y-76368151D01*
X166055113Y-75819000D01*
X165945880Y-75269849D01*
X165634811Y-74804302D01*
X165252725Y-74549000D01*
X165634811Y-74293698D01*
X165945880Y-73828151D01*
X166055113Y-73279000D01*
X165945880Y-72729849D01*
X165634811Y-72264302D01*
X165169264Y-71953233D01*
X164620113Y-71844000D01*
X164563887Y-71844000D01*
X164014736Y-71953233D01*
X163549189Y-72264302D01*
X163238120Y-72729849D01*
X163128887Y-73279000D01*
X163238120Y-73828151D01*
X163549189Y-74293698D01*
X163931275Y-74549000D01*
X163549189Y-74804302D01*
X163429920Y-74982800D01*
X161976931Y-74982800D01*
X161918090Y-74891359D01*
X161705890Y-74746369D01*
X161454000Y-74695360D01*
X161114000Y-74695360D01*
X161114000Y-73685558D01*
X161339317Y-73643162D01*
X161555441Y-73504090D01*
X161700431Y-73291890D01*
X161751440Y-73040000D01*
X161751440Y-71740000D01*
X161707162Y-71504683D01*
X161568090Y-71288559D01*
X161355890Y-71143569D01*
X161104000Y-71092560D01*
X159604000Y-71092560D01*
X159471759Y-71117443D01*
X161652202Y-68937000D01*
X169037000Y-68937000D01*
X169478957Y-68849089D01*
X171077000Y-70447132D01*
X171077000Y-72402272D01*
X170858120Y-72729849D01*
X170748887Y-73279000D01*
X170858120Y-73828151D01*
X171169189Y-74293698D01*
X171551275Y-74549000D01*
X171169189Y-74804302D01*
X170858120Y-75269849D01*
X170748887Y-75819000D01*
X170858120Y-76368151D01*
X171169189Y-76833698D01*
X171551275Y-77089000D01*
X171169189Y-77344302D01*
X170858120Y-77809849D01*
X170748887Y-78359000D01*
X170858120Y-78908151D01*
X171169189Y-79373698D01*
X171573703Y-79643986D01*
X171356866Y-79746611D01*
X170980959Y-80161577D01*
X170820096Y-80549961D01*
X170942085Y-80772000D01*
X172085000Y-80772000D01*
X172085000Y-80752000D01*
X172339000Y-80752000D01*
X172339000Y-80772000D01*
X173481915Y-80772000D01*
X173603904Y-80549961D01*
X173443041Y-80161577D01*
X173067134Y-79746611D01*
X172850297Y-79643986D01*
X173254811Y-79373698D01*
X173424995Y-79119000D01*
X178832500Y-79119000D01*
X179123339Y-79061148D01*
X179330522Y-78922713D01*
X179645905Y-79053672D01*
X180395805Y-79054326D01*
X181088872Y-78767957D01*
X181619593Y-78238161D01*
X181907172Y-77545595D01*
X181907826Y-76795695D01*
X181621457Y-76102628D01*
X181091661Y-75571907D01*
X180399095Y-75284328D01*
X179649195Y-75283674D01*
X178956128Y-75570043D01*
X178425407Y-76099839D01*
X178137828Y-76792405D01*
X178137174Y-77542305D01*
X178160600Y-77599000D01*
X173424995Y-77599000D01*
X173254811Y-77344302D01*
X172872725Y-77089000D01*
X173254811Y-76833698D01*
X173424995Y-76579000D01*
X176372500Y-76579000D01*
X176663339Y-76521148D01*
X176909901Y-76356401D01*
X179339755Y-73926547D01*
X179645905Y-74053672D01*
X180395805Y-74054326D01*
X181088872Y-73767957D01*
X181619593Y-73238161D01*
X181907172Y-72545595D01*
X181907826Y-71795695D01*
X181621457Y-71102628D01*
X181091661Y-70571907D01*
X180399095Y-70284328D01*
X179649195Y-70283674D01*
X178956128Y-70570043D01*
X178425407Y-71099839D01*
X178137828Y-71792405D01*
X178137174Y-72542305D01*
X178265009Y-72851689D01*
X176057698Y-75059000D01*
X173424995Y-75059000D01*
X173254811Y-74804302D01*
X172872725Y-74549000D01*
X173254811Y-74293698D01*
X173565880Y-73828151D01*
X173675113Y-73279000D01*
X173565880Y-72729849D01*
X173347000Y-72402272D01*
X173347000Y-69977000D01*
X173260603Y-69542654D01*
X173014566Y-69174434D01*
X171084089Y-67243957D01*
X171172000Y-66802000D01*
X171009483Y-65984971D01*
X170546673Y-65292327D01*
X170172000Y-65041978D01*
X170172000Y-64097132D01*
X170503382Y-63765750D01*
X171587000Y-63765750D01*
X171587000Y-64356309D01*
X171683673Y-64589698D01*
X171862301Y-64768327D01*
X172095690Y-64865000D01*
X172561250Y-64865000D01*
X172720000Y-64706250D01*
X172720000Y-63607000D01*
X172974000Y-63607000D01*
X172974000Y-64706250D01*
X173132750Y-64865000D01*
X173598310Y-64865000D01*
X173831699Y-64768327D01*
X174010327Y-64589698D01*
X174107000Y-64356309D01*
X174107000Y-63865750D01*
X174991000Y-63865750D01*
X174991000Y-64456309D01*
X175087673Y-64689698D01*
X175266301Y-64868327D01*
X175499690Y-64965000D01*
X175990250Y-64965000D01*
X176149000Y-64806250D01*
X176149000Y-63707000D01*
X176403000Y-63707000D01*
X176403000Y-64806250D01*
X176561750Y-64965000D01*
X177052310Y-64965000D01*
X177285699Y-64868327D01*
X177464327Y-64689698D01*
X177561000Y-64456309D01*
X177561000Y-63865750D01*
X177402250Y-63707000D01*
X176403000Y-63707000D01*
X176149000Y-63707000D01*
X175149750Y-63707000D01*
X174991000Y-63865750D01*
X174107000Y-63865750D01*
X174107000Y-63765750D01*
X173948250Y-63607000D01*
X172974000Y-63607000D01*
X172720000Y-63607000D01*
X171745750Y-63607000D01*
X171587000Y-63765750D01*
X170503382Y-63765750D01*
X171587000Y-62682132D01*
X171587000Y-63194250D01*
X171745750Y-63353000D01*
X172720000Y-63353000D01*
X172720000Y-63333000D01*
X172974000Y-63333000D01*
X172974000Y-63353000D01*
X173948250Y-63353000D01*
X174107000Y-63194250D01*
X174107000Y-62603691D01*
X174010327Y-62370302D01*
X173869090Y-62229064D01*
X173923441Y-62194090D01*
X174068431Y-61981890D01*
X174119440Y-61730000D01*
X174119440Y-60230000D01*
X174075162Y-59994683D01*
X173936090Y-59778559D01*
X173933000Y-59776448D01*
X173933000Y-59450000D01*
X174212250Y-59450000D01*
X174371000Y-59291250D01*
X174371000Y-56642000D01*
X174351000Y-56642000D01*
X174351000Y-56388000D01*
X174371000Y-56388000D01*
X174371000Y-53738750D01*
X174212250Y-53580000D01*
X173821690Y-53580000D01*
X173648459Y-53651755D01*
X173599890Y-53618569D01*
X173348000Y-53567560D01*
X172248000Y-53567560D01*
X172012683Y-53611838D01*
X171949522Y-53652481D01*
X171899890Y-53618569D01*
X171648000Y-53567560D01*
X170548000Y-53567560D01*
X170312683Y-53611838D01*
X170096559Y-53750910D01*
X169951569Y-53963110D01*
X169900560Y-54215000D01*
X169900560Y-56354638D01*
X167627320Y-58627878D01*
X167581833Y-58627838D01*
X167238057Y-58769883D01*
X166974808Y-59032673D01*
X166832162Y-59376201D01*
X166831838Y-59748167D01*
X166973883Y-60091943D01*
X167236673Y-60355192D01*
X167580201Y-60497838D01*
X167952167Y-60498162D01*
X168295943Y-60356117D01*
X168559192Y-60093327D01*
X168701838Y-59749799D01*
X168701879Y-59702923D01*
X169900560Y-58504242D01*
X169900560Y-58815000D01*
X169944838Y-59050317D01*
X170083910Y-59266441D01*
X170296110Y-59411431D01*
X170548000Y-59462440D01*
X171648000Y-59462440D01*
X171663000Y-59459618D01*
X171663000Y-59849177D01*
X171249654Y-59931397D01*
X170881434Y-60177434D01*
X168234434Y-62824434D01*
X167988397Y-63192654D01*
X167902000Y-63627000D01*
X167902000Y-64667000D01*
X160035000Y-64667000D01*
X160035000Y-64119750D01*
X159876250Y-63961000D01*
X158877000Y-63961000D01*
X158877000Y-63981000D01*
X158623000Y-63981000D01*
X158623000Y-63961000D01*
X157623750Y-63961000D01*
X157465000Y-64119750D01*
X157465000Y-64667000D01*
X156684518Y-64667000D01*
X156708000Y-64610309D01*
X156708000Y-64019750D01*
X156549250Y-63861000D01*
X155575000Y-63861000D01*
X155575000Y-63881000D01*
X155321000Y-63881000D01*
X155321000Y-63861000D01*
X154346750Y-63861000D01*
X154188000Y-64019750D01*
X154188000Y-64610309D01*
X154211482Y-64667000D01*
X152519000Y-64667000D01*
X152519000Y-64645132D01*
X154188000Y-62976132D01*
X154188000Y-63448250D01*
X154346750Y-63607000D01*
X155321000Y-63607000D01*
X155321000Y-63587000D01*
X155575000Y-63587000D01*
X155575000Y-63607000D01*
X156549250Y-63607000D01*
X156708000Y-63448250D01*
X156708000Y-62857691D01*
X156611327Y-62624302D01*
X156470090Y-62483064D01*
X156524441Y-62448090D01*
X156669431Y-62235890D01*
X156720440Y-61984000D01*
X156720440Y-60484000D01*
X156676162Y-60248683D01*
X156537090Y-60032559D01*
X156534000Y-60030448D01*
X156534000Y-59450000D01*
X156813250Y-59450000D01*
X156972000Y-59291250D01*
X156972000Y-56642000D01*
X156952000Y-56642000D01*
X156952000Y-56388000D01*
X156972000Y-56388000D01*
X156972000Y-53738750D01*
X156813250Y-53580000D01*
X156422690Y-53580000D01*
X156249459Y-53651755D01*
X156200890Y-53618569D01*
X155949000Y-53567560D01*
X154849000Y-53567560D01*
X154613683Y-53611838D01*
X154550522Y-53652481D01*
X154500890Y-53618569D01*
X154249000Y-53567560D01*
X153149000Y-53567560D01*
X152913683Y-53611838D01*
X152697559Y-53750910D01*
X152552569Y-53963110D01*
X152501560Y-54215000D01*
X152501560Y-56608638D01*
X150482320Y-58627878D01*
X150436833Y-58627838D01*
X150093057Y-58769883D01*
X149829808Y-59032673D01*
X149687162Y-59376201D01*
X149686838Y-59748167D01*
X149828883Y-60091943D01*
X150091673Y-60355192D01*
X150435201Y-60497838D01*
X150807167Y-60498162D01*
X151150943Y-60356117D01*
X151414192Y-60093327D01*
X151556838Y-59749799D01*
X151556879Y-59702923D01*
X152501560Y-58758242D01*
X152501560Y-58815000D01*
X152545838Y-59050317D01*
X152684910Y-59266441D01*
X152897110Y-59411431D01*
X153149000Y-59462440D01*
X154249000Y-59462440D01*
X154264000Y-59459618D01*
X154264000Y-60111134D01*
X153890654Y-60185397D01*
X153636538Y-60355192D01*
X153522434Y-60431434D01*
X150581434Y-63372434D01*
X150335397Y-63740654D01*
X150249000Y-64175000D01*
X150249000Y-64667000D01*
X142763000Y-64667000D01*
X142763000Y-64119750D01*
X142604250Y-63961000D01*
X141605000Y-63961000D01*
X141605000Y-63981000D01*
X141351000Y-63981000D01*
X141351000Y-63961000D01*
X140351750Y-63961000D01*
X140193000Y-64119750D01*
X140193000Y-64667000D01*
X139285518Y-64667000D01*
X139309000Y-64610309D01*
X139309000Y-64019750D01*
X139150250Y-63861000D01*
X138176000Y-63861000D01*
X138176000Y-63881000D01*
X137922000Y-63881000D01*
X137922000Y-63861000D01*
X136947750Y-63861000D01*
X136789000Y-64019750D01*
X136789000Y-64610309D01*
X136812482Y-64667000D01*
X134361346Y-64667000D01*
X132106239Y-62411893D01*
X132149133Y-62369000D01*
X136917156Y-62369000D01*
X136959910Y-62435441D01*
X137028006Y-62481969D01*
X136885673Y-62624302D01*
X136789000Y-62857691D01*
X136789000Y-63448250D01*
X136947750Y-63607000D01*
X137922000Y-63607000D01*
X137922000Y-63587000D01*
X138176000Y-63587000D01*
X138176000Y-63607000D01*
X139150250Y-63607000D01*
X139309000Y-63448250D01*
X139309000Y-62857691D01*
X139212327Y-62624302D01*
X139071090Y-62483064D01*
X139125441Y-62448090D01*
X139270431Y-62235890D01*
X139321440Y-61984000D01*
X139321440Y-60484000D01*
X139277162Y-60248683D01*
X139138090Y-60032559D01*
X139135000Y-60030448D01*
X139135000Y-59450000D01*
X139414250Y-59450000D01*
X139573000Y-59291250D01*
X139573000Y-56642000D01*
X139553000Y-56642000D01*
X139553000Y-56388000D01*
X139573000Y-56388000D01*
X139573000Y-53738750D01*
X139414250Y-53580000D01*
X139023690Y-53580000D01*
X138850459Y-53651755D01*
X138801890Y-53618569D01*
X138550000Y-53567560D01*
X137450000Y-53567560D01*
X137214683Y-53611838D01*
X137151522Y-53652481D01*
X137101890Y-53618569D01*
X136850000Y-53567560D01*
X135750000Y-53567560D01*
X135514683Y-53611838D01*
X135298559Y-53750910D01*
X135153569Y-53963110D01*
X135102560Y-54215000D01*
X135102560Y-55764870D01*
X133755672Y-55776002D01*
X133727927Y-55748208D01*
X133384399Y-55605562D01*
X133012433Y-55605238D01*
X132668657Y-55747283D01*
X132405408Y-56010073D01*
X132262762Y-56353601D01*
X132262438Y-56725567D01*
X132404483Y-57069343D01*
X132667273Y-57332592D01*
X133010801Y-57475238D01*
X133382767Y-57475562D01*
X133726543Y-57333517D01*
X133764142Y-57295983D01*
X135102560Y-57284922D01*
X135102560Y-58815000D01*
X135146838Y-59050317D01*
X135285910Y-59266441D01*
X135498110Y-59411431D01*
X135750000Y-59462440D01*
X136850000Y-59462440D01*
X136865000Y-59459618D01*
X136865000Y-60099000D01*
X131929000Y-60099000D01*
X131929000Y-47650750D01*
X133665000Y-47650750D01*
X133665000Y-52191309D01*
X133761673Y-52424698D01*
X133940301Y-52603327D01*
X134173690Y-52700000D01*
X139414250Y-52700000D01*
X139573000Y-52541250D01*
X139573000Y-47492000D01*
X133823750Y-47492000D01*
X133665000Y-47650750D01*
X131929000Y-47650750D01*
X131929000Y-42667346D01*
X132057655Y-42538691D01*
X133665000Y-42538691D01*
X133665000Y-47079250D01*
X133823750Y-47238000D01*
X139573000Y-47238000D01*
X139573000Y-42188750D01*
X139414250Y-42030000D01*
X134173690Y-42030000D01*
X133940301Y-42126673D01*
X133761673Y-42305302D01*
X133665000Y-42538691D01*
X132057655Y-42538691D01*
X138749673Y-35846673D01*
X139212483Y-35154029D01*
X139375000Y-34337000D01*
X139375000Y-33951346D01*
X140356834Y-32969512D01*
X140342560Y-33040000D01*
X140342560Y-35540000D01*
X140386838Y-35775317D01*
X140525910Y-35991441D01*
X140738110Y-36136431D01*
X140990000Y-36187440D01*
X142178754Y-36187440D01*
X145300000Y-39308686D01*
X145300000Y-42060523D01*
X145226310Y-42030000D01*
X139985750Y-42030000D01*
X139827000Y-42188750D01*
X139827000Y-47238000D01*
X139847000Y-47238000D01*
X139847000Y-47492000D01*
X139827000Y-47492000D01*
X139827000Y-52541250D01*
X139985750Y-52700000D01*
X145226310Y-52700000D01*
X145300000Y-52669477D01*
X145300000Y-54036314D01*
X144297440Y-55038874D01*
X144297440Y-54215000D01*
X144253162Y-53979683D01*
X144114090Y-53763559D01*
X143901890Y-53618569D01*
X143650000Y-53567560D01*
X142550000Y-53567560D01*
X142314683Y-53611838D01*
X142251522Y-53652481D01*
X142201890Y-53618569D01*
X141950000Y-53567560D01*
X140850000Y-53567560D01*
X140614683Y-53611838D01*
X140551433Y-53652538D01*
X140376310Y-53580000D01*
X139985750Y-53580000D01*
X139827000Y-53738750D01*
X139827000Y-56388000D01*
X139847000Y-56388000D01*
X139847000Y-56642000D01*
X139827000Y-56642000D01*
X139827000Y-59291250D01*
X139985750Y-59450000D01*
X140265000Y-59450000D01*
X140265000Y-60083182D01*
X140231569Y-60132110D01*
X140180560Y-60384000D01*
X140180560Y-61884000D01*
X140224838Y-62119317D01*
X140363910Y-62335441D01*
X140576110Y-62480431D01*
X140609490Y-62487191D01*
X140468301Y-62545673D01*
X140289673Y-62724302D01*
X140193000Y-62957691D01*
X140193000Y-63548250D01*
X140351750Y-63707000D01*
X141351000Y-63707000D01*
X141351000Y-63687000D01*
X141605000Y-63687000D01*
X141605000Y-63707000D01*
X142604250Y-63707000D01*
X142763000Y-63548250D01*
X142763000Y-62957691D01*
X142666327Y-62724302D01*
X142487699Y-62545673D01*
X142351713Y-62489346D01*
X142363317Y-62487162D01*
X142579441Y-62348090D01*
X142724431Y-62135890D01*
X142775440Y-61884000D01*
X142775440Y-60384000D01*
X142731162Y-60148683D01*
X142592090Y-59932559D01*
X142535000Y-59893551D01*
X142535000Y-59459402D01*
X142550000Y-59462440D01*
X143650000Y-59462440D01*
X143885317Y-59418162D01*
X144101441Y-59279090D01*
X144246431Y-59066890D01*
X144297440Y-58815000D01*
X144297440Y-57900000D01*
X144780000Y-57900000D01*
X145310017Y-57794573D01*
X145759343Y-57494343D01*
X147664343Y-55589343D01*
X147746493Y-55466397D01*
X147964573Y-55140017D01*
X148070000Y-54610000D01*
X148070000Y-47650750D01*
X151064000Y-47650750D01*
X151064000Y-52191309D01*
X151160673Y-52424698D01*
X151339301Y-52603327D01*
X151572690Y-52700000D01*
X156813250Y-52700000D01*
X156972000Y-52541250D01*
X156972000Y-47492000D01*
X151222750Y-47492000D01*
X151064000Y-47650750D01*
X148070000Y-47650750D01*
X148070000Y-42538691D01*
X151064000Y-42538691D01*
X151064000Y-47079250D01*
X151222750Y-47238000D01*
X156972000Y-47238000D01*
X156972000Y-42188750D01*
X156813250Y-42030000D01*
X151572690Y-42030000D01*
X151339301Y-42126673D01*
X151160673Y-42305302D01*
X151064000Y-42538691D01*
X148070000Y-42538691D01*
X148070000Y-38735000D01*
X147964573Y-38204983D01*
X147664343Y-37755657D01*
X144137440Y-34228754D01*
X144137440Y-33040000D01*
X144105264Y-32869000D01*
X150198654Y-32869000D01*
X153129327Y-35799673D01*
X153821970Y-36262483D01*
X154639000Y-36425000D01*
X155456029Y-36262483D01*
X156148673Y-35799673D01*
X157741560Y-34206786D01*
X157741560Y-35540000D01*
X157785838Y-35775317D01*
X157924910Y-35991441D01*
X158137110Y-36136431D01*
X158389000Y-36187440D01*
X159577754Y-36187440D01*
X162699000Y-39308686D01*
X162699000Y-42060523D01*
X162625310Y-42030000D01*
X157384750Y-42030000D01*
X157226000Y-42188750D01*
X157226000Y-47238000D01*
X157246000Y-47238000D01*
X157246000Y-47492000D01*
X157226000Y-47492000D01*
X157226000Y-52541250D01*
X157384750Y-52700000D01*
X162625310Y-52700000D01*
X162699000Y-52669477D01*
X162699000Y-54036314D01*
X161696440Y-55038874D01*
X161696440Y-54215000D01*
X161652162Y-53979683D01*
X161513090Y-53763559D01*
X161300890Y-53618569D01*
X161049000Y-53567560D01*
X159949000Y-53567560D01*
X159713683Y-53611838D01*
X159650522Y-53652481D01*
X159600890Y-53618569D01*
X159349000Y-53567560D01*
X158249000Y-53567560D01*
X158013683Y-53611838D01*
X157950433Y-53652538D01*
X157775310Y-53580000D01*
X157384750Y-53580000D01*
X157226000Y-53738750D01*
X157226000Y-56388000D01*
X157246000Y-56388000D01*
X157246000Y-56642000D01*
X157226000Y-56642000D01*
X157226000Y-59291250D01*
X157384750Y-59450000D01*
X157664000Y-59450000D01*
X157664000Y-59909974D01*
X157648559Y-59919910D01*
X157503569Y-60132110D01*
X157452560Y-60384000D01*
X157452560Y-61884000D01*
X157496838Y-62119317D01*
X157635910Y-62335441D01*
X157848110Y-62480431D01*
X157881490Y-62487191D01*
X157740301Y-62545673D01*
X157561673Y-62724302D01*
X157465000Y-62957691D01*
X157465000Y-63548250D01*
X157623750Y-63707000D01*
X158623000Y-63707000D01*
X158623000Y-63687000D01*
X158877000Y-63687000D01*
X158877000Y-63707000D01*
X159876250Y-63707000D01*
X160035000Y-63548250D01*
X160035000Y-62957691D01*
X159938327Y-62724302D01*
X159759699Y-62545673D01*
X159623713Y-62489346D01*
X159635317Y-62487162D01*
X159851441Y-62348090D01*
X159996431Y-62135890D01*
X160047440Y-61884000D01*
X160047440Y-60384000D01*
X160003162Y-60148683D01*
X159934000Y-60041202D01*
X159934000Y-59459402D01*
X159949000Y-59462440D01*
X161049000Y-59462440D01*
X161284317Y-59418162D01*
X161500441Y-59279090D01*
X161645431Y-59066890D01*
X161696440Y-58815000D01*
X161696440Y-57900000D01*
X162179000Y-57900000D01*
X162709017Y-57794573D01*
X163158343Y-57494343D01*
X165063343Y-55589343D01*
X165145493Y-55466397D01*
X165363573Y-55140017D01*
X165469000Y-54610000D01*
X165469000Y-47650750D01*
X168463000Y-47650750D01*
X168463000Y-52191309D01*
X168559673Y-52424698D01*
X168738301Y-52603327D01*
X168971690Y-52700000D01*
X174212250Y-52700000D01*
X174371000Y-52541250D01*
X174371000Y-47492000D01*
X168621750Y-47492000D01*
X168463000Y-47650750D01*
X165469000Y-47650750D01*
X165469000Y-42538691D01*
X168463000Y-42538691D01*
X168463000Y-47079250D01*
X168621750Y-47238000D01*
X174371000Y-47238000D01*
X174371000Y-42188750D01*
X174625000Y-42188750D01*
X174625000Y-47238000D01*
X174645000Y-47238000D01*
X174645000Y-47492000D01*
X174625000Y-47492000D01*
X174625000Y-52541250D01*
X174783750Y-52700000D01*
X180024310Y-52700000D01*
X180098000Y-52669477D01*
X180098000Y-53782314D01*
X179095440Y-54784874D01*
X179095440Y-54215000D01*
X179051162Y-53979683D01*
X178912090Y-53763559D01*
X178699890Y-53618569D01*
X178448000Y-53567560D01*
X177348000Y-53567560D01*
X177112683Y-53611838D01*
X177049522Y-53652481D01*
X176999890Y-53618569D01*
X176748000Y-53567560D01*
X175648000Y-53567560D01*
X175412683Y-53611838D01*
X175349433Y-53652538D01*
X175174310Y-53580000D01*
X174783750Y-53580000D01*
X174625000Y-53738750D01*
X174625000Y-56388000D01*
X174645000Y-56388000D01*
X174645000Y-56642000D01*
X174625000Y-56642000D01*
X174625000Y-59291250D01*
X174783750Y-59450000D01*
X175063000Y-59450000D01*
X175063000Y-59829182D01*
X175029569Y-59878110D01*
X174978560Y-60130000D01*
X174978560Y-61630000D01*
X175022838Y-61865317D01*
X175161910Y-62081441D01*
X175374110Y-62226431D01*
X175407490Y-62233191D01*
X175266301Y-62291673D01*
X175087673Y-62470302D01*
X174991000Y-62703691D01*
X174991000Y-63294250D01*
X175149750Y-63453000D01*
X176149000Y-63453000D01*
X176149000Y-63433000D01*
X176403000Y-63433000D01*
X176403000Y-63453000D01*
X177402250Y-63453000D01*
X177561000Y-63294250D01*
X177561000Y-62703691D01*
X177464327Y-62470302D01*
X177285699Y-62291673D01*
X177149713Y-62235346D01*
X177161317Y-62233162D01*
X177377441Y-62094090D01*
X177522431Y-61881890D01*
X177573440Y-61630000D01*
X177573440Y-60130000D01*
X177529162Y-59894683D01*
X177390090Y-59678559D01*
X177333000Y-59639551D01*
X177333000Y-59459402D01*
X177348000Y-59462440D01*
X178448000Y-59462440D01*
X178683317Y-59418162D01*
X178899441Y-59279090D01*
X179044431Y-59066890D01*
X179095440Y-58815000D01*
X179095440Y-57646000D01*
X179578000Y-57646000D01*
X180108017Y-57540573D01*
X180557343Y-57240343D01*
X182462343Y-55335343D01*
X182544493Y-55212397D01*
X182762573Y-54886017D01*
X182868000Y-54356000D01*
X182868000Y-38735000D01*
X182762573Y-38204983D01*
X182462343Y-37755657D01*
X178935440Y-34228754D01*
X178935440Y-33040000D01*
X178891162Y-32804683D01*
X178752090Y-32588559D01*
X178539890Y-32443569D01*
X178288000Y-32392560D01*
X175788000Y-32392560D01*
X175552683Y-32436838D01*
X175336559Y-32575910D01*
X175191569Y-32788110D01*
X175140560Y-33040000D01*
X175140560Y-35540000D01*
X175184838Y-35775317D01*
X175323910Y-35991441D01*
X175536110Y-36136431D01*
X175788000Y-36187440D01*
X176976754Y-36187440D01*
X180098000Y-39308686D01*
X180098000Y-42060523D01*
X180024310Y-42030000D01*
X174783750Y-42030000D01*
X174625000Y-42188750D01*
X174371000Y-42188750D01*
X174212250Y-42030000D01*
X168971690Y-42030000D01*
X168738301Y-42126673D01*
X168559673Y-42305302D01*
X168463000Y-42538691D01*
X165469000Y-42538691D01*
X165469000Y-38735000D01*
X165363573Y-38204983D01*
X165063343Y-37755657D01*
X161536440Y-34228754D01*
X161536440Y-33040000D01*
X161528161Y-32996000D01*
X167390654Y-32996000D01*
X170194327Y-35799673D01*
X170886970Y-36262483D01*
X171704000Y-36425000D01*
X172038000Y-36425000D01*
X172855029Y-36262483D01*
X173547673Y-35799673D01*
X174010483Y-35107029D01*
X174173000Y-34290000D01*
X174010483Y-33472971D01*
X173547673Y-32780327D01*
X172855029Y-32317517D01*
X172724998Y-32291652D01*
X172267018Y-31833672D01*
X180720538Y-31833672D01*
X181125709Y-32814261D01*
X181875293Y-33565155D01*
X182855173Y-33972036D01*
X183916172Y-33972962D01*
X184896761Y-33567791D01*
X185647655Y-32818207D01*
X186054536Y-31838327D01*
X186055462Y-30777328D01*
X185650291Y-29796739D01*
X184900707Y-29045845D01*
X183920827Y-28638964D01*
X182859828Y-28638038D01*
X181879239Y-29043209D01*
X181128345Y-29792793D01*
X180721464Y-30772673D01*
X180720538Y-31833672D01*
X172267018Y-31833672D01*
X169784673Y-29351327D01*
X169092029Y-28888517D01*
X168275000Y-28726000D01*
X158068000Y-28726000D01*
X157250970Y-28888517D01*
X156558327Y-29351327D01*
X154639000Y-31270654D01*
X152592673Y-29224327D01*
X151900029Y-28761517D01*
X151083000Y-28599000D01*
X139573000Y-28599000D01*
X138755970Y-28761517D01*
X138063327Y-29224327D01*
X135730327Y-31557327D01*
X135267517Y-32249971D01*
X135105000Y-33067000D01*
X135105000Y-33452654D01*
X128284327Y-40273327D01*
X127964000Y-40752730D01*
X127964000Y-31770172D01*
X128523538Y-31770172D01*
X128928709Y-32750761D01*
X129678293Y-33501655D01*
X130658173Y-33908536D01*
X131719172Y-33909462D01*
X132699761Y-33504291D01*
X133450655Y-32754707D01*
X133857536Y-31774827D01*
X133858462Y-30713828D01*
X133453291Y-29733239D01*
X132703707Y-28982345D01*
X131723827Y-28575464D01*
X130662828Y-28574538D01*
X129682239Y-28979709D01*
X128931345Y-29729293D01*
X128524464Y-30709173D01*
X128523538Y-31770172D01*
X127964000Y-31770172D01*
X127964000Y-30549931D01*
X128164488Y-29542007D01*
X128695817Y-28746817D01*
X129491007Y-28215488D01*
X130498931Y-28015000D01*
X183329994Y-28015000D01*
X184601098Y-28224082D01*
G36*
X142374599Y-74959401D02*
X142601032Y-75110698D01*
X142537120Y-75206349D01*
X142427887Y-75755500D01*
X142537120Y-76304651D01*
X142848189Y-76770198D01*
X143230275Y-77025500D01*
X142848189Y-77280802D01*
X142537120Y-77746349D01*
X142427887Y-78295500D01*
X142534106Y-78829500D01*
X140935440Y-78829500D01*
X140935440Y-78639500D01*
X140891162Y-78404183D01*
X140752090Y-78188059D01*
X140539890Y-78043069D01*
X140288000Y-77992060D01*
X139488000Y-77992060D01*
X139252683Y-78036338D01*
X139036559Y-78175410D01*
X138941010Y-78315250D01*
X138926327Y-78279802D01*
X138747699Y-78101173D01*
X138514310Y-78004500D01*
X138273750Y-78004500D01*
X138115000Y-78163250D01*
X138115000Y-79462500D01*
X138135000Y-79462500D01*
X138135000Y-79716500D01*
X138115000Y-79716500D01*
X138115000Y-81015750D01*
X138201012Y-81101762D01*
X138086559Y-81175410D01*
X137941569Y-81387610D01*
X137890560Y-81639500D01*
X137890560Y-81790000D01*
X137092742Y-81790000D01*
X137069162Y-81664683D01*
X136930090Y-81448559D01*
X136717890Y-81303569D01*
X136466000Y-81252560D01*
X136429020Y-81252560D01*
X136429020Y-81099669D01*
X136503777Y-81085602D01*
X136719901Y-80946530D01*
X136864891Y-80734330D01*
X136915900Y-80482440D01*
X136915900Y-79875250D01*
X136953000Y-79875250D01*
X136953000Y-80665809D01*
X137049673Y-80899198D01*
X137228301Y-81077827D01*
X137461690Y-81174500D01*
X137702250Y-81174500D01*
X137861000Y-81015750D01*
X137861000Y-79716500D01*
X137111750Y-79716500D01*
X136953000Y-79875250D01*
X136915900Y-79875250D01*
X136915900Y-79283560D01*
X136871622Y-79048243D01*
X136732550Y-78832119D01*
X136520350Y-78687129D01*
X136268460Y-78636120D01*
X135069580Y-78636120D01*
X134834263Y-78680398D01*
X134618139Y-78819470D01*
X134612544Y-78827659D01*
X134530118Y-78745233D01*
X134296729Y-78648560D01*
X133856730Y-78648560D01*
X133697980Y-78807310D01*
X133697980Y-79756000D01*
X133717980Y-79756000D01*
X133717980Y-80010000D01*
X133697980Y-80010000D01*
X133697980Y-80958690D01*
X133856730Y-81117440D01*
X134296729Y-81117440D01*
X134530118Y-81020767D01*
X134612331Y-80938555D01*
X134817690Y-81078871D01*
X134909020Y-81097366D01*
X134909020Y-81263282D01*
X134730683Y-81296838D01*
X134514559Y-81435910D01*
X134369569Y-81648110D01*
X134366919Y-81661197D01*
X134230090Y-81448559D01*
X134017890Y-81303569D01*
X133766000Y-81252560D01*
X132266000Y-81252560D01*
X132030683Y-81296838D01*
X131992500Y-81321408D01*
X131992500Y-80168750D01*
X132336540Y-80168750D01*
X132336540Y-80608750D01*
X132433213Y-80842139D01*
X132611842Y-81020767D01*
X132845231Y-81117440D01*
X133285230Y-81117440D01*
X133443980Y-80958690D01*
X133443980Y-80010000D01*
X132495290Y-80010000D01*
X132336540Y-80168750D01*
X131992500Y-80168750D01*
X131992500Y-79157250D01*
X132336540Y-79157250D01*
X132336540Y-79597250D01*
X132495290Y-79756000D01*
X133443980Y-79756000D01*
X133443980Y-78807310D01*
X133285230Y-78648560D01*
X132845231Y-78648560D01*
X132611842Y-78745233D01*
X132433213Y-78923861D01*
X132336540Y-79157250D01*
X131992500Y-79157250D01*
X131992500Y-78513191D01*
X136953000Y-78513191D01*
X136953000Y-79303750D01*
X137111750Y-79462500D01*
X137861000Y-79462500D01*
X137861000Y-78163250D01*
X137702250Y-78004500D01*
X137461690Y-78004500D01*
X137228301Y-78101173D01*
X137049673Y-78279802D01*
X136953000Y-78513191D01*
X131992500Y-78513191D01*
X131992500Y-75693890D01*
X132141110Y-75795431D01*
X132393000Y-75846440D01*
X133893000Y-75846440D01*
X134128317Y-75802162D01*
X134344441Y-75663090D01*
X134489431Y-75450890D01*
X134492081Y-75437803D01*
X134628910Y-75650441D01*
X134841110Y-75795431D01*
X135093000Y-75846440D01*
X136593000Y-75846440D01*
X136828317Y-75802162D01*
X137044441Y-75663090D01*
X137189431Y-75450890D01*
X137218164Y-75309000D01*
X138017560Y-75309000D01*
X138017560Y-75475000D01*
X138061838Y-75710317D01*
X138200910Y-75926441D01*
X138413110Y-76071431D01*
X138665000Y-76122440D01*
X139465000Y-76122440D01*
X139700317Y-76078162D01*
X139916441Y-75939090D01*
X140061431Y-75726890D01*
X140112440Y-75475000D01*
X140112440Y-73575000D01*
X140068162Y-73339683D01*
X139929090Y-73123559D01*
X139927452Y-73122440D01*
X140415000Y-73122440D01*
X140518216Y-73103018D01*
X142374599Y-74959401D01*
X142374599Y-74959401D01*
G37*
X142374599Y-74959401D02*
X142601032Y-75110698D01*
X142537120Y-75206349D01*
X142427887Y-75755500D01*
X142537120Y-76304651D01*
X142848189Y-76770198D01*
X143230275Y-77025500D01*
X142848189Y-77280802D01*
X142537120Y-77746349D01*
X142427887Y-78295500D01*
X142534106Y-78829500D01*
X140935440Y-78829500D01*
X140935440Y-78639500D01*
X140891162Y-78404183D01*
X140752090Y-78188059D01*
X140539890Y-78043069D01*
X140288000Y-77992060D01*
X139488000Y-77992060D01*
X139252683Y-78036338D01*
X139036559Y-78175410D01*
X138941010Y-78315250D01*
X138926327Y-78279802D01*
X138747699Y-78101173D01*
X138514310Y-78004500D01*
X138273750Y-78004500D01*
X138115000Y-78163250D01*
X138115000Y-79462500D01*
X138135000Y-79462500D01*
X138135000Y-79716500D01*
X138115000Y-79716500D01*
X138115000Y-81015750D01*
X138201012Y-81101762D01*
X138086559Y-81175410D01*
X137941569Y-81387610D01*
X137890560Y-81639500D01*
X137890560Y-81790000D01*
X137092742Y-81790000D01*
X137069162Y-81664683D01*
X136930090Y-81448559D01*
X136717890Y-81303569D01*
X136466000Y-81252560D01*
X136429020Y-81252560D01*
X136429020Y-81099669D01*
X136503777Y-81085602D01*
X136719901Y-80946530D01*
X136864891Y-80734330D01*
X136915900Y-80482440D01*
X136915900Y-79875250D01*
X136953000Y-79875250D01*
X136953000Y-80665809D01*
X137049673Y-80899198D01*
X137228301Y-81077827D01*
X137461690Y-81174500D01*
X137702250Y-81174500D01*
X137861000Y-81015750D01*
X137861000Y-79716500D01*
X137111750Y-79716500D01*
X136953000Y-79875250D01*
X136915900Y-79875250D01*
X136915900Y-79283560D01*
X136871622Y-79048243D01*
X136732550Y-78832119D01*
X136520350Y-78687129D01*
X136268460Y-78636120D01*
X135069580Y-78636120D01*
X134834263Y-78680398D01*
X134618139Y-78819470D01*
X134612544Y-78827659D01*
X134530118Y-78745233D01*
X134296729Y-78648560D01*
X133856730Y-78648560D01*
X133697980Y-78807310D01*
X133697980Y-79756000D01*
X133717980Y-79756000D01*
X133717980Y-80010000D01*
X133697980Y-80010000D01*
X133697980Y-80958690D01*
X133856730Y-81117440D01*
X134296729Y-81117440D01*
X134530118Y-81020767D01*
X134612331Y-80938555D01*
X134817690Y-81078871D01*
X134909020Y-81097366D01*
X134909020Y-81263282D01*
X134730683Y-81296838D01*
X134514559Y-81435910D01*
X134369569Y-81648110D01*
X134366919Y-81661197D01*
X134230090Y-81448559D01*
X134017890Y-81303569D01*
X133766000Y-81252560D01*
X132266000Y-81252560D01*
X132030683Y-81296838D01*
X131992500Y-81321408D01*
X131992500Y-80168750D01*
X132336540Y-80168750D01*
X132336540Y-80608750D01*
X132433213Y-80842139D01*
X132611842Y-81020767D01*
X132845231Y-81117440D01*
X133285230Y-81117440D01*
X133443980Y-80958690D01*
X133443980Y-80010000D01*
X132495290Y-80010000D01*
X132336540Y-80168750D01*
X131992500Y-80168750D01*
X131992500Y-79157250D01*
X132336540Y-79157250D01*
X132336540Y-79597250D01*
X132495290Y-79756000D01*
X133443980Y-79756000D01*
X133443980Y-78807310D01*
X133285230Y-78648560D01*
X132845231Y-78648560D01*
X132611842Y-78745233D01*
X132433213Y-78923861D01*
X132336540Y-79157250D01*
X131992500Y-79157250D01*
X131992500Y-78513191D01*
X136953000Y-78513191D01*
X136953000Y-79303750D01*
X137111750Y-79462500D01*
X137861000Y-79462500D01*
X137861000Y-78163250D01*
X137702250Y-78004500D01*
X137461690Y-78004500D01*
X137228301Y-78101173D01*
X137049673Y-78279802D01*
X136953000Y-78513191D01*
X131992500Y-78513191D01*
X131992500Y-75693890D01*
X132141110Y-75795431D01*
X132393000Y-75846440D01*
X133893000Y-75846440D01*
X134128317Y-75802162D01*
X134344441Y-75663090D01*
X134489431Y-75450890D01*
X134492081Y-75437803D01*
X134628910Y-75650441D01*
X134841110Y-75795431D01*
X135093000Y-75846440D01*
X136593000Y-75846440D01*
X136828317Y-75802162D01*
X137044441Y-75663090D01*
X137189431Y-75450890D01*
X137218164Y-75309000D01*
X138017560Y-75309000D01*
X138017560Y-75475000D01*
X138061838Y-75710317D01*
X138200910Y-75926441D01*
X138413110Y-76071431D01*
X138665000Y-76122440D01*
X139465000Y-76122440D01*
X139700317Y-76078162D01*
X139916441Y-75939090D01*
X140061431Y-75726890D01*
X140112440Y-75475000D01*
X140112440Y-73575000D01*
X140068162Y-73339683D01*
X139929090Y-73123559D01*
X139927452Y-73122440D01*
X140415000Y-73122440D01*
X140518216Y-73103018D01*
X142374599Y-74959401D01*
G36*
X156089910Y-75644241D02*
X156229750Y-75739790D01*
X156194302Y-75754473D01*
X156015673Y-75933101D01*
X155919000Y-76166490D01*
X155919000Y-76407050D01*
X156077750Y-76565800D01*
X157377000Y-76565800D01*
X157377000Y-76545800D01*
X157631000Y-76545800D01*
X157631000Y-76565800D01*
X158930250Y-76565800D01*
X159016262Y-76479788D01*
X159089910Y-76594241D01*
X159302110Y-76739231D01*
X159554000Y-76790240D01*
X161454000Y-76790240D01*
X161689317Y-76745962D01*
X161905441Y-76606890D01*
X161976563Y-76502800D01*
X163328090Y-76502800D01*
X163549189Y-76833698D01*
X163832000Y-77022667D01*
X163832000Y-77155333D01*
X163549189Y-77344302D01*
X163238120Y-77809849D01*
X163128887Y-78359000D01*
X163154916Y-78489856D01*
X162890200Y-78437200D01*
X161730742Y-78437200D01*
X161707162Y-78311883D01*
X161568090Y-78095759D01*
X161355890Y-77950769D01*
X161104000Y-77899760D01*
X159604000Y-77899760D01*
X159368683Y-77944038D01*
X159152559Y-78083110D01*
X159007569Y-78295310D01*
X159004919Y-78308397D01*
X158868090Y-78095759D01*
X158655890Y-77950769D01*
X158404000Y-77899760D01*
X156904000Y-77899760D01*
X156668683Y-77944038D01*
X156452559Y-78083110D01*
X156307569Y-78295310D01*
X156278836Y-78437200D01*
X154587204Y-78437200D01*
X154430000Y-78279996D01*
X154430000Y-76978550D01*
X155919000Y-76978550D01*
X155919000Y-77219110D01*
X156015673Y-77452499D01*
X156194302Y-77631127D01*
X156427691Y-77727800D01*
X157218250Y-77727800D01*
X157377000Y-77569050D01*
X157377000Y-76819800D01*
X157631000Y-76819800D01*
X157631000Y-77569050D01*
X157789750Y-77727800D01*
X158580309Y-77727800D01*
X158813698Y-77631127D01*
X158992327Y-77452499D01*
X159089000Y-77219110D01*
X159089000Y-76978550D01*
X158930250Y-76819800D01*
X157631000Y-76819800D01*
X157377000Y-76819800D01*
X156077750Y-76819800D01*
X155919000Y-76978550D01*
X154430000Y-76978550D01*
X154430000Y-75752802D01*
X154630002Y-75552800D01*
X156031069Y-75552800D01*
X156089910Y-75644241D01*
X156089910Y-75644241D01*
G37*
X156089910Y-75644241D02*
X156229750Y-75739790D01*
X156194302Y-75754473D01*
X156015673Y-75933101D01*
X155919000Y-76166490D01*
X155919000Y-76407050D01*
X156077750Y-76565800D01*
X157377000Y-76565800D01*
X157377000Y-76545800D01*
X157631000Y-76545800D01*
X157631000Y-76565800D01*
X158930250Y-76565800D01*
X159016262Y-76479788D01*
X159089910Y-76594241D01*
X159302110Y-76739231D01*
X159554000Y-76790240D01*
X161454000Y-76790240D01*
X161689317Y-76745962D01*
X161905441Y-76606890D01*
X161976563Y-76502800D01*
X163328090Y-76502800D01*
X163549189Y-76833698D01*
X163832000Y-77022667D01*
X163832000Y-77155333D01*
X163549189Y-77344302D01*
X163238120Y-77809849D01*
X163128887Y-78359000D01*
X163154916Y-78489856D01*
X162890200Y-78437200D01*
X161730742Y-78437200D01*
X161707162Y-78311883D01*
X161568090Y-78095759D01*
X161355890Y-77950769D01*
X161104000Y-77899760D01*
X159604000Y-77899760D01*
X159368683Y-77944038D01*
X159152559Y-78083110D01*
X159007569Y-78295310D01*
X159004919Y-78308397D01*
X158868090Y-78095759D01*
X158655890Y-77950769D01*
X158404000Y-77899760D01*
X156904000Y-77899760D01*
X156668683Y-77944038D01*
X156452559Y-78083110D01*
X156307569Y-78295310D01*
X156278836Y-78437200D01*
X154587204Y-78437200D01*
X154430000Y-78279996D01*
X154430000Y-76978550D01*
X155919000Y-76978550D01*
X155919000Y-77219110D01*
X156015673Y-77452499D01*
X156194302Y-77631127D01*
X156427691Y-77727800D01*
X157218250Y-77727800D01*
X157377000Y-77569050D01*
X157377000Y-76819800D01*
X157631000Y-76819800D01*
X157631000Y-77569050D01*
X157789750Y-77727800D01*
X158580309Y-77727800D01*
X158813698Y-77631127D01*
X158992327Y-77452499D01*
X159089000Y-77219110D01*
X159089000Y-76978550D01*
X158930250Y-76819800D01*
X157631000Y-76819800D01*
X157377000Y-76819800D01*
X156077750Y-76819800D01*
X155919000Y-76978550D01*
X154430000Y-76978550D01*
X154430000Y-75752802D01*
X154630002Y-75552800D01*
X156031069Y-75552800D01*
X156089910Y-75644241D01*
G36*
X157347038Y-71092560D02*
X156904000Y-71092560D01*
X156668683Y-71136838D01*
X156452559Y-71275910D01*
X156307569Y-71488110D01*
X156256560Y-71740000D01*
X156256560Y-73040000D01*
X156300838Y-73275317D01*
X156439910Y-73491441D01*
X156652110Y-73636431D01*
X156904000Y-73687440D01*
X158404000Y-73687440D01*
X158639317Y-73643162D01*
X158855441Y-73504090D01*
X159000431Y-73291890D01*
X159003081Y-73278803D01*
X159139910Y-73491441D01*
X159352110Y-73636431D01*
X159594000Y-73685415D01*
X159594000Y-74695360D01*
X159554000Y-74695360D01*
X159318683Y-74739638D01*
X159102559Y-74878710D01*
X159101440Y-74880348D01*
X159101440Y-74392800D01*
X159057162Y-74157483D01*
X158918090Y-73941359D01*
X158705890Y-73796369D01*
X158454000Y-73745360D01*
X156554000Y-73745360D01*
X156318683Y-73789638D01*
X156102559Y-73928710D01*
X156031437Y-74032800D01*
X154315200Y-74032800D01*
X154024361Y-74090652D01*
X153922000Y-74159047D01*
X153922000Y-72260302D01*
X155206680Y-70975622D01*
X155252167Y-70975662D01*
X155595943Y-70833617D01*
X155859192Y-70570827D01*
X156001838Y-70227299D01*
X156002162Y-69855333D01*
X155860117Y-69511557D01*
X155597327Y-69248308D01*
X155253799Y-69105662D01*
X154881833Y-69105338D01*
X154538057Y-69247383D01*
X154274808Y-69510173D01*
X154132162Y-69853701D01*
X154132121Y-69900577D01*
X152624599Y-71408099D01*
X152459852Y-71654661D01*
X152402000Y-71945500D01*
X152402000Y-72102704D01*
X152366134Y-72063111D01*
X151860041Y-71823586D01*
X151638000Y-71944871D01*
X151638000Y-73088500D01*
X151658000Y-73088500D01*
X151658000Y-73342500D01*
X151638000Y-73342500D01*
X151638000Y-73362500D01*
X151384000Y-73362500D01*
X151384000Y-73342500D01*
X150241085Y-73342500D01*
X150119096Y-73564539D01*
X150279959Y-73952923D01*
X150655866Y-74367889D01*
X150872703Y-74470514D01*
X150468189Y-74740802D01*
X150298005Y-74995500D01*
X146237802Y-74995500D01*
X145465726Y-74223424D01*
X145773066Y-74018066D01*
X146924671Y-72866461D01*
X150119096Y-72866461D01*
X150241085Y-73088500D01*
X151384000Y-73088500D01*
X151384000Y-71944871D01*
X151161959Y-71823586D01*
X150655866Y-72063111D01*
X150279959Y-72478077D01*
X150119096Y-72866461D01*
X146924671Y-72866461D01*
X150854132Y-68937000D01*
X159502598Y-68937000D01*
X157347038Y-71092560D01*
X157347038Y-71092560D01*
G37*
X157347038Y-71092560D02*
X156904000Y-71092560D01*
X156668683Y-71136838D01*
X156452559Y-71275910D01*
X156307569Y-71488110D01*
X156256560Y-71740000D01*
X156256560Y-73040000D01*
X156300838Y-73275317D01*
X156439910Y-73491441D01*
X156652110Y-73636431D01*
X156904000Y-73687440D01*
X158404000Y-73687440D01*
X158639317Y-73643162D01*
X158855441Y-73504090D01*
X159000431Y-73291890D01*
X159003081Y-73278803D01*
X159139910Y-73491441D01*
X159352110Y-73636431D01*
X159594000Y-73685415D01*
X159594000Y-74695360D01*
X159554000Y-74695360D01*
X159318683Y-74739638D01*
X159102559Y-74878710D01*
X159101440Y-74880348D01*
X159101440Y-74392800D01*
X159057162Y-74157483D01*
X158918090Y-73941359D01*
X158705890Y-73796369D01*
X158454000Y-73745360D01*
X156554000Y-73745360D01*
X156318683Y-73789638D01*
X156102559Y-73928710D01*
X156031437Y-74032800D01*
X154315200Y-74032800D01*
X154024361Y-74090652D01*
X153922000Y-74159047D01*
X153922000Y-72260302D01*
X155206680Y-70975622D01*
X155252167Y-70975662D01*
X155595943Y-70833617D01*
X155859192Y-70570827D01*
X156001838Y-70227299D01*
X156002162Y-69855333D01*
X155860117Y-69511557D01*
X155597327Y-69248308D01*
X155253799Y-69105662D01*
X154881833Y-69105338D01*
X154538057Y-69247383D01*
X154274808Y-69510173D01*
X154132162Y-69853701D01*
X154132121Y-69900577D01*
X152624599Y-71408099D01*
X152459852Y-71654661D01*
X152402000Y-71945500D01*
X152402000Y-72102704D01*
X152366134Y-72063111D01*
X151860041Y-71823586D01*
X151638000Y-71944871D01*
X151638000Y-73088500D01*
X151658000Y-73088500D01*
X151658000Y-73342500D01*
X151638000Y-73342500D01*
X151638000Y-73362500D01*
X151384000Y-73362500D01*
X151384000Y-73342500D01*
X150241085Y-73342500D01*
X150119096Y-73564539D01*
X150279959Y-73952923D01*
X150655866Y-74367889D01*
X150872703Y-74470514D01*
X150468189Y-74740802D01*
X150298005Y-74995500D01*
X146237802Y-74995500D01*
X145465726Y-74223424D01*
X145773066Y-74018066D01*
X146924671Y-72866461D01*
X150119096Y-72866461D01*
X150241085Y-73088500D01*
X151384000Y-73088500D01*
X151384000Y-71944871D01*
X151161959Y-71823586D01*
X150655866Y-72063111D01*
X150279959Y-72478077D01*
X150119096Y-72866461D01*
X146924671Y-72866461D01*
X150854132Y-68937000D01*
X159502598Y-68937000D01*
X157347038Y-71092560D01*
G36*
X144601865Y-71979003D02*
X144468264Y-71889733D01*
X143919113Y-71780500D01*
X143862887Y-71780500D01*
X143313736Y-71889733D01*
X142848189Y-72200802D01*
X142537120Y-72666349D01*
X142486356Y-72921554D01*
X141062440Y-71497638D01*
X141062440Y-70575000D01*
X141018162Y-70339683D01*
X140879090Y-70123559D01*
X140666890Y-69978569D01*
X140415000Y-69927560D01*
X139615000Y-69927560D01*
X139379683Y-69971838D01*
X139163559Y-70110910D01*
X139068010Y-70250750D01*
X139053327Y-70215302D01*
X138874699Y-70036673D01*
X138641310Y-69940000D01*
X138400750Y-69940000D01*
X138242000Y-70098750D01*
X138242000Y-71398000D01*
X138262000Y-71398000D01*
X138262000Y-71652000D01*
X138242000Y-71652000D01*
X138242000Y-72951250D01*
X138328012Y-73037262D01*
X138213559Y-73110910D01*
X138068569Y-73323110D01*
X138017560Y-73575000D01*
X138017560Y-73789000D01*
X137219742Y-73789000D01*
X137196162Y-73663683D01*
X137057090Y-73447559D01*
X136844890Y-73302569D01*
X136593000Y-73251560D01*
X136556020Y-73251560D01*
X136556020Y-72844669D01*
X136630777Y-72830602D01*
X136846901Y-72691530D01*
X136991891Y-72479330D01*
X137042900Y-72227440D01*
X137042900Y-71810750D01*
X137080000Y-71810750D01*
X137080000Y-72601309D01*
X137176673Y-72834698D01*
X137355301Y-73013327D01*
X137588690Y-73110000D01*
X137829250Y-73110000D01*
X137988000Y-72951250D01*
X137988000Y-71652000D01*
X137238750Y-71652000D01*
X137080000Y-71810750D01*
X137042900Y-71810750D01*
X137042900Y-71028560D01*
X136998622Y-70793243D01*
X136859550Y-70577119D01*
X136671590Y-70448691D01*
X137080000Y-70448691D01*
X137080000Y-71239250D01*
X137238750Y-71398000D01*
X137988000Y-71398000D01*
X137988000Y-70098750D01*
X137829250Y-69940000D01*
X137588690Y-69940000D01*
X137355301Y-70036673D01*
X137176673Y-70215302D01*
X137080000Y-70448691D01*
X136671590Y-70448691D01*
X136647350Y-70432129D01*
X136395460Y-70381120D01*
X135196580Y-70381120D01*
X134961263Y-70425398D01*
X134745139Y-70564470D01*
X134739544Y-70572659D01*
X134657118Y-70490233D01*
X134423729Y-70393560D01*
X133983730Y-70393560D01*
X133824980Y-70552310D01*
X133824980Y-71501000D01*
X133844980Y-71501000D01*
X133844980Y-71755000D01*
X133824980Y-71755000D01*
X133824980Y-72703690D01*
X133983730Y-72862440D01*
X134423729Y-72862440D01*
X134657118Y-72765767D01*
X134739331Y-72683555D01*
X134944690Y-72823871D01*
X135036020Y-72842366D01*
X135036020Y-73262282D01*
X134857683Y-73295838D01*
X134641559Y-73434910D01*
X134496569Y-73647110D01*
X134493919Y-73660197D01*
X134357090Y-73447559D01*
X134144890Y-73302569D01*
X133893000Y-73251560D01*
X133735165Y-73251560D01*
X133680401Y-73169599D01*
X133373242Y-72862440D01*
X133412230Y-72862440D01*
X133570980Y-72703690D01*
X133570980Y-71755000D01*
X132622290Y-71755000D01*
X132463540Y-71913750D01*
X132463540Y-71952738D01*
X131992500Y-71481698D01*
X131992500Y-71305846D01*
X132511230Y-70787116D01*
X132463540Y-70902250D01*
X132463540Y-71342250D01*
X132622290Y-71501000D01*
X133570980Y-71501000D01*
X133570980Y-70552310D01*
X133412230Y-70393560D01*
X132972231Y-70393560D01*
X132857095Y-70441251D01*
X134361346Y-68937000D01*
X147643868Y-68937000D01*
X144601865Y-71979003D01*
X144601865Y-71979003D01*
G37*
X144601865Y-71979003D02*
X144468264Y-71889733D01*
X143919113Y-71780500D01*
X143862887Y-71780500D01*
X143313736Y-71889733D01*
X142848189Y-72200802D01*
X142537120Y-72666349D01*
X142486356Y-72921554D01*
X141062440Y-71497638D01*
X141062440Y-70575000D01*
X141018162Y-70339683D01*
X140879090Y-70123559D01*
X140666890Y-69978569D01*
X140415000Y-69927560D01*
X139615000Y-69927560D01*
X139379683Y-69971838D01*
X139163559Y-70110910D01*
X139068010Y-70250750D01*
X139053327Y-70215302D01*
X138874699Y-70036673D01*
X138641310Y-69940000D01*
X138400750Y-69940000D01*
X138242000Y-70098750D01*
X138242000Y-71398000D01*
X138262000Y-71398000D01*
X138262000Y-71652000D01*
X138242000Y-71652000D01*
X138242000Y-72951250D01*
X138328012Y-73037262D01*
X138213559Y-73110910D01*
X138068569Y-73323110D01*
X138017560Y-73575000D01*
X138017560Y-73789000D01*
X137219742Y-73789000D01*
X137196162Y-73663683D01*
X137057090Y-73447559D01*
X136844890Y-73302569D01*
X136593000Y-73251560D01*
X136556020Y-73251560D01*
X136556020Y-72844669D01*
X136630777Y-72830602D01*
X136846901Y-72691530D01*
X136991891Y-72479330D01*
X137042900Y-72227440D01*
X137042900Y-71810750D01*
X137080000Y-71810750D01*
X137080000Y-72601309D01*
X137176673Y-72834698D01*
X137355301Y-73013327D01*
X137588690Y-73110000D01*
X137829250Y-73110000D01*
X137988000Y-72951250D01*
X137988000Y-71652000D01*
X137238750Y-71652000D01*
X137080000Y-71810750D01*
X137042900Y-71810750D01*
X137042900Y-71028560D01*
X136998622Y-70793243D01*
X136859550Y-70577119D01*
X136671590Y-70448691D01*
X137080000Y-70448691D01*
X137080000Y-71239250D01*
X137238750Y-71398000D01*
X137988000Y-71398000D01*
X137988000Y-70098750D01*
X137829250Y-69940000D01*
X137588690Y-69940000D01*
X137355301Y-70036673D01*
X137176673Y-70215302D01*
X137080000Y-70448691D01*
X136671590Y-70448691D01*
X136647350Y-70432129D01*
X136395460Y-70381120D01*
X135196580Y-70381120D01*
X134961263Y-70425398D01*
X134745139Y-70564470D01*
X134739544Y-70572659D01*
X134657118Y-70490233D01*
X134423729Y-70393560D01*
X133983730Y-70393560D01*
X133824980Y-70552310D01*
X133824980Y-71501000D01*
X133844980Y-71501000D01*
X133844980Y-71755000D01*
X133824980Y-71755000D01*
X133824980Y-72703690D01*
X133983730Y-72862440D01*
X134423729Y-72862440D01*
X134657118Y-72765767D01*
X134739331Y-72683555D01*
X134944690Y-72823871D01*
X135036020Y-72842366D01*
X135036020Y-73262282D01*
X134857683Y-73295838D01*
X134641559Y-73434910D01*
X134496569Y-73647110D01*
X134493919Y-73660197D01*
X134357090Y-73447559D01*
X134144890Y-73302569D01*
X133893000Y-73251560D01*
X133735165Y-73251560D01*
X133680401Y-73169599D01*
X133373242Y-72862440D01*
X133412230Y-72862440D01*
X133570980Y-72703690D01*
X133570980Y-71755000D01*
X132622290Y-71755000D01*
X132463540Y-71913750D01*
X132463540Y-71952738D01*
X131992500Y-71481698D01*
X131992500Y-71305846D01*
X132511230Y-70787116D01*
X132463540Y-70902250D01*
X132463540Y-71342250D01*
X132622290Y-71501000D01*
X133570980Y-71501000D01*
X133570980Y-70552310D01*
X133412230Y-70393560D01*
X132972231Y-70393560D01*
X132857095Y-70441251D01*
X134361346Y-68937000D01*
X147643868Y-68937000D01*
X144601865Y-71979003D01*
M02*
