G04 #@! TF.FileFunction,Copper,L2,Bot,Signal*
%FSLAX46Y46*%
G04 Gerber Fmt 4.6, Leading zero omitted, Abs format (unit mm)*
G04 Created by KiCad (PCBNEW 4.0.6) date Wednesday, 20 September 2017 'PMt' 17:58:10*
%MOMM*%
%LPD*%
G01*
G04 APERTURE LIST*
%ADD10C,0.100000*%
%ADD11C,4.064000*%
%ADD12R,2.500000X2.500000*%
%ADD13C,2.500000*%
%ADD14R,1.727200X2.032000*%
%ADD15O,1.727200X2.032000*%
%ADD16O,1.600000X1.600000*%
%ADD17R,1.500000X1.250000*%
%ADD18R,1.250000X1.500000*%
%ADD19R,2.032000X2.032000*%
%ADD20O,2.032000X2.032000*%
%ADD21C,0.600000*%
%ADD22C,0.250000*%
%ADD23C,1.250000*%
%ADD24C,0.254000*%
G04 APERTURE END LIST*
D10*
D11*
X131191000Y-31242000D03*
X183388000Y-31305500D03*
X131191000Y-100457000D03*
D12*
X177038000Y-34290000D03*
D13*
X172038000Y-34290000D03*
D14*
X168211500Y-95567500D03*
D15*
X170751500Y-95567500D03*
X173291500Y-95567500D03*
X175831500Y-95567500D03*
X178371500Y-95567500D03*
X180911500Y-95567500D03*
D12*
X159639000Y-34290000D03*
D13*
X154639000Y-34290000D03*
D12*
X142240000Y-34290000D03*
D13*
X137240000Y-34290000D03*
D12*
X137096500Y-93281500D03*
D13*
X142096500Y-93281500D03*
D16*
X143891000Y-73215500D03*
X143891000Y-75755500D03*
X143891000Y-78295500D03*
X143891000Y-80835500D03*
X151511000Y-80835500D03*
X151511000Y-78295500D03*
X151511000Y-75755500D03*
X151511000Y-73215500D03*
X164592000Y-73279000D03*
X164592000Y-75819000D03*
X164592000Y-78359000D03*
X164592000Y-80899000D03*
X172212000Y-80899000D03*
X172212000Y-78359000D03*
X172212000Y-75819000D03*
X172212000Y-73279000D03*
D17*
X148951000Y-73215500D03*
X146451000Y-73215500D03*
D18*
X169672000Y-78212000D03*
X169672000Y-75712000D03*
D11*
X183388000Y-100393500D03*
D19*
X159956500Y-91059000D03*
D20*
X159956500Y-88519000D03*
D19*
X156337000Y-88519000D03*
D20*
X156337000Y-91059000D03*
D19*
X152717500Y-88519000D03*
D20*
X152717500Y-91059000D03*
D13*
X180022500Y-72169000D03*
D12*
X180022500Y-82169000D03*
D13*
X180022500Y-77169000D03*
D21*
X142557500Y-87820500D03*
X154432000Y-75247500D03*
X137985500Y-77533500D03*
X138112500Y-69342000D03*
X158115000Y-86487000D03*
X150622000Y-59563000D03*
X136271000Y-59563000D03*
X167767000Y-59563000D03*
X155067000Y-70040500D03*
X154559000Y-86487000D03*
D22*
X169672000Y-75712000D02*
X169779000Y-75712000D01*
X169779000Y-75712000D02*
X172212000Y-73279000D01*
X146451000Y-73215500D02*
X143891000Y-73215500D01*
D23*
X172038000Y-34036000D02*
X171958000Y-34036000D01*
D22*
X137096500Y-93281500D02*
X142557500Y-87820500D01*
X169672000Y-78212000D02*
X169672000Y-78359000D01*
X169672000Y-78359000D02*
X172212000Y-80899000D01*
X148951000Y-73215500D02*
X151511000Y-73215500D01*
X158115000Y-92837000D02*
X158115000Y-90297000D01*
X173291500Y-95567500D02*
X171259500Y-97599500D01*
X158115000Y-90297000D02*
X156337000Y-88519000D01*
X162877500Y-97599500D02*
X158115000Y-92837000D01*
X171259500Y-97599500D02*
X162877500Y-97599500D01*
X151511000Y-78295500D02*
X150304500Y-79502000D01*
X154940000Y-87122000D02*
X156337000Y-88519000D01*
X153162000Y-87122000D02*
X154940000Y-87122000D01*
X150304500Y-84264500D02*
X153162000Y-87122000D01*
X150304500Y-79502000D02*
X150304500Y-84264500D01*
X152717500Y-88519000D02*
X154559000Y-90360500D01*
X173291500Y-98107500D02*
X175831500Y-95567500D01*
X159829500Y-98107500D02*
X173291500Y-98107500D01*
X154559000Y-92837000D02*
X159829500Y-98107500D01*
X154559000Y-90360500D02*
X154559000Y-92837000D01*
X151511000Y-75755500D02*
X149733000Y-77533500D01*
X149733000Y-85534500D02*
X152717500Y-88519000D01*
X149733000Y-77533500D02*
X149733000Y-85534500D01*
X162115500Y-82486500D02*
X158115000Y-86487000D01*
X162115500Y-82486500D02*
X164973000Y-82486500D01*
X164973000Y-82486500D02*
X165989000Y-81470500D01*
X165989000Y-81470500D02*
X165989000Y-74676000D01*
X165989000Y-74676000D02*
X164592000Y-73279000D01*
X150622000Y-59563000D02*
X142367000Y-67818000D01*
X142367000Y-74231500D02*
X143891000Y-75755500D01*
X142367000Y-67818000D02*
X142367000Y-74231500D01*
X136271000Y-59563000D02*
X136271000Y-64077002D01*
X141859000Y-76263500D02*
X143891000Y-78295500D01*
X141859000Y-69665002D02*
X141859000Y-76263500D01*
X136271000Y-64077002D02*
X141859000Y-69665002D01*
X165544500Y-59563000D02*
X167767000Y-59563000D01*
X155067000Y-70040500D02*
X165544500Y-59563000D01*
X160147000Y-80899000D02*
X164592000Y-80899000D01*
X154559000Y-86487000D02*
X160147000Y-80899000D01*
D24*
G36*
X184601098Y-28224082D02*
X185624731Y-28859773D01*
X186327176Y-29838800D01*
X186615000Y-31069895D01*
X186615000Y-100514069D01*
X186366175Y-101764995D01*
X185697196Y-102766196D01*
X184695995Y-103435176D01*
X183445069Y-103684000D01*
X130739177Y-103684000D01*
X129660830Y-103512292D01*
X128802766Y-102985493D01*
X128211616Y-102170426D01*
X127964000Y-101135266D01*
X127964000Y-100985172D01*
X128523538Y-100985172D01*
X128928709Y-101965761D01*
X129678293Y-102716655D01*
X130658173Y-103123536D01*
X131719172Y-103124462D01*
X132699761Y-102719291D01*
X133450655Y-101969707D01*
X133857536Y-100989827D01*
X133857595Y-100921672D01*
X180720538Y-100921672D01*
X181125709Y-101902261D01*
X181875293Y-102653155D01*
X182855173Y-103060036D01*
X183916172Y-103060962D01*
X184896761Y-102655791D01*
X185647655Y-101906207D01*
X186054536Y-100926327D01*
X186055462Y-99865328D01*
X185650291Y-98884739D01*
X184900707Y-98133845D01*
X183920827Y-97726964D01*
X182859828Y-97726038D01*
X181879239Y-98131209D01*
X181128345Y-98880793D01*
X180721464Y-99860673D01*
X180720538Y-100921672D01*
X133857595Y-100921672D01*
X133858462Y-99928828D01*
X133453291Y-98948239D01*
X132703707Y-98197345D01*
X131723827Y-97790464D01*
X130662828Y-97789538D01*
X129682239Y-98194709D01*
X128931345Y-98944293D01*
X128524464Y-99924173D01*
X128523538Y-100985172D01*
X127964000Y-100985172D01*
X127964000Y-93567250D01*
X135211500Y-93567250D01*
X135211500Y-94657810D01*
X135308173Y-94891199D01*
X135486802Y-95069827D01*
X135720191Y-95166500D01*
X136810750Y-95166500D01*
X136969500Y-95007750D01*
X136969500Y-93408500D01*
X137223500Y-93408500D01*
X137223500Y-95007750D01*
X137382250Y-95166500D01*
X138472809Y-95166500D01*
X138706198Y-95069827D01*
X138884827Y-94891199D01*
X138981500Y-94657810D01*
X138981500Y-93654805D01*
X140211174Y-93654805D01*
X140497543Y-94347872D01*
X141027339Y-94878593D01*
X141719905Y-95166172D01*
X142469805Y-95166826D01*
X143162872Y-94880457D01*
X143693593Y-94350661D01*
X143981172Y-93658095D01*
X143981826Y-92908195D01*
X143695457Y-92215128D01*
X143165661Y-91684407D01*
X142473095Y-91396828D01*
X141723195Y-91396174D01*
X141030128Y-91682543D01*
X140499407Y-92212339D01*
X140211828Y-92904905D01*
X140211174Y-93654805D01*
X138981500Y-93654805D01*
X138981500Y-93567250D01*
X138822750Y-93408500D01*
X137223500Y-93408500D01*
X136969500Y-93408500D01*
X135370250Y-93408500D01*
X135211500Y-93567250D01*
X127964000Y-93567250D01*
X127964000Y-91905190D01*
X135211500Y-91905190D01*
X135211500Y-92995750D01*
X135370250Y-93154500D01*
X136969500Y-93154500D01*
X136969500Y-91555250D01*
X137223500Y-91555250D01*
X137223500Y-93154500D01*
X138822750Y-93154500D01*
X138981500Y-92995750D01*
X138981500Y-91905190D01*
X138884827Y-91671801D01*
X138706198Y-91493173D01*
X138472809Y-91396500D01*
X137382250Y-91396500D01*
X137223500Y-91555250D01*
X136969500Y-91555250D01*
X136810750Y-91396500D01*
X135720191Y-91396500D01*
X135486802Y-91493173D01*
X135308173Y-91671801D01*
X135211500Y-91905190D01*
X127964000Y-91905190D01*
X127964000Y-59748167D01*
X135335838Y-59748167D01*
X135477883Y-60091943D01*
X135511000Y-60125118D01*
X135511000Y-64077002D01*
X135568852Y-64367841D01*
X135733599Y-64614403D01*
X141099000Y-69979804D01*
X141099000Y-76263500D01*
X141156852Y-76554339D01*
X141321599Y-76800901D01*
X142492312Y-77971614D01*
X142427887Y-78295500D01*
X142537120Y-78844651D01*
X142848189Y-79310198D01*
X143230275Y-79565500D01*
X142848189Y-79820802D01*
X142537120Y-80286349D01*
X142427887Y-80835500D01*
X142537120Y-81384651D01*
X142848189Y-81850198D01*
X143313736Y-82161267D01*
X143862887Y-82270500D01*
X143919113Y-82270500D01*
X144468264Y-82161267D01*
X144933811Y-81850198D01*
X145244880Y-81384651D01*
X145354113Y-80835500D01*
X145244880Y-80286349D01*
X144933811Y-79820802D01*
X144551725Y-79565500D01*
X144933811Y-79310198D01*
X145244880Y-78844651D01*
X145354113Y-78295500D01*
X145244880Y-77746349D01*
X145102659Y-77533500D01*
X148973000Y-77533500D01*
X148973000Y-85534500D01*
X149030852Y-85825339D01*
X149195599Y-86071901D01*
X151054060Y-87930362D01*
X151054060Y-89535000D01*
X151098338Y-89770317D01*
X151237410Y-89986441D01*
X151386337Y-90088198D01*
X151159830Y-90427190D01*
X151034155Y-91059000D01*
X151159830Y-91690810D01*
X151517722Y-92226433D01*
X152053345Y-92584325D01*
X152685155Y-92710000D01*
X152749845Y-92710000D01*
X153381655Y-92584325D01*
X153799000Y-92305464D01*
X153799000Y-92837000D01*
X153856852Y-93127839D01*
X154021599Y-93374401D01*
X159292099Y-98644901D01*
X159538661Y-98809648D01*
X159829500Y-98867500D01*
X173291500Y-98867500D01*
X173582339Y-98809648D01*
X173828901Y-98644901D01*
X175323921Y-97149881D01*
X175831500Y-97250845D01*
X176404989Y-97136771D01*
X176891170Y-96811915D01*
X177101500Y-96497134D01*
X177311830Y-96811915D01*
X177798011Y-97136771D01*
X178371500Y-97250845D01*
X178944989Y-97136771D01*
X179431170Y-96811915D01*
X179641500Y-96497134D01*
X179851830Y-96811915D01*
X180338011Y-97136771D01*
X180911500Y-97250845D01*
X181484989Y-97136771D01*
X181971170Y-96811915D01*
X182296026Y-96325734D01*
X182410100Y-95752245D01*
X182410100Y-95382755D01*
X182296026Y-94809266D01*
X181971170Y-94323085D01*
X181484989Y-93998229D01*
X180911500Y-93884155D01*
X180338011Y-93998229D01*
X179851830Y-94323085D01*
X179641500Y-94637866D01*
X179431170Y-94323085D01*
X178944989Y-93998229D01*
X178371500Y-93884155D01*
X177798011Y-93998229D01*
X177311830Y-94323085D01*
X177101500Y-94637866D01*
X176891170Y-94323085D01*
X176404989Y-93998229D01*
X175831500Y-93884155D01*
X175258011Y-93998229D01*
X174771830Y-94323085D01*
X174561500Y-94637866D01*
X174351170Y-94323085D01*
X173864989Y-93998229D01*
X173291500Y-93884155D01*
X172718011Y-93998229D01*
X172231830Y-94323085D01*
X172025039Y-94632569D01*
X171653536Y-94216768D01*
X171126291Y-93962791D01*
X171110526Y-93960142D01*
X170878500Y-94081283D01*
X170878500Y-95440500D01*
X170898500Y-95440500D01*
X170898500Y-95694500D01*
X170878500Y-95694500D01*
X170878500Y-95714500D01*
X170624500Y-95714500D01*
X170624500Y-95694500D01*
X170604500Y-95694500D01*
X170604500Y-95440500D01*
X170624500Y-95440500D01*
X170624500Y-94081283D01*
X170392474Y-93960142D01*
X170376709Y-93962791D01*
X169849464Y-94216768D01*
X169692593Y-94392345D01*
X169678262Y-94316183D01*
X169539190Y-94100059D01*
X169326990Y-93955069D01*
X169075100Y-93904060D01*
X167347900Y-93904060D01*
X167112583Y-93948338D01*
X166896459Y-94087410D01*
X166751469Y-94299610D01*
X166700460Y-94551500D01*
X166700460Y-96583500D01*
X166744738Y-96818817D01*
X166758047Y-96839500D01*
X163192302Y-96839500D01*
X159075242Y-92722440D01*
X160972500Y-92722440D01*
X161207817Y-92678162D01*
X161423941Y-92539090D01*
X161568931Y-92326890D01*
X161619940Y-92075000D01*
X161619940Y-90043000D01*
X161575662Y-89807683D01*
X161436590Y-89591559D01*
X161287663Y-89489802D01*
X161514170Y-89150810D01*
X161639845Y-88519000D01*
X161514170Y-87887190D01*
X161156278Y-87351567D01*
X160620655Y-86993675D01*
X159988845Y-86868000D01*
X159924155Y-86868000D01*
X159292345Y-86993675D01*
X158756722Y-87351567D01*
X158398830Y-87887190D01*
X158273155Y-88519000D01*
X158398830Y-89150810D01*
X158625999Y-89490792D01*
X158489059Y-89578910D01*
X158482018Y-89589216D01*
X158000440Y-89107638D01*
X158000440Y-87503000D01*
X157985178Y-87421888D01*
X158300167Y-87422162D01*
X158643943Y-87280117D01*
X158907192Y-87017327D01*
X159049838Y-86673799D01*
X159049879Y-86626923D01*
X162430302Y-83246500D01*
X164973000Y-83246500D01*
X165263839Y-83188648D01*
X165510401Y-83023901D01*
X166079552Y-82454750D01*
X178137500Y-82454750D01*
X178137500Y-83545309D01*
X178234173Y-83778698D01*
X178412801Y-83957327D01*
X178646190Y-84054000D01*
X179736750Y-84054000D01*
X179895500Y-83895250D01*
X179895500Y-82296000D01*
X180149500Y-82296000D01*
X180149500Y-83895250D01*
X180308250Y-84054000D01*
X181398810Y-84054000D01*
X181632199Y-83957327D01*
X181810827Y-83778698D01*
X181907500Y-83545309D01*
X181907500Y-82454750D01*
X181748750Y-82296000D01*
X180149500Y-82296000D01*
X179895500Y-82296000D01*
X178296250Y-82296000D01*
X178137500Y-82454750D01*
X166079552Y-82454750D01*
X166526401Y-82007901D01*
X166691148Y-81761339D01*
X166749000Y-81470500D01*
X166749000Y-81248039D01*
X170820096Y-81248039D01*
X170980959Y-81636423D01*
X171356866Y-82051389D01*
X171862959Y-82290914D01*
X172085000Y-82169629D01*
X172085000Y-81026000D01*
X172339000Y-81026000D01*
X172339000Y-82169629D01*
X172561041Y-82290914D01*
X173067134Y-82051389D01*
X173443041Y-81636423D01*
X173603904Y-81248039D01*
X173481915Y-81026000D01*
X172339000Y-81026000D01*
X172085000Y-81026000D01*
X170942085Y-81026000D01*
X170820096Y-81248039D01*
X166749000Y-81248039D01*
X166749000Y-80792691D01*
X178137500Y-80792691D01*
X178137500Y-81883250D01*
X178296250Y-82042000D01*
X179895500Y-82042000D01*
X179895500Y-80442750D01*
X180149500Y-80442750D01*
X180149500Y-82042000D01*
X181748750Y-82042000D01*
X181907500Y-81883250D01*
X181907500Y-80792691D01*
X181810827Y-80559302D01*
X181632199Y-80380673D01*
X181398810Y-80284000D01*
X180308250Y-80284000D01*
X180149500Y-80442750D01*
X179895500Y-80442750D01*
X179736750Y-80284000D01*
X178646190Y-80284000D01*
X178412801Y-80380673D01*
X178234173Y-80559302D01*
X178137500Y-80792691D01*
X166749000Y-80792691D01*
X166749000Y-78497750D01*
X168412000Y-78497750D01*
X168412000Y-79088309D01*
X168508673Y-79321698D01*
X168687301Y-79500327D01*
X168920690Y-79597000D01*
X169386250Y-79597000D01*
X169545000Y-79438250D01*
X169545000Y-78339000D01*
X168570750Y-78339000D01*
X168412000Y-78497750D01*
X166749000Y-78497750D01*
X166749000Y-74962000D01*
X168399560Y-74962000D01*
X168399560Y-76462000D01*
X168443838Y-76697317D01*
X168582910Y-76913441D01*
X168651006Y-76959969D01*
X168508673Y-77102302D01*
X168412000Y-77335691D01*
X168412000Y-77926250D01*
X168570750Y-78085000D01*
X169545000Y-78085000D01*
X169545000Y-78065000D01*
X169799000Y-78065000D01*
X169799000Y-78085000D01*
X169819000Y-78085000D01*
X169819000Y-78339000D01*
X169799000Y-78339000D01*
X169799000Y-79438250D01*
X169957750Y-79597000D01*
X170423310Y-79597000D01*
X170656699Y-79500327D01*
X170835327Y-79321698D01*
X170932000Y-79088309D01*
X170932000Y-79018720D01*
X171169189Y-79373698D01*
X171573703Y-79643986D01*
X171356866Y-79746611D01*
X170980959Y-80161577D01*
X170820096Y-80549961D01*
X170942085Y-80772000D01*
X172085000Y-80772000D01*
X172085000Y-80752000D01*
X172339000Y-80752000D01*
X172339000Y-80772000D01*
X173481915Y-80772000D01*
X173603904Y-80549961D01*
X173443041Y-80161577D01*
X173067134Y-79746611D01*
X172850297Y-79643986D01*
X173254811Y-79373698D01*
X173565880Y-78908151D01*
X173675113Y-78359000D01*
X173565880Y-77809849D01*
X173387113Y-77542305D01*
X178137174Y-77542305D01*
X178423543Y-78235372D01*
X178953339Y-78766093D01*
X179645905Y-79053672D01*
X180395805Y-79054326D01*
X181088872Y-78767957D01*
X181619593Y-78238161D01*
X181907172Y-77545595D01*
X181907826Y-76795695D01*
X181621457Y-76102628D01*
X181091661Y-75571907D01*
X180399095Y-75284328D01*
X179649195Y-75283674D01*
X178956128Y-75570043D01*
X178425407Y-76099839D01*
X178137828Y-76792405D01*
X178137174Y-77542305D01*
X173387113Y-77542305D01*
X173254811Y-77344302D01*
X172872725Y-77089000D01*
X173254811Y-76833698D01*
X173565880Y-76368151D01*
X173675113Y-75819000D01*
X173565880Y-75269849D01*
X173254811Y-74804302D01*
X172872725Y-74549000D01*
X173254811Y-74293698D01*
X173565880Y-73828151D01*
X173675113Y-73279000D01*
X173565880Y-72729849D01*
X173440567Y-72542305D01*
X178137174Y-72542305D01*
X178423543Y-73235372D01*
X178953339Y-73766093D01*
X179645905Y-74053672D01*
X180395805Y-74054326D01*
X181088872Y-73767957D01*
X181619593Y-73238161D01*
X181907172Y-72545595D01*
X181907826Y-71795695D01*
X181621457Y-71102628D01*
X181091661Y-70571907D01*
X180399095Y-70284328D01*
X179649195Y-70283674D01*
X178956128Y-70570043D01*
X178425407Y-71099839D01*
X178137828Y-71792405D01*
X178137174Y-72542305D01*
X173440567Y-72542305D01*
X173254811Y-72264302D01*
X172789264Y-71953233D01*
X172240113Y-71844000D01*
X172183887Y-71844000D01*
X171634736Y-71953233D01*
X171169189Y-72264302D01*
X170858120Y-72729849D01*
X170748887Y-73279000D01*
X170813312Y-73602886D01*
X170101638Y-74314560D01*
X169047000Y-74314560D01*
X168811683Y-74358838D01*
X168595559Y-74497910D01*
X168450569Y-74710110D01*
X168399560Y-74962000D01*
X166749000Y-74962000D01*
X166749000Y-74676000D01*
X166718435Y-74522339D01*
X166691148Y-74385160D01*
X166526401Y-74138599D01*
X165990688Y-73602886D01*
X166055113Y-73279000D01*
X165945880Y-72729849D01*
X165634811Y-72264302D01*
X165169264Y-71953233D01*
X164620113Y-71844000D01*
X164563887Y-71844000D01*
X164014736Y-71953233D01*
X163549189Y-72264302D01*
X163238120Y-72729849D01*
X163128887Y-73279000D01*
X163238120Y-73828151D01*
X163549189Y-74293698D01*
X163931275Y-74549000D01*
X163549189Y-74804302D01*
X163238120Y-75269849D01*
X163128887Y-75819000D01*
X163238120Y-76368151D01*
X163549189Y-76833698D01*
X163931275Y-77089000D01*
X163549189Y-77344302D01*
X163238120Y-77809849D01*
X163128887Y-78359000D01*
X163238120Y-78908151D01*
X163549189Y-79373698D01*
X163931275Y-79629000D01*
X163549189Y-79884302D01*
X163379005Y-80139000D01*
X160147000Y-80139000D01*
X159856160Y-80196852D01*
X159609599Y-80361599D01*
X154419320Y-85551878D01*
X154373833Y-85551838D01*
X154030057Y-85693883D01*
X153766808Y-85956673D01*
X153624162Y-86300201D01*
X153624108Y-86362000D01*
X153476802Y-86362000D01*
X151064500Y-83949698D01*
X151064500Y-82187278D01*
X151482887Y-82270500D01*
X151539113Y-82270500D01*
X152088264Y-82161267D01*
X152553811Y-81850198D01*
X152864880Y-81384651D01*
X152974113Y-80835500D01*
X152864880Y-80286349D01*
X152553811Y-79820802D01*
X152171725Y-79565500D01*
X152553811Y-79310198D01*
X152864880Y-78844651D01*
X152974113Y-78295500D01*
X152864880Y-77746349D01*
X152553811Y-77280802D01*
X152171725Y-77025500D01*
X152553811Y-76770198D01*
X152864880Y-76304651D01*
X152974113Y-75755500D01*
X152864880Y-75206349D01*
X152553811Y-74740802D01*
X152149297Y-74470514D01*
X152366134Y-74367889D01*
X152742041Y-73952923D01*
X152902904Y-73564539D01*
X152780915Y-73342500D01*
X151638000Y-73342500D01*
X151638000Y-73362500D01*
X151384000Y-73362500D01*
X151384000Y-73342500D01*
X150241085Y-73342500D01*
X150218450Y-73383700D01*
X150177250Y-73342500D01*
X149078000Y-73342500D01*
X149078000Y-74316750D01*
X149236750Y-74475500D01*
X149827309Y-74475500D01*
X150060698Y-74378827D01*
X150239327Y-74200199D01*
X150322363Y-73999733D01*
X150655866Y-74367889D01*
X150872703Y-74470514D01*
X150468189Y-74740802D01*
X150157120Y-75206349D01*
X150047887Y-75755500D01*
X150112312Y-76079386D01*
X149195599Y-76996099D01*
X149030852Y-77242661D01*
X148973000Y-77533500D01*
X145102659Y-77533500D01*
X144933811Y-77280802D01*
X144551725Y-77025500D01*
X144933811Y-76770198D01*
X145244880Y-76304651D01*
X145354113Y-75755500D01*
X145244880Y-75206349D01*
X144933811Y-74740802D01*
X144551725Y-74485500D01*
X144933811Y-74230198D01*
X145084462Y-74004732D01*
X145097838Y-74075817D01*
X145236910Y-74291941D01*
X145449110Y-74436931D01*
X145701000Y-74487940D01*
X147201000Y-74487940D01*
X147436317Y-74443662D01*
X147652441Y-74304590D01*
X147698969Y-74236494D01*
X147841302Y-74378827D01*
X148074691Y-74475500D01*
X148665250Y-74475500D01*
X148824000Y-74316750D01*
X148824000Y-73342500D01*
X148804000Y-73342500D01*
X148804000Y-73088500D01*
X148824000Y-73088500D01*
X148824000Y-72114250D01*
X149078000Y-72114250D01*
X149078000Y-73088500D01*
X150177250Y-73088500D01*
X150218450Y-73047300D01*
X150241085Y-73088500D01*
X151384000Y-73088500D01*
X151384000Y-71944871D01*
X151638000Y-71944871D01*
X151638000Y-73088500D01*
X152780915Y-73088500D01*
X152902904Y-72866461D01*
X152742041Y-72478077D01*
X152366134Y-72063111D01*
X151860041Y-71823586D01*
X151638000Y-71944871D01*
X151384000Y-71944871D01*
X151161959Y-71823586D01*
X150655866Y-72063111D01*
X150322363Y-72431267D01*
X150239327Y-72230801D01*
X150060698Y-72052173D01*
X149827309Y-71955500D01*
X149236750Y-71955500D01*
X149078000Y-72114250D01*
X148824000Y-72114250D01*
X148665250Y-71955500D01*
X148074691Y-71955500D01*
X147841302Y-72052173D01*
X147700064Y-72193410D01*
X147665090Y-72139059D01*
X147452890Y-71994069D01*
X147201000Y-71943060D01*
X145701000Y-71943060D01*
X145465683Y-71987338D01*
X145249559Y-72126410D01*
X145104569Y-72338610D01*
X145086270Y-72428973D01*
X144933811Y-72200802D01*
X144468264Y-71889733D01*
X143919113Y-71780500D01*
X143862887Y-71780500D01*
X143313736Y-71889733D01*
X143127000Y-72014506D01*
X143127000Y-70225667D01*
X154131838Y-70225667D01*
X154273883Y-70569443D01*
X154536673Y-70832692D01*
X154880201Y-70975338D01*
X155252167Y-70975662D01*
X155595943Y-70833617D01*
X155859192Y-70570827D01*
X156001838Y-70227299D01*
X156001879Y-70180423D01*
X165859302Y-60323000D01*
X167204537Y-60323000D01*
X167236673Y-60355192D01*
X167580201Y-60497838D01*
X167952167Y-60498162D01*
X168295943Y-60356117D01*
X168559192Y-60093327D01*
X168701838Y-59749799D01*
X168702162Y-59377833D01*
X168560117Y-59034057D01*
X168297327Y-58770808D01*
X167953799Y-58628162D01*
X167581833Y-58627838D01*
X167238057Y-58769883D01*
X167204882Y-58803000D01*
X165544500Y-58803000D01*
X165253661Y-58860852D01*
X165007099Y-59025599D01*
X154927320Y-69105378D01*
X154881833Y-69105338D01*
X154538057Y-69247383D01*
X154274808Y-69510173D01*
X154132162Y-69853701D01*
X154131838Y-70225667D01*
X143127000Y-70225667D01*
X143127000Y-68132802D01*
X150761680Y-60498122D01*
X150807167Y-60498162D01*
X151150943Y-60356117D01*
X151414192Y-60093327D01*
X151556838Y-59749799D01*
X151557162Y-59377833D01*
X151415117Y-59034057D01*
X151152327Y-58770808D01*
X150808799Y-58628162D01*
X150436833Y-58627838D01*
X150093057Y-58769883D01*
X149829808Y-59032673D01*
X149687162Y-59376201D01*
X149687121Y-59423077D01*
X141829599Y-67280599D01*
X141664852Y-67527161D01*
X141607000Y-67818000D01*
X141607000Y-68338200D01*
X137031000Y-63762200D01*
X137031000Y-60125463D01*
X137063192Y-60093327D01*
X137205838Y-59749799D01*
X137206162Y-59377833D01*
X137064117Y-59034057D01*
X136801327Y-58770808D01*
X136457799Y-58628162D01*
X136085833Y-58627838D01*
X135742057Y-58769883D01*
X135478808Y-59032673D01*
X135336162Y-59376201D01*
X135335838Y-59748167D01*
X127964000Y-59748167D01*
X127964000Y-34663305D01*
X135354674Y-34663305D01*
X135641043Y-35356372D01*
X136170839Y-35887093D01*
X136863405Y-36174672D01*
X137613305Y-36175326D01*
X138306372Y-35888957D01*
X138837093Y-35359161D01*
X139124672Y-34666595D01*
X139125326Y-33916695D01*
X138838957Y-33223628D01*
X138655650Y-33040000D01*
X140342560Y-33040000D01*
X140342560Y-35540000D01*
X140386838Y-35775317D01*
X140525910Y-35991441D01*
X140738110Y-36136431D01*
X140990000Y-36187440D01*
X143490000Y-36187440D01*
X143725317Y-36143162D01*
X143941441Y-36004090D01*
X144086431Y-35791890D01*
X144137440Y-35540000D01*
X144137440Y-34663305D01*
X152753674Y-34663305D01*
X153040043Y-35356372D01*
X153569839Y-35887093D01*
X154262405Y-36174672D01*
X155012305Y-36175326D01*
X155705372Y-35888957D01*
X156236093Y-35359161D01*
X156523672Y-34666595D01*
X156524326Y-33916695D01*
X156237957Y-33223628D01*
X156054650Y-33040000D01*
X157741560Y-33040000D01*
X157741560Y-35540000D01*
X157785838Y-35775317D01*
X157924910Y-35991441D01*
X158137110Y-36136431D01*
X158389000Y-36187440D01*
X160889000Y-36187440D01*
X161124317Y-36143162D01*
X161340441Y-36004090D01*
X161485431Y-35791890D01*
X161536440Y-35540000D01*
X161536440Y-34663305D01*
X170152674Y-34663305D01*
X170439043Y-35356372D01*
X170968839Y-35887093D01*
X171661405Y-36174672D01*
X172411305Y-36175326D01*
X173104372Y-35888957D01*
X173635093Y-35359161D01*
X173922672Y-34666595D01*
X173923326Y-33916695D01*
X173636957Y-33223628D01*
X173453650Y-33040000D01*
X175140560Y-33040000D01*
X175140560Y-35540000D01*
X175184838Y-35775317D01*
X175323910Y-35991441D01*
X175536110Y-36136431D01*
X175788000Y-36187440D01*
X178288000Y-36187440D01*
X178523317Y-36143162D01*
X178739441Y-36004090D01*
X178884431Y-35791890D01*
X178935440Y-35540000D01*
X178935440Y-33040000D01*
X178891162Y-32804683D01*
X178752090Y-32588559D01*
X178539890Y-32443569D01*
X178288000Y-32392560D01*
X175788000Y-32392560D01*
X175552683Y-32436838D01*
X175336559Y-32575910D01*
X175191569Y-32788110D01*
X175140560Y-33040000D01*
X173453650Y-33040000D01*
X173107161Y-32692907D01*
X172414595Y-32405328D01*
X171664695Y-32404674D01*
X170971628Y-32691043D01*
X170440907Y-33220839D01*
X170153328Y-33913405D01*
X170152674Y-34663305D01*
X161536440Y-34663305D01*
X161536440Y-33040000D01*
X161492162Y-32804683D01*
X161353090Y-32588559D01*
X161140890Y-32443569D01*
X160889000Y-32392560D01*
X158389000Y-32392560D01*
X158153683Y-32436838D01*
X157937559Y-32575910D01*
X157792569Y-32788110D01*
X157741560Y-33040000D01*
X156054650Y-33040000D01*
X155708161Y-32692907D01*
X155015595Y-32405328D01*
X154265695Y-32404674D01*
X153572628Y-32691043D01*
X153041907Y-33220839D01*
X152754328Y-33913405D01*
X152753674Y-34663305D01*
X144137440Y-34663305D01*
X144137440Y-33040000D01*
X144093162Y-32804683D01*
X143954090Y-32588559D01*
X143741890Y-32443569D01*
X143490000Y-32392560D01*
X140990000Y-32392560D01*
X140754683Y-32436838D01*
X140538559Y-32575910D01*
X140393569Y-32788110D01*
X140342560Y-33040000D01*
X138655650Y-33040000D01*
X138309161Y-32692907D01*
X137616595Y-32405328D01*
X136866695Y-32404674D01*
X136173628Y-32691043D01*
X135642907Y-33220839D01*
X135355328Y-33913405D01*
X135354674Y-34663305D01*
X127964000Y-34663305D01*
X127964000Y-31770172D01*
X128523538Y-31770172D01*
X128928709Y-32750761D01*
X129678293Y-33501655D01*
X130658173Y-33908536D01*
X131719172Y-33909462D01*
X132699761Y-33504291D01*
X133450655Y-32754707D01*
X133833101Y-31833672D01*
X180720538Y-31833672D01*
X181125709Y-32814261D01*
X181875293Y-33565155D01*
X182855173Y-33972036D01*
X183916172Y-33972962D01*
X184896761Y-33567791D01*
X185647655Y-32818207D01*
X186054536Y-31838327D01*
X186055462Y-30777328D01*
X185650291Y-29796739D01*
X184900707Y-29045845D01*
X183920827Y-28638964D01*
X182859828Y-28638038D01*
X181879239Y-29043209D01*
X181128345Y-29792793D01*
X180721464Y-30772673D01*
X180720538Y-31833672D01*
X133833101Y-31833672D01*
X133857536Y-31774827D01*
X133858462Y-30713828D01*
X133453291Y-29733239D01*
X132703707Y-28982345D01*
X131723827Y-28575464D01*
X130662828Y-28574538D01*
X129682239Y-28979709D01*
X128931345Y-29729293D01*
X128524464Y-30709173D01*
X128523538Y-31770172D01*
X127964000Y-31770172D01*
X127964000Y-30549931D01*
X128164488Y-29542007D01*
X128695817Y-28746817D01*
X129491007Y-28215488D01*
X130498931Y-28015000D01*
X183329994Y-28015000D01*
X184601098Y-28224082D01*
X184601098Y-28224082D01*
G37*
X184601098Y-28224082D02*
X185624731Y-28859773D01*
X186327176Y-29838800D01*
X186615000Y-31069895D01*
X186615000Y-100514069D01*
X186366175Y-101764995D01*
X185697196Y-102766196D01*
X184695995Y-103435176D01*
X183445069Y-103684000D01*
X130739177Y-103684000D01*
X129660830Y-103512292D01*
X128802766Y-102985493D01*
X128211616Y-102170426D01*
X127964000Y-101135266D01*
X127964000Y-100985172D01*
X128523538Y-100985172D01*
X128928709Y-101965761D01*
X129678293Y-102716655D01*
X130658173Y-103123536D01*
X131719172Y-103124462D01*
X132699761Y-102719291D01*
X133450655Y-101969707D01*
X133857536Y-100989827D01*
X133857595Y-100921672D01*
X180720538Y-100921672D01*
X181125709Y-101902261D01*
X181875293Y-102653155D01*
X182855173Y-103060036D01*
X183916172Y-103060962D01*
X184896761Y-102655791D01*
X185647655Y-101906207D01*
X186054536Y-100926327D01*
X186055462Y-99865328D01*
X185650291Y-98884739D01*
X184900707Y-98133845D01*
X183920827Y-97726964D01*
X182859828Y-97726038D01*
X181879239Y-98131209D01*
X181128345Y-98880793D01*
X180721464Y-99860673D01*
X180720538Y-100921672D01*
X133857595Y-100921672D01*
X133858462Y-99928828D01*
X133453291Y-98948239D01*
X132703707Y-98197345D01*
X131723827Y-97790464D01*
X130662828Y-97789538D01*
X129682239Y-98194709D01*
X128931345Y-98944293D01*
X128524464Y-99924173D01*
X128523538Y-100985172D01*
X127964000Y-100985172D01*
X127964000Y-93567250D01*
X135211500Y-93567250D01*
X135211500Y-94657810D01*
X135308173Y-94891199D01*
X135486802Y-95069827D01*
X135720191Y-95166500D01*
X136810750Y-95166500D01*
X136969500Y-95007750D01*
X136969500Y-93408500D01*
X137223500Y-93408500D01*
X137223500Y-95007750D01*
X137382250Y-95166500D01*
X138472809Y-95166500D01*
X138706198Y-95069827D01*
X138884827Y-94891199D01*
X138981500Y-94657810D01*
X138981500Y-93654805D01*
X140211174Y-93654805D01*
X140497543Y-94347872D01*
X141027339Y-94878593D01*
X141719905Y-95166172D01*
X142469805Y-95166826D01*
X143162872Y-94880457D01*
X143693593Y-94350661D01*
X143981172Y-93658095D01*
X143981826Y-92908195D01*
X143695457Y-92215128D01*
X143165661Y-91684407D01*
X142473095Y-91396828D01*
X141723195Y-91396174D01*
X141030128Y-91682543D01*
X140499407Y-92212339D01*
X140211828Y-92904905D01*
X140211174Y-93654805D01*
X138981500Y-93654805D01*
X138981500Y-93567250D01*
X138822750Y-93408500D01*
X137223500Y-93408500D01*
X136969500Y-93408500D01*
X135370250Y-93408500D01*
X135211500Y-93567250D01*
X127964000Y-93567250D01*
X127964000Y-91905190D01*
X135211500Y-91905190D01*
X135211500Y-92995750D01*
X135370250Y-93154500D01*
X136969500Y-93154500D01*
X136969500Y-91555250D01*
X137223500Y-91555250D01*
X137223500Y-93154500D01*
X138822750Y-93154500D01*
X138981500Y-92995750D01*
X138981500Y-91905190D01*
X138884827Y-91671801D01*
X138706198Y-91493173D01*
X138472809Y-91396500D01*
X137382250Y-91396500D01*
X137223500Y-91555250D01*
X136969500Y-91555250D01*
X136810750Y-91396500D01*
X135720191Y-91396500D01*
X135486802Y-91493173D01*
X135308173Y-91671801D01*
X135211500Y-91905190D01*
X127964000Y-91905190D01*
X127964000Y-59748167D01*
X135335838Y-59748167D01*
X135477883Y-60091943D01*
X135511000Y-60125118D01*
X135511000Y-64077002D01*
X135568852Y-64367841D01*
X135733599Y-64614403D01*
X141099000Y-69979804D01*
X141099000Y-76263500D01*
X141156852Y-76554339D01*
X141321599Y-76800901D01*
X142492312Y-77971614D01*
X142427887Y-78295500D01*
X142537120Y-78844651D01*
X142848189Y-79310198D01*
X143230275Y-79565500D01*
X142848189Y-79820802D01*
X142537120Y-80286349D01*
X142427887Y-80835500D01*
X142537120Y-81384651D01*
X142848189Y-81850198D01*
X143313736Y-82161267D01*
X143862887Y-82270500D01*
X143919113Y-82270500D01*
X144468264Y-82161267D01*
X144933811Y-81850198D01*
X145244880Y-81384651D01*
X145354113Y-80835500D01*
X145244880Y-80286349D01*
X144933811Y-79820802D01*
X144551725Y-79565500D01*
X144933811Y-79310198D01*
X145244880Y-78844651D01*
X145354113Y-78295500D01*
X145244880Y-77746349D01*
X145102659Y-77533500D01*
X148973000Y-77533500D01*
X148973000Y-85534500D01*
X149030852Y-85825339D01*
X149195599Y-86071901D01*
X151054060Y-87930362D01*
X151054060Y-89535000D01*
X151098338Y-89770317D01*
X151237410Y-89986441D01*
X151386337Y-90088198D01*
X151159830Y-90427190D01*
X151034155Y-91059000D01*
X151159830Y-91690810D01*
X151517722Y-92226433D01*
X152053345Y-92584325D01*
X152685155Y-92710000D01*
X152749845Y-92710000D01*
X153381655Y-92584325D01*
X153799000Y-92305464D01*
X153799000Y-92837000D01*
X153856852Y-93127839D01*
X154021599Y-93374401D01*
X159292099Y-98644901D01*
X159538661Y-98809648D01*
X159829500Y-98867500D01*
X173291500Y-98867500D01*
X173582339Y-98809648D01*
X173828901Y-98644901D01*
X175323921Y-97149881D01*
X175831500Y-97250845D01*
X176404989Y-97136771D01*
X176891170Y-96811915D01*
X177101500Y-96497134D01*
X177311830Y-96811915D01*
X177798011Y-97136771D01*
X178371500Y-97250845D01*
X178944989Y-97136771D01*
X179431170Y-96811915D01*
X179641500Y-96497134D01*
X179851830Y-96811915D01*
X180338011Y-97136771D01*
X180911500Y-97250845D01*
X181484989Y-97136771D01*
X181971170Y-96811915D01*
X182296026Y-96325734D01*
X182410100Y-95752245D01*
X182410100Y-95382755D01*
X182296026Y-94809266D01*
X181971170Y-94323085D01*
X181484989Y-93998229D01*
X180911500Y-93884155D01*
X180338011Y-93998229D01*
X179851830Y-94323085D01*
X179641500Y-94637866D01*
X179431170Y-94323085D01*
X178944989Y-93998229D01*
X178371500Y-93884155D01*
X177798011Y-93998229D01*
X177311830Y-94323085D01*
X177101500Y-94637866D01*
X176891170Y-94323085D01*
X176404989Y-93998229D01*
X175831500Y-93884155D01*
X175258011Y-93998229D01*
X174771830Y-94323085D01*
X174561500Y-94637866D01*
X174351170Y-94323085D01*
X173864989Y-93998229D01*
X173291500Y-93884155D01*
X172718011Y-93998229D01*
X172231830Y-94323085D01*
X172025039Y-94632569D01*
X171653536Y-94216768D01*
X171126291Y-93962791D01*
X171110526Y-93960142D01*
X170878500Y-94081283D01*
X170878500Y-95440500D01*
X170898500Y-95440500D01*
X170898500Y-95694500D01*
X170878500Y-95694500D01*
X170878500Y-95714500D01*
X170624500Y-95714500D01*
X170624500Y-95694500D01*
X170604500Y-95694500D01*
X170604500Y-95440500D01*
X170624500Y-95440500D01*
X170624500Y-94081283D01*
X170392474Y-93960142D01*
X170376709Y-93962791D01*
X169849464Y-94216768D01*
X169692593Y-94392345D01*
X169678262Y-94316183D01*
X169539190Y-94100059D01*
X169326990Y-93955069D01*
X169075100Y-93904060D01*
X167347900Y-93904060D01*
X167112583Y-93948338D01*
X166896459Y-94087410D01*
X166751469Y-94299610D01*
X166700460Y-94551500D01*
X166700460Y-96583500D01*
X166744738Y-96818817D01*
X166758047Y-96839500D01*
X163192302Y-96839500D01*
X159075242Y-92722440D01*
X160972500Y-92722440D01*
X161207817Y-92678162D01*
X161423941Y-92539090D01*
X161568931Y-92326890D01*
X161619940Y-92075000D01*
X161619940Y-90043000D01*
X161575662Y-89807683D01*
X161436590Y-89591559D01*
X161287663Y-89489802D01*
X161514170Y-89150810D01*
X161639845Y-88519000D01*
X161514170Y-87887190D01*
X161156278Y-87351567D01*
X160620655Y-86993675D01*
X159988845Y-86868000D01*
X159924155Y-86868000D01*
X159292345Y-86993675D01*
X158756722Y-87351567D01*
X158398830Y-87887190D01*
X158273155Y-88519000D01*
X158398830Y-89150810D01*
X158625999Y-89490792D01*
X158489059Y-89578910D01*
X158482018Y-89589216D01*
X158000440Y-89107638D01*
X158000440Y-87503000D01*
X157985178Y-87421888D01*
X158300167Y-87422162D01*
X158643943Y-87280117D01*
X158907192Y-87017327D01*
X159049838Y-86673799D01*
X159049879Y-86626923D01*
X162430302Y-83246500D01*
X164973000Y-83246500D01*
X165263839Y-83188648D01*
X165510401Y-83023901D01*
X166079552Y-82454750D01*
X178137500Y-82454750D01*
X178137500Y-83545309D01*
X178234173Y-83778698D01*
X178412801Y-83957327D01*
X178646190Y-84054000D01*
X179736750Y-84054000D01*
X179895500Y-83895250D01*
X179895500Y-82296000D01*
X180149500Y-82296000D01*
X180149500Y-83895250D01*
X180308250Y-84054000D01*
X181398810Y-84054000D01*
X181632199Y-83957327D01*
X181810827Y-83778698D01*
X181907500Y-83545309D01*
X181907500Y-82454750D01*
X181748750Y-82296000D01*
X180149500Y-82296000D01*
X179895500Y-82296000D01*
X178296250Y-82296000D01*
X178137500Y-82454750D01*
X166079552Y-82454750D01*
X166526401Y-82007901D01*
X166691148Y-81761339D01*
X166749000Y-81470500D01*
X166749000Y-81248039D01*
X170820096Y-81248039D01*
X170980959Y-81636423D01*
X171356866Y-82051389D01*
X171862959Y-82290914D01*
X172085000Y-82169629D01*
X172085000Y-81026000D01*
X172339000Y-81026000D01*
X172339000Y-82169629D01*
X172561041Y-82290914D01*
X173067134Y-82051389D01*
X173443041Y-81636423D01*
X173603904Y-81248039D01*
X173481915Y-81026000D01*
X172339000Y-81026000D01*
X172085000Y-81026000D01*
X170942085Y-81026000D01*
X170820096Y-81248039D01*
X166749000Y-81248039D01*
X166749000Y-80792691D01*
X178137500Y-80792691D01*
X178137500Y-81883250D01*
X178296250Y-82042000D01*
X179895500Y-82042000D01*
X179895500Y-80442750D01*
X180149500Y-80442750D01*
X180149500Y-82042000D01*
X181748750Y-82042000D01*
X181907500Y-81883250D01*
X181907500Y-80792691D01*
X181810827Y-80559302D01*
X181632199Y-80380673D01*
X181398810Y-80284000D01*
X180308250Y-80284000D01*
X180149500Y-80442750D01*
X179895500Y-80442750D01*
X179736750Y-80284000D01*
X178646190Y-80284000D01*
X178412801Y-80380673D01*
X178234173Y-80559302D01*
X178137500Y-80792691D01*
X166749000Y-80792691D01*
X166749000Y-78497750D01*
X168412000Y-78497750D01*
X168412000Y-79088309D01*
X168508673Y-79321698D01*
X168687301Y-79500327D01*
X168920690Y-79597000D01*
X169386250Y-79597000D01*
X169545000Y-79438250D01*
X169545000Y-78339000D01*
X168570750Y-78339000D01*
X168412000Y-78497750D01*
X166749000Y-78497750D01*
X166749000Y-74962000D01*
X168399560Y-74962000D01*
X168399560Y-76462000D01*
X168443838Y-76697317D01*
X168582910Y-76913441D01*
X168651006Y-76959969D01*
X168508673Y-77102302D01*
X168412000Y-77335691D01*
X168412000Y-77926250D01*
X168570750Y-78085000D01*
X169545000Y-78085000D01*
X169545000Y-78065000D01*
X169799000Y-78065000D01*
X169799000Y-78085000D01*
X169819000Y-78085000D01*
X169819000Y-78339000D01*
X169799000Y-78339000D01*
X169799000Y-79438250D01*
X169957750Y-79597000D01*
X170423310Y-79597000D01*
X170656699Y-79500327D01*
X170835327Y-79321698D01*
X170932000Y-79088309D01*
X170932000Y-79018720D01*
X171169189Y-79373698D01*
X171573703Y-79643986D01*
X171356866Y-79746611D01*
X170980959Y-80161577D01*
X170820096Y-80549961D01*
X170942085Y-80772000D01*
X172085000Y-80772000D01*
X172085000Y-80752000D01*
X172339000Y-80752000D01*
X172339000Y-80772000D01*
X173481915Y-80772000D01*
X173603904Y-80549961D01*
X173443041Y-80161577D01*
X173067134Y-79746611D01*
X172850297Y-79643986D01*
X173254811Y-79373698D01*
X173565880Y-78908151D01*
X173675113Y-78359000D01*
X173565880Y-77809849D01*
X173387113Y-77542305D01*
X178137174Y-77542305D01*
X178423543Y-78235372D01*
X178953339Y-78766093D01*
X179645905Y-79053672D01*
X180395805Y-79054326D01*
X181088872Y-78767957D01*
X181619593Y-78238161D01*
X181907172Y-77545595D01*
X181907826Y-76795695D01*
X181621457Y-76102628D01*
X181091661Y-75571907D01*
X180399095Y-75284328D01*
X179649195Y-75283674D01*
X178956128Y-75570043D01*
X178425407Y-76099839D01*
X178137828Y-76792405D01*
X178137174Y-77542305D01*
X173387113Y-77542305D01*
X173254811Y-77344302D01*
X172872725Y-77089000D01*
X173254811Y-76833698D01*
X173565880Y-76368151D01*
X173675113Y-75819000D01*
X173565880Y-75269849D01*
X173254811Y-74804302D01*
X172872725Y-74549000D01*
X173254811Y-74293698D01*
X173565880Y-73828151D01*
X173675113Y-73279000D01*
X173565880Y-72729849D01*
X173440567Y-72542305D01*
X178137174Y-72542305D01*
X178423543Y-73235372D01*
X178953339Y-73766093D01*
X179645905Y-74053672D01*
X180395805Y-74054326D01*
X181088872Y-73767957D01*
X181619593Y-73238161D01*
X181907172Y-72545595D01*
X181907826Y-71795695D01*
X181621457Y-71102628D01*
X181091661Y-70571907D01*
X180399095Y-70284328D01*
X179649195Y-70283674D01*
X178956128Y-70570043D01*
X178425407Y-71099839D01*
X178137828Y-71792405D01*
X178137174Y-72542305D01*
X173440567Y-72542305D01*
X173254811Y-72264302D01*
X172789264Y-71953233D01*
X172240113Y-71844000D01*
X172183887Y-71844000D01*
X171634736Y-71953233D01*
X171169189Y-72264302D01*
X170858120Y-72729849D01*
X170748887Y-73279000D01*
X170813312Y-73602886D01*
X170101638Y-74314560D01*
X169047000Y-74314560D01*
X168811683Y-74358838D01*
X168595559Y-74497910D01*
X168450569Y-74710110D01*
X168399560Y-74962000D01*
X166749000Y-74962000D01*
X166749000Y-74676000D01*
X166718435Y-74522339D01*
X166691148Y-74385160D01*
X166526401Y-74138599D01*
X165990688Y-73602886D01*
X166055113Y-73279000D01*
X165945880Y-72729849D01*
X165634811Y-72264302D01*
X165169264Y-71953233D01*
X164620113Y-71844000D01*
X164563887Y-71844000D01*
X164014736Y-71953233D01*
X163549189Y-72264302D01*
X163238120Y-72729849D01*
X163128887Y-73279000D01*
X163238120Y-73828151D01*
X163549189Y-74293698D01*
X163931275Y-74549000D01*
X163549189Y-74804302D01*
X163238120Y-75269849D01*
X163128887Y-75819000D01*
X163238120Y-76368151D01*
X163549189Y-76833698D01*
X163931275Y-77089000D01*
X163549189Y-77344302D01*
X163238120Y-77809849D01*
X163128887Y-78359000D01*
X163238120Y-78908151D01*
X163549189Y-79373698D01*
X163931275Y-79629000D01*
X163549189Y-79884302D01*
X163379005Y-80139000D01*
X160147000Y-80139000D01*
X159856160Y-80196852D01*
X159609599Y-80361599D01*
X154419320Y-85551878D01*
X154373833Y-85551838D01*
X154030057Y-85693883D01*
X153766808Y-85956673D01*
X153624162Y-86300201D01*
X153624108Y-86362000D01*
X153476802Y-86362000D01*
X151064500Y-83949698D01*
X151064500Y-82187278D01*
X151482887Y-82270500D01*
X151539113Y-82270500D01*
X152088264Y-82161267D01*
X152553811Y-81850198D01*
X152864880Y-81384651D01*
X152974113Y-80835500D01*
X152864880Y-80286349D01*
X152553811Y-79820802D01*
X152171725Y-79565500D01*
X152553811Y-79310198D01*
X152864880Y-78844651D01*
X152974113Y-78295500D01*
X152864880Y-77746349D01*
X152553811Y-77280802D01*
X152171725Y-77025500D01*
X152553811Y-76770198D01*
X152864880Y-76304651D01*
X152974113Y-75755500D01*
X152864880Y-75206349D01*
X152553811Y-74740802D01*
X152149297Y-74470514D01*
X152366134Y-74367889D01*
X152742041Y-73952923D01*
X152902904Y-73564539D01*
X152780915Y-73342500D01*
X151638000Y-73342500D01*
X151638000Y-73362500D01*
X151384000Y-73362500D01*
X151384000Y-73342500D01*
X150241085Y-73342500D01*
X150218450Y-73383700D01*
X150177250Y-73342500D01*
X149078000Y-73342500D01*
X149078000Y-74316750D01*
X149236750Y-74475500D01*
X149827309Y-74475500D01*
X150060698Y-74378827D01*
X150239327Y-74200199D01*
X150322363Y-73999733D01*
X150655866Y-74367889D01*
X150872703Y-74470514D01*
X150468189Y-74740802D01*
X150157120Y-75206349D01*
X150047887Y-75755500D01*
X150112312Y-76079386D01*
X149195599Y-76996099D01*
X149030852Y-77242661D01*
X148973000Y-77533500D01*
X145102659Y-77533500D01*
X144933811Y-77280802D01*
X144551725Y-77025500D01*
X144933811Y-76770198D01*
X145244880Y-76304651D01*
X145354113Y-75755500D01*
X145244880Y-75206349D01*
X144933811Y-74740802D01*
X144551725Y-74485500D01*
X144933811Y-74230198D01*
X145084462Y-74004732D01*
X145097838Y-74075817D01*
X145236910Y-74291941D01*
X145449110Y-74436931D01*
X145701000Y-74487940D01*
X147201000Y-74487940D01*
X147436317Y-74443662D01*
X147652441Y-74304590D01*
X147698969Y-74236494D01*
X147841302Y-74378827D01*
X148074691Y-74475500D01*
X148665250Y-74475500D01*
X148824000Y-74316750D01*
X148824000Y-73342500D01*
X148804000Y-73342500D01*
X148804000Y-73088500D01*
X148824000Y-73088500D01*
X148824000Y-72114250D01*
X149078000Y-72114250D01*
X149078000Y-73088500D01*
X150177250Y-73088500D01*
X150218450Y-73047300D01*
X150241085Y-73088500D01*
X151384000Y-73088500D01*
X151384000Y-71944871D01*
X151638000Y-71944871D01*
X151638000Y-73088500D01*
X152780915Y-73088500D01*
X152902904Y-72866461D01*
X152742041Y-72478077D01*
X152366134Y-72063111D01*
X151860041Y-71823586D01*
X151638000Y-71944871D01*
X151384000Y-71944871D01*
X151161959Y-71823586D01*
X150655866Y-72063111D01*
X150322363Y-72431267D01*
X150239327Y-72230801D01*
X150060698Y-72052173D01*
X149827309Y-71955500D01*
X149236750Y-71955500D01*
X149078000Y-72114250D01*
X148824000Y-72114250D01*
X148665250Y-71955500D01*
X148074691Y-71955500D01*
X147841302Y-72052173D01*
X147700064Y-72193410D01*
X147665090Y-72139059D01*
X147452890Y-71994069D01*
X147201000Y-71943060D01*
X145701000Y-71943060D01*
X145465683Y-71987338D01*
X145249559Y-72126410D01*
X145104569Y-72338610D01*
X145086270Y-72428973D01*
X144933811Y-72200802D01*
X144468264Y-71889733D01*
X143919113Y-71780500D01*
X143862887Y-71780500D01*
X143313736Y-71889733D01*
X143127000Y-72014506D01*
X143127000Y-70225667D01*
X154131838Y-70225667D01*
X154273883Y-70569443D01*
X154536673Y-70832692D01*
X154880201Y-70975338D01*
X155252167Y-70975662D01*
X155595943Y-70833617D01*
X155859192Y-70570827D01*
X156001838Y-70227299D01*
X156001879Y-70180423D01*
X165859302Y-60323000D01*
X167204537Y-60323000D01*
X167236673Y-60355192D01*
X167580201Y-60497838D01*
X167952167Y-60498162D01*
X168295943Y-60356117D01*
X168559192Y-60093327D01*
X168701838Y-59749799D01*
X168702162Y-59377833D01*
X168560117Y-59034057D01*
X168297327Y-58770808D01*
X167953799Y-58628162D01*
X167581833Y-58627838D01*
X167238057Y-58769883D01*
X167204882Y-58803000D01*
X165544500Y-58803000D01*
X165253661Y-58860852D01*
X165007099Y-59025599D01*
X154927320Y-69105378D01*
X154881833Y-69105338D01*
X154538057Y-69247383D01*
X154274808Y-69510173D01*
X154132162Y-69853701D01*
X154131838Y-70225667D01*
X143127000Y-70225667D01*
X143127000Y-68132802D01*
X150761680Y-60498122D01*
X150807167Y-60498162D01*
X151150943Y-60356117D01*
X151414192Y-60093327D01*
X151556838Y-59749799D01*
X151557162Y-59377833D01*
X151415117Y-59034057D01*
X151152327Y-58770808D01*
X150808799Y-58628162D01*
X150436833Y-58627838D01*
X150093057Y-58769883D01*
X149829808Y-59032673D01*
X149687162Y-59376201D01*
X149687121Y-59423077D01*
X141829599Y-67280599D01*
X141664852Y-67527161D01*
X141607000Y-67818000D01*
X141607000Y-68338200D01*
X137031000Y-63762200D01*
X137031000Y-60125463D01*
X137063192Y-60093327D01*
X137205838Y-59749799D01*
X137206162Y-59377833D01*
X137064117Y-59034057D01*
X136801327Y-58770808D01*
X136457799Y-58628162D01*
X136085833Y-58627838D01*
X135742057Y-58769883D01*
X135478808Y-59032673D01*
X135336162Y-59376201D01*
X135335838Y-59748167D01*
X127964000Y-59748167D01*
X127964000Y-34663305D01*
X135354674Y-34663305D01*
X135641043Y-35356372D01*
X136170839Y-35887093D01*
X136863405Y-36174672D01*
X137613305Y-36175326D01*
X138306372Y-35888957D01*
X138837093Y-35359161D01*
X139124672Y-34666595D01*
X139125326Y-33916695D01*
X138838957Y-33223628D01*
X138655650Y-33040000D01*
X140342560Y-33040000D01*
X140342560Y-35540000D01*
X140386838Y-35775317D01*
X140525910Y-35991441D01*
X140738110Y-36136431D01*
X140990000Y-36187440D01*
X143490000Y-36187440D01*
X143725317Y-36143162D01*
X143941441Y-36004090D01*
X144086431Y-35791890D01*
X144137440Y-35540000D01*
X144137440Y-34663305D01*
X152753674Y-34663305D01*
X153040043Y-35356372D01*
X153569839Y-35887093D01*
X154262405Y-36174672D01*
X155012305Y-36175326D01*
X155705372Y-35888957D01*
X156236093Y-35359161D01*
X156523672Y-34666595D01*
X156524326Y-33916695D01*
X156237957Y-33223628D01*
X156054650Y-33040000D01*
X157741560Y-33040000D01*
X157741560Y-35540000D01*
X157785838Y-35775317D01*
X157924910Y-35991441D01*
X158137110Y-36136431D01*
X158389000Y-36187440D01*
X160889000Y-36187440D01*
X161124317Y-36143162D01*
X161340441Y-36004090D01*
X161485431Y-35791890D01*
X161536440Y-35540000D01*
X161536440Y-34663305D01*
X170152674Y-34663305D01*
X170439043Y-35356372D01*
X170968839Y-35887093D01*
X171661405Y-36174672D01*
X172411305Y-36175326D01*
X173104372Y-35888957D01*
X173635093Y-35359161D01*
X173922672Y-34666595D01*
X173923326Y-33916695D01*
X173636957Y-33223628D01*
X173453650Y-33040000D01*
X175140560Y-33040000D01*
X175140560Y-35540000D01*
X175184838Y-35775317D01*
X175323910Y-35991441D01*
X175536110Y-36136431D01*
X175788000Y-36187440D01*
X178288000Y-36187440D01*
X178523317Y-36143162D01*
X178739441Y-36004090D01*
X178884431Y-35791890D01*
X178935440Y-35540000D01*
X178935440Y-33040000D01*
X178891162Y-32804683D01*
X178752090Y-32588559D01*
X178539890Y-32443569D01*
X178288000Y-32392560D01*
X175788000Y-32392560D01*
X175552683Y-32436838D01*
X175336559Y-32575910D01*
X175191569Y-32788110D01*
X175140560Y-33040000D01*
X173453650Y-33040000D01*
X173107161Y-32692907D01*
X172414595Y-32405328D01*
X171664695Y-32404674D01*
X170971628Y-32691043D01*
X170440907Y-33220839D01*
X170153328Y-33913405D01*
X170152674Y-34663305D01*
X161536440Y-34663305D01*
X161536440Y-33040000D01*
X161492162Y-32804683D01*
X161353090Y-32588559D01*
X161140890Y-32443569D01*
X160889000Y-32392560D01*
X158389000Y-32392560D01*
X158153683Y-32436838D01*
X157937559Y-32575910D01*
X157792569Y-32788110D01*
X157741560Y-33040000D01*
X156054650Y-33040000D01*
X155708161Y-32692907D01*
X155015595Y-32405328D01*
X154265695Y-32404674D01*
X153572628Y-32691043D01*
X153041907Y-33220839D01*
X152754328Y-33913405D01*
X152753674Y-34663305D01*
X144137440Y-34663305D01*
X144137440Y-33040000D01*
X144093162Y-32804683D01*
X143954090Y-32588559D01*
X143741890Y-32443569D01*
X143490000Y-32392560D01*
X140990000Y-32392560D01*
X140754683Y-32436838D01*
X140538559Y-32575910D01*
X140393569Y-32788110D01*
X140342560Y-33040000D01*
X138655650Y-33040000D01*
X138309161Y-32692907D01*
X137616595Y-32405328D01*
X136866695Y-32404674D01*
X136173628Y-32691043D01*
X135642907Y-33220839D01*
X135355328Y-33913405D01*
X135354674Y-34663305D01*
X127964000Y-34663305D01*
X127964000Y-31770172D01*
X128523538Y-31770172D01*
X128928709Y-32750761D01*
X129678293Y-33501655D01*
X130658173Y-33908536D01*
X131719172Y-33909462D01*
X132699761Y-33504291D01*
X133450655Y-32754707D01*
X133833101Y-31833672D01*
X180720538Y-31833672D01*
X181125709Y-32814261D01*
X181875293Y-33565155D01*
X182855173Y-33972036D01*
X183916172Y-33972962D01*
X184896761Y-33567791D01*
X185647655Y-32818207D01*
X186054536Y-31838327D01*
X186055462Y-30777328D01*
X185650291Y-29796739D01*
X184900707Y-29045845D01*
X183920827Y-28638964D01*
X182859828Y-28638038D01*
X181879239Y-29043209D01*
X181128345Y-29792793D01*
X180721464Y-30772673D01*
X180720538Y-31833672D01*
X133833101Y-31833672D01*
X133857536Y-31774827D01*
X133858462Y-30713828D01*
X133453291Y-29733239D01*
X132703707Y-28982345D01*
X131723827Y-28575464D01*
X130662828Y-28574538D01*
X129682239Y-28979709D01*
X128931345Y-29729293D01*
X128524464Y-30709173D01*
X128523538Y-31770172D01*
X127964000Y-31770172D01*
X127964000Y-30549931D01*
X128164488Y-29542007D01*
X128695817Y-28746817D01*
X129491007Y-28215488D01*
X130498931Y-28015000D01*
X183329994Y-28015000D01*
X184601098Y-28224082D01*
M02*
