M48
;DRILL file {KiCad 4.0.6} date Wednesday, 20 September 2017 'PMt' 17:58:13
;FORMAT={-:-/ absolute / metric / decimal}
FMAT,2
METRIC,TZ
T1C0.400
T2C0.800
T3C1.016
T4C1.300
T5C3.048
%
G90
G05
M71
T1
X136.271Y-59.563
X137.986Y-77.533
X138.112Y-69.342
X142.558Y-87.82
X150.622Y-59.563
X154.432Y-75.248
X154.559Y-86.487
X155.067Y-70.04
X158.115Y-86.487
X167.767Y-59.563
T2
X143.891Y-73.215
X143.891Y-75.755
X143.891Y-78.295
X143.891Y-80.835
X151.511Y-73.215
X151.511Y-75.755
X151.511Y-78.295
X151.511Y-80.835
X164.592Y-73.279
X164.592Y-75.819
X164.592Y-78.359
X164.592Y-80.899
X172.212Y-73.279
X172.212Y-75.819
X172.212Y-78.359
X172.212Y-80.899
T3
X152.718Y-88.519
X152.718Y-91.059
X156.337Y-88.519
X156.337Y-91.059
X159.957Y-88.519
X159.957Y-91.059
X168.212Y-95.567
X170.751Y-95.567
X173.291Y-95.567
X175.832Y-95.567
X178.371Y-95.567
X180.911Y-95.567
T4
X137.096Y-93.281
X137.24Y-34.29
X142.096Y-93.281
X142.24Y-34.29
X154.639Y-34.29
X159.639Y-34.29
X172.038Y-34.29
X177.038Y-34.29
X180.022Y-72.169
X180.022Y-77.169
X180.022Y-82.169
T5
X131.191Y-31.242
X131.191Y-100.457
X183.388Y-31.305
X183.388Y-100.393
T0
M30
