M48
;DRILL file {KiCad 4.0.6} date Sunday, 27 August 2017 'PMt' 12:12:58
;FORMAT={-:-/ absolute / metric / decimal}
FMAT,2
METRIC,TZ
T1C0.400
T2C0.800
T3C1.016
T4C1.097
T5C1.300
T6C3.048
%
G90
G05
M71
T1
X136.271Y-59.563
X137.541Y-77.47
X137.668Y-70.358
X143.002Y-89.535
X150.622Y-59.563
X156.337Y-70.993
X166.497Y-72.263
X167.767Y-59.563
T2
X145.415Y-73.279
X145.415Y-75.819
X145.415Y-78.359
X145.415Y-80.899
X153.035Y-73.279
X153.035Y-75.819
X153.035Y-78.359
X153.035Y-80.899
X167.386Y-76.2
X167.386Y-78.74
X167.386Y-81.28
X167.386Y-83.82
X175.006Y-76.2
X175.006Y-78.74
X175.006Y-81.28
X175.006Y-83.82
T3
X152.4Y-89.916
X152.4Y-92.456
X156.337Y-89.916
X156.337Y-92.456
X160.147Y-89.916
X160.147Y-92.456
X161.036Y-102.235
X163.576Y-102.235
X166.116Y-102.235
X168.656Y-102.235
X171.196Y-102.235
X173.736Y-102.235
T4
X180.975Y-78.74
X180.975Y-81.28
X180.975Y-83.82
T5
X137.24Y-34.29
X138.938Y-101.219
X142.24Y-34.29
X143.938Y-101.219
X154.639Y-34.29
X159.639Y-34.29
X172.038Y-34.29
X177.038Y-34.29
T6
X130.937Y-31.115
X131.572Y-105.283
X183.515Y-31.115
X183.515Y-105.283
T0
M30
