G04 #@! TF.FileFunction,Legend,Top*
%FSLAX46Y46*%
G04 Gerber Fmt 4.6, Leading zero omitted, Abs format (unit mm)*
G04 Created by KiCad (PCBNEW 4.0.6) date Monday, 21 August 2017 'PMt' 20:32:19*
%MOMM*%
%LPD*%
G01*
G04 APERTURE LIST*
%ADD10C,0.100000*%
%ADD11C,0.150000*%
%ADD12C,0.300000*%
%ADD13C,0.180000*%
%ADD14C,0.120000*%
G04 APERTURE END LIST*
D10*
D11*
X172282332Y-96094571D02*
X172282332Y-96780286D01*
X172244237Y-96856476D01*
X172168046Y-96894571D01*
X172129951Y-96894571D01*
X172282332Y-95827905D02*
X172244237Y-95866000D01*
X172282332Y-95904095D01*
X172320427Y-95866000D01*
X172282332Y-95827905D01*
X172282332Y-95904095D01*
X172587094Y-96094571D02*
X172739475Y-96627905D01*
X172891856Y-96246952D01*
X173044237Y-96627905D01*
X173196618Y-96094571D01*
X173501379Y-96627905D02*
X173501379Y-95827905D01*
X173844236Y-96627905D02*
X173844236Y-96208857D01*
X173806141Y-96132667D01*
X173729951Y-96094571D01*
X173615665Y-96094571D01*
X173539474Y-96132667D01*
X173501379Y-96170762D01*
X174568046Y-96627905D02*
X174568046Y-96208857D01*
X174529951Y-96132667D01*
X174453761Y-96094571D01*
X174301380Y-96094571D01*
X174225189Y-96132667D01*
X174568046Y-96589810D02*
X174491856Y-96627905D01*
X174301380Y-96627905D01*
X174225189Y-96589810D01*
X174187094Y-96513619D01*
X174187094Y-96437429D01*
X174225189Y-96361238D01*
X174301380Y-96323143D01*
X174491856Y-96323143D01*
X174568046Y-96285048D01*
X174948999Y-96094571D02*
X174948999Y-96627905D01*
X174948999Y-96170762D02*
X174987094Y-96132667D01*
X175063285Y-96094571D01*
X175177571Y-96094571D01*
X175253761Y-96132667D01*
X175291856Y-96208857D01*
X175291856Y-96627905D01*
X175787095Y-96627905D02*
X175710904Y-96589810D01*
X175672809Y-96513619D01*
X175672809Y-95827905D01*
X176206143Y-96627905D02*
X176129952Y-96589810D01*
X176091857Y-96551714D01*
X176053762Y-96475524D01*
X176053762Y-96246952D01*
X176091857Y-96170762D01*
X176129952Y-96132667D01*
X176206143Y-96094571D01*
X176320429Y-96094571D01*
X176396619Y-96132667D01*
X176434714Y-96170762D01*
X176472810Y-96246952D01*
X176472810Y-96475524D01*
X176434714Y-96551714D01*
X176396619Y-96589810D01*
X176320429Y-96627905D01*
X176206143Y-96627905D01*
X176815667Y-96094571D02*
X176815667Y-96627905D01*
X176815667Y-96170762D02*
X176853762Y-96132667D01*
X176929953Y-96094571D01*
X177044239Y-96094571D01*
X177120429Y-96132667D01*
X177158524Y-96208857D01*
X177158524Y-96627905D01*
X177539477Y-96551714D02*
X177577572Y-96589810D01*
X177539477Y-96627905D01*
X177501382Y-96589810D01*
X177539477Y-96551714D01*
X177539477Y-96627905D01*
X178263286Y-96589810D02*
X178187096Y-96627905D01*
X178034715Y-96627905D01*
X177958524Y-96589810D01*
X177920429Y-96551714D01*
X177882334Y-96475524D01*
X177882334Y-96246952D01*
X177920429Y-96170762D01*
X177958524Y-96132667D01*
X178034715Y-96094571D01*
X178187096Y-96094571D01*
X178263286Y-96132667D01*
X178720429Y-96627905D02*
X178644238Y-96589810D01*
X178606143Y-96551714D01*
X178568048Y-96475524D01*
X178568048Y-96246952D01*
X178606143Y-96170762D01*
X178644238Y-96132667D01*
X178720429Y-96094571D01*
X178834715Y-96094571D01*
X178910905Y-96132667D01*
X178949000Y-96170762D01*
X178987096Y-96246952D01*
X178987096Y-96475524D01*
X178949000Y-96551714D01*
X178910905Y-96589810D01*
X178834715Y-96627905D01*
X178720429Y-96627905D01*
X179329953Y-96627905D02*
X179329953Y-96094571D01*
X179329953Y-96170762D02*
X179368048Y-96132667D01*
X179444239Y-96094571D01*
X179558525Y-96094571D01*
X179634715Y-96132667D01*
X179672810Y-96208857D01*
X179672810Y-96627905D01*
X179672810Y-96208857D02*
X179710906Y-96132667D01*
X179787096Y-96094571D01*
X179901382Y-96094571D01*
X179977572Y-96132667D01*
X180015667Y-96208857D01*
X180015667Y-96627905D01*
X172555333Y-92396905D02*
X172555333Y-91596905D01*
X172745809Y-91596905D01*
X172860095Y-91635000D01*
X172936286Y-91711190D01*
X172974381Y-91787381D01*
X173012476Y-91939762D01*
X173012476Y-92054048D01*
X172974381Y-92206429D01*
X172936286Y-92282619D01*
X172860095Y-92358810D01*
X172745809Y-92396905D01*
X172555333Y-92396905D01*
X173660095Y-92358810D02*
X173583905Y-92396905D01*
X173431524Y-92396905D01*
X173355333Y-92358810D01*
X173317238Y-92282619D01*
X173317238Y-91977857D01*
X173355333Y-91901667D01*
X173431524Y-91863571D01*
X173583905Y-91863571D01*
X173660095Y-91901667D01*
X173698190Y-91977857D01*
X173698190Y-92054048D01*
X173317238Y-92130238D01*
X174002952Y-92358810D02*
X174079142Y-92396905D01*
X174231523Y-92396905D01*
X174307714Y-92358810D01*
X174345809Y-92282619D01*
X174345809Y-92244524D01*
X174307714Y-92168333D01*
X174231523Y-92130238D01*
X174117238Y-92130238D01*
X174041047Y-92092143D01*
X174002952Y-92015952D01*
X174002952Y-91977857D01*
X174041047Y-91901667D01*
X174117238Y-91863571D01*
X174231523Y-91863571D01*
X174307714Y-91901667D01*
X174688666Y-92396905D02*
X174688666Y-91863571D01*
X174688666Y-91596905D02*
X174650571Y-91635000D01*
X174688666Y-91673095D01*
X174726761Y-91635000D01*
X174688666Y-91596905D01*
X174688666Y-91673095D01*
X175412475Y-91863571D02*
X175412475Y-92511190D01*
X175374380Y-92587381D01*
X175336285Y-92625476D01*
X175260094Y-92663571D01*
X175145809Y-92663571D01*
X175069618Y-92625476D01*
X175412475Y-92358810D02*
X175336285Y-92396905D01*
X175183904Y-92396905D01*
X175107713Y-92358810D01*
X175069618Y-92320714D01*
X175031523Y-92244524D01*
X175031523Y-92015952D01*
X175069618Y-91939762D01*
X175107713Y-91901667D01*
X175183904Y-91863571D01*
X175336285Y-91863571D01*
X175412475Y-91901667D01*
X175793428Y-91863571D02*
X175793428Y-92396905D01*
X175793428Y-91939762D02*
X175831523Y-91901667D01*
X175907714Y-91863571D01*
X176022000Y-91863571D01*
X176098190Y-91901667D01*
X176136285Y-91977857D01*
X176136285Y-92396905D01*
X176822000Y-92358810D02*
X176745810Y-92396905D01*
X176593429Y-92396905D01*
X176517238Y-92358810D01*
X176479143Y-92282619D01*
X176479143Y-91977857D01*
X176517238Y-91901667D01*
X176593429Y-91863571D01*
X176745810Y-91863571D01*
X176822000Y-91901667D01*
X176860095Y-91977857D01*
X176860095Y-92054048D01*
X176479143Y-92130238D01*
X177545809Y-92396905D02*
X177545809Y-91596905D01*
X177545809Y-92358810D02*
X177469619Y-92396905D01*
X177317238Y-92396905D01*
X177241047Y-92358810D01*
X177202952Y-92320714D01*
X177164857Y-92244524D01*
X177164857Y-92015952D01*
X177202952Y-91939762D01*
X177241047Y-91901667D01*
X177317238Y-91863571D01*
X177469619Y-91863571D01*
X177545809Y-91901667D01*
X178536286Y-92396905D02*
X178536286Y-91596905D01*
X178536286Y-91901667D02*
X178612477Y-91863571D01*
X178764858Y-91863571D01*
X178841048Y-91901667D01*
X178879143Y-91939762D01*
X178917239Y-92015952D01*
X178917239Y-92244524D01*
X178879143Y-92320714D01*
X178841048Y-92358810D01*
X178764858Y-92396905D01*
X178612477Y-92396905D01*
X178536286Y-92358810D01*
X179183906Y-91863571D02*
X179374382Y-92396905D01*
X179564858Y-91863571D02*
X179374382Y-92396905D01*
X179298191Y-92587381D01*
X179260096Y-92625476D01*
X179183906Y-92663571D01*
X172193428Y-92946905D02*
X172193428Y-93518333D01*
X172155332Y-93632619D01*
X172079142Y-93708810D01*
X171964856Y-93746905D01*
X171888666Y-93746905D01*
X172917237Y-93746905D02*
X172917237Y-93327857D01*
X172879142Y-93251667D01*
X172802952Y-93213571D01*
X172650571Y-93213571D01*
X172574380Y-93251667D01*
X172917237Y-93708810D02*
X172841047Y-93746905D01*
X172650571Y-93746905D01*
X172574380Y-93708810D01*
X172536285Y-93632619D01*
X172536285Y-93556429D01*
X172574380Y-93480238D01*
X172650571Y-93442143D01*
X172841047Y-93442143D01*
X172917237Y-93404048D01*
X173298190Y-93746905D02*
X173298190Y-93213571D01*
X173298190Y-93289762D02*
X173336285Y-93251667D01*
X173412476Y-93213571D01*
X173526762Y-93213571D01*
X173602952Y-93251667D01*
X173641047Y-93327857D01*
X173641047Y-93746905D01*
X173641047Y-93327857D02*
X173679143Y-93251667D01*
X173755333Y-93213571D01*
X173869619Y-93213571D01*
X173945809Y-93251667D01*
X173983904Y-93327857D01*
X173983904Y-93746905D01*
X174669619Y-93708810D02*
X174593429Y-93746905D01*
X174441048Y-93746905D01*
X174364857Y-93708810D01*
X174326762Y-93632619D01*
X174326762Y-93327857D01*
X174364857Y-93251667D01*
X174441048Y-93213571D01*
X174593429Y-93213571D01*
X174669619Y-93251667D01*
X174707714Y-93327857D01*
X174707714Y-93404048D01*
X174326762Y-93480238D01*
X175012476Y-93708810D02*
X175088666Y-93746905D01*
X175241047Y-93746905D01*
X175317238Y-93708810D01*
X175355333Y-93632619D01*
X175355333Y-93594524D01*
X175317238Y-93518333D01*
X175241047Y-93480238D01*
X175126762Y-93480238D01*
X175050571Y-93442143D01*
X175012476Y-93365952D01*
X175012476Y-93327857D01*
X175050571Y-93251667D01*
X175126762Y-93213571D01*
X175241047Y-93213571D01*
X175317238Y-93251667D01*
X176307714Y-93746905D02*
X176307714Y-92946905D01*
X176307714Y-93327857D02*
X176764857Y-93327857D01*
X176764857Y-93746905D02*
X176764857Y-92946905D01*
X177488666Y-93746905D02*
X177488666Y-93327857D01*
X177450571Y-93251667D01*
X177374381Y-93213571D01*
X177222000Y-93213571D01*
X177145809Y-93251667D01*
X177488666Y-93708810D02*
X177412476Y-93746905D01*
X177222000Y-93746905D01*
X177145809Y-93708810D01*
X177107714Y-93632619D01*
X177107714Y-93556429D01*
X177145809Y-93480238D01*
X177222000Y-93442143D01*
X177412476Y-93442143D01*
X177488666Y-93404048D01*
X177869619Y-93213571D02*
X177869619Y-93746905D01*
X177869619Y-93289762D02*
X177907714Y-93251667D01*
X177983905Y-93213571D01*
X178098191Y-93213571D01*
X178174381Y-93251667D01*
X178212476Y-93327857D01*
X178212476Y-93746905D01*
X178707715Y-93746905D02*
X178631524Y-93708810D01*
X178593429Y-93632619D01*
X178593429Y-92946905D01*
X179126763Y-93746905D02*
X179050572Y-93708810D01*
X179012477Y-93670714D01*
X178974382Y-93594524D01*
X178974382Y-93365952D01*
X179012477Y-93289762D01*
X179050572Y-93251667D01*
X179126763Y-93213571D01*
X179241049Y-93213571D01*
X179317239Y-93251667D01*
X179355334Y-93289762D01*
X179393430Y-93365952D01*
X179393430Y-93594524D01*
X179355334Y-93670714D01*
X179317239Y-93708810D01*
X179241049Y-93746905D01*
X179126763Y-93746905D01*
X179736287Y-93213571D02*
X179736287Y-93746905D01*
X179736287Y-93289762D02*
X179774382Y-93251667D01*
X179850573Y-93213571D01*
X179964859Y-93213571D01*
X180041049Y-93251667D01*
X180079144Y-93327857D01*
X180079144Y-93746905D01*
D12*
X171307715Y-90467571D02*
X170593429Y-90467571D01*
X170593429Y-88967571D01*
X171807715Y-89681857D02*
X172307715Y-89681857D01*
X172522001Y-90467571D02*
X171807715Y-90467571D01*
X171807715Y-88967571D01*
X172522001Y-88967571D01*
X173164858Y-90467571D02*
X173164858Y-88967571D01*
X173522001Y-88967571D01*
X173736286Y-89039000D01*
X173879144Y-89181857D01*
X173950572Y-89324714D01*
X174022001Y-89610429D01*
X174022001Y-89824714D01*
X173950572Y-90110429D01*
X173879144Y-90253286D01*
X173736286Y-90396143D01*
X173522001Y-90467571D01*
X173164858Y-90467571D01*
X176450572Y-90467571D02*
X176450572Y-88967571D01*
X176450572Y-90396143D02*
X176307715Y-90467571D01*
X176022001Y-90467571D01*
X175879143Y-90396143D01*
X175807715Y-90324714D01*
X175736286Y-90181857D01*
X175736286Y-89753286D01*
X175807715Y-89610429D01*
X175879143Y-89539000D01*
X176022001Y-89467571D01*
X176307715Y-89467571D01*
X176450572Y-89539000D01*
X177164858Y-90467571D02*
X177164858Y-89467571D01*
X177164858Y-89753286D02*
X177236286Y-89610429D01*
X177307715Y-89539000D01*
X177450572Y-89467571D01*
X177593429Y-89467571D01*
X178093429Y-90467571D02*
X178093429Y-89467571D01*
X178093429Y-88967571D02*
X178022000Y-89039000D01*
X178093429Y-89110429D01*
X178164857Y-89039000D01*
X178093429Y-88967571D01*
X178093429Y-89110429D01*
X178664858Y-89467571D02*
X179022001Y-90467571D01*
X179379143Y-89467571D01*
X180522000Y-90396143D02*
X180379143Y-90467571D01*
X180093429Y-90467571D01*
X179950572Y-90396143D01*
X179879143Y-90253286D01*
X179879143Y-89681857D01*
X179950572Y-89539000D01*
X180093429Y-89467571D01*
X180379143Y-89467571D01*
X180522000Y-89539000D01*
X180593429Y-89681857D01*
X180593429Y-89824714D01*
X179879143Y-89967571D01*
X181236286Y-90467571D02*
X181236286Y-89467571D01*
X181236286Y-89753286D02*
X181307714Y-89610429D01*
X181379143Y-89539000D01*
X181522000Y-89467571D01*
X181664857Y-89467571D01*
D13*
X130810095Y-71080381D02*
X131381524Y-71080381D01*
X131095809Y-72080381D02*
X131095809Y-71080381D01*
X131619619Y-71080381D02*
X132286286Y-72080381D01*
X132286286Y-71080381D02*
X131619619Y-72080381D01*
X131278334Y-80716381D02*
X130945000Y-80240190D01*
X130706905Y-80716381D02*
X130706905Y-79716381D01*
X131087858Y-79716381D01*
X131183096Y-79764000D01*
X131230715Y-79811619D01*
X131278334Y-79906857D01*
X131278334Y-80049714D01*
X131230715Y-80144952D01*
X131183096Y-80192571D01*
X131087858Y-80240190D01*
X130706905Y-80240190D01*
X131611667Y-79716381D02*
X132278334Y-80716381D01*
X132278334Y-79716381D02*
X131611667Y-80716381D01*
X145066286Y-70302381D02*
X145066286Y-69302381D01*
X145447239Y-69302381D01*
X145542477Y-69350000D01*
X145590096Y-69397619D01*
X145637715Y-69492857D01*
X145637715Y-69635714D01*
X145590096Y-69730952D01*
X145542477Y-69778571D01*
X145447239Y-69826190D01*
X145066286Y-69826190D01*
X146066286Y-70302381D02*
X146066286Y-69302381D01*
X147113905Y-70207143D02*
X147066286Y-70254762D01*
X146923429Y-70302381D01*
X146828191Y-70302381D01*
X146685333Y-70254762D01*
X146590095Y-70159524D01*
X146542476Y-70064286D01*
X146494857Y-69873810D01*
X146494857Y-69730952D01*
X146542476Y-69540476D01*
X146590095Y-69445238D01*
X146685333Y-69350000D01*
X146828191Y-69302381D01*
X146923429Y-69302381D01*
X147066286Y-69350000D01*
X147113905Y-69397619D01*
X148066286Y-70302381D02*
X147494857Y-70302381D01*
X147780571Y-70302381D02*
X147780571Y-69302381D01*
X147685333Y-69445238D01*
X147590095Y-69540476D01*
X147494857Y-69588095D01*
X148447238Y-69397619D02*
X148494857Y-69350000D01*
X148590095Y-69302381D01*
X148828191Y-69302381D01*
X148923429Y-69350000D01*
X148971048Y-69397619D01*
X149018667Y-69492857D01*
X149018667Y-69588095D01*
X148971048Y-69730952D01*
X148399619Y-70302381D01*
X149018667Y-70302381D01*
X149780572Y-69778571D02*
X149447238Y-69778571D01*
X149447238Y-70302381D02*
X149447238Y-69302381D01*
X149923429Y-69302381D01*
X150828191Y-70302381D02*
X150256762Y-70302381D01*
X150542476Y-70302381D02*
X150542476Y-69302381D01*
X150447238Y-69445238D01*
X150352000Y-69540476D01*
X150256762Y-69588095D01*
X151732953Y-69302381D02*
X151256762Y-69302381D01*
X151209143Y-69778571D01*
X151256762Y-69730952D01*
X151352000Y-69683333D01*
X151590096Y-69683333D01*
X151685334Y-69730952D01*
X151732953Y-69778571D01*
X151780572Y-69873810D01*
X151780572Y-70111905D01*
X151732953Y-70207143D01*
X151685334Y-70254762D01*
X151590096Y-70302381D01*
X151352000Y-70302381D01*
X151256762Y-70254762D01*
X151209143Y-70207143D01*
X152113905Y-69302381D02*
X152780572Y-69302381D01*
X152352000Y-70302381D01*
X153113905Y-69397619D02*
X153161524Y-69350000D01*
X153256762Y-69302381D01*
X153494858Y-69302381D01*
X153590096Y-69350000D01*
X153637715Y-69397619D01*
X153685334Y-69492857D01*
X153685334Y-69588095D01*
X153637715Y-69730952D01*
X153066286Y-70302381D01*
X153685334Y-70302381D01*
X168656333Y-73096381D02*
X168656333Y-72096381D01*
X168989667Y-72810667D01*
X169323000Y-72096381D01*
X169323000Y-73096381D01*
X169751571Y-72810667D02*
X170227762Y-72810667D01*
X169656333Y-73096381D02*
X169989666Y-72096381D01*
X170323000Y-73096381D01*
X170561095Y-72096381D02*
X171227762Y-73096381D01*
X171227762Y-72096381D02*
X170561095Y-73096381D01*
X172037286Y-72429714D02*
X172037286Y-73096381D01*
X171799190Y-72048762D02*
X171561095Y-72763048D01*
X172180143Y-72763048D01*
X172703952Y-72524952D02*
X172608714Y-72477333D01*
X172561095Y-72429714D01*
X172513476Y-72334476D01*
X172513476Y-72286857D01*
X172561095Y-72191619D01*
X172608714Y-72144000D01*
X172703952Y-72096381D01*
X172894429Y-72096381D01*
X172989667Y-72144000D01*
X173037286Y-72191619D01*
X173084905Y-72286857D01*
X173084905Y-72334476D01*
X173037286Y-72429714D01*
X172989667Y-72477333D01*
X172894429Y-72524952D01*
X172703952Y-72524952D01*
X172608714Y-72572571D01*
X172561095Y-72620190D01*
X172513476Y-72715429D01*
X172513476Y-72905905D01*
X172561095Y-73001143D01*
X172608714Y-73048762D01*
X172703952Y-73096381D01*
X172894429Y-73096381D01*
X172989667Y-73048762D01*
X173037286Y-73001143D01*
X173084905Y-72905905D01*
X173084905Y-72715429D01*
X173037286Y-72620190D01*
X172989667Y-72572571D01*
X172894429Y-72524952D01*
X173989667Y-72096381D02*
X173513476Y-72096381D01*
X173465857Y-72572571D01*
X173513476Y-72524952D01*
X173608714Y-72477333D01*
X173846810Y-72477333D01*
X173942048Y-72524952D01*
X173989667Y-72572571D01*
X174037286Y-72667810D01*
X174037286Y-72905905D01*
X173989667Y-73001143D01*
X173942048Y-73048762D01*
X173846810Y-73096381D01*
X173608714Y-73096381D01*
X173513476Y-73048762D01*
X173465857Y-73001143D01*
X179506762Y-76271381D02*
X179173428Y-75795190D01*
X178935333Y-76271381D02*
X178935333Y-75271381D01*
X179316286Y-75271381D01*
X179411524Y-75319000D01*
X179459143Y-75366619D01*
X179506762Y-75461857D01*
X179506762Y-75604714D01*
X179459143Y-75699952D01*
X179411524Y-75747571D01*
X179316286Y-75795190D01*
X178935333Y-75795190D01*
X179887714Y-76223762D02*
X180030571Y-76271381D01*
X180268667Y-76271381D01*
X180363905Y-76223762D01*
X180411524Y-76176143D01*
X180459143Y-76080905D01*
X180459143Y-75985667D01*
X180411524Y-75890429D01*
X180363905Y-75842810D01*
X180268667Y-75795190D01*
X180078190Y-75747571D01*
X179982952Y-75699952D01*
X179935333Y-75652333D01*
X179887714Y-75557095D01*
X179887714Y-75461857D01*
X179935333Y-75366619D01*
X179982952Y-75319000D01*
X180078190Y-75271381D01*
X180316286Y-75271381D01*
X180459143Y-75319000D01*
X181316286Y-75604714D02*
X181316286Y-76271381D01*
X181078190Y-75223762D02*
X180840095Y-75938048D01*
X181459143Y-75938048D01*
X181982952Y-75699952D02*
X181887714Y-75652333D01*
X181840095Y-75604714D01*
X181792476Y-75509476D01*
X181792476Y-75461857D01*
X181840095Y-75366619D01*
X181887714Y-75319000D01*
X181982952Y-75271381D01*
X182173429Y-75271381D01*
X182268667Y-75319000D01*
X182316286Y-75366619D01*
X182363905Y-75461857D01*
X182363905Y-75509476D01*
X182316286Y-75604714D01*
X182268667Y-75652333D01*
X182173429Y-75699952D01*
X181982952Y-75699952D01*
X181887714Y-75747571D01*
X181840095Y-75795190D01*
X181792476Y-75890429D01*
X181792476Y-76080905D01*
X181840095Y-76176143D01*
X181887714Y-76223762D01*
X181982952Y-76271381D01*
X182173429Y-76271381D01*
X182268667Y-76223762D01*
X182316286Y-76176143D01*
X182363905Y-76080905D01*
X182363905Y-75890429D01*
X182316286Y-75795190D01*
X182268667Y-75747571D01*
X182173429Y-75699952D01*
X183268667Y-75271381D02*
X182792476Y-75271381D01*
X182744857Y-75747571D01*
X182792476Y-75699952D01*
X182887714Y-75652333D01*
X183125810Y-75652333D01*
X183221048Y-75699952D01*
X183268667Y-75747571D01*
X183316286Y-75842810D01*
X183316286Y-76080905D01*
X183268667Y-76176143D01*
X183221048Y-76223762D01*
X183125810Y-76271381D01*
X182887714Y-76271381D01*
X182792476Y-76223762D01*
X182744857Y-76176143D01*
D10*
X158894429Y-102063571D02*
X158894429Y-102406428D01*
X158894429Y-102235000D02*
X158294429Y-102235000D01*
X158380143Y-102292143D01*
X158437286Y-102349285D01*
X158465857Y-102406428D01*
D13*
X185348571Y-78795571D02*
X185396190Y-78652714D01*
X185443810Y-78605095D01*
X185539048Y-78557476D01*
X185681905Y-78557476D01*
X185777143Y-78605095D01*
X185824762Y-78652714D01*
X185872381Y-78747952D01*
X185872381Y-79128905D01*
X184872381Y-79128905D01*
X184872381Y-78795571D01*
X184920000Y-78700333D01*
X184967619Y-78652714D01*
X185062857Y-78605095D01*
X185158095Y-78605095D01*
X185253333Y-78652714D01*
X185300952Y-78700333D01*
X185348571Y-78795571D01*
X185348571Y-79128905D01*
X185586667Y-81391095D02*
X185586667Y-80914904D01*
X185872381Y-81486333D02*
X184872381Y-81153000D01*
X185872381Y-80819666D01*
X184920000Y-84708904D02*
X184872381Y-84804142D01*
X184872381Y-84946999D01*
X184920000Y-85089857D01*
X185015238Y-85185095D01*
X185110476Y-85232714D01*
X185300952Y-85280333D01*
X185443810Y-85280333D01*
X185634286Y-85232714D01*
X185729524Y-85185095D01*
X185824762Y-85089857D01*
X185872381Y-84946999D01*
X185872381Y-84851761D01*
X185824762Y-84708904D01*
X185777143Y-84661285D01*
X185443810Y-84661285D01*
X185443810Y-84851761D01*
X185872381Y-84232714D02*
X184872381Y-84232714D01*
X185872381Y-83661285D01*
X184872381Y-83661285D01*
X185872381Y-83185095D02*
X184872381Y-83185095D01*
X184872381Y-82947000D01*
X184920000Y-82804142D01*
X185015238Y-82708904D01*
X185110476Y-82661285D01*
X185300952Y-82613666D01*
X185443810Y-82613666D01*
X185634286Y-82661285D01*
X185729524Y-82708904D01*
X185824762Y-82804142D01*
X185872381Y-82947000D01*
X185872381Y-83185095D01*
X171704048Y-28646429D02*
X172465953Y-28646429D01*
X172085001Y-29027381D02*
X172085001Y-28265476D01*
X137033048Y-28646429D02*
X137794953Y-28646429D01*
X137414001Y-29027381D02*
X137414001Y-28265476D01*
X141986048Y-28646429D02*
X142747953Y-28646429D01*
X176657048Y-28646429D02*
X177418953Y-28646429D01*
X159258048Y-28646429D02*
X160019953Y-28646429D01*
X154178048Y-28646429D02*
X154939953Y-28646429D01*
X154559001Y-29027381D02*
X154559001Y-28265476D01*
X138176096Y-106434000D02*
X138080858Y-106386381D01*
X137938001Y-106386381D01*
X137795143Y-106434000D01*
X137699905Y-106529238D01*
X137652286Y-106624476D01*
X137604667Y-106814952D01*
X137604667Y-106957810D01*
X137652286Y-107148286D01*
X137699905Y-107243524D01*
X137795143Y-107338762D01*
X137938001Y-107386381D01*
X138033239Y-107386381D01*
X138176096Y-107338762D01*
X138223715Y-107291143D01*
X138223715Y-106957810D01*
X138033239Y-106957810D01*
X138652286Y-107386381D02*
X138652286Y-106386381D01*
X139223715Y-107386381D01*
X139223715Y-106386381D01*
X139699905Y-107386381D02*
X139699905Y-106386381D01*
X139938000Y-106386381D01*
X140080858Y-106434000D01*
X140176096Y-106529238D01*
X140223715Y-106624476D01*
X140271334Y-106814952D01*
X140271334Y-106957810D01*
X140223715Y-107148286D01*
X140176096Y-107243524D01*
X140080858Y-107338762D01*
X139938000Y-107386381D01*
X139699905Y-107386381D01*
X143700524Y-106386381D02*
X143224333Y-106386381D01*
X143176714Y-106862571D01*
X143224333Y-106814952D01*
X143319571Y-106767333D01*
X143557667Y-106767333D01*
X143652905Y-106814952D01*
X143700524Y-106862571D01*
X143748143Y-106957810D01*
X143748143Y-107195905D01*
X143700524Y-107291143D01*
X143652905Y-107338762D01*
X143557667Y-107386381D01*
X143319571Y-107386381D01*
X143224333Y-107338762D01*
X143176714Y-107291143D01*
X144033857Y-106386381D02*
X144367190Y-107386381D01*
X144700524Y-106386381D01*
D10*
X171594429Y-106579857D02*
X170994429Y-106579857D01*
X171423000Y-106379857D01*
X170994429Y-106179857D01*
X171594429Y-106179857D01*
X171537286Y-105551286D02*
X171565857Y-105579857D01*
X171594429Y-105665571D01*
X171594429Y-105722714D01*
X171565857Y-105808429D01*
X171508714Y-105865571D01*
X171451571Y-105894143D01*
X171337286Y-105922714D01*
X171251571Y-105922714D01*
X171137286Y-105894143D01*
X171080143Y-105865571D01*
X171023000Y-105808429D01*
X170994429Y-105722714D01*
X170994429Y-105665571D01*
X171023000Y-105579857D01*
X171051571Y-105551286D01*
X171594429Y-105008429D02*
X171594429Y-105294143D01*
X170994429Y-105294143D01*
X171594429Y-104465572D02*
X171308714Y-104665572D01*
X171594429Y-104808429D02*
X170994429Y-104808429D01*
X170994429Y-104579857D01*
X171023000Y-104522715D01*
X171051571Y-104494143D01*
X171108714Y-104465572D01*
X171194429Y-104465572D01*
X171251571Y-104494143D01*
X171280143Y-104522715D01*
X171308714Y-104579857D01*
X171308714Y-104808429D01*
X169054429Y-105798857D02*
X168454429Y-105798857D01*
X168454429Y-105656000D01*
X168483000Y-105570285D01*
X168540143Y-105513143D01*
X168597286Y-105484571D01*
X168711571Y-105456000D01*
X168797286Y-105456000D01*
X168911571Y-105484571D01*
X168968714Y-105513143D01*
X169025857Y-105570285D01*
X169054429Y-105656000D01*
X169054429Y-105798857D01*
X168883000Y-105227428D02*
X168883000Y-104941714D01*
X169054429Y-105284571D02*
X168454429Y-105084571D01*
X169054429Y-104884571D01*
X168454429Y-104770285D02*
X168454429Y-104427428D01*
X169054429Y-104598857D02*
X168454429Y-104598857D01*
X166457286Y-105513143D02*
X166485857Y-105541714D01*
X166514429Y-105627428D01*
X166514429Y-105684571D01*
X166485857Y-105770286D01*
X166428714Y-105827428D01*
X166371571Y-105856000D01*
X166257286Y-105884571D01*
X166171571Y-105884571D01*
X166057286Y-105856000D01*
X166000143Y-105827428D01*
X165943000Y-105770286D01*
X165914429Y-105684571D01*
X165914429Y-105627428D01*
X165943000Y-105541714D01*
X165971571Y-105513143D01*
X166514429Y-104970286D02*
X166514429Y-105256000D01*
X165914429Y-105256000D01*
X166514429Y-104770286D02*
X165914429Y-104770286D01*
X166514429Y-104427429D02*
X166171571Y-104684572D01*
X165914429Y-104427429D02*
X166257286Y-104770286D01*
X163276000Y-105613142D02*
X163247429Y-105670285D01*
X163247429Y-105755999D01*
X163276000Y-105841714D01*
X163333143Y-105898856D01*
X163390286Y-105927428D01*
X163504571Y-105955999D01*
X163590286Y-105955999D01*
X163704571Y-105927428D01*
X163761714Y-105898856D01*
X163818857Y-105841714D01*
X163847429Y-105755999D01*
X163847429Y-105698856D01*
X163818857Y-105613142D01*
X163790286Y-105584571D01*
X163590286Y-105584571D01*
X163590286Y-105698856D01*
X163847429Y-105327428D02*
X163247429Y-105327428D01*
X163847429Y-104984571D01*
X163247429Y-104984571D01*
X163847429Y-104698857D02*
X163247429Y-104698857D01*
X163247429Y-104556000D01*
X163276000Y-104470285D01*
X163333143Y-104413143D01*
X163390286Y-104384571D01*
X163504571Y-104356000D01*
X163590286Y-104356000D01*
X163704571Y-104384571D01*
X163761714Y-104413143D01*
X163818857Y-104470285D01*
X163847429Y-104556000D01*
X163847429Y-104698857D01*
X160834429Y-105143286D02*
X160834429Y-105429000D01*
X161120143Y-105457571D01*
X161091571Y-105429000D01*
X161063000Y-105371857D01*
X161063000Y-105229000D01*
X161091571Y-105171857D01*
X161120143Y-105143286D01*
X161177286Y-105114714D01*
X161320143Y-105114714D01*
X161377286Y-105143286D01*
X161405857Y-105171857D01*
X161434429Y-105229000D01*
X161434429Y-105371857D01*
X161405857Y-105429000D01*
X161377286Y-105457571D01*
X160834429Y-104943285D02*
X161434429Y-104743285D01*
X160834429Y-104543285D01*
D11*
X133223000Y-31115000D02*
G75*
G03X133223000Y-31115000I-2286000J0D01*
G01*
X185801000Y-31115000D02*
G75*
G03X185801000Y-31115000I-2286000J0D01*
G01*
X133858000Y-105283000D02*
G75*
G03X133858000Y-105283000I-2286000J0D01*
G01*
X174538000Y-30190000D02*
X174538000Y-29690000D01*
X174038000Y-34190000D02*
G75*
G03X174038000Y-34190000I-2000000J0D01*
G01*
X179038000Y-34190000D02*
G75*
G03X179038000Y-34190000I-2000000J0D01*
G01*
X179538000Y-31690000D02*
X169538000Y-31690000D01*
X179538000Y-36590000D02*
X169538000Y-36590000D01*
X179538000Y-30190000D02*
X169538000Y-30190000D01*
X179538000Y-29690000D02*
X169538000Y-29690000D01*
X169538000Y-29690000D02*
X169538000Y-39490000D01*
X169538000Y-39490000D02*
X179538000Y-39490000D01*
X179538000Y-39490000D02*
X179538000Y-29690000D01*
X162306000Y-100965000D02*
X175006000Y-100965000D01*
X175006000Y-100965000D02*
X175006000Y-103505000D01*
X175006000Y-103505000D02*
X162306000Y-103505000D01*
X159486000Y-100685000D02*
X161036000Y-100685000D01*
X162306000Y-100965000D02*
X162306000Y-103505000D01*
X161036000Y-103785000D02*
X159486000Y-103785000D01*
X159486000Y-103785000D02*
X159486000Y-100685000D01*
X157139000Y-30190000D02*
X157139000Y-29690000D01*
X156639000Y-34190000D02*
G75*
G03X156639000Y-34190000I-2000000J0D01*
G01*
X161639000Y-34190000D02*
G75*
G03X161639000Y-34190000I-2000000J0D01*
G01*
X162139000Y-31690000D02*
X152139000Y-31690000D01*
X162139000Y-36590000D02*
X152139000Y-36590000D01*
X162139000Y-30190000D02*
X152139000Y-30190000D01*
X162139000Y-29690000D02*
X152139000Y-29690000D01*
X152139000Y-29690000D02*
X152139000Y-39490000D01*
X152139000Y-39490000D02*
X162139000Y-39490000D01*
X162139000Y-39490000D02*
X162139000Y-29690000D01*
X139740000Y-30190000D02*
X139740000Y-29690000D01*
X139240000Y-34190000D02*
G75*
G03X139240000Y-34190000I-2000000J0D01*
G01*
X144240000Y-34190000D02*
G75*
G03X144240000Y-34190000I-2000000J0D01*
G01*
X144740000Y-31690000D02*
X134740000Y-31690000D01*
X144740000Y-36590000D02*
X134740000Y-36590000D01*
X144740000Y-30190000D02*
X134740000Y-30190000D01*
X144740000Y-29690000D02*
X134740000Y-29690000D01*
X134740000Y-29690000D02*
X134740000Y-39490000D01*
X134740000Y-39490000D02*
X144740000Y-39490000D01*
X144740000Y-39490000D02*
X144740000Y-29690000D01*
X141438000Y-105319000D02*
X141438000Y-105819000D01*
X145938000Y-101319000D02*
G75*
G03X145938000Y-101319000I-2000000J0D01*
G01*
X140938000Y-101319000D02*
G75*
G03X140938000Y-101319000I-2000000J0D01*
G01*
X136438000Y-103819000D02*
X146438000Y-103819000D01*
X136438000Y-98919000D02*
X146438000Y-98919000D01*
X136438000Y-105319000D02*
X146438000Y-105319000D01*
X136438000Y-105819000D02*
X146438000Y-105819000D01*
X146438000Y-105819000D02*
X146438000Y-96019000D01*
X146438000Y-96019000D02*
X136438000Y-96019000D01*
X136438000Y-96019000D02*
X136438000Y-105819000D01*
X177876200Y-77180440D02*
X177876200Y-85379560D01*
X178274980Y-77180440D02*
X178274980Y-85379560D01*
X183575960Y-77180440D02*
X183575960Y-85379560D01*
X184073800Y-85379560D02*
X184073800Y-77180440D01*
X183575960Y-79979520D02*
X184073800Y-79979520D01*
X184073800Y-85178900D02*
X183575960Y-85178900D01*
X183575960Y-77378560D02*
X184073800Y-77378560D01*
X184073800Y-82577940D02*
X183575960Y-82577940D01*
X184073800Y-77180440D02*
X177876200Y-77180440D01*
X177876200Y-85377020D02*
X184073800Y-85377020D01*
X145550000Y-70984000D02*
X145550000Y-72254000D01*
X152900000Y-70984000D02*
X152900000Y-72254000D01*
X152900000Y-83194000D02*
X152900000Y-81924000D01*
X145550000Y-83194000D02*
X145550000Y-81924000D01*
X145550000Y-70984000D02*
X152900000Y-70984000D01*
X145550000Y-83194000D02*
X152900000Y-83194000D01*
X145550000Y-72254000D02*
X144615000Y-72254000D01*
X167521000Y-73905000D02*
X167521000Y-75175000D01*
X174871000Y-73905000D02*
X174871000Y-75175000D01*
X174871000Y-86115000D02*
X174871000Y-84845000D01*
X167521000Y-86115000D02*
X167521000Y-84845000D01*
X167521000Y-73905000D02*
X174871000Y-73905000D01*
X167521000Y-86115000D02*
X174871000Y-86115000D01*
X167521000Y-75175000D02*
X166586000Y-75175000D01*
X154598000Y-61984000D02*
X154598000Y-62984000D01*
X156298000Y-62984000D02*
X156298000Y-61984000D01*
X171997000Y-61730000D02*
X171997000Y-62730000D01*
X173697000Y-62730000D02*
X173697000Y-61730000D01*
X137199000Y-61984000D02*
X137199000Y-62984000D01*
X138899000Y-62984000D02*
X138899000Y-61984000D01*
X133020000Y-81014000D02*
X135720000Y-81014000D01*
X133020000Y-79514000D02*
X135720000Y-79514000D01*
X134520000Y-80414000D02*
X134520000Y-80164000D01*
X134520000Y-80164000D02*
X134370000Y-80314000D01*
X134270000Y-79914000D02*
X134270000Y-80614000D01*
X134620000Y-80264000D02*
X134970000Y-80264000D01*
X134270000Y-80264000D02*
X134620000Y-79914000D01*
X134620000Y-79914000D02*
X134620000Y-80614000D01*
X134620000Y-80614000D02*
X134270000Y-80264000D01*
X149276000Y-104890000D02*
X151976000Y-104890000D01*
X149276000Y-103390000D02*
X151976000Y-103390000D01*
X150776000Y-104290000D02*
X150776000Y-104040000D01*
X150776000Y-104040000D02*
X150626000Y-104190000D01*
X150526000Y-103790000D02*
X150526000Y-104490000D01*
X150876000Y-104140000D02*
X151226000Y-104140000D01*
X150526000Y-104140000D02*
X150876000Y-103790000D01*
X150876000Y-103790000D02*
X150876000Y-104490000D01*
X150876000Y-104490000D02*
X150526000Y-104140000D01*
X179498000Y-53761000D02*
X178248000Y-53761000D01*
X179498000Y-53761000D02*
X179498000Y-52261000D01*
X169498000Y-53761000D02*
X169498000Y-52261000D01*
X169498000Y-53761000D02*
X170748000Y-53761000D01*
X162099000Y-54015000D02*
X160849000Y-54015000D01*
X162099000Y-54015000D02*
X162099000Y-52515000D01*
X152099000Y-54015000D02*
X152099000Y-52515000D01*
X152099000Y-54015000D02*
X153349000Y-54015000D01*
X144700000Y-54015000D02*
X143450000Y-54015000D01*
X144700000Y-54015000D02*
X144700000Y-52515000D01*
X134700000Y-54015000D02*
X134700000Y-52515000D01*
X134700000Y-54015000D02*
X135950000Y-54015000D01*
X175401000Y-62830000D02*
X175401000Y-61630000D01*
X177151000Y-61630000D02*
X177151000Y-62830000D01*
X157875000Y-63084000D02*
X157875000Y-61884000D01*
X159625000Y-61884000D02*
X159625000Y-63084000D01*
X140603000Y-63084000D02*
X140603000Y-61884000D01*
X142353000Y-61884000D02*
X142353000Y-63084000D01*
X185801000Y-105283000D02*
G75*
G03X185801000Y-105283000I-2286000J0D01*
G01*
X162271000Y-84949000D02*
X161071000Y-84949000D01*
X161071000Y-83199000D02*
X162271000Y-83199000D01*
X168113000Y-70598000D02*
X166913000Y-70598000D01*
X166913000Y-68848000D02*
X168113000Y-68848000D01*
X162271000Y-77837000D02*
X161071000Y-77837000D01*
X161071000Y-76087000D02*
X162271000Y-76087000D01*
X133766000Y-81929000D02*
X134966000Y-81929000D01*
X134966000Y-83679000D02*
X133766000Y-83679000D01*
X133893000Y-73674000D02*
X135093000Y-73674000D01*
X135093000Y-75424000D02*
X133893000Y-75424000D01*
X151095000Y-102094000D02*
X149895000Y-102094000D01*
X149895000Y-100344000D02*
X151095000Y-100344000D01*
X133147000Y-72378000D02*
X135847000Y-72378000D01*
X133147000Y-70878000D02*
X135847000Y-70878000D01*
X134647000Y-71778000D02*
X134647000Y-71528000D01*
X134647000Y-71528000D02*
X134497000Y-71678000D01*
X134397000Y-71278000D02*
X134397000Y-71978000D01*
X134747000Y-71628000D02*
X135097000Y-71628000D01*
X134397000Y-71628000D02*
X134747000Y-71278000D01*
X134747000Y-71278000D02*
X134747000Y-71978000D01*
X134747000Y-71978000D02*
X134397000Y-71628000D01*
X161417000Y-91186000D02*
X161417000Y-93726000D01*
X161697000Y-88366000D02*
X161697000Y-89916000D01*
X161417000Y-91186000D02*
X158877000Y-91186000D01*
X158597000Y-89916000D02*
X158597000Y-88366000D01*
X158597000Y-88366000D02*
X161697000Y-88366000D01*
X158877000Y-91186000D02*
X158877000Y-93726000D01*
X158877000Y-93726000D02*
X161417000Y-93726000D01*
X157607000Y-91186000D02*
X157607000Y-93726000D01*
X157887000Y-88366000D02*
X157887000Y-89916000D01*
X157607000Y-91186000D02*
X155067000Y-91186000D01*
X154787000Y-89916000D02*
X154787000Y-88366000D01*
X154787000Y-88366000D02*
X157887000Y-88366000D01*
X155067000Y-91186000D02*
X155067000Y-93726000D01*
X155067000Y-93726000D02*
X157607000Y-93726000D01*
X153797000Y-91186000D02*
X153797000Y-93726000D01*
X154077000Y-88366000D02*
X154077000Y-89916000D01*
X153797000Y-91186000D02*
X151257000Y-91186000D01*
X150977000Y-89916000D02*
X150977000Y-88366000D01*
X150977000Y-88366000D02*
X154077000Y-88366000D01*
X151257000Y-91186000D02*
X151257000Y-93726000D01*
X151257000Y-93726000D02*
X153797000Y-93726000D01*
D14*
X141407000Y-80393000D02*
X140477000Y-80393000D01*
X138247000Y-80393000D02*
X139177000Y-80393000D01*
X138247000Y-80393000D02*
X138247000Y-83553000D01*
X141407000Y-80393000D02*
X141407000Y-81853000D01*
X141407000Y-72265000D02*
X140477000Y-72265000D01*
X138247000Y-72265000D02*
X139177000Y-72265000D01*
X138247000Y-72265000D02*
X138247000Y-75425000D01*
X141407000Y-72265000D02*
X141407000Y-73725000D01*
X160784000Y-71699000D02*
X160784000Y-72629000D01*
X160784000Y-74859000D02*
X160784000Y-73929000D01*
X160784000Y-74859000D02*
X163944000Y-74859000D01*
X160784000Y-71699000D02*
X162244000Y-71699000D01*
D11*
X152800381Y-64603048D02*
X152800381Y-64507809D01*
X152848000Y-64412571D01*
X152895619Y-64364952D01*
X152990857Y-64317333D01*
X153181333Y-64269714D01*
X153419429Y-64269714D01*
X153609905Y-64317333D01*
X153705143Y-64364952D01*
X153752762Y-64412571D01*
X153800381Y-64507809D01*
X153800381Y-64603048D01*
X153752762Y-64698286D01*
X153705143Y-64745905D01*
X153609905Y-64793524D01*
X153419429Y-64841143D01*
X153181333Y-64841143D01*
X152990857Y-64793524D01*
X152895619Y-64745905D01*
X152848000Y-64698286D01*
X152800381Y-64603048D01*
X153705143Y-63841143D02*
X153752762Y-63793524D01*
X153800381Y-63841143D01*
X153752762Y-63888762D01*
X153705143Y-63841143D01*
X153800381Y-63841143D01*
X153800381Y-62841143D02*
X153800381Y-63412572D01*
X153800381Y-63126858D02*
X152800381Y-63126858D01*
X152943238Y-63222096D01*
X153038476Y-63317334D01*
X153086095Y-63412572D01*
X153133714Y-61984000D02*
X153800381Y-61984000D01*
X153133714Y-62412572D02*
X153657524Y-62412572D01*
X153752762Y-62364953D01*
X153800381Y-62269715D01*
X153800381Y-62126857D01*
X153752762Y-62031619D01*
X153705143Y-61984000D01*
X153276571Y-61174476D02*
X153276571Y-61507810D01*
X153800381Y-61507810D02*
X152800381Y-61507810D01*
X152800381Y-61031619D01*
X153800381Y-60126857D02*
X153800381Y-60698286D01*
X153800381Y-60412572D02*
X152800381Y-60412572D01*
X152943238Y-60507810D01*
X153038476Y-60603048D01*
X153086095Y-60698286D01*
X170199381Y-64349048D02*
X170199381Y-64253809D01*
X170247000Y-64158571D01*
X170294619Y-64110952D01*
X170389857Y-64063333D01*
X170580333Y-64015714D01*
X170818429Y-64015714D01*
X171008905Y-64063333D01*
X171104143Y-64110952D01*
X171151762Y-64158571D01*
X171199381Y-64253809D01*
X171199381Y-64349048D01*
X171151762Y-64444286D01*
X171104143Y-64491905D01*
X171008905Y-64539524D01*
X170818429Y-64587143D01*
X170580333Y-64587143D01*
X170389857Y-64539524D01*
X170294619Y-64491905D01*
X170247000Y-64444286D01*
X170199381Y-64349048D01*
X171104143Y-63587143D02*
X171151762Y-63539524D01*
X171199381Y-63587143D01*
X171151762Y-63634762D01*
X171104143Y-63587143D01*
X171199381Y-63587143D01*
X171199381Y-62587143D02*
X171199381Y-63158572D01*
X171199381Y-62872858D02*
X170199381Y-62872858D01*
X170342238Y-62968096D01*
X170437476Y-63063334D01*
X170485095Y-63158572D01*
X170532714Y-61730000D02*
X171199381Y-61730000D01*
X170532714Y-62158572D02*
X171056524Y-62158572D01*
X171151762Y-62110953D01*
X171199381Y-62015715D01*
X171199381Y-61872857D01*
X171151762Y-61777619D01*
X171104143Y-61730000D01*
X170675571Y-60920476D02*
X170675571Y-61253810D01*
X171199381Y-61253810D02*
X170199381Y-61253810D01*
X170199381Y-60777619D01*
X170294619Y-60444286D02*
X170247000Y-60396667D01*
X170199381Y-60301429D01*
X170199381Y-60063333D01*
X170247000Y-59968095D01*
X170294619Y-59920476D01*
X170389857Y-59872857D01*
X170485095Y-59872857D01*
X170627952Y-59920476D01*
X171199381Y-60491905D01*
X171199381Y-59872857D01*
X135401381Y-64603048D02*
X135401381Y-64507809D01*
X135449000Y-64412571D01*
X135496619Y-64364952D01*
X135591857Y-64317333D01*
X135782333Y-64269714D01*
X136020429Y-64269714D01*
X136210905Y-64317333D01*
X136306143Y-64364952D01*
X136353762Y-64412571D01*
X136401381Y-64507809D01*
X136401381Y-64603048D01*
X136353762Y-64698286D01*
X136306143Y-64745905D01*
X136210905Y-64793524D01*
X136020429Y-64841143D01*
X135782333Y-64841143D01*
X135591857Y-64793524D01*
X135496619Y-64745905D01*
X135449000Y-64698286D01*
X135401381Y-64603048D01*
X136306143Y-63841143D02*
X136353762Y-63793524D01*
X136401381Y-63841143D01*
X136353762Y-63888762D01*
X136306143Y-63841143D01*
X136401381Y-63841143D01*
X136401381Y-62841143D02*
X136401381Y-63412572D01*
X136401381Y-63126858D02*
X135401381Y-63126858D01*
X135544238Y-63222096D01*
X135639476Y-63317334D01*
X135687095Y-63412572D01*
X135734714Y-61984000D02*
X136401381Y-61984000D01*
X135734714Y-62412572D02*
X136258524Y-62412572D01*
X136353762Y-62364953D01*
X136401381Y-62269715D01*
X136401381Y-62126857D01*
X136353762Y-62031619D01*
X136306143Y-61984000D01*
X135877571Y-61174476D02*
X135877571Y-61507810D01*
X136401381Y-61507810D02*
X135401381Y-61507810D01*
X135401381Y-61031619D01*
X135401381Y-60174476D02*
X135401381Y-60650667D01*
X135877571Y-60698286D01*
X135829952Y-60650667D01*
X135782333Y-60555429D01*
X135782333Y-60317333D01*
X135829952Y-60222095D01*
X135877571Y-60174476D01*
X135972810Y-60126857D01*
X136210905Y-60126857D01*
X136306143Y-60174476D01*
X136353762Y-60222095D01*
X136401381Y-60317333D01*
X136401381Y-60555429D01*
X136353762Y-60650667D01*
X136306143Y-60698286D01*
X133977143Y-78966381D02*
X133500952Y-78966381D01*
X133500952Y-77966381D01*
X134310476Y-78442571D02*
X134643810Y-78442571D01*
X134786667Y-78966381D02*
X134310476Y-78966381D01*
X134310476Y-77966381D01*
X134786667Y-77966381D01*
X135215238Y-78966381D02*
X135215238Y-77966381D01*
X135453333Y-77966381D01*
X135596191Y-78014000D01*
X135691429Y-78109238D01*
X135739048Y-78204476D01*
X135786667Y-78394952D01*
X135786667Y-78537810D01*
X135739048Y-78728286D01*
X135691429Y-78823524D01*
X135596191Y-78918762D01*
X135453333Y-78966381D01*
X135215238Y-78966381D01*
X150233143Y-106624381D02*
X149756952Y-106624381D01*
X149756952Y-105624381D01*
X150566476Y-106100571D02*
X150899810Y-106100571D01*
X151042667Y-106624381D02*
X150566476Y-106624381D01*
X150566476Y-105624381D01*
X151042667Y-105624381D01*
X151471238Y-106624381D02*
X151471238Y-105624381D01*
X151709333Y-105624381D01*
X151852191Y-105672000D01*
X151947429Y-105767238D01*
X151995048Y-105862476D01*
X152042667Y-106052952D01*
X152042667Y-106195810D01*
X151995048Y-106386286D01*
X151947429Y-106481524D01*
X151852191Y-106576762D01*
X151709333Y-106624381D01*
X151471238Y-106624381D01*
X172093238Y-53118143D02*
X172045619Y-53165762D01*
X171902762Y-53213381D01*
X171807524Y-53213381D01*
X171664666Y-53165762D01*
X171569428Y-53070524D01*
X171521809Y-52975286D01*
X171474190Y-52784810D01*
X171474190Y-52641952D01*
X171521809Y-52451476D01*
X171569428Y-52356238D01*
X171664666Y-52261000D01*
X171807524Y-52213381D01*
X171902762Y-52213381D01*
X172045619Y-52261000D01*
X172093238Y-52308619D01*
X172474190Y-52927667D02*
X172950381Y-52927667D01*
X172378952Y-53213381D02*
X172712285Y-52213381D01*
X173045619Y-53213381D01*
X173236095Y-52213381D02*
X173807524Y-52213381D01*
X173521809Y-53213381D02*
X173521809Y-52213381D01*
X174569429Y-52546714D02*
X174569429Y-53213381D01*
X174331333Y-52165762D02*
X174093238Y-52880048D01*
X174712286Y-52880048D01*
X175617048Y-53213381D02*
X175045619Y-53213381D01*
X175331333Y-53213381D02*
X175331333Y-52213381D01*
X175236095Y-52356238D01*
X175140857Y-52451476D01*
X175045619Y-52499095D01*
X176236095Y-52213381D02*
X176331334Y-52213381D01*
X176426572Y-52261000D01*
X176474191Y-52308619D01*
X176521810Y-52403857D01*
X176569429Y-52594333D01*
X176569429Y-52832429D01*
X176521810Y-53022905D01*
X176474191Y-53118143D01*
X176426572Y-53165762D01*
X176331334Y-53213381D01*
X176236095Y-53213381D01*
X176140857Y-53165762D01*
X176093238Y-53118143D01*
X176045619Y-53022905D01*
X175998000Y-52832429D01*
X175998000Y-52594333D01*
X176045619Y-52403857D01*
X176093238Y-52308619D01*
X176140857Y-52261000D01*
X176236095Y-52213381D01*
X177521810Y-53213381D02*
X176950381Y-53213381D01*
X177236095Y-53213381D02*
X177236095Y-52213381D01*
X177140857Y-52356238D01*
X177045619Y-52451476D01*
X176950381Y-52499095D01*
X154694238Y-53372143D02*
X154646619Y-53419762D01*
X154503762Y-53467381D01*
X154408524Y-53467381D01*
X154265666Y-53419762D01*
X154170428Y-53324524D01*
X154122809Y-53229286D01*
X154075190Y-53038810D01*
X154075190Y-52895952D01*
X154122809Y-52705476D01*
X154170428Y-52610238D01*
X154265666Y-52515000D01*
X154408524Y-52467381D01*
X154503762Y-52467381D01*
X154646619Y-52515000D01*
X154694238Y-52562619D01*
X155075190Y-53181667D02*
X155551381Y-53181667D01*
X154979952Y-53467381D02*
X155313285Y-52467381D01*
X155646619Y-53467381D01*
X155837095Y-52467381D02*
X156408524Y-52467381D01*
X156122809Y-53467381D02*
X156122809Y-52467381D01*
X157170429Y-52800714D02*
X157170429Y-53467381D01*
X156932333Y-52419762D02*
X156694238Y-53134048D01*
X157313286Y-53134048D01*
X158218048Y-53467381D02*
X157646619Y-53467381D01*
X157932333Y-53467381D02*
X157932333Y-52467381D01*
X157837095Y-52610238D01*
X157741857Y-52705476D01*
X157646619Y-52753095D01*
X158837095Y-52467381D02*
X158932334Y-52467381D01*
X159027572Y-52515000D01*
X159075191Y-52562619D01*
X159122810Y-52657857D01*
X159170429Y-52848333D01*
X159170429Y-53086429D01*
X159122810Y-53276905D01*
X159075191Y-53372143D01*
X159027572Y-53419762D01*
X158932334Y-53467381D01*
X158837095Y-53467381D01*
X158741857Y-53419762D01*
X158694238Y-53372143D01*
X158646619Y-53276905D01*
X158599000Y-53086429D01*
X158599000Y-52848333D01*
X158646619Y-52657857D01*
X158694238Y-52562619D01*
X158741857Y-52515000D01*
X158837095Y-52467381D01*
X160122810Y-53467381D02*
X159551381Y-53467381D01*
X159837095Y-53467381D02*
X159837095Y-52467381D01*
X159741857Y-52610238D01*
X159646619Y-52705476D01*
X159551381Y-52753095D01*
X137295238Y-53372143D02*
X137247619Y-53419762D01*
X137104762Y-53467381D01*
X137009524Y-53467381D01*
X136866666Y-53419762D01*
X136771428Y-53324524D01*
X136723809Y-53229286D01*
X136676190Y-53038810D01*
X136676190Y-52895952D01*
X136723809Y-52705476D01*
X136771428Y-52610238D01*
X136866666Y-52515000D01*
X137009524Y-52467381D01*
X137104762Y-52467381D01*
X137247619Y-52515000D01*
X137295238Y-52562619D01*
X137676190Y-53181667D02*
X138152381Y-53181667D01*
X137580952Y-53467381D02*
X137914285Y-52467381D01*
X138247619Y-53467381D01*
X138438095Y-52467381D02*
X139009524Y-52467381D01*
X138723809Y-53467381D02*
X138723809Y-52467381D01*
X139771429Y-52800714D02*
X139771429Y-53467381D01*
X139533333Y-52419762D02*
X139295238Y-53134048D01*
X139914286Y-53134048D01*
X140819048Y-53467381D02*
X140247619Y-53467381D01*
X140533333Y-53467381D02*
X140533333Y-52467381D01*
X140438095Y-52610238D01*
X140342857Y-52705476D01*
X140247619Y-52753095D01*
X141438095Y-52467381D02*
X141533334Y-52467381D01*
X141628572Y-52515000D01*
X141676191Y-52562619D01*
X141723810Y-52657857D01*
X141771429Y-52848333D01*
X141771429Y-53086429D01*
X141723810Y-53276905D01*
X141676191Y-53372143D01*
X141628572Y-53419762D01*
X141533334Y-53467381D01*
X141438095Y-53467381D01*
X141342857Y-53419762D01*
X141295238Y-53372143D01*
X141247619Y-53276905D01*
X141200000Y-53086429D01*
X141200000Y-52848333D01*
X141247619Y-52657857D01*
X141295238Y-52562619D01*
X141342857Y-52515000D01*
X141438095Y-52467381D01*
X142723810Y-53467381D02*
X142152381Y-53467381D01*
X142438095Y-53467381D02*
X142438095Y-52467381D01*
X142342857Y-52610238D01*
X142247619Y-52705476D01*
X142152381Y-52753095D01*
X178828381Y-62396666D02*
X178352190Y-62730000D01*
X178828381Y-62968095D02*
X177828381Y-62968095D01*
X177828381Y-62587142D01*
X177876000Y-62491904D01*
X177923619Y-62444285D01*
X178018857Y-62396666D01*
X178161714Y-62396666D01*
X178256952Y-62444285D01*
X178304571Y-62491904D01*
X178352190Y-62587142D01*
X178352190Y-62968095D01*
X178828381Y-61444285D02*
X178828381Y-62015714D01*
X178828381Y-61730000D02*
X177828381Y-61730000D01*
X177971238Y-61825238D01*
X178066476Y-61920476D01*
X178114095Y-62015714D01*
X161302381Y-62650666D02*
X160826190Y-62984000D01*
X161302381Y-63222095D02*
X160302381Y-63222095D01*
X160302381Y-62841142D01*
X160350000Y-62745904D01*
X160397619Y-62698285D01*
X160492857Y-62650666D01*
X160635714Y-62650666D01*
X160730952Y-62698285D01*
X160778571Y-62745904D01*
X160826190Y-62841142D01*
X160826190Y-63222095D01*
X160397619Y-62269714D02*
X160350000Y-62222095D01*
X160302381Y-62126857D01*
X160302381Y-61888761D01*
X160350000Y-61793523D01*
X160397619Y-61745904D01*
X160492857Y-61698285D01*
X160588095Y-61698285D01*
X160730952Y-61745904D01*
X161302381Y-62317333D01*
X161302381Y-61698285D01*
X144030381Y-62650666D02*
X143554190Y-62984000D01*
X144030381Y-63222095D02*
X143030381Y-63222095D01*
X143030381Y-62841142D01*
X143078000Y-62745904D01*
X143125619Y-62698285D01*
X143220857Y-62650666D01*
X143363714Y-62650666D01*
X143458952Y-62698285D01*
X143506571Y-62745904D01*
X143554190Y-62841142D01*
X143554190Y-63222095D01*
X143030381Y-62317333D02*
X143030381Y-61698285D01*
X143411333Y-62031619D01*
X143411333Y-61888761D01*
X143458952Y-61793523D01*
X143506571Y-61745904D01*
X143601810Y-61698285D01*
X143839905Y-61698285D01*
X143935143Y-61745904D01*
X143982762Y-61793523D01*
X144030381Y-61888761D01*
X144030381Y-62174476D01*
X143982762Y-62269714D01*
X143935143Y-62317333D01*
X160980524Y-82494381D02*
X160409095Y-82494381D01*
X160694809Y-82494381D02*
X160694809Y-81494381D01*
X160599571Y-81637238D01*
X160504333Y-81732476D01*
X160409095Y-81780095D01*
X161599571Y-81494381D02*
X161694810Y-81494381D01*
X161790048Y-81542000D01*
X161837667Y-81589619D01*
X161885286Y-81684857D01*
X161932905Y-81875333D01*
X161932905Y-82113429D01*
X161885286Y-82303905D01*
X161837667Y-82399143D01*
X161790048Y-82446762D01*
X161694810Y-82494381D01*
X161599571Y-82494381D01*
X161504333Y-82446762D01*
X161456714Y-82399143D01*
X161409095Y-82303905D01*
X161361476Y-82113429D01*
X161361476Y-81875333D01*
X161409095Y-81684857D01*
X161456714Y-81589619D01*
X161504333Y-81542000D01*
X161599571Y-81494381D01*
X162361476Y-82494381D02*
X162361476Y-81494381D01*
X162932905Y-82494381D02*
X162504333Y-81922952D01*
X162932905Y-81494381D02*
X162361476Y-82065810D01*
X166822524Y-68075381D02*
X166251095Y-68075381D01*
X166536809Y-68075381D02*
X166536809Y-67075381D01*
X166441571Y-67218238D01*
X166346333Y-67313476D01*
X166251095Y-67361095D01*
X167441571Y-67075381D02*
X167536810Y-67075381D01*
X167632048Y-67123000D01*
X167679667Y-67170619D01*
X167727286Y-67265857D01*
X167774905Y-67456333D01*
X167774905Y-67694429D01*
X167727286Y-67884905D01*
X167679667Y-67980143D01*
X167632048Y-68027762D01*
X167536810Y-68075381D01*
X167441571Y-68075381D01*
X167346333Y-68027762D01*
X167298714Y-67980143D01*
X167251095Y-67884905D01*
X167203476Y-67694429D01*
X167203476Y-67456333D01*
X167251095Y-67265857D01*
X167298714Y-67170619D01*
X167346333Y-67123000D01*
X167441571Y-67075381D01*
X168203476Y-68075381D02*
X168203476Y-67075381D01*
X168774905Y-68075381D02*
X168346333Y-67503952D01*
X168774905Y-67075381D02*
X168203476Y-67646810D01*
X160980524Y-79446381D02*
X160409095Y-79446381D01*
X160694809Y-79446381D02*
X160694809Y-78446381D01*
X160599571Y-78589238D01*
X160504333Y-78684476D01*
X160409095Y-78732095D01*
X161599571Y-78446381D02*
X161694810Y-78446381D01*
X161790048Y-78494000D01*
X161837667Y-78541619D01*
X161885286Y-78636857D01*
X161932905Y-78827333D01*
X161932905Y-79065429D01*
X161885286Y-79255905D01*
X161837667Y-79351143D01*
X161790048Y-79398762D01*
X161694810Y-79446381D01*
X161599571Y-79446381D01*
X161504333Y-79398762D01*
X161456714Y-79351143D01*
X161409095Y-79255905D01*
X161361476Y-79065429D01*
X161361476Y-78827333D01*
X161409095Y-78636857D01*
X161456714Y-78541619D01*
X161504333Y-78494000D01*
X161599571Y-78446381D01*
X162361476Y-79446381D02*
X162361476Y-78446381D01*
X162932905Y-79446381D02*
X162504333Y-78874952D01*
X162932905Y-78446381D02*
X162361476Y-79017810D01*
X133151715Y-84356381D02*
X132675524Y-84356381D01*
X132627905Y-84832571D01*
X132675524Y-84784952D01*
X132770762Y-84737333D01*
X133008858Y-84737333D01*
X133104096Y-84784952D01*
X133151715Y-84832571D01*
X133199334Y-84927810D01*
X133199334Y-85165905D01*
X133151715Y-85261143D01*
X133104096Y-85308762D01*
X133008858Y-85356381D01*
X132770762Y-85356381D01*
X132675524Y-85308762D01*
X132627905Y-85261143D01*
X134151715Y-85356381D02*
X133580286Y-85356381D01*
X133866000Y-85356381D02*
X133866000Y-84356381D01*
X133770762Y-84499238D01*
X133675524Y-84594476D01*
X133580286Y-84642095D01*
X134770762Y-84356381D02*
X134866001Y-84356381D01*
X134961239Y-84404000D01*
X135008858Y-84451619D01*
X135056477Y-84546857D01*
X135104096Y-84737333D01*
X135104096Y-84975429D01*
X135056477Y-85165905D01*
X135008858Y-85261143D01*
X134961239Y-85308762D01*
X134866001Y-85356381D01*
X134770762Y-85356381D01*
X134675524Y-85308762D01*
X134627905Y-85261143D01*
X134580286Y-85165905D01*
X134532667Y-84975429D01*
X134532667Y-84737333D01*
X134580286Y-84546857D01*
X134627905Y-84451619D01*
X134675524Y-84404000D01*
X134770762Y-84356381D01*
X136104096Y-85356381D02*
X135770762Y-84880190D01*
X135532667Y-85356381D02*
X135532667Y-84356381D01*
X135913620Y-84356381D01*
X136008858Y-84404000D01*
X136056477Y-84451619D01*
X136104096Y-84546857D01*
X136104096Y-84689714D01*
X136056477Y-84784952D01*
X136008858Y-84832571D01*
X135913620Y-84880190D01*
X135532667Y-84880190D01*
X133278715Y-76101381D02*
X132802524Y-76101381D01*
X132754905Y-76577571D01*
X132802524Y-76529952D01*
X132897762Y-76482333D01*
X133135858Y-76482333D01*
X133231096Y-76529952D01*
X133278715Y-76577571D01*
X133326334Y-76672810D01*
X133326334Y-76910905D01*
X133278715Y-77006143D01*
X133231096Y-77053762D01*
X133135858Y-77101381D01*
X132897762Y-77101381D01*
X132802524Y-77053762D01*
X132754905Y-77006143D01*
X134278715Y-77101381D02*
X133707286Y-77101381D01*
X133993000Y-77101381D02*
X133993000Y-76101381D01*
X133897762Y-76244238D01*
X133802524Y-76339476D01*
X133707286Y-76387095D01*
X134897762Y-76101381D02*
X134993001Y-76101381D01*
X135088239Y-76149000D01*
X135135858Y-76196619D01*
X135183477Y-76291857D01*
X135231096Y-76482333D01*
X135231096Y-76720429D01*
X135183477Y-76910905D01*
X135135858Y-77006143D01*
X135088239Y-77053762D01*
X134993001Y-77101381D01*
X134897762Y-77101381D01*
X134802524Y-77053762D01*
X134754905Y-77006143D01*
X134707286Y-76910905D01*
X134659667Y-76720429D01*
X134659667Y-76482333D01*
X134707286Y-76291857D01*
X134754905Y-76196619D01*
X134802524Y-76149000D01*
X134897762Y-76101381D01*
X136231096Y-77101381D02*
X135897762Y-76625190D01*
X135659667Y-77101381D02*
X135659667Y-76101381D01*
X136040620Y-76101381D01*
X136135858Y-76149000D01*
X136183477Y-76196619D01*
X136231096Y-76291857D01*
X136231096Y-76434714D01*
X136183477Y-76529952D01*
X136135858Y-76577571D01*
X136040620Y-76625190D01*
X135659667Y-76625190D01*
X149280715Y-98639381D02*
X148804524Y-98639381D01*
X148756905Y-99115571D01*
X148804524Y-99067952D01*
X148899762Y-99020333D01*
X149137858Y-99020333D01*
X149233096Y-99067952D01*
X149280715Y-99115571D01*
X149328334Y-99210810D01*
X149328334Y-99448905D01*
X149280715Y-99544143D01*
X149233096Y-99591762D01*
X149137858Y-99639381D01*
X148899762Y-99639381D01*
X148804524Y-99591762D01*
X148756905Y-99544143D01*
X150280715Y-99639381D02*
X149709286Y-99639381D01*
X149995000Y-99639381D02*
X149995000Y-98639381D01*
X149899762Y-98782238D01*
X149804524Y-98877476D01*
X149709286Y-98925095D01*
X150899762Y-98639381D02*
X150995001Y-98639381D01*
X151090239Y-98687000D01*
X151137858Y-98734619D01*
X151185477Y-98829857D01*
X151233096Y-99020333D01*
X151233096Y-99258429D01*
X151185477Y-99448905D01*
X151137858Y-99544143D01*
X151090239Y-99591762D01*
X150995001Y-99639381D01*
X150899762Y-99639381D01*
X150804524Y-99591762D01*
X150756905Y-99544143D01*
X150709286Y-99448905D01*
X150661667Y-99258429D01*
X150661667Y-99020333D01*
X150709286Y-98829857D01*
X150756905Y-98734619D01*
X150804524Y-98687000D01*
X150899762Y-98639381D01*
X152233096Y-99639381D02*
X151899762Y-99163190D01*
X151661667Y-99639381D02*
X151661667Y-98639381D01*
X152042620Y-98639381D01*
X152137858Y-98687000D01*
X152185477Y-98734619D01*
X152233096Y-98829857D01*
X152233096Y-98972714D01*
X152185477Y-99067952D01*
X152137858Y-99115571D01*
X152042620Y-99163190D01*
X151661667Y-99163190D01*
X134104143Y-70330381D02*
X133627952Y-70330381D01*
X133627952Y-69330381D01*
X134437476Y-69806571D02*
X134770810Y-69806571D01*
X134913667Y-70330381D02*
X134437476Y-70330381D01*
X134437476Y-69330381D01*
X134913667Y-69330381D01*
X135342238Y-70330381D02*
X135342238Y-69330381D01*
X135580333Y-69330381D01*
X135723191Y-69378000D01*
X135818429Y-69473238D01*
X135866048Y-69568476D01*
X135913667Y-69758952D01*
X135913667Y-69901810D01*
X135866048Y-70092286D01*
X135818429Y-70187524D01*
X135723191Y-70282762D01*
X135580333Y-70330381D01*
X135342238Y-70330381D01*
X158408905Y-87574381D02*
X158408905Y-86574381D01*
X158742239Y-87288667D01*
X159075572Y-86574381D01*
X159075572Y-87574381D01*
X160123191Y-87479143D02*
X160075572Y-87526762D01*
X159932715Y-87574381D01*
X159837477Y-87574381D01*
X159694619Y-87526762D01*
X159599381Y-87431524D01*
X159551762Y-87336286D01*
X159504143Y-87145810D01*
X159504143Y-87002952D01*
X159551762Y-86812476D01*
X159599381Y-86717238D01*
X159694619Y-86622000D01*
X159837477Y-86574381D01*
X159932715Y-86574381D01*
X160075572Y-86622000D01*
X160123191Y-86669619D01*
X161027953Y-87574381D02*
X160551762Y-87574381D01*
X160551762Y-86574381D01*
X161932715Y-87574381D02*
X161599381Y-87098190D01*
X161361286Y-87574381D02*
X161361286Y-86574381D01*
X161742239Y-86574381D01*
X161837477Y-86622000D01*
X161885096Y-86669619D01*
X161932715Y-86764857D01*
X161932715Y-86907714D01*
X161885096Y-87002952D01*
X161837477Y-87050571D01*
X161742239Y-87098190D01*
X161361286Y-87098190D01*
X156170334Y-87574381D02*
X155837000Y-87098190D01*
X155598905Y-87574381D02*
X155598905Y-86574381D01*
X155979858Y-86574381D01*
X156075096Y-86622000D01*
X156122715Y-86669619D01*
X156170334Y-86764857D01*
X156170334Y-86907714D01*
X156122715Y-87002952D01*
X156075096Y-87050571D01*
X155979858Y-87098190D01*
X155598905Y-87098190D01*
X156503667Y-86574381D02*
X157170334Y-87574381D01*
X157170334Y-86574381D02*
X156503667Y-87574381D01*
X151765095Y-86574381D02*
X152336524Y-86574381D01*
X152050809Y-87574381D02*
X152050809Y-86574381D01*
X152574619Y-86574381D02*
X153241286Y-87574381D01*
X153241286Y-86574381D02*
X152574619Y-87574381D01*
X143041619Y-81248238D02*
X142994000Y-81343476D01*
X142898762Y-81438714D01*
X142755905Y-81581571D01*
X142708286Y-81676810D01*
X142708286Y-81772048D01*
X142946381Y-81724429D02*
X142898762Y-81819667D01*
X142803524Y-81914905D01*
X142613048Y-81962524D01*
X142279714Y-81962524D01*
X142089238Y-81914905D01*
X141994000Y-81819667D01*
X141946381Y-81724429D01*
X141946381Y-81533952D01*
X141994000Y-81438714D01*
X142089238Y-81343476D01*
X142279714Y-81295857D01*
X142613048Y-81295857D01*
X142803524Y-81343476D01*
X142898762Y-81438714D01*
X142946381Y-81533952D01*
X142946381Y-81724429D01*
X142946381Y-80343476D02*
X142946381Y-80914905D01*
X142946381Y-80629191D02*
X141946381Y-80629191D01*
X142089238Y-80724429D01*
X142184476Y-80819667D01*
X142232095Y-80914905D01*
X143168619Y-73120238D02*
X143121000Y-73215476D01*
X143025762Y-73310714D01*
X142882905Y-73453571D01*
X142835286Y-73548810D01*
X142835286Y-73644048D01*
X143073381Y-73596429D02*
X143025762Y-73691667D01*
X142930524Y-73786905D01*
X142740048Y-73834524D01*
X142406714Y-73834524D01*
X142216238Y-73786905D01*
X142121000Y-73691667D01*
X142073381Y-73596429D01*
X142073381Y-73405952D01*
X142121000Y-73310714D01*
X142216238Y-73215476D01*
X142406714Y-73167857D01*
X142740048Y-73167857D01*
X142930524Y-73215476D01*
X143025762Y-73310714D01*
X143073381Y-73405952D01*
X143073381Y-73596429D01*
X142168619Y-72786905D02*
X142121000Y-72739286D01*
X142073381Y-72644048D01*
X142073381Y-72405952D01*
X142121000Y-72310714D01*
X142168619Y-72263095D01*
X142263857Y-72215476D01*
X142359095Y-72215476D01*
X142501952Y-72263095D01*
X143073381Y-72834524D01*
X143073381Y-72215476D01*
X161448762Y-71032619D02*
X161353524Y-70985000D01*
X161258286Y-70889762D01*
X161115429Y-70746905D01*
X161020190Y-70699286D01*
X160924952Y-70699286D01*
X160972571Y-70937381D02*
X160877333Y-70889762D01*
X160782095Y-70794524D01*
X160734476Y-70604048D01*
X160734476Y-70270714D01*
X160782095Y-70080238D01*
X160877333Y-69985000D01*
X160972571Y-69937381D01*
X161163048Y-69937381D01*
X161258286Y-69985000D01*
X161353524Y-70080238D01*
X161401143Y-70270714D01*
X161401143Y-70604048D01*
X161353524Y-70794524D01*
X161258286Y-70889762D01*
X161163048Y-70937381D01*
X160972571Y-70937381D01*
X161734476Y-69937381D02*
X162353524Y-69937381D01*
X162020190Y-70318333D01*
X162163048Y-70318333D01*
X162258286Y-70365952D01*
X162305905Y-70413571D01*
X162353524Y-70508810D01*
X162353524Y-70746905D01*
X162305905Y-70842143D01*
X162258286Y-70889762D01*
X162163048Y-70937381D01*
X161877333Y-70937381D01*
X161782095Y-70889762D01*
X161734476Y-70842143D01*
M02*
