G04 #@! TF.FileFunction,Copper,L2,Bot,Signal*
%FSLAX46Y46*%
G04 Gerber Fmt 4.6, Leading zero omitted, Abs format (unit mm)*
G04 Created by KiCad (PCBNEW 4.0.6) date Sunday, 24 September 2017 'AMt' 11:09:54*
%MOMM*%
%LPD*%
G01*
G04 APERTURE LIST*
%ADD10C,0.100000*%
%ADD11C,4.064000*%
%ADD12R,2.500000X2.500000*%
%ADD13C,2.500000*%
%ADD14R,1.727200X2.032000*%
%ADD15O,1.727200X2.032000*%
%ADD16O,1.600000X1.600000*%
%ADD17R,1.500000X1.250000*%
%ADD18R,1.250000X1.500000*%
%ADD19R,2.032000X2.032000*%
%ADD20O,2.032000X2.032000*%
%ADD21C,0.600000*%
%ADD22C,0.250000*%
%ADD23C,1.250000*%
%ADD24C,0.254000*%
G04 APERTURE END LIST*
D10*
D11*
X131191000Y-31242000D03*
X183388000Y-31305500D03*
X131191000Y-100457000D03*
D12*
X177038000Y-34290000D03*
D13*
X172038000Y-34290000D03*
D14*
X163741100Y-97294700D03*
D15*
X166281100Y-97294700D03*
X168821100Y-97294700D03*
X171361100Y-97294700D03*
X173901100Y-97294700D03*
X176441100Y-97294700D03*
D12*
X159639000Y-34290000D03*
D13*
X154639000Y-34290000D03*
D12*
X142240000Y-34290000D03*
D13*
X137240000Y-34290000D03*
D12*
X140144500Y-95377000D03*
D13*
X145144500Y-95377000D03*
D16*
X143891000Y-73215500D03*
X143891000Y-75755500D03*
X143891000Y-78295500D03*
X143891000Y-80835500D03*
X151511000Y-80835500D03*
X151511000Y-78295500D03*
X151511000Y-75755500D03*
X151511000Y-73215500D03*
X164592000Y-73279000D03*
X164592000Y-75819000D03*
X164592000Y-78359000D03*
X164592000Y-80899000D03*
X172212000Y-80899000D03*
X172212000Y-78359000D03*
X172212000Y-75819000D03*
X172212000Y-73279000D03*
D17*
X148951000Y-73215500D03*
X146451000Y-73215500D03*
D18*
X169672000Y-78212000D03*
X169672000Y-75712000D03*
D11*
X183388000Y-100393500D03*
D19*
X159956500Y-91059000D03*
D20*
X159956500Y-88519000D03*
D19*
X156337000Y-88519000D03*
D20*
X156337000Y-91059000D03*
D19*
X152717500Y-88519000D03*
D20*
X152717500Y-91059000D03*
D13*
X180022500Y-72169000D03*
D12*
X180022500Y-82169000D03*
D13*
X180022500Y-77169000D03*
D21*
X154838400Y-76708000D03*
X137985500Y-77533500D03*
X138112500Y-69342000D03*
X158089600Y-84328000D03*
X150622000Y-59563000D03*
X133197600Y-56540400D03*
X167767000Y-59563000D03*
X155067000Y-70040500D03*
X154533600Y-84328000D03*
D22*
X166281100Y-97294700D02*
X166281100Y-97320100D01*
X166281100Y-97320100D02*
X164338000Y-99263200D01*
X164338000Y-99263200D02*
X149030700Y-99263200D01*
X149030700Y-99263200D02*
X145144500Y-95377000D01*
X169672000Y-75712000D02*
X169779000Y-75712000D01*
X169779000Y-75712000D02*
X172212000Y-73279000D01*
X146451000Y-73215500D02*
X143891000Y-73215500D01*
D23*
X172038000Y-34036000D02*
X171958000Y-34036000D01*
D22*
X169672000Y-78212000D02*
X169672000Y-78359000D01*
X169672000Y-78359000D02*
X172212000Y-80899000D01*
X148951000Y-73215500D02*
X151511000Y-73215500D01*
X158115000Y-92760800D02*
X158140400Y-92760800D01*
X171246800Y-94640400D02*
X173901100Y-97294700D01*
X160020000Y-94640400D02*
X171246800Y-94640400D01*
X158140400Y-92760800D02*
X160020000Y-94640400D01*
X158115000Y-90297000D02*
X156337000Y-88519000D01*
X158115000Y-92773500D02*
X158115000Y-92760800D01*
X158115000Y-92760800D02*
X158115000Y-90297000D01*
X151511000Y-78295500D02*
X150304500Y-79502000D01*
X154940000Y-87122000D02*
X156337000Y-88519000D01*
X153162000Y-87122000D02*
X154940000Y-87122000D01*
X150304500Y-84264500D02*
X153162000Y-87122000D01*
X150304500Y-79502000D02*
X150304500Y-84264500D01*
X154495500Y-92773500D02*
X157022800Y-95300800D01*
X154495500Y-92773500D02*
X154495500Y-90297000D01*
X152717500Y-88519000D02*
X154495500Y-90297000D01*
X169367200Y-95300800D02*
X171361100Y-97294700D01*
X157022800Y-95300800D02*
X169367200Y-95300800D01*
X151511000Y-75755500D02*
X149733000Y-77533500D01*
X149733000Y-85534500D02*
X152717500Y-88519000D01*
X149733000Y-77533500D02*
X149733000Y-85534500D01*
X158089600Y-84328000D02*
X159918400Y-82499200D01*
X165049200Y-82499200D02*
X166065200Y-81483200D01*
X166065200Y-81483200D02*
X166065200Y-74752200D01*
X164592000Y-73279000D02*
X166065200Y-74752200D01*
X159918400Y-82499200D02*
X165049200Y-82499200D01*
X150622000Y-59563000D02*
X142367000Y-67818000D01*
X142367000Y-74231500D02*
X143891000Y-75755500D01*
X142367000Y-67818000D02*
X142367000Y-74231500D01*
X141859000Y-68173600D02*
X141859000Y-68148200D01*
X141859000Y-68148200D02*
X133197600Y-59486800D01*
X133197600Y-59486800D02*
X133197600Y-56540400D01*
X141859000Y-76263500D02*
X143891000Y-78295500D01*
X141859000Y-68173600D02*
X141859000Y-76263500D01*
X165544500Y-59563000D02*
X167767000Y-59563000D01*
X155067000Y-70040500D02*
X165544500Y-59563000D01*
X154533600Y-84328000D02*
X157937200Y-80924400D01*
X157937200Y-80924400D02*
X164566600Y-80924400D01*
X164566600Y-80924400D02*
X164592000Y-80899000D01*
D24*
G36*
X184601098Y-28224082D02*
X185624731Y-28859773D01*
X186327176Y-29838800D01*
X186615000Y-31069895D01*
X186615000Y-100514069D01*
X186366175Y-101764995D01*
X185697196Y-102766196D01*
X184695995Y-103435176D01*
X183445069Y-103684000D01*
X130739177Y-103684000D01*
X129660830Y-103512292D01*
X128802766Y-102985493D01*
X128211616Y-102170426D01*
X127964000Y-101135266D01*
X127964000Y-100985172D01*
X128523538Y-100985172D01*
X128928709Y-101965761D01*
X129678293Y-102716655D01*
X130658173Y-103123536D01*
X131719172Y-103124462D01*
X132699761Y-102719291D01*
X133450655Y-101969707D01*
X133857536Y-100989827D01*
X133857595Y-100921672D01*
X180720538Y-100921672D01*
X181125709Y-101902261D01*
X181875293Y-102653155D01*
X182855173Y-103060036D01*
X183916172Y-103060962D01*
X184896761Y-102655791D01*
X185647655Y-101906207D01*
X186054536Y-100926327D01*
X186055462Y-99865328D01*
X185650291Y-98884739D01*
X184900707Y-98133845D01*
X183920827Y-97726964D01*
X182859828Y-97726038D01*
X181879239Y-98131209D01*
X181128345Y-98880793D01*
X180721464Y-99860673D01*
X180720538Y-100921672D01*
X133857595Y-100921672D01*
X133858462Y-99928828D01*
X133453291Y-98948239D01*
X132703707Y-98197345D01*
X131723827Y-97790464D01*
X130662828Y-97789538D01*
X129682239Y-98194709D01*
X128931345Y-98944293D01*
X128524464Y-99924173D01*
X128523538Y-100985172D01*
X127964000Y-100985172D01*
X127964000Y-95662750D01*
X138259500Y-95662750D01*
X138259500Y-96753310D01*
X138356173Y-96986699D01*
X138534802Y-97165327D01*
X138768191Y-97262000D01*
X139858750Y-97262000D01*
X140017500Y-97103250D01*
X140017500Y-95504000D01*
X140271500Y-95504000D01*
X140271500Y-97103250D01*
X140430250Y-97262000D01*
X141520809Y-97262000D01*
X141754198Y-97165327D01*
X141932827Y-96986699D01*
X142029500Y-96753310D01*
X142029500Y-95750305D01*
X143259174Y-95750305D01*
X143545543Y-96443372D01*
X144075339Y-96974093D01*
X144767905Y-97261672D01*
X145517805Y-97262326D01*
X145827189Y-97134491D01*
X148493299Y-99800601D01*
X148739861Y-99965348D01*
X149030700Y-100023200D01*
X164338000Y-100023200D01*
X164628839Y-99965348D01*
X164875401Y-99800601D01*
X165794707Y-98881295D01*
X166281100Y-98978045D01*
X166854589Y-98863971D01*
X167340770Y-98539115D01*
X167547561Y-98229631D01*
X167919064Y-98645432D01*
X168446309Y-98899409D01*
X168462074Y-98902058D01*
X168694100Y-98780917D01*
X168694100Y-97421700D01*
X168674100Y-97421700D01*
X168674100Y-97167700D01*
X168694100Y-97167700D01*
X168694100Y-97147700D01*
X168948100Y-97147700D01*
X168948100Y-97167700D01*
X168968100Y-97167700D01*
X168968100Y-97421700D01*
X168948100Y-97421700D01*
X168948100Y-98780917D01*
X169180126Y-98902058D01*
X169195891Y-98899409D01*
X169723136Y-98645432D01*
X170094639Y-98229631D01*
X170301430Y-98539115D01*
X170787611Y-98863971D01*
X171361100Y-98978045D01*
X171934589Y-98863971D01*
X172420770Y-98539115D01*
X172631100Y-98224334D01*
X172841430Y-98539115D01*
X173327611Y-98863971D01*
X173901100Y-98978045D01*
X174474589Y-98863971D01*
X174960770Y-98539115D01*
X175171100Y-98224334D01*
X175381430Y-98539115D01*
X175867611Y-98863971D01*
X176441100Y-98978045D01*
X177014589Y-98863971D01*
X177500770Y-98539115D01*
X177825626Y-98052934D01*
X177939700Y-97479445D01*
X177939700Y-97109955D01*
X177825626Y-96536466D01*
X177500770Y-96050285D01*
X177014589Y-95725429D01*
X176441100Y-95611355D01*
X175867611Y-95725429D01*
X175381430Y-96050285D01*
X175171100Y-96365066D01*
X174960770Y-96050285D01*
X174474589Y-95725429D01*
X173901100Y-95611355D01*
X173393521Y-95712319D01*
X171784201Y-94102999D01*
X171537639Y-93938252D01*
X171246800Y-93880400D01*
X160334802Y-93880400D01*
X159176842Y-92722440D01*
X160972500Y-92722440D01*
X161207817Y-92678162D01*
X161423941Y-92539090D01*
X161568931Y-92326890D01*
X161619940Y-92075000D01*
X161619940Y-90043000D01*
X161575662Y-89807683D01*
X161436590Y-89591559D01*
X161287663Y-89489802D01*
X161514170Y-89150810D01*
X161639845Y-88519000D01*
X161514170Y-87887190D01*
X161156278Y-87351567D01*
X160620655Y-86993675D01*
X159988845Y-86868000D01*
X159924155Y-86868000D01*
X159292345Y-86993675D01*
X158756722Y-87351567D01*
X158398830Y-87887190D01*
X158273155Y-88519000D01*
X158398830Y-89150810D01*
X158625999Y-89490792D01*
X158489059Y-89578910D01*
X158482018Y-89589216D01*
X158000440Y-89107638D01*
X158000440Y-87503000D01*
X157956162Y-87267683D01*
X157817090Y-87051559D01*
X157604890Y-86906569D01*
X157353000Y-86855560D01*
X155748362Y-86855560D01*
X155477401Y-86584599D01*
X155230839Y-86419852D01*
X154940000Y-86362000D01*
X153476802Y-86362000D01*
X151627969Y-84513167D01*
X153598438Y-84513167D01*
X153740483Y-84856943D01*
X154003273Y-85120192D01*
X154346801Y-85262838D01*
X154718767Y-85263162D01*
X155062543Y-85121117D01*
X155325792Y-84858327D01*
X155468438Y-84514799D01*
X155468479Y-84467923D01*
X158252002Y-81684400D01*
X163395977Y-81684400D01*
X163432593Y-81739200D01*
X159918400Y-81739200D01*
X159627561Y-81797052D01*
X159380999Y-81961799D01*
X157949920Y-83392878D01*
X157904433Y-83392838D01*
X157560657Y-83534883D01*
X157297408Y-83797673D01*
X157154762Y-84141201D01*
X157154438Y-84513167D01*
X157296483Y-84856943D01*
X157559273Y-85120192D01*
X157902801Y-85262838D01*
X158274767Y-85263162D01*
X158618543Y-85121117D01*
X158881792Y-84858327D01*
X159024438Y-84514799D01*
X159024479Y-84467923D01*
X160233202Y-83259200D01*
X165049200Y-83259200D01*
X165340039Y-83201348D01*
X165586601Y-83036601D01*
X166168452Y-82454750D01*
X178137500Y-82454750D01*
X178137500Y-83545309D01*
X178234173Y-83778698D01*
X178412801Y-83957327D01*
X178646190Y-84054000D01*
X179736750Y-84054000D01*
X179895500Y-83895250D01*
X179895500Y-82296000D01*
X180149500Y-82296000D01*
X180149500Y-83895250D01*
X180308250Y-84054000D01*
X181398810Y-84054000D01*
X181632199Y-83957327D01*
X181810827Y-83778698D01*
X181907500Y-83545309D01*
X181907500Y-82454750D01*
X181748750Y-82296000D01*
X180149500Y-82296000D01*
X179895500Y-82296000D01*
X178296250Y-82296000D01*
X178137500Y-82454750D01*
X166168452Y-82454750D01*
X166602601Y-82020601D01*
X166767348Y-81774039D01*
X166825200Y-81483200D01*
X166825200Y-81248039D01*
X170820096Y-81248039D01*
X170980959Y-81636423D01*
X171356866Y-82051389D01*
X171862959Y-82290914D01*
X172085000Y-82169629D01*
X172085000Y-81026000D01*
X172339000Y-81026000D01*
X172339000Y-82169629D01*
X172561041Y-82290914D01*
X173067134Y-82051389D01*
X173443041Y-81636423D01*
X173603904Y-81248039D01*
X173481915Y-81026000D01*
X172339000Y-81026000D01*
X172085000Y-81026000D01*
X170942085Y-81026000D01*
X170820096Y-81248039D01*
X166825200Y-81248039D01*
X166825200Y-80792691D01*
X178137500Y-80792691D01*
X178137500Y-81883250D01*
X178296250Y-82042000D01*
X179895500Y-82042000D01*
X179895500Y-80442750D01*
X180149500Y-80442750D01*
X180149500Y-82042000D01*
X181748750Y-82042000D01*
X181907500Y-81883250D01*
X181907500Y-80792691D01*
X181810827Y-80559302D01*
X181632199Y-80380673D01*
X181398810Y-80284000D01*
X180308250Y-80284000D01*
X180149500Y-80442750D01*
X179895500Y-80442750D01*
X179736750Y-80284000D01*
X178646190Y-80284000D01*
X178412801Y-80380673D01*
X178234173Y-80559302D01*
X178137500Y-80792691D01*
X166825200Y-80792691D01*
X166825200Y-78497750D01*
X168412000Y-78497750D01*
X168412000Y-79088309D01*
X168508673Y-79321698D01*
X168687301Y-79500327D01*
X168920690Y-79597000D01*
X169386250Y-79597000D01*
X169545000Y-79438250D01*
X169545000Y-78339000D01*
X168570750Y-78339000D01*
X168412000Y-78497750D01*
X166825200Y-78497750D01*
X166825200Y-74962000D01*
X168399560Y-74962000D01*
X168399560Y-76462000D01*
X168443838Y-76697317D01*
X168582910Y-76913441D01*
X168651006Y-76959969D01*
X168508673Y-77102302D01*
X168412000Y-77335691D01*
X168412000Y-77926250D01*
X168570750Y-78085000D01*
X169545000Y-78085000D01*
X169545000Y-78065000D01*
X169799000Y-78065000D01*
X169799000Y-78085000D01*
X169819000Y-78085000D01*
X169819000Y-78339000D01*
X169799000Y-78339000D01*
X169799000Y-79438250D01*
X169957750Y-79597000D01*
X170423310Y-79597000D01*
X170656699Y-79500327D01*
X170835327Y-79321698D01*
X170932000Y-79088309D01*
X170932000Y-79018720D01*
X171169189Y-79373698D01*
X171573703Y-79643986D01*
X171356866Y-79746611D01*
X170980959Y-80161577D01*
X170820096Y-80549961D01*
X170942085Y-80772000D01*
X172085000Y-80772000D01*
X172085000Y-80752000D01*
X172339000Y-80752000D01*
X172339000Y-80772000D01*
X173481915Y-80772000D01*
X173603904Y-80549961D01*
X173443041Y-80161577D01*
X173067134Y-79746611D01*
X172850297Y-79643986D01*
X173254811Y-79373698D01*
X173565880Y-78908151D01*
X173675113Y-78359000D01*
X173565880Y-77809849D01*
X173387113Y-77542305D01*
X178137174Y-77542305D01*
X178423543Y-78235372D01*
X178953339Y-78766093D01*
X179645905Y-79053672D01*
X180395805Y-79054326D01*
X181088872Y-78767957D01*
X181619593Y-78238161D01*
X181907172Y-77545595D01*
X181907826Y-76795695D01*
X181621457Y-76102628D01*
X181091661Y-75571907D01*
X180399095Y-75284328D01*
X179649195Y-75283674D01*
X178956128Y-75570043D01*
X178425407Y-76099839D01*
X178137828Y-76792405D01*
X178137174Y-77542305D01*
X173387113Y-77542305D01*
X173254811Y-77344302D01*
X172872725Y-77089000D01*
X173254811Y-76833698D01*
X173565880Y-76368151D01*
X173675113Y-75819000D01*
X173565880Y-75269849D01*
X173254811Y-74804302D01*
X172872725Y-74549000D01*
X173254811Y-74293698D01*
X173565880Y-73828151D01*
X173675113Y-73279000D01*
X173565880Y-72729849D01*
X173440567Y-72542305D01*
X178137174Y-72542305D01*
X178423543Y-73235372D01*
X178953339Y-73766093D01*
X179645905Y-74053672D01*
X180395805Y-74054326D01*
X181088872Y-73767957D01*
X181619593Y-73238161D01*
X181907172Y-72545595D01*
X181907826Y-71795695D01*
X181621457Y-71102628D01*
X181091661Y-70571907D01*
X180399095Y-70284328D01*
X179649195Y-70283674D01*
X178956128Y-70570043D01*
X178425407Y-71099839D01*
X178137828Y-71792405D01*
X178137174Y-72542305D01*
X173440567Y-72542305D01*
X173254811Y-72264302D01*
X172789264Y-71953233D01*
X172240113Y-71844000D01*
X172183887Y-71844000D01*
X171634736Y-71953233D01*
X171169189Y-72264302D01*
X170858120Y-72729849D01*
X170748887Y-73279000D01*
X170813312Y-73602886D01*
X170101638Y-74314560D01*
X169047000Y-74314560D01*
X168811683Y-74358838D01*
X168595559Y-74497910D01*
X168450569Y-74710110D01*
X168399560Y-74962000D01*
X166825200Y-74962000D01*
X166825200Y-74752200D01*
X166772275Y-74486129D01*
X166767348Y-74461360D01*
X166602601Y-74214799D01*
X165990688Y-73602886D01*
X166055113Y-73279000D01*
X165945880Y-72729849D01*
X165634811Y-72264302D01*
X165169264Y-71953233D01*
X164620113Y-71844000D01*
X164563887Y-71844000D01*
X164014736Y-71953233D01*
X163549189Y-72264302D01*
X163238120Y-72729849D01*
X163128887Y-73279000D01*
X163238120Y-73828151D01*
X163549189Y-74293698D01*
X163931275Y-74549000D01*
X163549189Y-74804302D01*
X163238120Y-75269849D01*
X163128887Y-75819000D01*
X163238120Y-76368151D01*
X163549189Y-76833698D01*
X163931275Y-77089000D01*
X163549189Y-77344302D01*
X163238120Y-77809849D01*
X163128887Y-78359000D01*
X163238120Y-78908151D01*
X163549189Y-79373698D01*
X163931275Y-79629000D01*
X163549189Y-79884302D01*
X163362033Y-80164400D01*
X157937200Y-80164400D01*
X157646360Y-80222252D01*
X157399799Y-80386999D01*
X154393920Y-83392878D01*
X154348433Y-83392838D01*
X154004657Y-83534883D01*
X153741408Y-83797673D01*
X153598762Y-84141201D01*
X153598438Y-84513167D01*
X151627969Y-84513167D01*
X151064500Y-83949698D01*
X151064500Y-82187278D01*
X151482887Y-82270500D01*
X151539113Y-82270500D01*
X152088264Y-82161267D01*
X152553811Y-81850198D01*
X152864880Y-81384651D01*
X152974113Y-80835500D01*
X152864880Y-80286349D01*
X152553811Y-79820802D01*
X152171725Y-79565500D01*
X152553811Y-79310198D01*
X152864880Y-78844651D01*
X152974113Y-78295500D01*
X152864880Y-77746349D01*
X152553811Y-77280802D01*
X152171725Y-77025500D01*
X152553811Y-76770198D01*
X152864880Y-76304651D01*
X152974113Y-75755500D01*
X152864880Y-75206349D01*
X152553811Y-74740802D01*
X152149297Y-74470514D01*
X152366134Y-74367889D01*
X152742041Y-73952923D01*
X152902904Y-73564539D01*
X152780915Y-73342500D01*
X151638000Y-73342500D01*
X151638000Y-73362500D01*
X151384000Y-73362500D01*
X151384000Y-73342500D01*
X150241085Y-73342500D01*
X150218450Y-73383700D01*
X150177250Y-73342500D01*
X149078000Y-73342500D01*
X149078000Y-74316750D01*
X149236750Y-74475500D01*
X149827309Y-74475500D01*
X150060698Y-74378827D01*
X150239327Y-74200199D01*
X150322363Y-73999733D01*
X150655866Y-74367889D01*
X150872703Y-74470514D01*
X150468189Y-74740802D01*
X150157120Y-75206349D01*
X150047887Y-75755500D01*
X150112312Y-76079386D01*
X149195599Y-76996099D01*
X149030852Y-77242661D01*
X148973000Y-77533500D01*
X148973000Y-85534500D01*
X149030852Y-85825339D01*
X149195599Y-86071901D01*
X151054060Y-87930362D01*
X151054060Y-89535000D01*
X151098338Y-89770317D01*
X151237410Y-89986441D01*
X151386337Y-90088198D01*
X151159830Y-90427190D01*
X151034155Y-91059000D01*
X151159830Y-91690810D01*
X151517722Y-92226433D01*
X152053345Y-92584325D01*
X152685155Y-92710000D01*
X152749845Y-92710000D01*
X153381655Y-92584325D01*
X153735500Y-92347893D01*
X153735500Y-92773500D01*
X153793352Y-93064339D01*
X153958099Y-93310901D01*
X156485399Y-95838201D01*
X156731961Y-96002948D01*
X157022800Y-96060800D01*
X162274186Y-96060800D01*
X162230060Y-96278700D01*
X162230060Y-98310700D01*
X162266281Y-98503200D01*
X149345502Y-98503200D01*
X146902047Y-96059745D01*
X147029172Y-95753595D01*
X147029826Y-95003695D01*
X146743457Y-94310628D01*
X146213661Y-93779907D01*
X145521095Y-93492328D01*
X144771195Y-93491674D01*
X144078128Y-93778043D01*
X143547407Y-94307839D01*
X143259828Y-95000405D01*
X143259174Y-95750305D01*
X142029500Y-95750305D01*
X142029500Y-95662750D01*
X141870750Y-95504000D01*
X140271500Y-95504000D01*
X140017500Y-95504000D01*
X138418250Y-95504000D01*
X138259500Y-95662750D01*
X127964000Y-95662750D01*
X127964000Y-94000690D01*
X138259500Y-94000690D01*
X138259500Y-95091250D01*
X138418250Y-95250000D01*
X140017500Y-95250000D01*
X140017500Y-93650750D01*
X140271500Y-93650750D01*
X140271500Y-95250000D01*
X141870750Y-95250000D01*
X142029500Y-95091250D01*
X142029500Y-94000690D01*
X141932827Y-93767301D01*
X141754198Y-93588673D01*
X141520809Y-93492000D01*
X140430250Y-93492000D01*
X140271500Y-93650750D01*
X140017500Y-93650750D01*
X139858750Y-93492000D01*
X138768191Y-93492000D01*
X138534802Y-93588673D01*
X138356173Y-93767301D01*
X138259500Y-94000690D01*
X127964000Y-94000690D01*
X127964000Y-56725567D01*
X132262438Y-56725567D01*
X132404483Y-57069343D01*
X132437600Y-57102518D01*
X132437600Y-59486800D01*
X132495452Y-59777639D01*
X132660199Y-60024201D01*
X141099000Y-68463002D01*
X141099000Y-76263500D01*
X141156852Y-76554339D01*
X141321599Y-76800901D01*
X142492312Y-77971614D01*
X142427887Y-78295500D01*
X142537120Y-78844651D01*
X142848189Y-79310198D01*
X143230275Y-79565500D01*
X142848189Y-79820802D01*
X142537120Y-80286349D01*
X142427887Y-80835500D01*
X142537120Y-81384651D01*
X142848189Y-81850198D01*
X143313736Y-82161267D01*
X143862887Y-82270500D01*
X143919113Y-82270500D01*
X144468264Y-82161267D01*
X144933811Y-81850198D01*
X145244880Y-81384651D01*
X145354113Y-80835500D01*
X145244880Y-80286349D01*
X144933811Y-79820802D01*
X144551725Y-79565500D01*
X144933811Y-79310198D01*
X145244880Y-78844651D01*
X145354113Y-78295500D01*
X145244880Y-77746349D01*
X144933811Y-77280802D01*
X144551725Y-77025500D01*
X144933811Y-76770198D01*
X145244880Y-76304651D01*
X145354113Y-75755500D01*
X145244880Y-75206349D01*
X144933811Y-74740802D01*
X144551725Y-74485500D01*
X144933811Y-74230198D01*
X145084462Y-74004732D01*
X145097838Y-74075817D01*
X145236910Y-74291941D01*
X145449110Y-74436931D01*
X145701000Y-74487940D01*
X147201000Y-74487940D01*
X147436317Y-74443662D01*
X147652441Y-74304590D01*
X147698969Y-74236494D01*
X147841302Y-74378827D01*
X148074691Y-74475500D01*
X148665250Y-74475500D01*
X148824000Y-74316750D01*
X148824000Y-73342500D01*
X148804000Y-73342500D01*
X148804000Y-73088500D01*
X148824000Y-73088500D01*
X148824000Y-72114250D01*
X149078000Y-72114250D01*
X149078000Y-73088500D01*
X150177250Y-73088500D01*
X150218450Y-73047300D01*
X150241085Y-73088500D01*
X151384000Y-73088500D01*
X151384000Y-71944871D01*
X151638000Y-71944871D01*
X151638000Y-73088500D01*
X152780915Y-73088500D01*
X152902904Y-72866461D01*
X152742041Y-72478077D01*
X152366134Y-72063111D01*
X151860041Y-71823586D01*
X151638000Y-71944871D01*
X151384000Y-71944871D01*
X151161959Y-71823586D01*
X150655866Y-72063111D01*
X150322363Y-72431267D01*
X150239327Y-72230801D01*
X150060698Y-72052173D01*
X149827309Y-71955500D01*
X149236750Y-71955500D01*
X149078000Y-72114250D01*
X148824000Y-72114250D01*
X148665250Y-71955500D01*
X148074691Y-71955500D01*
X147841302Y-72052173D01*
X147700064Y-72193410D01*
X147665090Y-72139059D01*
X147452890Y-71994069D01*
X147201000Y-71943060D01*
X145701000Y-71943060D01*
X145465683Y-71987338D01*
X145249559Y-72126410D01*
X145104569Y-72338610D01*
X145086270Y-72428973D01*
X144933811Y-72200802D01*
X144468264Y-71889733D01*
X143919113Y-71780500D01*
X143862887Y-71780500D01*
X143313736Y-71889733D01*
X143127000Y-72014506D01*
X143127000Y-70225667D01*
X154131838Y-70225667D01*
X154273883Y-70569443D01*
X154536673Y-70832692D01*
X154880201Y-70975338D01*
X155252167Y-70975662D01*
X155595943Y-70833617D01*
X155859192Y-70570827D01*
X156001838Y-70227299D01*
X156001879Y-70180423D01*
X165859302Y-60323000D01*
X167204537Y-60323000D01*
X167236673Y-60355192D01*
X167580201Y-60497838D01*
X167952167Y-60498162D01*
X168295943Y-60356117D01*
X168559192Y-60093327D01*
X168701838Y-59749799D01*
X168702162Y-59377833D01*
X168560117Y-59034057D01*
X168297327Y-58770808D01*
X167953799Y-58628162D01*
X167581833Y-58627838D01*
X167238057Y-58769883D01*
X167204882Y-58803000D01*
X165544500Y-58803000D01*
X165253661Y-58860852D01*
X165007099Y-59025599D01*
X154927320Y-69105378D01*
X154881833Y-69105338D01*
X154538057Y-69247383D01*
X154274808Y-69510173D01*
X154132162Y-69853701D01*
X154131838Y-70225667D01*
X143127000Y-70225667D01*
X143127000Y-68132802D01*
X150761680Y-60498122D01*
X150807167Y-60498162D01*
X151150943Y-60356117D01*
X151414192Y-60093327D01*
X151556838Y-59749799D01*
X151557162Y-59377833D01*
X151415117Y-59034057D01*
X151152327Y-58770808D01*
X150808799Y-58628162D01*
X150436833Y-58627838D01*
X150093057Y-58769883D01*
X149829808Y-59032673D01*
X149687162Y-59376201D01*
X149687121Y-59423077D01*
X141947900Y-67162298D01*
X133957600Y-59171998D01*
X133957600Y-57102863D01*
X133989792Y-57070727D01*
X134132438Y-56727199D01*
X134132762Y-56355233D01*
X133990717Y-56011457D01*
X133727927Y-55748208D01*
X133384399Y-55605562D01*
X133012433Y-55605238D01*
X132668657Y-55747283D01*
X132405408Y-56010073D01*
X132262762Y-56353601D01*
X132262438Y-56725567D01*
X127964000Y-56725567D01*
X127964000Y-34663305D01*
X135354674Y-34663305D01*
X135641043Y-35356372D01*
X136170839Y-35887093D01*
X136863405Y-36174672D01*
X137613305Y-36175326D01*
X138306372Y-35888957D01*
X138837093Y-35359161D01*
X139124672Y-34666595D01*
X139125326Y-33916695D01*
X138838957Y-33223628D01*
X138655650Y-33040000D01*
X140342560Y-33040000D01*
X140342560Y-35540000D01*
X140386838Y-35775317D01*
X140525910Y-35991441D01*
X140738110Y-36136431D01*
X140990000Y-36187440D01*
X143490000Y-36187440D01*
X143725317Y-36143162D01*
X143941441Y-36004090D01*
X144086431Y-35791890D01*
X144137440Y-35540000D01*
X144137440Y-34663305D01*
X152753674Y-34663305D01*
X153040043Y-35356372D01*
X153569839Y-35887093D01*
X154262405Y-36174672D01*
X155012305Y-36175326D01*
X155705372Y-35888957D01*
X156236093Y-35359161D01*
X156523672Y-34666595D01*
X156524326Y-33916695D01*
X156237957Y-33223628D01*
X156054650Y-33040000D01*
X157741560Y-33040000D01*
X157741560Y-35540000D01*
X157785838Y-35775317D01*
X157924910Y-35991441D01*
X158137110Y-36136431D01*
X158389000Y-36187440D01*
X160889000Y-36187440D01*
X161124317Y-36143162D01*
X161340441Y-36004090D01*
X161485431Y-35791890D01*
X161536440Y-35540000D01*
X161536440Y-34663305D01*
X170152674Y-34663305D01*
X170439043Y-35356372D01*
X170968839Y-35887093D01*
X171661405Y-36174672D01*
X172411305Y-36175326D01*
X173104372Y-35888957D01*
X173635093Y-35359161D01*
X173922672Y-34666595D01*
X173923326Y-33916695D01*
X173636957Y-33223628D01*
X173453650Y-33040000D01*
X175140560Y-33040000D01*
X175140560Y-35540000D01*
X175184838Y-35775317D01*
X175323910Y-35991441D01*
X175536110Y-36136431D01*
X175788000Y-36187440D01*
X178288000Y-36187440D01*
X178523317Y-36143162D01*
X178739441Y-36004090D01*
X178884431Y-35791890D01*
X178935440Y-35540000D01*
X178935440Y-33040000D01*
X178891162Y-32804683D01*
X178752090Y-32588559D01*
X178539890Y-32443569D01*
X178288000Y-32392560D01*
X175788000Y-32392560D01*
X175552683Y-32436838D01*
X175336559Y-32575910D01*
X175191569Y-32788110D01*
X175140560Y-33040000D01*
X173453650Y-33040000D01*
X173107161Y-32692907D01*
X172414595Y-32405328D01*
X171664695Y-32404674D01*
X170971628Y-32691043D01*
X170440907Y-33220839D01*
X170153328Y-33913405D01*
X170152674Y-34663305D01*
X161536440Y-34663305D01*
X161536440Y-33040000D01*
X161492162Y-32804683D01*
X161353090Y-32588559D01*
X161140890Y-32443569D01*
X160889000Y-32392560D01*
X158389000Y-32392560D01*
X158153683Y-32436838D01*
X157937559Y-32575910D01*
X157792569Y-32788110D01*
X157741560Y-33040000D01*
X156054650Y-33040000D01*
X155708161Y-32692907D01*
X155015595Y-32405328D01*
X154265695Y-32404674D01*
X153572628Y-32691043D01*
X153041907Y-33220839D01*
X152754328Y-33913405D01*
X152753674Y-34663305D01*
X144137440Y-34663305D01*
X144137440Y-33040000D01*
X144093162Y-32804683D01*
X143954090Y-32588559D01*
X143741890Y-32443569D01*
X143490000Y-32392560D01*
X140990000Y-32392560D01*
X140754683Y-32436838D01*
X140538559Y-32575910D01*
X140393569Y-32788110D01*
X140342560Y-33040000D01*
X138655650Y-33040000D01*
X138309161Y-32692907D01*
X137616595Y-32405328D01*
X136866695Y-32404674D01*
X136173628Y-32691043D01*
X135642907Y-33220839D01*
X135355328Y-33913405D01*
X135354674Y-34663305D01*
X127964000Y-34663305D01*
X127964000Y-31770172D01*
X128523538Y-31770172D01*
X128928709Y-32750761D01*
X129678293Y-33501655D01*
X130658173Y-33908536D01*
X131719172Y-33909462D01*
X132699761Y-33504291D01*
X133450655Y-32754707D01*
X133833101Y-31833672D01*
X180720538Y-31833672D01*
X181125709Y-32814261D01*
X181875293Y-33565155D01*
X182855173Y-33972036D01*
X183916172Y-33972962D01*
X184896761Y-33567791D01*
X185647655Y-32818207D01*
X186054536Y-31838327D01*
X186055462Y-30777328D01*
X185650291Y-29796739D01*
X184900707Y-29045845D01*
X183920827Y-28638964D01*
X182859828Y-28638038D01*
X181879239Y-29043209D01*
X181128345Y-29792793D01*
X180721464Y-30772673D01*
X180720538Y-31833672D01*
X133833101Y-31833672D01*
X133857536Y-31774827D01*
X133858462Y-30713828D01*
X133453291Y-29733239D01*
X132703707Y-28982345D01*
X131723827Y-28575464D01*
X130662828Y-28574538D01*
X129682239Y-28979709D01*
X128931345Y-29729293D01*
X128524464Y-30709173D01*
X128523538Y-31770172D01*
X127964000Y-31770172D01*
X127964000Y-30549931D01*
X128164488Y-29542007D01*
X128695817Y-28746817D01*
X129491007Y-28215488D01*
X130498931Y-28015000D01*
X183329994Y-28015000D01*
X184601098Y-28224082D01*
X184601098Y-28224082D01*
G37*
X184601098Y-28224082D02*
X185624731Y-28859773D01*
X186327176Y-29838800D01*
X186615000Y-31069895D01*
X186615000Y-100514069D01*
X186366175Y-101764995D01*
X185697196Y-102766196D01*
X184695995Y-103435176D01*
X183445069Y-103684000D01*
X130739177Y-103684000D01*
X129660830Y-103512292D01*
X128802766Y-102985493D01*
X128211616Y-102170426D01*
X127964000Y-101135266D01*
X127964000Y-100985172D01*
X128523538Y-100985172D01*
X128928709Y-101965761D01*
X129678293Y-102716655D01*
X130658173Y-103123536D01*
X131719172Y-103124462D01*
X132699761Y-102719291D01*
X133450655Y-101969707D01*
X133857536Y-100989827D01*
X133857595Y-100921672D01*
X180720538Y-100921672D01*
X181125709Y-101902261D01*
X181875293Y-102653155D01*
X182855173Y-103060036D01*
X183916172Y-103060962D01*
X184896761Y-102655791D01*
X185647655Y-101906207D01*
X186054536Y-100926327D01*
X186055462Y-99865328D01*
X185650291Y-98884739D01*
X184900707Y-98133845D01*
X183920827Y-97726964D01*
X182859828Y-97726038D01*
X181879239Y-98131209D01*
X181128345Y-98880793D01*
X180721464Y-99860673D01*
X180720538Y-100921672D01*
X133857595Y-100921672D01*
X133858462Y-99928828D01*
X133453291Y-98948239D01*
X132703707Y-98197345D01*
X131723827Y-97790464D01*
X130662828Y-97789538D01*
X129682239Y-98194709D01*
X128931345Y-98944293D01*
X128524464Y-99924173D01*
X128523538Y-100985172D01*
X127964000Y-100985172D01*
X127964000Y-95662750D01*
X138259500Y-95662750D01*
X138259500Y-96753310D01*
X138356173Y-96986699D01*
X138534802Y-97165327D01*
X138768191Y-97262000D01*
X139858750Y-97262000D01*
X140017500Y-97103250D01*
X140017500Y-95504000D01*
X140271500Y-95504000D01*
X140271500Y-97103250D01*
X140430250Y-97262000D01*
X141520809Y-97262000D01*
X141754198Y-97165327D01*
X141932827Y-96986699D01*
X142029500Y-96753310D01*
X142029500Y-95750305D01*
X143259174Y-95750305D01*
X143545543Y-96443372D01*
X144075339Y-96974093D01*
X144767905Y-97261672D01*
X145517805Y-97262326D01*
X145827189Y-97134491D01*
X148493299Y-99800601D01*
X148739861Y-99965348D01*
X149030700Y-100023200D01*
X164338000Y-100023200D01*
X164628839Y-99965348D01*
X164875401Y-99800601D01*
X165794707Y-98881295D01*
X166281100Y-98978045D01*
X166854589Y-98863971D01*
X167340770Y-98539115D01*
X167547561Y-98229631D01*
X167919064Y-98645432D01*
X168446309Y-98899409D01*
X168462074Y-98902058D01*
X168694100Y-98780917D01*
X168694100Y-97421700D01*
X168674100Y-97421700D01*
X168674100Y-97167700D01*
X168694100Y-97167700D01*
X168694100Y-97147700D01*
X168948100Y-97147700D01*
X168948100Y-97167700D01*
X168968100Y-97167700D01*
X168968100Y-97421700D01*
X168948100Y-97421700D01*
X168948100Y-98780917D01*
X169180126Y-98902058D01*
X169195891Y-98899409D01*
X169723136Y-98645432D01*
X170094639Y-98229631D01*
X170301430Y-98539115D01*
X170787611Y-98863971D01*
X171361100Y-98978045D01*
X171934589Y-98863971D01*
X172420770Y-98539115D01*
X172631100Y-98224334D01*
X172841430Y-98539115D01*
X173327611Y-98863971D01*
X173901100Y-98978045D01*
X174474589Y-98863971D01*
X174960770Y-98539115D01*
X175171100Y-98224334D01*
X175381430Y-98539115D01*
X175867611Y-98863971D01*
X176441100Y-98978045D01*
X177014589Y-98863971D01*
X177500770Y-98539115D01*
X177825626Y-98052934D01*
X177939700Y-97479445D01*
X177939700Y-97109955D01*
X177825626Y-96536466D01*
X177500770Y-96050285D01*
X177014589Y-95725429D01*
X176441100Y-95611355D01*
X175867611Y-95725429D01*
X175381430Y-96050285D01*
X175171100Y-96365066D01*
X174960770Y-96050285D01*
X174474589Y-95725429D01*
X173901100Y-95611355D01*
X173393521Y-95712319D01*
X171784201Y-94102999D01*
X171537639Y-93938252D01*
X171246800Y-93880400D01*
X160334802Y-93880400D01*
X159176842Y-92722440D01*
X160972500Y-92722440D01*
X161207817Y-92678162D01*
X161423941Y-92539090D01*
X161568931Y-92326890D01*
X161619940Y-92075000D01*
X161619940Y-90043000D01*
X161575662Y-89807683D01*
X161436590Y-89591559D01*
X161287663Y-89489802D01*
X161514170Y-89150810D01*
X161639845Y-88519000D01*
X161514170Y-87887190D01*
X161156278Y-87351567D01*
X160620655Y-86993675D01*
X159988845Y-86868000D01*
X159924155Y-86868000D01*
X159292345Y-86993675D01*
X158756722Y-87351567D01*
X158398830Y-87887190D01*
X158273155Y-88519000D01*
X158398830Y-89150810D01*
X158625999Y-89490792D01*
X158489059Y-89578910D01*
X158482018Y-89589216D01*
X158000440Y-89107638D01*
X158000440Y-87503000D01*
X157956162Y-87267683D01*
X157817090Y-87051559D01*
X157604890Y-86906569D01*
X157353000Y-86855560D01*
X155748362Y-86855560D01*
X155477401Y-86584599D01*
X155230839Y-86419852D01*
X154940000Y-86362000D01*
X153476802Y-86362000D01*
X151627969Y-84513167D01*
X153598438Y-84513167D01*
X153740483Y-84856943D01*
X154003273Y-85120192D01*
X154346801Y-85262838D01*
X154718767Y-85263162D01*
X155062543Y-85121117D01*
X155325792Y-84858327D01*
X155468438Y-84514799D01*
X155468479Y-84467923D01*
X158252002Y-81684400D01*
X163395977Y-81684400D01*
X163432593Y-81739200D01*
X159918400Y-81739200D01*
X159627561Y-81797052D01*
X159380999Y-81961799D01*
X157949920Y-83392878D01*
X157904433Y-83392838D01*
X157560657Y-83534883D01*
X157297408Y-83797673D01*
X157154762Y-84141201D01*
X157154438Y-84513167D01*
X157296483Y-84856943D01*
X157559273Y-85120192D01*
X157902801Y-85262838D01*
X158274767Y-85263162D01*
X158618543Y-85121117D01*
X158881792Y-84858327D01*
X159024438Y-84514799D01*
X159024479Y-84467923D01*
X160233202Y-83259200D01*
X165049200Y-83259200D01*
X165340039Y-83201348D01*
X165586601Y-83036601D01*
X166168452Y-82454750D01*
X178137500Y-82454750D01*
X178137500Y-83545309D01*
X178234173Y-83778698D01*
X178412801Y-83957327D01*
X178646190Y-84054000D01*
X179736750Y-84054000D01*
X179895500Y-83895250D01*
X179895500Y-82296000D01*
X180149500Y-82296000D01*
X180149500Y-83895250D01*
X180308250Y-84054000D01*
X181398810Y-84054000D01*
X181632199Y-83957327D01*
X181810827Y-83778698D01*
X181907500Y-83545309D01*
X181907500Y-82454750D01*
X181748750Y-82296000D01*
X180149500Y-82296000D01*
X179895500Y-82296000D01*
X178296250Y-82296000D01*
X178137500Y-82454750D01*
X166168452Y-82454750D01*
X166602601Y-82020601D01*
X166767348Y-81774039D01*
X166825200Y-81483200D01*
X166825200Y-81248039D01*
X170820096Y-81248039D01*
X170980959Y-81636423D01*
X171356866Y-82051389D01*
X171862959Y-82290914D01*
X172085000Y-82169629D01*
X172085000Y-81026000D01*
X172339000Y-81026000D01*
X172339000Y-82169629D01*
X172561041Y-82290914D01*
X173067134Y-82051389D01*
X173443041Y-81636423D01*
X173603904Y-81248039D01*
X173481915Y-81026000D01*
X172339000Y-81026000D01*
X172085000Y-81026000D01*
X170942085Y-81026000D01*
X170820096Y-81248039D01*
X166825200Y-81248039D01*
X166825200Y-80792691D01*
X178137500Y-80792691D01*
X178137500Y-81883250D01*
X178296250Y-82042000D01*
X179895500Y-82042000D01*
X179895500Y-80442750D01*
X180149500Y-80442750D01*
X180149500Y-82042000D01*
X181748750Y-82042000D01*
X181907500Y-81883250D01*
X181907500Y-80792691D01*
X181810827Y-80559302D01*
X181632199Y-80380673D01*
X181398810Y-80284000D01*
X180308250Y-80284000D01*
X180149500Y-80442750D01*
X179895500Y-80442750D01*
X179736750Y-80284000D01*
X178646190Y-80284000D01*
X178412801Y-80380673D01*
X178234173Y-80559302D01*
X178137500Y-80792691D01*
X166825200Y-80792691D01*
X166825200Y-78497750D01*
X168412000Y-78497750D01*
X168412000Y-79088309D01*
X168508673Y-79321698D01*
X168687301Y-79500327D01*
X168920690Y-79597000D01*
X169386250Y-79597000D01*
X169545000Y-79438250D01*
X169545000Y-78339000D01*
X168570750Y-78339000D01*
X168412000Y-78497750D01*
X166825200Y-78497750D01*
X166825200Y-74962000D01*
X168399560Y-74962000D01*
X168399560Y-76462000D01*
X168443838Y-76697317D01*
X168582910Y-76913441D01*
X168651006Y-76959969D01*
X168508673Y-77102302D01*
X168412000Y-77335691D01*
X168412000Y-77926250D01*
X168570750Y-78085000D01*
X169545000Y-78085000D01*
X169545000Y-78065000D01*
X169799000Y-78065000D01*
X169799000Y-78085000D01*
X169819000Y-78085000D01*
X169819000Y-78339000D01*
X169799000Y-78339000D01*
X169799000Y-79438250D01*
X169957750Y-79597000D01*
X170423310Y-79597000D01*
X170656699Y-79500327D01*
X170835327Y-79321698D01*
X170932000Y-79088309D01*
X170932000Y-79018720D01*
X171169189Y-79373698D01*
X171573703Y-79643986D01*
X171356866Y-79746611D01*
X170980959Y-80161577D01*
X170820096Y-80549961D01*
X170942085Y-80772000D01*
X172085000Y-80772000D01*
X172085000Y-80752000D01*
X172339000Y-80752000D01*
X172339000Y-80772000D01*
X173481915Y-80772000D01*
X173603904Y-80549961D01*
X173443041Y-80161577D01*
X173067134Y-79746611D01*
X172850297Y-79643986D01*
X173254811Y-79373698D01*
X173565880Y-78908151D01*
X173675113Y-78359000D01*
X173565880Y-77809849D01*
X173387113Y-77542305D01*
X178137174Y-77542305D01*
X178423543Y-78235372D01*
X178953339Y-78766093D01*
X179645905Y-79053672D01*
X180395805Y-79054326D01*
X181088872Y-78767957D01*
X181619593Y-78238161D01*
X181907172Y-77545595D01*
X181907826Y-76795695D01*
X181621457Y-76102628D01*
X181091661Y-75571907D01*
X180399095Y-75284328D01*
X179649195Y-75283674D01*
X178956128Y-75570043D01*
X178425407Y-76099839D01*
X178137828Y-76792405D01*
X178137174Y-77542305D01*
X173387113Y-77542305D01*
X173254811Y-77344302D01*
X172872725Y-77089000D01*
X173254811Y-76833698D01*
X173565880Y-76368151D01*
X173675113Y-75819000D01*
X173565880Y-75269849D01*
X173254811Y-74804302D01*
X172872725Y-74549000D01*
X173254811Y-74293698D01*
X173565880Y-73828151D01*
X173675113Y-73279000D01*
X173565880Y-72729849D01*
X173440567Y-72542305D01*
X178137174Y-72542305D01*
X178423543Y-73235372D01*
X178953339Y-73766093D01*
X179645905Y-74053672D01*
X180395805Y-74054326D01*
X181088872Y-73767957D01*
X181619593Y-73238161D01*
X181907172Y-72545595D01*
X181907826Y-71795695D01*
X181621457Y-71102628D01*
X181091661Y-70571907D01*
X180399095Y-70284328D01*
X179649195Y-70283674D01*
X178956128Y-70570043D01*
X178425407Y-71099839D01*
X178137828Y-71792405D01*
X178137174Y-72542305D01*
X173440567Y-72542305D01*
X173254811Y-72264302D01*
X172789264Y-71953233D01*
X172240113Y-71844000D01*
X172183887Y-71844000D01*
X171634736Y-71953233D01*
X171169189Y-72264302D01*
X170858120Y-72729849D01*
X170748887Y-73279000D01*
X170813312Y-73602886D01*
X170101638Y-74314560D01*
X169047000Y-74314560D01*
X168811683Y-74358838D01*
X168595559Y-74497910D01*
X168450569Y-74710110D01*
X168399560Y-74962000D01*
X166825200Y-74962000D01*
X166825200Y-74752200D01*
X166772275Y-74486129D01*
X166767348Y-74461360D01*
X166602601Y-74214799D01*
X165990688Y-73602886D01*
X166055113Y-73279000D01*
X165945880Y-72729849D01*
X165634811Y-72264302D01*
X165169264Y-71953233D01*
X164620113Y-71844000D01*
X164563887Y-71844000D01*
X164014736Y-71953233D01*
X163549189Y-72264302D01*
X163238120Y-72729849D01*
X163128887Y-73279000D01*
X163238120Y-73828151D01*
X163549189Y-74293698D01*
X163931275Y-74549000D01*
X163549189Y-74804302D01*
X163238120Y-75269849D01*
X163128887Y-75819000D01*
X163238120Y-76368151D01*
X163549189Y-76833698D01*
X163931275Y-77089000D01*
X163549189Y-77344302D01*
X163238120Y-77809849D01*
X163128887Y-78359000D01*
X163238120Y-78908151D01*
X163549189Y-79373698D01*
X163931275Y-79629000D01*
X163549189Y-79884302D01*
X163362033Y-80164400D01*
X157937200Y-80164400D01*
X157646360Y-80222252D01*
X157399799Y-80386999D01*
X154393920Y-83392878D01*
X154348433Y-83392838D01*
X154004657Y-83534883D01*
X153741408Y-83797673D01*
X153598762Y-84141201D01*
X153598438Y-84513167D01*
X151627969Y-84513167D01*
X151064500Y-83949698D01*
X151064500Y-82187278D01*
X151482887Y-82270500D01*
X151539113Y-82270500D01*
X152088264Y-82161267D01*
X152553811Y-81850198D01*
X152864880Y-81384651D01*
X152974113Y-80835500D01*
X152864880Y-80286349D01*
X152553811Y-79820802D01*
X152171725Y-79565500D01*
X152553811Y-79310198D01*
X152864880Y-78844651D01*
X152974113Y-78295500D01*
X152864880Y-77746349D01*
X152553811Y-77280802D01*
X152171725Y-77025500D01*
X152553811Y-76770198D01*
X152864880Y-76304651D01*
X152974113Y-75755500D01*
X152864880Y-75206349D01*
X152553811Y-74740802D01*
X152149297Y-74470514D01*
X152366134Y-74367889D01*
X152742041Y-73952923D01*
X152902904Y-73564539D01*
X152780915Y-73342500D01*
X151638000Y-73342500D01*
X151638000Y-73362500D01*
X151384000Y-73362500D01*
X151384000Y-73342500D01*
X150241085Y-73342500D01*
X150218450Y-73383700D01*
X150177250Y-73342500D01*
X149078000Y-73342500D01*
X149078000Y-74316750D01*
X149236750Y-74475500D01*
X149827309Y-74475500D01*
X150060698Y-74378827D01*
X150239327Y-74200199D01*
X150322363Y-73999733D01*
X150655866Y-74367889D01*
X150872703Y-74470514D01*
X150468189Y-74740802D01*
X150157120Y-75206349D01*
X150047887Y-75755500D01*
X150112312Y-76079386D01*
X149195599Y-76996099D01*
X149030852Y-77242661D01*
X148973000Y-77533500D01*
X148973000Y-85534500D01*
X149030852Y-85825339D01*
X149195599Y-86071901D01*
X151054060Y-87930362D01*
X151054060Y-89535000D01*
X151098338Y-89770317D01*
X151237410Y-89986441D01*
X151386337Y-90088198D01*
X151159830Y-90427190D01*
X151034155Y-91059000D01*
X151159830Y-91690810D01*
X151517722Y-92226433D01*
X152053345Y-92584325D01*
X152685155Y-92710000D01*
X152749845Y-92710000D01*
X153381655Y-92584325D01*
X153735500Y-92347893D01*
X153735500Y-92773500D01*
X153793352Y-93064339D01*
X153958099Y-93310901D01*
X156485399Y-95838201D01*
X156731961Y-96002948D01*
X157022800Y-96060800D01*
X162274186Y-96060800D01*
X162230060Y-96278700D01*
X162230060Y-98310700D01*
X162266281Y-98503200D01*
X149345502Y-98503200D01*
X146902047Y-96059745D01*
X147029172Y-95753595D01*
X147029826Y-95003695D01*
X146743457Y-94310628D01*
X146213661Y-93779907D01*
X145521095Y-93492328D01*
X144771195Y-93491674D01*
X144078128Y-93778043D01*
X143547407Y-94307839D01*
X143259828Y-95000405D01*
X143259174Y-95750305D01*
X142029500Y-95750305D01*
X142029500Y-95662750D01*
X141870750Y-95504000D01*
X140271500Y-95504000D01*
X140017500Y-95504000D01*
X138418250Y-95504000D01*
X138259500Y-95662750D01*
X127964000Y-95662750D01*
X127964000Y-94000690D01*
X138259500Y-94000690D01*
X138259500Y-95091250D01*
X138418250Y-95250000D01*
X140017500Y-95250000D01*
X140017500Y-93650750D01*
X140271500Y-93650750D01*
X140271500Y-95250000D01*
X141870750Y-95250000D01*
X142029500Y-95091250D01*
X142029500Y-94000690D01*
X141932827Y-93767301D01*
X141754198Y-93588673D01*
X141520809Y-93492000D01*
X140430250Y-93492000D01*
X140271500Y-93650750D01*
X140017500Y-93650750D01*
X139858750Y-93492000D01*
X138768191Y-93492000D01*
X138534802Y-93588673D01*
X138356173Y-93767301D01*
X138259500Y-94000690D01*
X127964000Y-94000690D01*
X127964000Y-56725567D01*
X132262438Y-56725567D01*
X132404483Y-57069343D01*
X132437600Y-57102518D01*
X132437600Y-59486800D01*
X132495452Y-59777639D01*
X132660199Y-60024201D01*
X141099000Y-68463002D01*
X141099000Y-76263500D01*
X141156852Y-76554339D01*
X141321599Y-76800901D01*
X142492312Y-77971614D01*
X142427887Y-78295500D01*
X142537120Y-78844651D01*
X142848189Y-79310198D01*
X143230275Y-79565500D01*
X142848189Y-79820802D01*
X142537120Y-80286349D01*
X142427887Y-80835500D01*
X142537120Y-81384651D01*
X142848189Y-81850198D01*
X143313736Y-82161267D01*
X143862887Y-82270500D01*
X143919113Y-82270500D01*
X144468264Y-82161267D01*
X144933811Y-81850198D01*
X145244880Y-81384651D01*
X145354113Y-80835500D01*
X145244880Y-80286349D01*
X144933811Y-79820802D01*
X144551725Y-79565500D01*
X144933811Y-79310198D01*
X145244880Y-78844651D01*
X145354113Y-78295500D01*
X145244880Y-77746349D01*
X144933811Y-77280802D01*
X144551725Y-77025500D01*
X144933811Y-76770198D01*
X145244880Y-76304651D01*
X145354113Y-75755500D01*
X145244880Y-75206349D01*
X144933811Y-74740802D01*
X144551725Y-74485500D01*
X144933811Y-74230198D01*
X145084462Y-74004732D01*
X145097838Y-74075817D01*
X145236910Y-74291941D01*
X145449110Y-74436931D01*
X145701000Y-74487940D01*
X147201000Y-74487940D01*
X147436317Y-74443662D01*
X147652441Y-74304590D01*
X147698969Y-74236494D01*
X147841302Y-74378827D01*
X148074691Y-74475500D01*
X148665250Y-74475500D01*
X148824000Y-74316750D01*
X148824000Y-73342500D01*
X148804000Y-73342500D01*
X148804000Y-73088500D01*
X148824000Y-73088500D01*
X148824000Y-72114250D01*
X149078000Y-72114250D01*
X149078000Y-73088500D01*
X150177250Y-73088500D01*
X150218450Y-73047300D01*
X150241085Y-73088500D01*
X151384000Y-73088500D01*
X151384000Y-71944871D01*
X151638000Y-71944871D01*
X151638000Y-73088500D01*
X152780915Y-73088500D01*
X152902904Y-72866461D01*
X152742041Y-72478077D01*
X152366134Y-72063111D01*
X151860041Y-71823586D01*
X151638000Y-71944871D01*
X151384000Y-71944871D01*
X151161959Y-71823586D01*
X150655866Y-72063111D01*
X150322363Y-72431267D01*
X150239327Y-72230801D01*
X150060698Y-72052173D01*
X149827309Y-71955500D01*
X149236750Y-71955500D01*
X149078000Y-72114250D01*
X148824000Y-72114250D01*
X148665250Y-71955500D01*
X148074691Y-71955500D01*
X147841302Y-72052173D01*
X147700064Y-72193410D01*
X147665090Y-72139059D01*
X147452890Y-71994069D01*
X147201000Y-71943060D01*
X145701000Y-71943060D01*
X145465683Y-71987338D01*
X145249559Y-72126410D01*
X145104569Y-72338610D01*
X145086270Y-72428973D01*
X144933811Y-72200802D01*
X144468264Y-71889733D01*
X143919113Y-71780500D01*
X143862887Y-71780500D01*
X143313736Y-71889733D01*
X143127000Y-72014506D01*
X143127000Y-70225667D01*
X154131838Y-70225667D01*
X154273883Y-70569443D01*
X154536673Y-70832692D01*
X154880201Y-70975338D01*
X155252167Y-70975662D01*
X155595943Y-70833617D01*
X155859192Y-70570827D01*
X156001838Y-70227299D01*
X156001879Y-70180423D01*
X165859302Y-60323000D01*
X167204537Y-60323000D01*
X167236673Y-60355192D01*
X167580201Y-60497838D01*
X167952167Y-60498162D01*
X168295943Y-60356117D01*
X168559192Y-60093327D01*
X168701838Y-59749799D01*
X168702162Y-59377833D01*
X168560117Y-59034057D01*
X168297327Y-58770808D01*
X167953799Y-58628162D01*
X167581833Y-58627838D01*
X167238057Y-58769883D01*
X167204882Y-58803000D01*
X165544500Y-58803000D01*
X165253661Y-58860852D01*
X165007099Y-59025599D01*
X154927320Y-69105378D01*
X154881833Y-69105338D01*
X154538057Y-69247383D01*
X154274808Y-69510173D01*
X154132162Y-69853701D01*
X154131838Y-70225667D01*
X143127000Y-70225667D01*
X143127000Y-68132802D01*
X150761680Y-60498122D01*
X150807167Y-60498162D01*
X151150943Y-60356117D01*
X151414192Y-60093327D01*
X151556838Y-59749799D01*
X151557162Y-59377833D01*
X151415117Y-59034057D01*
X151152327Y-58770808D01*
X150808799Y-58628162D01*
X150436833Y-58627838D01*
X150093057Y-58769883D01*
X149829808Y-59032673D01*
X149687162Y-59376201D01*
X149687121Y-59423077D01*
X141947900Y-67162298D01*
X133957600Y-59171998D01*
X133957600Y-57102863D01*
X133989792Y-57070727D01*
X134132438Y-56727199D01*
X134132762Y-56355233D01*
X133990717Y-56011457D01*
X133727927Y-55748208D01*
X133384399Y-55605562D01*
X133012433Y-55605238D01*
X132668657Y-55747283D01*
X132405408Y-56010073D01*
X132262762Y-56353601D01*
X132262438Y-56725567D01*
X127964000Y-56725567D01*
X127964000Y-34663305D01*
X135354674Y-34663305D01*
X135641043Y-35356372D01*
X136170839Y-35887093D01*
X136863405Y-36174672D01*
X137613305Y-36175326D01*
X138306372Y-35888957D01*
X138837093Y-35359161D01*
X139124672Y-34666595D01*
X139125326Y-33916695D01*
X138838957Y-33223628D01*
X138655650Y-33040000D01*
X140342560Y-33040000D01*
X140342560Y-35540000D01*
X140386838Y-35775317D01*
X140525910Y-35991441D01*
X140738110Y-36136431D01*
X140990000Y-36187440D01*
X143490000Y-36187440D01*
X143725317Y-36143162D01*
X143941441Y-36004090D01*
X144086431Y-35791890D01*
X144137440Y-35540000D01*
X144137440Y-34663305D01*
X152753674Y-34663305D01*
X153040043Y-35356372D01*
X153569839Y-35887093D01*
X154262405Y-36174672D01*
X155012305Y-36175326D01*
X155705372Y-35888957D01*
X156236093Y-35359161D01*
X156523672Y-34666595D01*
X156524326Y-33916695D01*
X156237957Y-33223628D01*
X156054650Y-33040000D01*
X157741560Y-33040000D01*
X157741560Y-35540000D01*
X157785838Y-35775317D01*
X157924910Y-35991441D01*
X158137110Y-36136431D01*
X158389000Y-36187440D01*
X160889000Y-36187440D01*
X161124317Y-36143162D01*
X161340441Y-36004090D01*
X161485431Y-35791890D01*
X161536440Y-35540000D01*
X161536440Y-34663305D01*
X170152674Y-34663305D01*
X170439043Y-35356372D01*
X170968839Y-35887093D01*
X171661405Y-36174672D01*
X172411305Y-36175326D01*
X173104372Y-35888957D01*
X173635093Y-35359161D01*
X173922672Y-34666595D01*
X173923326Y-33916695D01*
X173636957Y-33223628D01*
X173453650Y-33040000D01*
X175140560Y-33040000D01*
X175140560Y-35540000D01*
X175184838Y-35775317D01*
X175323910Y-35991441D01*
X175536110Y-36136431D01*
X175788000Y-36187440D01*
X178288000Y-36187440D01*
X178523317Y-36143162D01*
X178739441Y-36004090D01*
X178884431Y-35791890D01*
X178935440Y-35540000D01*
X178935440Y-33040000D01*
X178891162Y-32804683D01*
X178752090Y-32588559D01*
X178539890Y-32443569D01*
X178288000Y-32392560D01*
X175788000Y-32392560D01*
X175552683Y-32436838D01*
X175336559Y-32575910D01*
X175191569Y-32788110D01*
X175140560Y-33040000D01*
X173453650Y-33040000D01*
X173107161Y-32692907D01*
X172414595Y-32405328D01*
X171664695Y-32404674D01*
X170971628Y-32691043D01*
X170440907Y-33220839D01*
X170153328Y-33913405D01*
X170152674Y-34663305D01*
X161536440Y-34663305D01*
X161536440Y-33040000D01*
X161492162Y-32804683D01*
X161353090Y-32588559D01*
X161140890Y-32443569D01*
X160889000Y-32392560D01*
X158389000Y-32392560D01*
X158153683Y-32436838D01*
X157937559Y-32575910D01*
X157792569Y-32788110D01*
X157741560Y-33040000D01*
X156054650Y-33040000D01*
X155708161Y-32692907D01*
X155015595Y-32405328D01*
X154265695Y-32404674D01*
X153572628Y-32691043D01*
X153041907Y-33220839D01*
X152754328Y-33913405D01*
X152753674Y-34663305D01*
X144137440Y-34663305D01*
X144137440Y-33040000D01*
X144093162Y-32804683D01*
X143954090Y-32588559D01*
X143741890Y-32443569D01*
X143490000Y-32392560D01*
X140990000Y-32392560D01*
X140754683Y-32436838D01*
X140538559Y-32575910D01*
X140393569Y-32788110D01*
X140342560Y-33040000D01*
X138655650Y-33040000D01*
X138309161Y-32692907D01*
X137616595Y-32405328D01*
X136866695Y-32404674D01*
X136173628Y-32691043D01*
X135642907Y-33220839D01*
X135355328Y-33913405D01*
X135354674Y-34663305D01*
X127964000Y-34663305D01*
X127964000Y-31770172D01*
X128523538Y-31770172D01*
X128928709Y-32750761D01*
X129678293Y-33501655D01*
X130658173Y-33908536D01*
X131719172Y-33909462D01*
X132699761Y-33504291D01*
X133450655Y-32754707D01*
X133833101Y-31833672D01*
X180720538Y-31833672D01*
X181125709Y-32814261D01*
X181875293Y-33565155D01*
X182855173Y-33972036D01*
X183916172Y-33972962D01*
X184896761Y-33567791D01*
X185647655Y-32818207D01*
X186054536Y-31838327D01*
X186055462Y-30777328D01*
X185650291Y-29796739D01*
X184900707Y-29045845D01*
X183920827Y-28638964D01*
X182859828Y-28638038D01*
X181879239Y-29043209D01*
X181128345Y-29792793D01*
X180721464Y-30772673D01*
X180720538Y-31833672D01*
X133833101Y-31833672D01*
X133857536Y-31774827D01*
X133858462Y-30713828D01*
X133453291Y-29733239D01*
X132703707Y-28982345D01*
X131723827Y-28575464D01*
X130662828Y-28574538D01*
X129682239Y-28979709D01*
X128931345Y-29729293D01*
X128524464Y-30709173D01*
X128523538Y-31770172D01*
X127964000Y-31770172D01*
X127964000Y-30549931D01*
X128164488Y-29542007D01*
X128695817Y-28746817D01*
X129491007Y-28215488D01*
X130498931Y-28015000D01*
X183329994Y-28015000D01*
X184601098Y-28224082D01*
M02*
