G04 #@! TF.FileFunction,Soldermask,Bot*
%FSLAX46Y46*%
G04 Gerber Fmt 4.6, Leading zero omitted, Abs format (unit mm)*
G04 Created by KiCad (PCBNEW 4.0.6) date Wednesday, 20 September 2017 'PMt' 17:58:10*
%MOMM*%
%LPD*%
G01*
G04 APERTURE LIST*
%ADD10C,0.100000*%
%ADD11C,4.464000*%
%ADD12R,2.900000X2.900000*%
%ADD13C,2.900000*%
%ADD14R,2.127200X2.432000*%
%ADD15O,2.127200X2.432000*%
%ADD16O,2.000000X2.000000*%
%ADD17R,1.900000X1.650000*%
%ADD18R,1.650000X1.900000*%
%ADD19R,2.432000X2.432000*%
%ADD20O,2.432000X2.432000*%
G04 APERTURE END LIST*
D10*
D11*
X131191000Y-31242000D03*
X183388000Y-31305500D03*
X131191000Y-100457000D03*
D12*
X177038000Y-34290000D03*
D13*
X172038000Y-34290000D03*
D14*
X168211500Y-95567500D03*
D15*
X170751500Y-95567500D03*
X173291500Y-95567500D03*
X175831500Y-95567500D03*
X178371500Y-95567500D03*
X180911500Y-95567500D03*
D12*
X159639000Y-34290000D03*
D13*
X154639000Y-34290000D03*
D12*
X142240000Y-34290000D03*
D13*
X137240000Y-34290000D03*
D12*
X137096500Y-93281500D03*
D13*
X142096500Y-93281500D03*
D16*
X143891000Y-73215500D03*
X143891000Y-75755500D03*
X143891000Y-78295500D03*
X143891000Y-80835500D03*
X151511000Y-80835500D03*
X151511000Y-78295500D03*
X151511000Y-75755500D03*
X151511000Y-73215500D03*
X164592000Y-73279000D03*
X164592000Y-75819000D03*
X164592000Y-78359000D03*
X164592000Y-80899000D03*
X172212000Y-80899000D03*
X172212000Y-78359000D03*
X172212000Y-75819000D03*
X172212000Y-73279000D03*
D17*
X148951000Y-73215500D03*
X146451000Y-73215500D03*
D18*
X169672000Y-78212000D03*
X169672000Y-75712000D03*
D11*
X183388000Y-100393500D03*
D19*
X159956500Y-91059000D03*
D20*
X159956500Y-88519000D03*
D19*
X156337000Y-88519000D03*
D20*
X156337000Y-91059000D03*
D19*
X152717500Y-88519000D03*
D20*
X152717500Y-91059000D03*
D13*
X180022500Y-72169000D03*
D12*
X180022500Y-82169000D03*
D13*
X180022500Y-77169000D03*
M02*
