G04 #@! TF.FileFunction,Copper,L2,Bot,Signal*
%FSLAX46Y46*%
G04 Gerber Fmt 4.6, Leading zero omitted, Abs format (unit mm)*
G04 Created by KiCad (PCBNEW 4.0.6) date Monday, 21 August 2017 'PMt' 20:32:19*
%MOMM*%
%LPD*%
G01*
G04 APERTURE LIST*
%ADD10C,0.100000*%
%ADD11C,4.064000*%
%ADD12R,2.500000X2.500000*%
%ADD13C,2.500000*%
%ADD14R,1.727200X2.032000*%
%ADD15O,1.727200X2.032000*%
%ADD16O,1.998980X1.998980*%
%ADD17R,1.998980X1.998980*%
%ADD18O,1.600000X1.600000*%
%ADD19R,1.500000X1.250000*%
%ADD20R,1.250000X1.500000*%
%ADD21R,2.032000X2.032000*%
%ADD22O,2.032000X2.032000*%
%ADD23C,0.600000*%
%ADD24C,0.250000*%
%ADD25C,1.250000*%
%ADD26C,0.254000*%
G04 APERTURE END LIST*
D10*
D11*
X130937000Y-31115000D03*
X183515000Y-31115000D03*
X131572000Y-105283000D03*
D12*
X177038000Y-34290000D03*
D13*
X172038000Y-34290000D03*
D14*
X161036000Y-102235000D03*
D15*
X163576000Y-102235000D03*
X166116000Y-102235000D03*
X168656000Y-102235000D03*
X171196000Y-102235000D03*
X173736000Y-102235000D03*
D12*
X159639000Y-34290000D03*
D13*
X154639000Y-34290000D03*
D12*
X142240000Y-34290000D03*
D13*
X137240000Y-34290000D03*
D12*
X138938000Y-101219000D03*
D13*
X143938000Y-101219000D03*
D16*
X180975000Y-78740000D03*
D17*
X180975000Y-83820000D03*
D16*
X180975000Y-81280000D03*
D18*
X145415000Y-73279000D03*
X145415000Y-75819000D03*
X145415000Y-78359000D03*
X145415000Y-80899000D03*
X153035000Y-80899000D03*
X153035000Y-78359000D03*
X153035000Y-75819000D03*
X153035000Y-73279000D03*
X167386000Y-76200000D03*
X167386000Y-78740000D03*
X167386000Y-81280000D03*
X167386000Y-83820000D03*
X175006000Y-83820000D03*
X175006000Y-81280000D03*
X175006000Y-78740000D03*
X175006000Y-76200000D03*
D19*
X150475000Y-73279000D03*
X147975000Y-73279000D03*
D20*
X172593000Y-81133000D03*
X172593000Y-78633000D03*
D11*
X183515000Y-105283000D03*
D21*
X160147000Y-89916000D03*
D22*
X160147000Y-92456000D03*
D21*
X156337000Y-89916000D03*
D22*
X156337000Y-92456000D03*
D21*
X152527000Y-89916000D03*
D22*
X152527000Y-92456000D03*
D23*
X157607000Y-73279000D03*
X138049000Y-77597000D03*
X137668000Y-69088000D03*
X143002000Y-89535000D03*
X150622000Y-59563000D03*
X136271000Y-59563000D03*
X167767000Y-59563000D03*
X156337000Y-70993000D03*
D24*
X175006000Y-76200000D02*
X175006000Y-76220000D01*
X175006000Y-76220000D02*
X172593000Y-78633000D01*
X147975000Y-73279000D02*
X145415000Y-73279000D01*
D25*
X172038000Y-34036000D02*
X171958000Y-34036000D01*
D24*
X172593000Y-81133000D02*
X172593000Y-81407000D01*
X172593000Y-81407000D02*
X175006000Y-83820000D01*
X157607000Y-73279000D02*
X153035000Y-73279000D01*
X150475000Y-73279000D02*
X153035000Y-73279000D01*
X156337000Y-89916000D02*
X156337000Y-81661000D01*
X156337000Y-81661000D02*
X153035000Y-78359000D01*
X152527000Y-89916000D02*
X152527000Y-82550000D01*
X151384000Y-77470000D02*
X153035000Y-75819000D01*
X151384000Y-81407000D02*
X151384000Y-77470000D01*
X152527000Y-82550000D02*
X151384000Y-81407000D01*
X165100000Y-78486000D02*
X165100000Y-92075000D01*
X156337000Y-94615000D02*
X157099000Y-95377000D01*
X157099000Y-95377000D02*
X161798000Y-95377000D01*
X161798000Y-95377000D02*
X165100000Y-92075000D01*
X167386000Y-76200000D02*
X165100000Y-78486000D01*
X156337000Y-94615000D02*
X156337000Y-92456000D01*
X145415000Y-75819000D02*
X143637000Y-74041000D01*
X143637000Y-66548000D02*
X150622000Y-59563000D01*
X143637000Y-74041000D02*
X143637000Y-66548000D01*
X143002000Y-75946000D02*
X143002000Y-71120000D01*
X143002000Y-75946000D02*
X145415000Y-78359000D01*
X136271000Y-64389000D02*
X136271000Y-59563000D01*
X143002000Y-71120000D02*
X136271000Y-64389000D01*
X156337000Y-70993000D02*
X167767000Y-59563000D01*
X167386000Y-83820000D02*
X167386000Y-90805000D01*
X152527000Y-94615000D02*
X153924000Y-96012000D01*
X153924000Y-96012000D02*
X162179000Y-96012000D01*
X162179000Y-96012000D02*
X167386000Y-90805000D01*
X152527000Y-94615000D02*
X152527000Y-92456000D01*
D26*
G36*
X184601098Y-28224082D02*
X185624731Y-28859773D01*
X186327176Y-29838800D01*
X186615000Y-31069895D01*
X186615000Y-105340069D01*
X186366175Y-106590995D01*
X185697196Y-107592196D01*
X184695995Y-108261176D01*
X183445069Y-108510000D01*
X130739177Y-108510000D01*
X129660830Y-108338292D01*
X128802766Y-107811493D01*
X128211616Y-106996426D01*
X127964000Y-105961266D01*
X127964000Y-105811172D01*
X128904538Y-105811172D01*
X129309709Y-106791761D01*
X130059293Y-107542655D01*
X131039173Y-107949536D01*
X132100172Y-107950462D01*
X133080761Y-107545291D01*
X133831655Y-106795707D01*
X134238536Y-105815827D01*
X134238540Y-105811172D01*
X180847538Y-105811172D01*
X181252709Y-106791761D01*
X182002293Y-107542655D01*
X182982173Y-107949536D01*
X184043172Y-107950462D01*
X185023761Y-107545291D01*
X185774655Y-106795707D01*
X186181536Y-105815827D01*
X186182462Y-104754828D01*
X185777291Y-103774239D01*
X185027707Y-103023345D01*
X184047827Y-102616464D01*
X182986828Y-102615538D01*
X182006239Y-103020709D01*
X181255345Y-103770293D01*
X180848464Y-104750173D01*
X180847538Y-105811172D01*
X134238540Y-105811172D01*
X134239462Y-104754828D01*
X133834291Y-103774239D01*
X133084707Y-103023345D01*
X132104827Y-102616464D01*
X131043828Y-102615538D01*
X130063239Y-103020709D01*
X129312345Y-103770293D01*
X128905464Y-104750173D01*
X128904538Y-105811172D01*
X127964000Y-105811172D01*
X127964000Y-101504750D01*
X137053000Y-101504750D01*
X137053000Y-102595310D01*
X137149673Y-102828699D01*
X137328302Y-103007327D01*
X137561691Y-103104000D01*
X138652250Y-103104000D01*
X138811000Y-102945250D01*
X138811000Y-101346000D01*
X139065000Y-101346000D01*
X139065000Y-102945250D01*
X139223750Y-103104000D01*
X140314309Y-103104000D01*
X140547698Y-103007327D01*
X140726327Y-102828699D01*
X140823000Y-102595310D01*
X140823000Y-101592305D01*
X142052674Y-101592305D01*
X142339043Y-102285372D01*
X142868839Y-102816093D01*
X143561405Y-103103672D01*
X144311305Y-103104326D01*
X145004372Y-102817957D01*
X145535093Y-102288161D01*
X145822672Y-101595595D01*
X145823000Y-101219000D01*
X159524960Y-101219000D01*
X159524960Y-103251000D01*
X159569238Y-103486317D01*
X159708310Y-103702441D01*
X159920510Y-103847431D01*
X160172400Y-103898440D01*
X161899600Y-103898440D01*
X162134917Y-103854162D01*
X162351041Y-103715090D01*
X162496031Y-103502890D01*
X162515232Y-103408073D01*
X162673964Y-103585732D01*
X163201209Y-103839709D01*
X163216974Y-103842358D01*
X163449000Y-103721217D01*
X163449000Y-102362000D01*
X163429000Y-102362000D01*
X163429000Y-102108000D01*
X163449000Y-102108000D01*
X163449000Y-100748783D01*
X163703000Y-100748783D01*
X163703000Y-102108000D01*
X163723000Y-102108000D01*
X163723000Y-102362000D01*
X163703000Y-102362000D01*
X163703000Y-103721217D01*
X163935026Y-103842358D01*
X163950791Y-103839709D01*
X164478036Y-103585732D01*
X164849539Y-103169931D01*
X165056330Y-103479415D01*
X165542511Y-103804271D01*
X166116000Y-103918345D01*
X166689489Y-103804271D01*
X167175670Y-103479415D01*
X167386000Y-103164634D01*
X167596330Y-103479415D01*
X168082511Y-103804271D01*
X168656000Y-103918345D01*
X169229489Y-103804271D01*
X169715670Y-103479415D01*
X169926000Y-103164634D01*
X170136330Y-103479415D01*
X170622511Y-103804271D01*
X171196000Y-103918345D01*
X171769489Y-103804271D01*
X172255670Y-103479415D01*
X172466000Y-103164634D01*
X172676330Y-103479415D01*
X173162511Y-103804271D01*
X173736000Y-103918345D01*
X174309489Y-103804271D01*
X174795670Y-103479415D01*
X175120526Y-102993234D01*
X175234600Y-102419745D01*
X175234600Y-102050255D01*
X175120526Y-101476766D01*
X174795670Y-100990585D01*
X174309489Y-100665729D01*
X173736000Y-100551655D01*
X173162511Y-100665729D01*
X172676330Y-100990585D01*
X172466000Y-101305366D01*
X172255670Y-100990585D01*
X171769489Y-100665729D01*
X171196000Y-100551655D01*
X170622511Y-100665729D01*
X170136330Y-100990585D01*
X169926000Y-101305366D01*
X169715670Y-100990585D01*
X169229489Y-100665729D01*
X168656000Y-100551655D01*
X168082511Y-100665729D01*
X167596330Y-100990585D01*
X167386000Y-101305366D01*
X167175670Y-100990585D01*
X166689489Y-100665729D01*
X166116000Y-100551655D01*
X165542511Y-100665729D01*
X165056330Y-100990585D01*
X164849539Y-101300069D01*
X164478036Y-100884268D01*
X163950791Y-100630291D01*
X163935026Y-100627642D01*
X163703000Y-100748783D01*
X163449000Y-100748783D01*
X163216974Y-100627642D01*
X163201209Y-100630291D01*
X162673964Y-100884268D01*
X162517093Y-101059845D01*
X162502762Y-100983683D01*
X162363690Y-100767559D01*
X162151490Y-100622569D01*
X161899600Y-100571560D01*
X160172400Y-100571560D01*
X159937083Y-100615838D01*
X159720959Y-100754910D01*
X159575969Y-100967110D01*
X159524960Y-101219000D01*
X145823000Y-101219000D01*
X145823326Y-100845695D01*
X145536957Y-100152628D01*
X145007161Y-99621907D01*
X144314595Y-99334328D01*
X143564695Y-99333674D01*
X142871628Y-99620043D01*
X142340907Y-100149839D01*
X142053328Y-100842405D01*
X142052674Y-101592305D01*
X140823000Y-101592305D01*
X140823000Y-101504750D01*
X140664250Y-101346000D01*
X139065000Y-101346000D01*
X138811000Y-101346000D01*
X137211750Y-101346000D01*
X137053000Y-101504750D01*
X127964000Y-101504750D01*
X127964000Y-99842690D01*
X137053000Y-99842690D01*
X137053000Y-100933250D01*
X137211750Y-101092000D01*
X138811000Y-101092000D01*
X138811000Y-99492750D01*
X139065000Y-99492750D01*
X139065000Y-101092000D01*
X140664250Y-101092000D01*
X140823000Y-100933250D01*
X140823000Y-99842690D01*
X140726327Y-99609301D01*
X140547698Y-99430673D01*
X140314309Y-99334000D01*
X139223750Y-99334000D01*
X139065000Y-99492750D01*
X138811000Y-99492750D01*
X138652250Y-99334000D01*
X137561691Y-99334000D01*
X137328302Y-99430673D01*
X137149673Y-99609301D01*
X137053000Y-99842690D01*
X127964000Y-99842690D01*
X127964000Y-59748167D01*
X135335838Y-59748167D01*
X135477883Y-60091943D01*
X135511000Y-60125118D01*
X135511000Y-64389000D01*
X135568852Y-64679839D01*
X135733599Y-64926401D01*
X142242000Y-71434802D01*
X142242000Y-75946000D01*
X142299852Y-76236839D01*
X142464599Y-76483401D01*
X144016312Y-78035114D01*
X143951887Y-78359000D01*
X144061120Y-78908151D01*
X144372189Y-79373698D01*
X144754275Y-79629000D01*
X144372189Y-79884302D01*
X144061120Y-80349849D01*
X143951887Y-80899000D01*
X144061120Y-81448151D01*
X144372189Y-81913698D01*
X144837736Y-82224767D01*
X145386887Y-82334000D01*
X145443113Y-82334000D01*
X145992264Y-82224767D01*
X146457811Y-81913698D01*
X146768880Y-81448151D01*
X146878113Y-80899000D01*
X146768880Y-80349849D01*
X146457811Y-79884302D01*
X146075725Y-79629000D01*
X146457811Y-79373698D01*
X146768880Y-78908151D01*
X146878113Y-78359000D01*
X146768880Y-77809849D01*
X146457811Y-77344302D01*
X146075725Y-77089000D01*
X146457811Y-76833698D01*
X146768880Y-76368151D01*
X146878113Y-75819000D01*
X146768880Y-75269849D01*
X146457811Y-74804302D01*
X146075725Y-74549000D01*
X146457811Y-74293698D01*
X146608462Y-74068232D01*
X146621838Y-74139317D01*
X146760910Y-74355441D01*
X146973110Y-74500431D01*
X147225000Y-74551440D01*
X148725000Y-74551440D01*
X148960317Y-74507162D01*
X149176441Y-74368090D01*
X149222969Y-74299994D01*
X149365302Y-74442327D01*
X149598691Y-74539000D01*
X150189250Y-74539000D01*
X150348000Y-74380250D01*
X150348000Y-73406000D01*
X150602000Y-73406000D01*
X150602000Y-74380250D01*
X150760750Y-74539000D01*
X151351309Y-74539000D01*
X151584698Y-74442327D01*
X151763327Y-74263699D01*
X151846363Y-74063233D01*
X152179866Y-74431389D01*
X152396703Y-74534014D01*
X151992189Y-74804302D01*
X151681120Y-75269849D01*
X151571887Y-75819000D01*
X151636312Y-76142886D01*
X150846599Y-76932599D01*
X150681852Y-77179161D01*
X150624000Y-77470000D01*
X150624000Y-81407000D01*
X150681852Y-81697839D01*
X150846599Y-81944401D01*
X151767000Y-82864802D01*
X151767000Y-88252560D01*
X151511000Y-88252560D01*
X151275683Y-88296838D01*
X151059559Y-88435910D01*
X150914569Y-88648110D01*
X150863560Y-88900000D01*
X150863560Y-90932000D01*
X150907838Y-91167317D01*
X151046910Y-91383441D01*
X151195837Y-91485198D01*
X150969330Y-91824190D01*
X150843655Y-92456000D01*
X150969330Y-93087810D01*
X151327222Y-93623433D01*
X151767000Y-93917283D01*
X151767000Y-94615000D01*
X151824852Y-94905839D01*
X151989599Y-95152401D01*
X153386599Y-96549401D01*
X153633160Y-96714148D01*
X153924000Y-96772000D01*
X162179000Y-96772000D01*
X162469839Y-96714148D01*
X162716401Y-96549401D01*
X167923401Y-91342401D01*
X168088148Y-91095839D01*
X168146000Y-90805000D01*
X168146000Y-85023667D01*
X168428811Y-84834698D01*
X168739880Y-84369151D01*
X168779684Y-84169039D01*
X173614096Y-84169039D01*
X173774959Y-84557423D01*
X174150866Y-84972389D01*
X174656959Y-85211914D01*
X174879000Y-85090629D01*
X174879000Y-83947000D01*
X175133000Y-83947000D01*
X175133000Y-85090629D01*
X175355041Y-85211914D01*
X175861134Y-84972389D01*
X176237041Y-84557423D01*
X176397904Y-84169039D01*
X176363133Y-84105750D01*
X179340510Y-84105750D01*
X179340510Y-84945799D01*
X179437183Y-85179188D01*
X179615811Y-85357817D01*
X179849200Y-85454490D01*
X180689250Y-85454490D01*
X180848000Y-85295740D01*
X180848000Y-83947000D01*
X181102000Y-83947000D01*
X181102000Y-85295740D01*
X181260750Y-85454490D01*
X182100800Y-85454490D01*
X182334189Y-85357817D01*
X182512817Y-85179188D01*
X182609490Y-84945799D01*
X182609490Y-84105750D01*
X182450740Y-83947000D01*
X181102000Y-83947000D01*
X180848000Y-83947000D01*
X179499260Y-83947000D01*
X179340510Y-84105750D01*
X176363133Y-84105750D01*
X176275915Y-83947000D01*
X175133000Y-83947000D01*
X174879000Y-83947000D01*
X173736085Y-83947000D01*
X173614096Y-84169039D01*
X168779684Y-84169039D01*
X168849113Y-83820000D01*
X168739880Y-83270849D01*
X168428811Y-82805302D01*
X168046725Y-82550000D01*
X168428811Y-82294698D01*
X168739880Y-81829151D01*
X168821513Y-81418750D01*
X171333000Y-81418750D01*
X171333000Y-82009309D01*
X171429673Y-82242698D01*
X171608301Y-82421327D01*
X171841690Y-82518000D01*
X172307250Y-82518000D01*
X172466000Y-82359250D01*
X172466000Y-81260000D01*
X171491750Y-81260000D01*
X171333000Y-81418750D01*
X168821513Y-81418750D01*
X168849113Y-81280000D01*
X168739880Y-80730849D01*
X168428811Y-80265302D01*
X168046725Y-80010000D01*
X168428811Y-79754698D01*
X168739880Y-79289151D01*
X168849113Y-78740000D01*
X168739880Y-78190849D01*
X168534182Y-77883000D01*
X171320560Y-77883000D01*
X171320560Y-79383000D01*
X171364838Y-79618317D01*
X171503910Y-79834441D01*
X171572006Y-79880969D01*
X171429673Y-80023302D01*
X171333000Y-80256691D01*
X171333000Y-80847250D01*
X171491750Y-81006000D01*
X172466000Y-81006000D01*
X172466000Y-80986000D01*
X172720000Y-80986000D01*
X172720000Y-81006000D01*
X172740000Y-81006000D01*
X172740000Y-81260000D01*
X172720000Y-81260000D01*
X172720000Y-82359250D01*
X172878750Y-82518000D01*
X173344310Y-82518000D01*
X173577699Y-82421327D01*
X173756327Y-82242698D01*
X173822193Y-82083683D01*
X173963189Y-82294698D01*
X174367703Y-82564986D01*
X174150866Y-82667611D01*
X173774959Y-83082577D01*
X173614096Y-83470961D01*
X173736085Y-83693000D01*
X174879000Y-83693000D01*
X174879000Y-83673000D01*
X175133000Y-83673000D01*
X175133000Y-83693000D01*
X176275915Y-83693000D01*
X176397904Y-83470961D01*
X176237041Y-83082577D01*
X175861134Y-82667611D01*
X175644297Y-82564986D01*
X176048811Y-82294698D01*
X176359880Y-81829151D01*
X176469113Y-81280000D01*
X176359880Y-80730849D01*
X176048811Y-80265302D01*
X175666725Y-80010000D01*
X176048811Y-79754698D01*
X176359880Y-79289151D01*
X176469113Y-78740000D01*
X176462744Y-78707978D01*
X179340510Y-78707978D01*
X179340510Y-78772022D01*
X179464928Y-79397514D01*
X179819241Y-79927781D01*
X179942290Y-80010000D01*
X179819241Y-80092219D01*
X179464928Y-80622486D01*
X179340510Y-81247978D01*
X179340510Y-81312022D01*
X179464928Y-81937514D01*
X179678013Y-82256418D01*
X179615811Y-82282183D01*
X179437183Y-82460812D01*
X179340510Y-82694201D01*
X179340510Y-83534250D01*
X179499260Y-83693000D01*
X180848000Y-83693000D01*
X180848000Y-83673000D01*
X181102000Y-83673000D01*
X181102000Y-83693000D01*
X182450740Y-83693000D01*
X182609490Y-83534250D01*
X182609490Y-82694201D01*
X182512817Y-82460812D01*
X182334189Y-82282183D01*
X182271987Y-82256418D01*
X182485072Y-81937514D01*
X182609490Y-81312022D01*
X182609490Y-81247978D01*
X182485072Y-80622486D01*
X182130759Y-80092219D01*
X182007710Y-80010000D01*
X182130759Y-79927781D01*
X182485072Y-79397514D01*
X182609490Y-78772022D01*
X182609490Y-78707978D01*
X182485072Y-78082486D01*
X182130759Y-77552219D01*
X181600492Y-77197906D01*
X180975000Y-77073488D01*
X180349508Y-77197906D01*
X179819241Y-77552219D01*
X179464928Y-78082486D01*
X179340510Y-78707978D01*
X176462744Y-78707978D01*
X176359880Y-78190849D01*
X176048811Y-77725302D01*
X175666725Y-77470000D01*
X176048811Y-77214698D01*
X176359880Y-76749151D01*
X176469113Y-76200000D01*
X176359880Y-75650849D01*
X176048811Y-75185302D01*
X175583264Y-74874233D01*
X175034113Y-74765000D01*
X174977887Y-74765000D01*
X174428736Y-74874233D01*
X173963189Y-75185302D01*
X173652120Y-75650849D01*
X173542887Y-76200000D01*
X173610630Y-76540568D01*
X172915638Y-77235560D01*
X171968000Y-77235560D01*
X171732683Y-77279838D01*
X171516559Y-77418910D01*
X171371569Y-77631110D01*
X171320560Y-77883000D01*
X168534182Y-77883000D01*
X168428811Y-77725302D01*
X168046725Y-77470000D01*
X168428811Y-77214698D01*
X168739880Y-76749151D01*
X168849113Y-76200000D01*
X168739880Y-75650849D01*
X168428811Y-75185302D01*
X167963264Y-74874233D01*
X167414113Y-74765000D01*
X167357887Y-74765000D01*
X166808736Y-74874233D01*
X166343189Y-75185302D01*
X166032120Y-75650849D01*
X165922887Y-76200000D01*
X165987312Y-76523886D01*
X164562599Y-77948599D01*
X164397852Y-78195161D01*
X164340000Y-78486000D01*
X164340000Y-91760198D01*
X161483198Y-94617000D01*
X157413802Y-94617000D01*
X157097000Y-94300198D01*
X157097000Y-93917283D01*
X157536778Y-93623433D01*
X157894670Y-93087810D01*
X158020345Y-92456000D01*
X158463655Y-92456000D01*
X158589330Y-93087810D01*
X158947222Y-93623433D01*
X159482845Y-93981325D01*
X160114655Y-94107000D01*
X160179345Y-94107000D01*
X160811155Y-93981325D01*
X161346778Y-93623433D01*
X161704670Y-93087810D01*
X161830345Y-92456000D01*
X161704670Y-91824190D01*
X161477501Y-91484208D01*
X161614441Y-91396090D01*
X161759431Y-91183890D01*
X161810440Y-90932000D01*
X161810440Y-88900000D01*
X161766162Y-88664683D01*
X161627090Y-88448559D01*
X161414890Y-88303569D01*
X161163000Y-88252560D01*
X159131000Y-88252560D01*
X158895683Y-88296838D01*
X158679559Y-88435910D01*
X158534569Y-88648110D01*
X158483560Y-88900000D01*
X158483560Y-90932000D01*
X158527838Y-91167317D01*
X158666910Y-91383441D01*
X158815837Y-91485198D01*
X158589330Y-91824190D01*
X158463655Y-92456000D01*
X158020345Y-92456000D01*
X157894670Y-91824190D01*
X157667501Y-91484208D01*
X157804441Y-91396090D01*
X157949431Y-91183890D01*
X158000440Y-90932000D01*
X158000440Y-88900000D01*
X157956162Y-88664683D01*
X157817090Y-88448559D01*
X157604890Y-88303569D01*
X157353000Y-88252560D01*
X157097000Y-88252560D01*
X157097000Y-81661000D01*
X157039148Y-81370161D01*
X157039148Y-81370160D01*
X156874401Y-81123599D01*
X154433688Y-78682886D01*
X154498113Y-78359000D01*
X154388880Y-77809849D01*
X154077811Y-77344302D01*
X153695725Y-77089000D01*
X154077811Y-76833698D01*
X154388880Y-76368151D01*
X154498113Y-75819000D01*
X154388880Y-75269849D01*
X154077811Y-74804302D01*
X153673297Y-74534014D01*
X153890134Y-74431389D01*
X154266041Y-74016423D01*
X154426904Y-73628039D01*
X154304915Y-73406000D01*
X153162000Y-73406000D01*
X153162000Y-73426000D01*
X152908000Y-73426000D01*
X152908000Y-73406000D01*
X151765085Y-73406000D01*
X151742450Y-73447200D01*
X151701250Y-73406000D01*
X150602000Y-73406000D01*
X150348000Y-73406000D01*
X150328000Y-73406000D01*
X150328000Y-73152000D01*
X150348000Y-73152000D01*
X150348000Y-72177750D01*
X150602000Y-72177750D01*
X150602000Y-73152000D01*
X151701250Y-73152000D01*
X151742450Y-73110800D01*
X151765085Y-73152000D01*
X152908000Y-73152000D01*
X152908000Y-72008371D01*
X153162000Y-72008371D01*
X153162000Y-73152000D01*
X154304915Y-73152000D01*
X154426904Y-72929961D01*
X154266041Y-72541577D01*
X153890134Y-72126611D01*
X153384041Y-71887086D01*
X153162000Y-72008371D01*
X152908000Y-72008371D01*
X152685959Y-71887086D01*
X152179866Y-72126611D01*
X151846363Y-72494767D01*
X151763327Y-72294301D01*
X151584698Y-72115673D01*
X151351309Y-72019000D01*
X150760750Y-72019000D01*
X150602000Y-72177750D01*
X150348000Y-72177750D01*
X150189250Y-72019000D01*
X149598691Y-72019000D01*
X149365302Y-72115673D01*
X149224064Y-72256910D01*
X149189090Y-72202559D01*
X148976890Y-72057569D01*
X148725000Y-72006560D01*
X147225000Y-72006560D01*
X146989683Y-72050838D01*
X146773559Y-72189910D01*
X146628569Y-72402110D01*
X146610270Y-72492473D01*
X146457811Y-72264302D01*
X145992264Y-71953233D01*
X145443113Y-71844000D01*
X145386887Y-71844000D01*
X144837736Y-71953233D01*
X144397000Y-72247724D01*
X144397000Y-71178167D01*
X155401838Y-71178167D01*
X155543883Y-71521943D01*
X155806673Y-71785192D01*
X156150201Y-71927838D01*
X156522167Y-71928162D01*
X156865943Y-71786117D01*
X157129192Y-71523327D01*
X157271838Y-71179799D01*
X157271879Y-71132923D01*
X167906680Y-60498122D01*
X167952167Y-60498162D01*
X168295943Y-60356117D01*
X168559192Y-60093327D01*
X168701838Y-59749799D01*
X168702162Y-59377833D01*
X168560117Y-59034057D01*
X168297327Y-58770808D01*
X167953799Y-58628162D01*
X167581833Y-58627838D01*
X167238057Y-58769883D01*
X166974808Y-59032673D01*
X166832162Y-59376201D01*
X166832121Y-59423077D01*
X156197320Y-70057878D01*
X156151833Y-70057838D01*
X155808057Y-70199883D01*
X155544808Y-70462673D01*
X155402162Y-70806201D01*
X155401838Y-71178167D01*
X144397000Y-71178167D01*
X144397000Y-66862802D01*
X150761680Y-60498122D01*
X150807167Y-60498162D01*
X151150943Y-60356117D01*
X151414192Y-60093327D01*
X151556838Y-59749799D01*
X151557162Y-59377833D01*
X151415117Y-59034057D01*
X151152327Y-58770808D01*
X150808799Y-58628162D01*
X150436833Y-58627838D01*
X150093057Y-58769883D01*
X149829808Y-59032673D01*
X149687162Y-59376201D01*
X149687121Y-59423077D01*
X143099599Y-66010599D01*
X142934852Y-66257161D01*
X142877000Y-66548000D01*
X142877000Y-69920198D01*
X137031000Y-64074198D01*
X137031000Y-60125463D01*
X137063192Y-60093327D01*
X137205838Y-59749799D01*
X137206162Y-59377833D01*
X137064117Y-59034057D01*
X136801327Y-58770808D01*
X136457799Y-58628162D01*
X136085833Y-58627838D01*
X135742057Y-58769883D01*
X135478808Y-59032673D01*
X135336162Y-59376201D01*
X135335838Y-59748167D01*
X127964000Y-59748167D01*
X127964000Y-34663305D01*
X135354674Y-34663305D01*
X135641043Y-35356372D01*
X136170839Y-35887093D01*
X136863405Y-36174672D01*
X137613305Y-36175326D01*
X138306372Y-35888957D01*
X138837093Y-35359161D01*
X139124672Y-34666595D01*
X139125326Y-33916695D01*
X138838957Y-33223628D01*
X138655650Y-33040000D01*
X140342560Y-33040000D01*
X140342560Y-35540000D01*
X140386838Y-35775317D01*
X140525910Y-35991441D01*
X140738110Y-36136431D01*
X140990000Y-36187440D01*
X143490000Y-36187440D01*
X143725317Y-36143162D01*
X143941441Y-36004090D01*
X144086431Y-35791890D01*
X144137440Y-35540000D01*
X144137440Y-34663305D01*
X152753674Y-34663305D01*
X153040043Y-35356372D01*
X153569839Y-35887093D01*
X154262405Y-36174672D01*
X155012305Y-36175326D01*
X155705372Y-35888957D01*
X156236093Y-35359161D01*
X156523672Y-34666595D01*
X156524326Y-33916695D01*
X156237957Y-33223628D01*
X156054650Y-33040000D01*
X157741560Y-33040000D01*
X157741560Y-35540000D01*
X157785838Y-35775317D01*
X157924910Y-35991441D01*
X158137110Y-36136431D01*
X158389000Y-36187440D01*
X160889000Y-36187440D01*
X161124317Y-36143162D01*
X161340441Y-36004090D01*
X161485431Y-35791890D01*
X161536440Y-35540000D01*
X161536440Y-34663305D01*
X170152674Y-34663305D01*
X170439043Y-35356372D01*
X170968839Y-35887093D01*
X171661405Y-36174672D01*
X172411305Y-36175326D01*
X173104372Y-35888957D01*
X173635093Y-35359161D01*
X173922672Y-34666595D01*
X173923326Y-33916695D01*
X173636957Y-33223628D01*
X173453650Y-33040000D01*
X175140560Y-33040000D01*
X175140560Y-35540000D01*
X175184838Y-35775317D01*
X175323910Y-35991441D01*
X175536110Y-36136431D01*
X175788000Y-36187440D01*
X178288000Y-36187440D01*
X178523317Y-36143162D01*
X178739441Y-36004090D01*
X178884431Y-35791890D01*
X178935440Y-35540000D01*
X178935440Y-33040000D01*
X178891162Y-32804683D01*
X178752090Y-32588559D01*
X178539890Y-32443569D01*
X178288000Y-32392560D01*
X175788000Y-32392560D01*
X175552683Y-32436838D01*
X175336559Y-32575910D01*
X175191569Y-32788110D01*
X175140560Y-33040000D01*
X173453650Y-33040000D01*
X173107161Y-32692907D01*
X172414595Y-32405328D01*
X171664695Y-32404674D01*
X170971628Y-32691043D01*
X170440907Y-33220839D01*
X170153328Y-33913405D01*
X170152674Y-34663305D01*
X161536440Y-34663305D01*
X161536440Y-33040000D01*
X161492162Y-32804683D01*
X161353090Y-32588559D01*
X161140890Y-32443569D01*
X160889000Y-32392560D01*
X158389000Y-32392560D01*
X158153683Y-32436838D01*
X157937559Y-32575910D01*
X157792569Y-32788110D01*
X157741560Y-33040000D01*
X156054650Y-33040000D01*
X155708161Y-32692907D01*
X155015595Y-32405328D01*
X154265695Y-32404674D01*
X153572628Y-32691043D01*
X153041907Y-33220839D01*
X152754328Y-33913405D01*
X152753674Y-34663305D01*
X144137440Y-34663305D01*
X144137440Y-33040000D01*
X144093162Y-32804683D01*
X143954090Y-32588559D01*
X143741890Y-32443569D01*
X143490000Y-32392560D01*
X140990000Y-32392560D01*
X140754683Y-32436838D01*
X140538559Y-32575910D01*
X140393569Y-32788110D01*
X140342560Y-33040000D01*
X138655650Y-33040000D01*
X138309161Y-32692907D01*
X137616595Y-32405328D01*
X136866695Y-32404674D01*
X136173628Y-32691043D01*
X135642907Y-33220839D01*
X135355328Y-33913405D01*
X135354674Y-34663305D01*
X127964000Y-34663305D01*
X127964000Y-31643172D01*
X128269538Y-31643172D01*
X128674709Y-32623761D01*
X129424293Y-33374655D01*
X130404173Y-33781536D01*
X131465172Y-33782462D01*
X132445761Y-33377291D01*
X133196655Y-32627707D01*
X133603536Y-31647827D01*
X133603540Y-31643172D01*
X180847538Y-31643172D01*
X181252709Y-32623761D01*
X182002293Y-33374655D01*
X182982173Y-33781536D01*
X184043172Y-33782462D01*
X185023761Y-33377291D01*
X185774655Y-32627707D01*
X186181536Y-31647827D01*
X186182462Y-30586828D01*
X185777291Y-29606239D01*
X185027707Y-28855345D01*
X184047827Y-28448464D01*
X182986828Y-28447538D01*
X182006239Y-28852709D01*
X181255345Y-29602293D01*
X180848464Y-30582173D01*
X180847538Y-31643172D01*
X133603540Y-31643172D01*
X133604462Y-30586828D01*
X133199291Y-29606239D01*
X132449707Y-28855345D01*
X131469827Y-28448464D01*
X130408828Y-28447538D01*
X129428239Y-28852709D01*
X128677345Y-29602293D01*
X128270464Y-30582173D01*
X128269538Y-31643172D01*
X127964000Y-31643172D01*
X127964000Y-30549931D01*
X128164488Y-29542007D01*
X128695817Y-28746817D01*
X129491007Y-28215488D01*
X130498931Y-28015000D01*
X183329994Y-28015000D01*
X184601098Y-28224082D01*
X184601098Y-28224082D01*
G37*
X184601098Y-28224082D02*
X185624731Y-28859773D01*
X186327176Y-29838800D01*
X186615000Y-31069895D01*
X186615000Y-105340069D01*
X186366175Y-106590995D01*
X185697196Y-107592196D01*
X184695995Y-108261176D01*
X183445069Y-108510000D01*
X130739177Y-108510000D01*
X129660830Y-108338292D01*
X128802766Y-107811493D01*
X128211616Y-106996426D01*
X127964000Y-105961266D01*
X127964000Y-105811172D01*
X128904538Y-105811172D01*
X129309709Y-106791761D01*
X130059293Y-107542655D01*
X131039173Y-107949536D01*
X132100172Y-107950462D01*
X133080761Y-107545291D01*
X133831655Y-106795707D01*
X134238536Y-105815827D01*
X134238540Y-105811172D01*
X180847538Y-105811172D01*
X181252709Y-106791761D01*
X182002293Y-107542655D01*
X182982173Y-107949536D01*
X184043172Y-107950462D01*
X185023761Y-107545291D01*
X185774655Y-106795707D01*
X186181536Y-105815827D01*
X186182462Y-104754828D01*
X185777291Y-103774239D01*
X185027707Y-103023345D01*
X184047827Y-102616464D01*
X182986828Y-102615538D01*
X182006239Y-103020709D01*
X181255345Y-103770293D01*
X180848464Y-104750173D01*
X180847538Y-105811172D01*
X134238540Y-105811172D01*
X134239462Y-104754828D01*
X133834291Y-103774239D01*
X133084707Y-103023345D01*
X132104827Y-102616464D01*
X131043828Y-102615538D01*
X130063239Y-103020709D01*
X129312345Y-103770293D01*
X128905464Y-104750173D01*
X128904538Y-105811172D01*
X127964000Y-105811172D01*
X127964000Y-101504750D01*
X137053000Y-101504750D01*
X137053000Y-102595310D01*
X137149673Y-102828699D01*
X137328302Y-103007327D01*
X137561691Y-103104000D01*
X138652250Y-103104000D01*
X138811000Y-102945250D01*
X138811000Y-101346000D01*
X139065000Y-101346000D01*
X139065000Y-102945250D01*
X139223750Y-103104000D01*
X140314309Y-103104000D01*
X140547698Y-103007327D01*
X140726327Y-102828699D01*
X140823000Y-102595310D01*
X140823000Y-101592305D01*
X142052674Y-101592305D01*
X142339043Y-102285372D01*
X142868839Y-102816093D01*
X143561405Y-103103672D01*
X144311305Y-103104326D01*
X145004372Y-102817957D01*
X145535093Y-102288161D01*
X145822672Y-101595595D01*
X145823000Y-101219000D01*
X159524960Y-101219000D01*
X159524960Y-103251000D01*
X159569238Y-103486317D01*
X159708310Y-103702441D01*
X159920510Y-103847431D01*
X160172400Y-103898440D01*
X161899600Y-103898440D01*
X162134917Y-103854162D01*
X162351041Y-103715090D01*
X162496031Y-103502890D01*
X162515232Y-103408073D01*
X162673964Y-103585732D01*
X163201209Y-103839709D01*
X163216974Y-103842358D01*
X163449000Y-103721217D01*
X163449000Y-102362000D01*
X163429000Y-102362000D01*
X163429000Y-102108000D01*
X163449000Y-102108000D01*
X163449000Y-100748783D01*
X163703000Y-100748783D01*
X163703000Y-102108000D01*
X163723000Y-102108000D01*
X163723000Y-102362000D01*
X163703000Y-102362000D01*
X163703000Y-103721217D01*
X163935026Y-103842358D01*
X163950791Y-103839709D01*
X164478036Y-103585732D01*
X164849539Y-103169931D01*
X165056330Y-103479415D01*
X165542511Y-103804271D01*
X166116000Y-103918345D01*
X166689489Y-103804271D01*
X167175670Y-103479415D01*
X167386000Y-103164634D01*
X167596330Y-103479415D01*
X168082511Y-103804271D01*
X168656000Y-103918345D01*
X169229489Y-103804271D01*
X169715670Y-103479415D01*
X169926000Y-103164634D01*
X170136330Y-103479415D01*
X170622511Y-103804271D01*
X171196000Y-103918345D01*
X171769489Y-103804271D01*
X172255670Y-103479415D01*
X172466000Y-103164634D01*
X172676330Y-103479415D01*
X173162511Y-103804271D01*
X173736000Y-103918345D01*
X174309489Y-103804271D01*
X174795670Y-103479415D01*
X175120526Y-102993234D01*
X175234600Y-102419745D01*
X175234600Y-102050255D01*
X175120526Y-101476766D01*
X174795670Y-100990585D01*
X174309489Y-100665729D01*
X173736000Y-100551655D01*
X173162511Y-100665729D01*
X172676330Y-100990585D01*
X172466000Y-101305366D01*
X172255670Y-100990585D01*
X171769489Y-100665729D01*
X171196000Y-100551655D01*
X170622511Y-100665729D01*
X170136330Y-100990585D01*
X169926000Y-101305366D01*
X169715670Y-100990585D01*
X169229489Y-100665729D01*
X168656000Y-100551655D01*
X168082511Y-100665729D01*
X167596330Y-100990585D01*
X167386000Y-101305366D01*
X167175670Y-100990585D01*
X166689489Y-100665729D01*
X166116000Y-100551655D01*
X165542511Y-100665729D01*
X165056330Y-100990585D01*
X164849539Y-101300069D01*
X164478036Y-100884268D01*
X163950791Y-100630291D01*
X163935026Y-100627642D01*
X163703000Y-100748783D01*
X163449000Y-100748783D01*
X163216974Y-100627642D01*
X163201209Y-100630291D01*
X162673964Y-100884268D01*
X162517093Y-101059845D01*
X162502762Y-100983683D01*
X162363690Y-100767559D01*
X162151490Y-100622569D01*
X161899600Y-100571560D01*
X160172400Y-100571560D01*
X159937083Y-100615838D01*
X159720959Y-100754910D01*
X159575969Y-100967110D01*
X159524960Y-101219000D01*
X145823000Y-101219000D01*
X145823326Y-100845695D01*
X145536957Y-100152628D01*
X145007161Y-99621907D01*
X144314595Y-99334328D01*
X143564695Y-99333674D01*
X142871628Y-99620043D01*
X142340907Y-100149839D01*
X142053328Y-100842405D01*
X142052674Y-101592305D01*
X140823000Y-101592305D01*
X140823000Y-101504750D01*
X140664250Y-101346000D01*
X139065000Y-101346000D01*
X138811000Y-101346000D01*
X137211750Y-101346000D01*
X137053000Y-101504750D01*
X127964000Y-101504750D01*
X127964000Y-99842690D01*
X137053000Y-99842690D01*
X137053000Y-100933250D01*
X137211750Y-101092000D01*
X138811000Y-101092000D01*
X138811000Y-99492750D01*
X139065000Y-99492750D01*
X139065000Y-101092000D01*
X140664250Y-101092000D01*
X140823000Y-100933250D01*
X140823000Y-99842690D01*
X140726327Y-99609301D01*
X140547698Y-99430673D01*
X140314309Y-99334000D01*
X139223750Y-99334000D01*
X139065000Y-99492750D01*
X138811000Y-99492750D01*
X138652250Y-99334000D01*
X137561691Y-99334000D01*
X137328302Y-99430673D01*
X137149673Y-99609301D01*
X137053000Y-99842690D01*
X127964000Y-99842690D01*
X127964000Y-59748167D01*
X135335838Y-59748167D01*
X135477883Y-60091943D01*
X135511000Y-60125118D01*
X135511000Y-64389000D01*
X135568852Y-64679839D01*
X135733599Y-64926401D01*
X142242000Y-71434802D01*
X142242000Y-75946000D01*
X142299852Y-76236839D01*
X142464599Y-76483401D01*
X144016312Y-78035114D01*
X143951887Y-78359000D01*
X144061120Y-78908151D01*
X144372189Y-79373698D01*
X144754275Y-79629000D01*
X144372189Y-79884302D01*
X144061120Y-80349849D01*
X143951887Y-80899000D01*
X144061120Y-81448151D01*
X144372189Y-81913698D01*
X144837736Y-82224767D01*
X145386887Y-82334000D01*
X145443113Y-82334000D01*
X145992264Y-82224767D01*
X146457811Y-81913698D01*
X146768880Y-81448151D01*
X146878113Y-80899000D01*
X146768880Y-80349849D01*
X146457811Y-79884302D01*
X146075725Y-79629000D01*
X146457811Y-79373698D01*
X146768880Y-78908151D01*
X146878113Y-78359000D01*
X146768880Y-77809849D01*
X146457811Y-77344302D01*
X146075725Y-77089000D01*
X146457811Y-76833698D01*
X146768880Y-76368151D01*
X146878113Y-75819000D01*
X146768880Y-75269849D01*
X146457811Y-74804302D01*
X146075725Y-74549000D01*
X146457811Y-74293698D01*
X146608462Y-74068232D01*
X146621838Y-74139317D01*
X146760910Y-74355441D01*
X146973110Y-74500431D01*
X147225000Y-74551440D01*
X148725000Y-74551440D01*
X148960317Y-74507162D01*
X149176441Y-74368090D01*
X149222969Y-74299994D01*
X149365302Y-74442327D01*
X149598691Y-74539000D01*
X150189250Y-74539000D01*
X150348000Y-74380250D01*
X150348000Y-73406000D01*
X150602000Y-73406000D01*
X150602000Y-74380250D01*
X150760750Y-74539000D01*
X151351309Y-74539000D01*
X151584698Y-74442327D01*
X151763327Y-74263699D01*
X151846363Y-74063233D01*
X152179866Y-74431389D01*
X152396703Y-74534014D01*
X151992189Y-74804302D01*
X151681120Y-75269849D01*
X151571887Y-75819000D01*
X151636312Y-76142886D01*
X150846599Y-76932599D01*
X150681852Y-77179161D01*
X150624000Y-77470000D01*
X150624000Y-81407000D01*
X150681852Y-81697839D01*
X150846599Y-81944401D01*
X151767000Y-82864802D01*
X151767000Y-88252560D01*
X151511000Y-88252560D01*
X151275683Y-88296838D01*
X151059559Y-88435910D01*
X150914569Y-88648110D01*
X150863560Y-88900000D01*
X150863560Y-90932000D01*
X150907838Y-91167317D01*
X151046910Y-91383441D01*
X151195837Y-91485198D01*
X150969330Y-91824190D01*
X150843655Y-92456000D01*
X150969330Y-93087810D01*
X151327222Y-93623433D01*
X151767000Y-93917283D01*
X151767000Y-94615000D01*
X151824852Y-94905839D01*
X151989599Y-95152401D01*
X153386599Y-96549401D01*
X153633160Y-96714148D01*
X153924000Y-96772000D01*
X162179000Y-96772000D01*
X162469839Y-96714148D01*
X162716401Y-96549401D01*
X167923401Y-91342401D01*
X168088148Y-91095839D01*
X168146000Y-90805000D01*
X168146000Y-85023667D01*
X168428811Y-84834698D01*
X168739880Y-84369151D01*
X168779684Y-84169039D01*
X173614096Y-84169039D01*
X173774959Y-84557423D01*
X174150866Y-84972389D01*
X174656959Y-85211914D01*
X174879000Y-85090629D01*
X174879000Y-83947000D01*
X175133000Y-83947000D01*
X175133000Y-85090629D01*
X175355041Y-85211914D01*
X175861134Y-84972389D01*
X176237041Y-84557423D01*
X176397904Y-84169039D01*
X176363133Y-84105750D01*
X179340510Y-84105750D01*
X179340510Y-84945799D01*
X179437183Y-85179188D01*
X179615811Y-85357817D01*
X179849200Y-85454490D01*
X180689250Y-85454490D01*
X180848000Y-85295740D01*
X180848000Y-83947000D01*
X181102000Y-83947000D01*
X181102000Y-85295740D01*
X181260750Y-85454490D01*
X182100800Y-85454490D01*
X182334189Y-85357817D01*
X182512817Y-85179188D01*
X182609490Y-84945799D01*
X182609490Y-84105750D01*
X182450740Y-83947000D01*
X181102000Y-83947000D01*
X180848000Y-83947000D01*
X179499260Y-83947000D01*
X179340510Y-84105750D01*
X176363133Y-84105750D01*
X176275915Y-83947000D01*
X175133000Y-83947000D01*
X174879000Y-83947000D01*
X173736085Y-83947000D01*
X173614096Y-84169039D01*
X168779684Y-84169039D01*
X168849113Y-83820000D01*
X168739880Y-83270849D01*
X168428811Y-82805302D01*
X168046725Y-82550000D01*
X168428811Y-82294698D01*
X168739880Y-81829151D01*
X168821513Y-81418750D01*
X171333000Y-81418750D01*
X171333000Y-82009309D01*
X171429673Y-82242698D01*
X171608301Y-82421327D01*
X171841690Y-82518000D01*
X172307250Y-82518000D01*
X172466000Y-82359250D01*
X172466000Y-81260000D01*
X171491750Y-81260000D01*
X171333000Y-81418750D01*
X168821513Y-81418750D01*
X168849113Y-81280000D01*
X168739880Y-80730849D01*
X168428811Y-80265302D01*
X168046725Y-80010000D01*
X168428811Y-79754698D01*
X168739880Y-79289151D01*
X168849113Y-78740000D01*
X168739880Y-78190849D01*
X168534182Y-77883000D01*
X171320560Y-77883000D01*
X171320560Y-79383000D01*
X171364838Y-79618317D01*
X171503910Y-79834441D01*
X171572006Y-79880969D01*
X171429673Y-80023302D01*
X171333000Y-80256691D01*
X171333000Y-80847250D01*
X171491750Y-81006000D01*
X172466000Y-81006000D01*
X172466000Y-80986000D01*
X172720000Y-80986000D01*
X172720000Y-81006000D01*
X172740000Y-81006000D01*
X172740000Y-81260000D01*
X172720000Y-81260000D01*
X172720000Y-82359250D01*
X172878750Y-82518000D01*
X173344310Y-82518000D01*
X173577699Y-82421327D01*
X173756327Y-82242698D01*
X173822193Y-82083683D01*
X173963189Y-82294698D01*
X174367703Y-82564986D01*
X174150866Y-82667611D01*
X173774959Y-83082577D01*
X173614096Y-83470961D01*
X173736085Y-83693000D01*
X174879000Y-83693000D01*
X174879000Y-83673000D01*
X175133000Y-83673000D01*
X175133000Y-83693000D01*
X176275915Y-83693000D01*
X176397904Y-83470961D01*
X176237041Y-83082577D01*
X175861134Y-82667611D01*
X175644297Y-82564986D01*
X176048811Y-82294698D01*
X176359880Y-81829151D01*
X176469113Y-81280000D01*
X176359880Y-80730849D01*
X176048811Y-80265302D01*
X175666725Y-80010000D01*
X176048811Y-79754698D01*
X176359880Y-79289151D01*
X176469113Y-78740000D01*
X176462744Y-78707978D01*
X179340510Y-78707978D01*
X179340510Y-78772022D01*
X179464928Y-79397514D01*
X179819241Y-79927781D01*
X179942290Y-80010000D01*
X179819241Y-80092219D01*
X179464928Y-80622486D01*
X179340510Y-81247978D01*
X179340510Y-81312022D01*
X179464928Y-81937514D01*
X179678013Y-82256418D01*
X179615811Y-82282183D01*
X179437183Y-82460812D01*
X179340510Y-82694201D01*
X179340510Y-83534250D01*
X179499260Y-83693000D01*
X180848000Y-83693000D01*
X180848000Y-83673000D01*
X181102000Y-83673000D01*
X181102000Y-83693000D01*
X182450740Y-83693000D01*
X182609490Y-83534250D01*
X182609490Y-82694201D01*
X182512817Y-82460812D01*
X182334189Y-82282183D01*
X182271987Y-82256418D01*
X182485072Y-81937514D01*
X182609490Y-81312022D01*
X182609490Y-81247978D01*
X182485072Y-80622486D01*
X182130759Y-80092219D01*
X182007710Y-80010000D01*
X182130759Y-79927781D01*
X182485072Y-79397514D01*
X182609490Y-78772022D01*
X182609490Y-78707978D01*
X182485072Y-78082486D01*
X182130759Y-77552219D01*
X181600492Y-77197906D01*
X180975000Y-77073488D01*
X180349508Y-77197906D01*
X179819241Y-77552219D01*
X179464928Y-78082486D01*
X179340510Y-78707978D01*
X176462744Y-78707978D01*
X176359880Y-78190849D01*
X176048811Y-77725302D01*
X175666725Y-77470000D01*
X176048811Y-77214698D01*
X176359880Y-76749151D01*
X176469113Y-76200000D01*
X176359880Y-75650849D01*
X176048811Y-75185302D01*
X175583264Y-74874233D01*
X175034113Y-74765000D01*
X174977887Y-74765000D01*
X174428736Y-74874233D01*
X173963189Y-75185302D01*
X173652120Y-75650849D01*
X173542887Y-76200000D01*
X173610630Y-76540568D01*
X172915638Y-77235560D01*
X171968000Y-77235560D01*
X171732683Y-77279838D01*
X171516559Y-77418910D01*
X171371569Y-77631110D01*
X171320560Y-77883000D01*
X168534182Y-77883000D01*
X168428811Y-77725302D01*
X168046725Y-77470000D01*
X168428811Y-77214698D01*
X168739880Y-76749151D01*
X168849113Y-76200000D01*
X168739880Y-75650849D01*
X168428811Y-75185302D01*
X167963264Y-74874233D01*
X167414113Y-74765000D01*
X167357887Y-74765000D01*
X166808736Y-74874233D01*
X166343189Y-75185302D01*
X166032120Y-75650849D01*
X165922887Y-76200000D01*
X165987312Y-76523886D01*
X164562599Y-77948599D01*
X164397852Y-78195161D01*
X164340000Y-78486000D01*
X164340000Y-91760198D01*
X161483198Y-94617000D01*
X157413802Y-94617000D01*
X157097000Y-94300198D01*
X157097000Y-93917283D01*
X157536778Y-93623433D01*
X157894670Y-93087810D01*
X158020345Y-92456000D01*
X158463655Y-92456000D01*
X158589330Y-93087810D01*
X158947222Y-93623433D01*
X159482845Y-93981325D01*
X160114655Y-94107000D01*
X160179345Y-94107000D01*
X160811155Y-93981325D01*
X161346778Y-93623433D01*
X161704670Y-93087810D01*
X161830345Y-92456000D01*
X161704670Y-91824190D01*
X161477501Y-91484208D01*
X161614441Y-91396090D01*
X161759431Y-91183890D01*
X161810440Y-90932000D01*
X161810440Y-88900000D01*
X161766162Y-88664683D01*
X161627090Y-88448559D01*
X161414890Y-88303569D01*
X161163000Y-88252560D01*
X159131000Y-88252560D01*
X158895683Y-88296838D01*
X158679559Y-88435910D01*
X158534569Y-88648110D01*
X158483560Y-88900000D01*
X158483560Y-90932000D01*
X158527838Y-91167317D01*
X158666910Y-91383441D01*
X158815837Y-91485198D01*
X158589330Y-91824190D01*
X158463655Y-92456000D01*
X158020345Y-92456000D01*
X157894670Y-91824190D01*
X157667501Y-91484208D01*
X157804441Y-91396090D01*
X157949431Y-91183890D01*
X158000440Y-90932000D01*
X158000440Y-88900000D01*
X157956162Y-88664683D01*
X157817090Y-88448559D01*
X157604890Y-88303569D01*
X157353000Y-88252560D01*
X157097000Y-88252560D01*
X157097000Y-81661000D01*
X157039148Y-81370161D01*
X157039148Y-81370160D01*
X156874401Y-81123599D01*
X154433688Y-78682886D01*
X154498113Y-78359000D01*
X154388880Y-77809849D01*
X154077811Y-77344302D01*
X153695725Y-77089000D01*
X154077811Y-76833698D01*
X154388880Y-76368151D01*
X154498113Y-75819000D01*
X154388880Y-75269849D01*
X154077811Y-74804302D01*
X153673297Y-74534014D01*
X153890134Y-74431389D01*
X154266041Y-74016423D01*
X154426904Y-73628039D01*
X154304915Y-73406000D01*
X153162000Y-73406000D01*
X153162000Y-73426000D01*
X152908000Y-73426000D01*
X152908000Y-73406000D01*
X151765085Y-73406000D01*
X151742450Y-73447200D01*
X151701250Y-73406000D01*
X150602000Y-73406000D01*
X150348000Y-73406000D01*
X150328000Y-73406000D01*
X150328000Y-73152000D01*
X150348000Y-73152000D01*
X150348000Y-72177750D01*
X150602000Y-72177750D01*
X150602000Y-73152000D01*
X151701250Y-73152000D01*
X151742450Y-73110800D01*
X151765085Y-73152000D01*
X152908000Y-73152000D01*
X152908000Y-72008371D01*
X153162000Y-72008371D01*
X153162000Y-73152000D01*
X154304915Y-73152000D01*
X154426904Y-72929961D01*
X154266041Y-72541577D01*
X153890134Y-72126611D01*
X153384041Y-71887086D01*
X153162000Y-72008371D01*
X152908000Y-72008371D01*
X152685959Y-71887086D01*
X152179866Y-72126611D01*
X151846363Y-72494767D01*
X151763327Y-72294301D01*
X151584698Y-72115673D01*
X151351309Y-72019000D01*
X150760750Y-72019000D01*
X150602000Y-72177750D01*
X150348000Y-72177750D01*
X150189250Y-72019000D01*
X149598691Y-72019000D01*
X149365302Y-72115673D01*
X149224064Y-72256910D01*
X149189090Y-72202559D01*
X148976890Y-72057569D01*
X148725000Y-72006560D01*
X147225000Y-72006560D01*
X146989683Y-72050838D01*
X146773559Y-72189910D01*
X146628569Y-72402110D01*
X146610270Y-72492473D01*
X146457811Y-72264302D01*
X145992264Y-71953233D01*
X145443113Y-71844000D01*
X145386887Y-71844000D01*
X144837736Y-71953233D01*
X144397000Y-72247724D01*
X144397000Y-71178167D01*
X155401838Y-71178167D01*
X155543883Y-71521943D01*
X155806673Y-71785192D01*
X156150201Y-71927838D01*
X156522167Y-71928162D01*
X156865943Y-71786117D01*
X157129192Y-71523327D01*
X157271838Y-71179799D01*
X157271879Y-71132923D01*
X167906680Y-60498122D01*
X167952167Y-60498162D01*
X168295943Y-60356117D01*
X168559192Y-60093327D01*
X168701838Y-59749799D01*
X168702162Y-59377833D01*
X168560117Y-59034057D01*
X168297327Y-58770808D01*
X167953799Y-58628162D01*
X167581833Y-58627838D01*
X167238057Y-58769883D01*
X166974808Y-59032673D01*
X166832162Y-59376201D01*
X166832121Y-59423077D01*
X156197320Y-70057878D01*
X156151833Y-70057838D01*
X155808057Y-70199883D01*
X155544808Y-70462673D01*
X155402162Y-70806201D01*
X155401838Y-71178167D01*
X144397000Y-71178167D01*
X144397000Y-66862802D01*
X150761680Y-60498122D01*
X150807167Y-60498162D01*
X151150943Y-60356117D01*
X151414192Y-60093327D01*
X151556838Y-59749799D01*
X151557162Y-59377833D01*
X151415117Y-59034057D01*
X151152327Y-58770808D01*
X150808799Y-58628162D01*
X150436833Y-58627838D01*
X150093057Y-58769883D01*
X149829808Y-59032673D01*
X149687162Y-59376201D01*
X149687121Y-59423077D01*
X143099599Y-66010599D01*
X142934852Y-66257161D01*
X142877000Y-66548000D01*
X142877000Y-69920198D01*
X137031000Y-64074198D01*
X137031000Y-60125463D01*
X137063192Y-60093327D01*
X137205838Y-59749799D01*
X137206162Y-59377833D01*
X137064117Y-59034057D01*
X136801327Y-58770808D01*
X136457799Y-58628162D01*
X136085833Y-58627838D01*
X135742057Y-58769883D01*
X135478808Y-59032673D01*
X135336162Y-59376201D01*
X135335838Y-59748167D01*
X127964000Y-59748167D01*
X127964000Y-34663305D01*
X135354674Y-34663305D01*
X135641043Y-35356372D01*
X136170839Y-35887093D01*
X136863405Y-36174672D01*
X137613305Y-36175326D01*
X138306372Y-35888957D01*
X138837093Y-35359161D01*
X139124672Y-34666595D01*
X139125326Y-33916695D01*
X138838957Y-33223628D01*
X138655650Y-33040000D01*
X140342560Y-33040000D01*
X140342560Y-35540000D01*
X140386838Y-35775317D01*
X140525910Y-35991441D01*
X140738110Y-36136431D01*
X140990000Y-36187440D01*
X143490000Y-36187440D01*
X143725317Y-36143162D01*
X143941441Y-36004090D01*
X144086431Y-35791890D01*
X144137440Y-35540000D01*
X144137440Y-34663305D01*
X152753674Y-34663305D01*
X153040043Y-35356372D01*
X153569839Y-35887093D01*
X154262405Y-36174672D01*
X155012305Y-36175326D01*
X155705372Y-35888957D01*
X156236093Y-35359161D01*
X156523672Y-34666595D01*
X156524326Y-33916695D01*
X156237957Y-33223628D01*
X156054650Y-33040000D01*
X157741560Y-33040000D01*
X157741560Y-35540000D01*
X157785838Y-35775317D01*
X157924910Y-35991441D01*
X158137110Y-36136431D01*
X158389000Y-36187440D01*
X160889000Y-36187440D01*
X161124317Y-36143162D01*
X161340441Y-36004090D01*
X161485431Y-35791890D01*
X161536440Y-35540000D01*
X161536440Y-34663305D01*
X170152674Y-34663305D01*
X170439043Y-35356372D01*
X170968839Y-35887093D01*
X171661405Y-36174672D01*
X172411305Y-36175326D01*
X173104372Y-35888957D01*
X173635093Y-35359161D01*
X173922672Y-34666595D01*
X173923326Y-33916695D01*
X173636957Y-33223628D01*
X173453650Y-33040000D01*
X175140560Y-33040000D01*
X175140560Y-35540000D01*
X175184838Y-35775317D01*
X175323910Y-35991441D01*
X175536110Y-36136431D01*
X175788000Y-36187440D01*
X178288000Y-36187440D01*
X178523317Y-36143162D01*
X178739441Y-36004090D01*
X178884431Y-35791890D01*
X178935440Y-35540000D01*
X178935440Y-33040000D01*
X178891162Y-32804683D01*
X178752090Y-32588559D01*
X178539890Y-32443569D01*
X178288000Y-32392560D01*
X175788000Y-32392560D01*
X175552683Y-32436838D01*
X175336559Y-32575910D01*
X175191569Y-32788110D01*
X175140560Y-33040000D01*
X173453650Y-33040000D01*
X173107161Y-32692907D01*
X172414595Y-32405328D01*
X171664695Y-32404674D01*
X170971628Y-32691043D01*
X170440907Y-33220839D01*
X170153328Y-33913405D01*
X170152674Y-34663305D01*
X161536440Y-34663305D01*
X161536440Y-33040000D01*
X161492162Y-32804683D01*
X161353090Y-32588559D01*
X161140890Y-32443569D01*
X160889000Y-32392560D01*
X158389000Y-32392560D01*
X158153683Y-32436838D01*
X157937559Y-32575910D01*
X157792569Y-32788110D01*
X157741560Y-33040000D01*
X156054650Y-33040000D01*
X155708161Y-32692907D01*
X155015595Y-32405328D01*
X154265695Y-32404674D01*
X153572628Y-32691043D01*
X153041907Y-33220839D01*
X152754328Y-33913405D01*
X152753674Y-34663305D01*
X144137440Y-34663305D01*
X144137440Y-33040000D01*
X144093162Y-32804683D01*
X143954090Y-32588559D01*
X143741890Y-32443569D01*
X143490000Y-32392560D01*
X140990000Y-32392560D01*
X140754683Y-32436838D01*
X140538559Y-32575910D01*
X140393569Y-32788110D01*
X140342560Y-33040000D01*
X138655650Y-33040000D01*
X138309161Y-32692907D01*
X137616595Y-32405328D01*
X136866695Y-32404674D01*
X136173628Y-32691043D01*
X135642907Y-33220839D01*
X135355328Y-33913405D01*
X135354674Y-34663305D01*
X127964000Y-34663305D01*
X127964000Y-31643172D01*
X128269538Y-31643172D01*
X128674709Y-32623761D01*
X129424293Y-33374655D01*
X130404173Y-33781536D01*
X131465172Y-33782462D01*
X132445761Y-33377291D01*
X133196655Y-32627707D01*
X133603536Y-31647827D01*
X133603540Y-31643172D01*
X180847538Y-31643172D01*
X181252709Y-32623761D01*
X182002293Y-33374655D01*
X182982173Y-33781536D01*
X184043172Y-33782462D01*
X185023761Y-33377291D01*
X185774655Y-32627707D01*
X186181536Y-31647827D01*
X186182462Y-30586828D01*
X185777291Y-29606239D01*
X185027707Y-28855345D01*
X184047827Y-28448464D01*
X182986828Y-28447538D01*
X182006239Y-28852709D01*
X181255345Y-29602293D01*
X180848464Y-30582173D01*
X180847538Y-31643172D01*
X133603540Y-31643172D01*
X133604462Y-30586828D01*
X133199291Y-29606239D01*
X132449707Y-28855345D01*
X131469827Y-28448464D01*
X130408828Y-28447538D01*
X129428239Y-28852709D01*
X128677345Y-29602293D01*
X128270464Y-30582173D01*
X128269538Y-31643172D01*
X127964000Y-31643172D01*
X127964000Y-30549931D01*
X128164488Y-29542007D01*
X128695817Y-28746817D01*
X129491007Y-28215488D01*
X130498931Y-28015000D01*
X183329994Y-28015000D01*
X184601098Y-28224082D01*
M02*
