G04 #@! TF.FileFunction,Copper,L1,Top,Signal*
%FSLAX46Y46*%
G04 Gerber Fmt 4.6, Leading zero omitted, Abs format (unit mm)*
G04 Created by KiCad (PCBNEW 4.0.6) date Sunday, 03 September 2017 'AMt' 10:50:58*
%MOMM*%
%LPD*%
G01*
G04 APERTURE LIST*
%ADD10C,0.100000*%
%ADD11C,4.064000*%
%ADD12R,2.500000X2.500000*%
%ADD13C,2.500000*%
%ADD14R,1.727200X2.032000*%
%ADD15O,1.727200X2.032000*%
%ADD16O,1.998980X1.998980*%
%ADD17R,1.998980X1.998980*%
%ADD18O,1.600000X1.600000*%
%ADD19R,1.250000X1.500000*%
%ADD20R,1.300000X1.500000*%
%ADD21R,1.198880X1.198880*%
%ADD22R,0.800000X1.900000*%
%ADD23R,1.900000X0.800000*%
%ADD24R,1.500000X1.300000*%
%ADD25R,2.032000X2.032000*%
%ADD26O,2.032000X2.032000*%
%ADD27R,1.100000X4.600000*%
%ADD28R,10.800000X9.400000*%
%ADD29C,0.600000*%
%ADD30C,0.500000*%
%ADD31C,1.000000*%
%ADD32C,3.000000*%
%ADD33C,0.250000*%
%ADD34C,2.000000*%
%ADD35C,1.500000*%
%ADD36C,1.250000*%
%ADD37C,0.254000*%
G04 APERTURE END LIST*
D10*
D11*
X130937000Y-31115000D03*
X183515000Y-31115000D03*
X131572000Y-105283000D03*
D12*
X177038000Y-34290000D03*
D13*
X172038000Y-34290000D03*
D14*
X161036000Y-102235000D03*
D15*
X163576000Y-102235000D03*
X166116000Y-102235000D03*
X168656000Y-102235000D03*
X171196000Y-102235000D03*
X173736000Y-102235000D03*
D12*
X159639000Y-34290000D03*
D13*
X154639000Y-34290000D03*
D12*
X142240000Y-34290000D03*
D13*
X137240000Y-34290000D03*
D12*
X138938000Y-101219000D03*
D13*
X143938000Y-101219000D03*
D16*
X180975000Y-78740000D03*
D17*
X180975000Y-83820000D03*
D16*
X180975000Y-81280000D03*
D18*
X145415000Y-73279000D03*
X145415000Y-75819000D03*
X145415000Y-78359000D03*
X145415000Y-80899000D03*
X153035000Y-80899000D03*
X153035000Y-78359000D03*
X153035000Y-75819000D03*
X153035000Y-73279000D03*
X167386000Y-76200000D03*
X167386000Y-78740000D03*
X167386000Y-81280000D03*
X167386000Y-83820000D03*
X175006000Y-83820000D03*
X175006000Y-81280000D03*
X175006000Y-78740000D03*
X175006000Y-76200000D03*
D19*
X155448000Y-63734000D03*
X155448000Y-61234000D03*
X172847000Y-63480000D03*
X172847000Y-60980000D03*
X138049000Y-63734000D03*
X138049000Y-61234000D03*
D20*
X176276000Y-60880000D03*
X176276000Y-63580000D03*
X158750000Y-61134000D03*
X158750000Y-63834000D03*
X141478000Y-61134000D03*
X141478000Y-63834000D03*
D11*
X183515000Y-105283000D03*
D21*
X135796020Y-71628000D03*
X133697980Y-71628000D03*
D22*
X138877000Y-82653000D03*
X140777000Y-82653000D03*
X139827000Y-79653000D03*
X138877000Y-74525000D03*
X140777000Y-74525000D03*
X139827000Y-71525000D03*
D23*
X163044000Y-74229000D03*
X163044000Y-72329000D03*
X160044000Y-73279000D03*
D24*
X160321000Y-84201000D03*
X163021000Y-84201000D03*
X166163000Y-69723000D03*
X168863000Y-69723000D03*
X160321000Y-76962000D03*
X163021000Y-76962000D03*
X135716000Y-82804000D03*
X133016000Y-82804000D03*
X135843000Y-74549000D03*
X133143000Y-74549000D03*
X149018000Y-101219000D03*
X151718000Y-101219000D03*
D21*
X135669020Y-80137000D03*
X133570980Y-80137000D03*
X151671020Y-104140000D03*
X149572980Y-104140000D03*
D25*
X160147000Y-89916000D03*
D26*
X160147000Y-92456000D03*
D25*
X156337000Y-89916000D03*
D26*
X156337000Y-92456000D03*
D25*
X152400000Y-89916000D03*
D26*
X152400000Y-92456000D03*
D27*
X177898000Y-56515000D03*
X176198000Y-56515000D03*
X172798000Y-56515000D03*
D28*
X174498000Y-47365000D03*
D27*
X174498000Y-56515000D03*
X171098000Y-56515000D03*
X160499000Y-56515000D03*
X158799000Y-56515000D03*
X155399000Y-56515000D03*
D28*
X157099000Y-47365000D03*
D27*
X157099000Y-56515000D03*
X153699000Y-56515000D03*
X143100000Y-56515000D03*
X141400000Y-56515000D03*
X138000000Y-56515000D03*
D28*
X139700000Y-47365000D03*
D27*
X139700000Y-56515000D03*
X136300000Y-56515000D03*
D29*
X143002000Y-89535000D03*
X166497000Y-72263000D03*
X137668000Y-70358000D03*
X137541000Y-77470000D03*
X150622000Y-59563000D03*
X136271000Y-59563000D03*
X167767000Y-59563000D03*
X156337000Y-70993000D03*
D30*
X145415000Y-73279000D02*
X145415000Y-72771000D01*
X145415000Y-72771000D02*
X151384000Y-66802000D01*
D31*
X155448000Y-61234000D02*
X154325000Y-61234000D01*
X151384000Y-64175000D02*
X151384000Y-66802000D01*
X154325000Y-61234000D02*
X151384000Y-64175000D01*
D30*
X175006000Y-76200000D02*
X175006000Y-72771000D01*
X175006000Y-72771000D02*
X169037000Y-66802000D01*
D31*
X169037000Y-66802000D02*
X169037000Y-63627000D01*
X169037000Y-63627000D02*
X171684000Y-60980000D01*
X172847000Y-60980000D02*
X171684000Y-60980000D01*
D32*
X169037000Y-66802000D02*
X151384000Y-66802000D01*
X151384000Y-66802000D02*
X133477000Y-66802000D01*
D31*
X138049000Y-61234000D02*
X131679000Y-61234000D01*
X131679000Y-61234000D02*
X129794000Y-63119000D01*
D33*
X133143000Y-74549000D02*
X133143000Y-73707000D01*
X133143000Y-73707000D02*
X129857500Y-70421500D01*
X133016000Y-83011000D02*
X129857500Y-86169500D01*
D32*
X172038000Y-34290000D02*
X171704000Y-34290000D01*
X171704000Y-34290000D02*
X168275000Y-30861000D01*
X158068000Y-30861000D02*
X154639000Y-34290000D01*
X168275000Y-30861000D02*
X158068000Y-30861000D01*
X137240000Y-34290000D02*
X137240000Y-33067000D01*
X137240000Y-33067000D02*
X139573000Y-30734000D01*
X151083000Y-30734000D02*
X154639000Y-34290000D01*
X139573000Y-30734000D02*
X151083000Y-30734000D01*
X129857500Y-70421500D02*
X129857500Y-86169500D01*
X129857500Y-86169500D02*
X143938000Y-100250000D01*
X137240000Y-34290000D02*
X137240000Y-34337000D01*
X137240000Y-34337000D02*
X129794000Y-41783000D01*
X129794000Y-41783000D02*
X129794000Y-63119000D01*
X129794000Y-63119000D02*
X133477000Y-66802000D01*
X129857500Y-70421500D02*
X133477000Y-66802000D01*
X143938000Y-101219000D02*
X143938000Y-100250000D01*
D33*
X160321000Y-84074000D02*
X160321000Y-84027000D01*
X160321000Y-84027000D02*
X162052000Y-82296000D01*
X171450000Y-76200000D02*
X175006000Y-76200000D01*
X170688000Y-76962000D02*
X171450000Y-76200000D01*
X170688000Y-82931000D02*
X170688000Y-76962000D01*
X168275000Y-85344000D02*
X170688000Y-82931000D01*
X166497000Y-85344000D02*
X168275000Y-85344000D01*
X163449000Y-82296000D02*
X166497000Y-85344000D01*
X162052000Y-82296000D02*
X163449000Y-82296000D01*
X160321000Y-76962000D02*
X160321000Y-84074000D01*
D34*
X143938000Y-101219000D02*
X143891000Y-101219000D01*
D33*
X143938000Y-101219000D02*
X149145000Y-101219000D01*
X143938000Y-101219000D02*
X143938000Y-101266000D01*
D34*
X154639000Y-34290000D02*
X154639000Y-34243000D01*
X172038000Y-34290000D02*
X172038000Y-34243000D01*
X143938000Y-101219000D02*
X143938000Y-101139000D01*
D33*
X161036000Y-102235000D02*
X157861000Y-99060000D01*
X146097000Y-99060000D02*
X143938000Y-101219000D01*
X157861000Y-99060000D02*
X146097000Y-99060000D01*
D31*
X138049000Y-61234000D02*
X138029000Y-61234000D01*
X155448000Y-61234000D02*
X155428000Y-61234000D01*
X172847000Y-60980000D02*
X172827000Y-60980000D01*
X138000000Y-56515000D02*
X138000000Y-61185000D01*
X138000000Y-61185000D02*
X138049000Y-61234000D01*
X155399000Y-56515000D02*
X155399000Y-61185000D01*
X155399000Y-61185000D02*
X155448000Y-61234000D01*
X172798000Y-56261000D02*
X172798000Y-60931000D01*
X172798000Y-60931000D02*
X172847000Y-60980000D01*
D33*
X163576000Y-102235000D02*
X163576000Y-100967796D01*
X148971000Y-95504000D02*
X143002000Y-89535000D01*
X158112204Y-95504000D02*
X148971000Y-95504000D01*
X163576000Y-100967796D02*
X158112204Y-95504000D01*
X139827000Y-71525000D02*
X138835000Y-71525000D01*
X138835000Y-71525000D02*
X137668000Y-70358000D01*
X139827000Y-79653000D02*
X139724000Y-79653000D01*
X139724000Y-79653000D02*
X137541000Y-77470000D01*
X180975000Y-83820000D02*
X175006000Y-83820000D01*
X139827000Y-79653000D02*
X139827000Y-79375000D01*
X139827000Y-71525000D02*
X139827000Y-71247000D01*
X163576000Y-102235000D02*
X163576000Y-104902000D01*
X143637000Y-105918000D02*
X138938000Y-101219000D01*
X162560000Y-105918000D02*
X143637000Y-105918000D01*
X163576000Y-104902000D02*
X162560000Y-105918000D01*
D31*
X139700000Y-62056000D02*
X139700000Y-62083000D01*
X139700000Y-62083000D02*
X138049000Y-63734000D01*
X157099000Y-62103000D02*
X157079000Y-62103000D01*
X157079000Y-62103000D02*
X155448000Y-63734000D01*
X174498000Y-61802000D02*
X174498000Y-61829000D01*
X174498000Y-61829000D02*
X172847000Y-63480000D01*
X174498000Y-56261000D02*
X174498000Y-61802000D01*
X174498000Y-61802000D02*
X176276000Y-63580000D01*
X157099000Y-56515000D02*
X157099000Y-62103000D01*
X157099000Y-62103000D02*
X157099000Y-62183000D01*
X157099000Y-62183000D02*
X158750000Y-63834000D01*
X139700000Y-56515000D02*
X139700000Y-62056000D01*
X139700000Y-62056000D02*
X141478000Y-63834000D01*
D35*
X177898000Y-56261000D02*
X179578000Y-56261000D01*
X181483000Y-38735000D02*
X177038000Y-34290000D01*
X181483000Y-54356000D02*
X181483000Y-38735000D01*
X179578000Y-56261000D02*
X181483000Y-54356000D01*
D33*
X156337000Y-89916000D02*
X156972000Y-89916000D01*
X156972000Y-89916000D02*
X158242000Y-91186000D01*
X158242000Y-94361000D02*
X166116000Y-102235000D01*
X158242000Y-91186000D02*
X158242000Y-94361000D01*
X140777000Y-82653000D02*
X141756000Y-82653000D01*
X151765000Y-79629000D02*
X153035000Y-78359000D01*
X144145000Y-79629000D02*
X151765000Y-79629000D01*
X143002000Y-80772000D02*
X144145000Y-79629000D01*
X143002000Y-81407000D02*
X143002000Y-80772000D01*
X141756000Y-82653000D02*
X143002000Y-81407000D01*
X168656000Y-102235000D02*
X166624000Y-104267000D01*
X154432000Y-91821000D02*
X152527000Y-89916000D01*
X154432000Y-93472000D02*
X154432000Y-91821000D01*
X155321000Y-94361000D02*
X154432000Y-93472000D01*
X157605602Y-94361000D02*
X155321000Y-94361000D01*
X164846000Y-101601398D02*
X157605602Y-94361000D01*
X164846000Y-103632000D02*
X164846000Y-101601398D01*
X165481000Y-104267000D02*
X164846000Y-103632000D01*
X166624000Y-104267000D02*
X165481000Y-104267000D01*
X140777000Y-74525000D02*
X151741000Y-74525000D01*
X151741000Y-74525000D02*
X153035000Y-75819000D01*
X160147000Y-89916000D02*
X160147000Y-87376000D01*
X149606000Y-85090000D02*
X145415000Y-80899000D01*
X157861000Y-85090000D02*
X149606000Y-85090000D01*
X160147000Y-87376000D02*
X157861000Y-85090000D01*
D35*
X160499000Y-56515000D02*
X162179000Y-56515000D01*
X164084000Y-38735000D02*
X159639000Y-34290000D01*
X164084000Y-54610000D02*
X164084000Y-38735000D01*
X162179000Y-56515000D02*
X164084000Y-54610000D01*
X143100000Y-56515000D02*
X144780000Y-56515000D01*
X146685000Y-38735000D02*
X142240000Y-34290000D01*
X146685000Y-54610000D02*
X146685000Y-38735000D01*
X144780000Y-56515000D02*
X146685000Y-54610000D01*
D33*
X175006000Y-78740000D02*
X180975000Y-78740000D01*
X175006000Y-81280000D02*
X180975000Y-81280000D01*
D31*
X176198000Y-56261000D02*
X176198000Y-60802000D01*
X176198000Y-60802000D02*
X176276000Y-60880000D01*
X158799000Y-56515000D02*
X158799000Y-61085000D01*
X158799000Y-61085000D02*
X158750000Y-61134000D01*
X141400000Y-56515000D02*
X141400000Y-61056000D01*
X141400000Y-61056000D02*
X141478000Y-61134000D01*
D33*
X150622000Y-59563000D02*
X153670000Y-56515000D01*
X153699000Y-56515000D02*
X153670000Y-56515000D01*
D36*
X153699000Y-56613000D02*
X153699000Y-56515000D01*
D33*
X136271000Y-56515000D02*
X136271000Y-59563000D01*
X136300000Y-56515000D02*
X136271000Y-56515000D01*
X156337000Y-79121000D02*
X156337000Y-70993000D01*
X154559000Y-80899000D02*
X156337000Y-79121000D01*
X153035000Y-80899000D02*
X154559000Y-80899000D01*
X167767000Y-59563000D02*
X171069000Y-56261000D01*
X171098000Y-56261000D02*
X171069000Y-56261000D01*
X135716000Y-82804000D02*
X138726000Y-82804000D01*
X138726000Y-82804000D02*
X138877000Y-82653000D01*
X135669020Y-80264000D02*
X135669020Y-82757020D01*
X135669020Y-82757020D02*
X135716000Y-82804000D01*
X151718000Y-101219000D02*
X151718000Y-104093020D01*
X151718000Y-104093020D02*
X151671020Y-104140000D01*
X151845000Y-104059980D02*
X151925020Y-104140000D01*
X135843000Y-74549000D02*
X138853000Y-74549000D01*
X138853000Y-74549000D02*
X138877000Y-74525000D01*
X135796020Y-71628000D02*
X135796020Y-74502020D01*
X135796020Y-74502020D02*
X135843000Y-74549000D01*
X160148398Y-92457398D02*
X160148398Y-95631000D01*
X165228398Y-100711000D02*
X160148398Y-95631000D01*
X169672000Y-100711000D02*
X171196000Y-102235000D01*
X169672000Y-100711000D02*
X165228398Y-100711000D01*
X160148398Y-92457398D02*
X160147000Y-92456000D01*
X163021000Y-84074000D02*
X163021000Y-89582000D01*
X163021000Y-89582000D02*
X160147000Y-92456000D01*
X167386000Y-83820000D02*
X170053000Y-81153000D01*
X170942000Y-69723000D02*
X168863000Y-69723000D01*
X174371000Y-73152000D02*
X170942000Y-69723000D01*
X174371000Y-74608998D02*
X174371000Y-73152000D01*
X173287998Y-75692000D02*
X174371000Y-74608998D01*
X171196000Y-75692000D02*
X173287998Y-75692000D01*
X170053000Y-76835000D02*
X171196000Y-75692000D01*
X170053000Y-81153000D02*
X170053000Y-76835000D01*
X167386000Y-81280000D02*
X165354000Y-83312000D01*
X163021000Y-81106000D02*
X163021000Y-76962000D01*
X165227000Y-83312000D02*
X163021000Y-81106000D01*
X165354000Y-83312000D02*
X165227000Y-83312000D01*
X163021000Y-76962000D02*
X163021000Y-74252000D01*
X163021000Y-74252000D02*
X163044000Y-74229000D01*
X167386000Y-81280000D02*
X167386000Y-78740000D01*
X163044000Y-72329000D02*
X163557000Y-72329000D01*
X163557000Y-72329000D02*
X166163000Y-69723000D01*
D37*
G36*
X184601098Y-28224082D02*
X185624731Y-28859773D01*
X186327176Y-29838800D01*
X186615000Y-31069895D01*
X186615000Y-105340069D01*
X186366175Y-106590995D01*
X185697196Y-107592196D01*
X184695995Y-108261176D01*
X183445069Y-108510000D01*
X130739177Y-108510000D01*
X129660830Y-108338292D01*
X128802766Y-107811493D01*
X128211616Y-106996426D01*
X127964000Y-105961266D01*
X127964000Y-105811172D01*
X128904538Y-105811172D01*
X129309709Y-106791761D01*
X130059293Y-107542655D01*
X131039173Y-107949536D01*
X132100172Y-107950462D01*
X133080761Y-107545291D01*
X133831655Y-106795707D01*
X134238536Y-105815827D01*
X134238540Y-105811172D01*
X180847538Y-105811172D01*
X181252709Y-106791761D01*
X182002293Y-107542655D01*
X182982173Y-107949536D01*
X184043172Y-107950462D01*
X185023761Y-107545291D01*
X185774655Y-106795707D01*
X186181536Y-105815827D01*
X186182462Y-104754828D01*
X185777291Y-103774239D01*
X185027707Y-103023345D01*
X184047827Y-102616464D01*
X182986828Y-102615538D01*
X182006239Y-103020709D01*
X181255345Y-103770293D01*
X180848464Y-104750173D01*
X180847538Y-105811172D01*
X134238540Y-105811172D01*
X134239462Y-104754828D01*
X134103490Y-104425750D01*
X148338540Y-104425750D01*
X148338540Y-104865750D01*
X148435213Y-105099139D01*
X148613842Y-105277767D01*
X148847231Y-105374440D01*
X149287230Y-105374440D01*
X149445980Y-105215690D01*
X149445980Y-104267000D01*
X148497290Y-104267000D01*
X148338540Y-104425750D01*
X134103490Y-104425750D01*
X133834291Y-103774239D01*
X133474931Y-103414250D01*
X148338540Y-103414250D01*
X148338540Y-103854250D01*
X148497290Y-104013000D01*
X149445980Y-104013000D01*
X149445980Y-103064310D01*
X149287230Y-102905560D01*
X148847231Y-102905560D01*
X148613842Y-103002233D01*
X148435213Y-103180861D01*
X148338540Y-103414250D01*
X133474931Y-103414250D01*
X133084707Y-103023345D01*
X132104827Y-102616464D01*
X131043828Y-102615538D01*
X130063239Y-103020709D01*
X129312345Y-103770293D01*
X128905464Y-104750173D01*
X128904538Y-105811172D01*
X127964000Y-105811172D01*
X127964000Y-101504750D01*
X137053000Y-101504750D01*
X137053000Y-102595310D01*
X137149673Y-102828699D01*
X137328302Y-103007327D01*
X137561691Y-103104000D01*
X138652250Y-103104000D01*
X138811000Y-102945250D01*
X138811000Y-101346000D01*
X139065000Y-101346000D01*
X139065000Y-102945250D01*
X139223750Y-103104000D01*
X140314309Y-103104000D01*
X140547698Y-103007327D01*
X140726327Y-102828699D01*
X140823000Y-102595310D01*
X140823000Y-101504750D01*
X140664250Y-101346000D01*
X139065000Y-101346000D01*
X138811000Y-101346000D01*
X137211750Y-101346000D01*
X137053000Y-101504750D01*
X127964000Y-101504750D01*
X127964000Y-99842690D01*
X137053000Y-99842690D01*
X137053000Y-100933250D01*
X137211750Y-101092000D01*
X138811000Y-101092000D01*
X138811000Y-99492750D01*
X138652250Y-99334000D01*
X137561691Y-99334000D01*
X137328302Y-99430673D01*
X137149673Y-99609301D01*
X137053000Y-99842690D01*
X127964000Y-99842690D01*
X127964000Y-87104735D01*
X128347827Y-87679173D01*
X140002654Y-99334000D01*
X139223750Y-99334000D01*
X139065000Y-99492750D01*
X139065000Y-101092000D01*
X140664250Y-101092000D01*
X140823000Y-100933250D01*
X140823000Y-100154346D01*
X141803000Y-101134346D01*
X141803000Y-101219000D01*
X141965517Y-102036029D01*
X142428327Y-102728673D01*
X143120971Y-103191483D01*
X143938000Y-103354000D01*
X144755029Y-103191483D01*
X145447673Y-102728673D01*
X145910483Y-102036029D01*
X145921827Y-101979000D01*
X147641258Y-101979000D01*
X147664838Y-102104317D01*
X147803910Y-102320441D01*
X148016110Y-102465431D01*
X148268000Y-102516440D01*
X149768000Y-102516440D01*
X150003317Y-102472162D01*
X150219441Y-102333090D01*
X150364431Y-102120890D01*
X150367081Y-102107803D01*
X150503910Y-102320441D01*
X150716110Y-102465431D01*
X150958000Y-102514415D01*
X150958000Y-102914492D01*
X150836263Y-102937398D01*
X150620139Y-103076470D01*
X150614544Y-103084659D01*
X150532118Y-103002233D01*
X150298729Y-102905560D01*
X149858730Y-102905560D01*
X149699980Y-103064310D01*
X149699980Y-104013000D01*
X149719980Y-104013000D01*
X149719980Y-104267000D01*
X149699980Y-104267000D01*
X149699980Y-105215690D01*
X149858730Y-105374440D01*
X150298729Y-105374440D01*
X150532118Y-105277767D01*
X150614331Y-105195555D01*
X150819690Y-105335871D01*
X151071580Y-105386880D01*
X152270460Y-105386880D01*
X152505777Y-105342602D01*
X152721901Y-105203530D01*
X152866891Y-104991330D01*
X152917900Y-104739440D01*
X152917900Y-103540560D01*
X152873622Y-103305243D01*
X152734550Y-103089119D01*
X152522350Y-102944129D01*
X152478000Y-102935148D01*
X152478000Y-102514558D01*
X152703317Y-102472162D01*
X152919441Y-102333090D01*
X153064431Y-102120890D01*
X153115440Y-101869000D01*
X153115440Y-100569000D01*
X153071162Y-100333683D01*
X152932090Y-100117559D01*
X152719890Y-99972569D01*
X152468000Y-99921560D01*
X150968000Y-99921560D01*
X150732683Y-99965838D01*
X150516559Y-100104910D01*
X150371569Y-100317110D01*
X150368919Y-100330197D01*
X150232090Y-100117559D01*
X150019890Y-99972569D01*
X149768000Y-99921560D01*
X148268000Y-99921560D01*
X148032683Y-99965838D01*
X147816559Y-100104910D01*
X147671569Y-100317110D01*
X147642836Y-100459000D01*
X146073000Y-100459000D01*
X146073000Y-100250000D01*
X146057869Y-100173933D01*
X146411802Y-99820000D01*
X157546198Y-99820000D01*
X159524960Y-101798762D01*
X159524960Y-103251000D01*
X159569238Y-103486317D01*
X159708310Y-103702441D01*
X159920510Y-103847431D01*
X160172400Y-103898440D01*
X161899600Y-103898440D01*
X162134917Y-103854162D01*
X162351041Y-103715090D01*
X162496031Y-103502890D01*
X162515232Y-103408073D01*
X162673964Y-103585732D01*
X163201209Y-103839709D01*
X163216974Y-103842358D01*
X163449000Y-103721217D01*
X163449000Y-102362000D01*
X163429000Y-102362000D01*
X163429000Y-102108000D01*
X163449000Y-102108000D01*
X163449000Y-102088000D01*
X163703000Y-102088000D01*
X163703000Y-102108000D01*
X163723000Y-102108000D01*
X163723000Y-102362000D01*
X163703000Y-102362000D01*
X163703000Y-103721217D01*
X163935026Y-103842358D01*
X163950791Y-103839709D01*
X164111881Y-103762111D01*
X164143852Y-103922839D01*
X164308599Y-104169401D01*
X164943599Y-104804401D01*
X165190161Y-104969148D01*
X165481000Y-105027000D01*
X166624000Y-105027000D01*
X166914839Y-104969148D01*
X167161401Y-104804401D01*
X168148421Y-103817381D01*
X168656000Y-103918345D01*
X169229489Y-103804271D01*
X169715670Y-103479415D01*
X169926000Y-103164634D01*
X170136330Y-103479415D01*
X170622511Y-103804271D01*
X171196000Y-103918345D01*
X171769489Y-103804271D01*
X172255670Y-103479415D01*
X172466000Y-103164634D01*
X172676330Y-103479415D01*
X173162511Y-103804271D01*
X173736000Y-103918345D01*
X174309489Y-103804271D01*
X174795670Y-103479415D01*
X175120526Y-102993234D01*
X175234600Y-102419745D01*
X175234600Y-102050255D01*
X175120526Y-101476766D01*
X174795670Y-100990585D01*
X174309489Y-100665729D01*
X173736000Y-100551655D01*
X173162511Y-100665729D01*
X172676330Y-100990585D01*
X172466000Y-101305366D01*
X172255670Y-100990585D01*
X171769489Y-100665729D01*
X171196000Y-100551655D01*
X170688421Y-100652619D01*
X170209401Y-100173599D01*
X169962839Y-100008852D01*
X169672000Y-99951000D01*
X165543200Y-99951000D01*
X160908398Y-95316198D01*
X160908398Y-93916349D01*
X161346778Y-93623433D01*
X161704670Y-93087810D01*
X161830345Y-92456000D01*
X161729381Y-91948421D01*
X163558401Y-90119401D01*
X163723148Y-89872839D01*
X163781000Y-89582000D01*
X163781000Y-85496558D01*
X164006317Y-85454162D01*
X164222441Y-85315090D01*
X164367431Y-85102890D01*
X164418440Y-84851000D01*
X164418440Y-84340242D01*
X165959599Y-85881401D01*
X166206161Y-86046148D01*
X166497000Y-86104000D01*
X168275000Y-86104000D01*
X168565839Y-86046148D01*
X168812401Y-85881401D01*
X170524763Y-84169039D01*
X173614096Y-84169039D01*
X173774959Y-84557423D01*
X174150866Y-84972389D01*
X174656959Y-85211914D01*
X174879000Y-85090629D01*
X174879000Y-83947000D01*
X175133000Y-83947000D01*
X175133000Y-85090629D01*
X175355041Y-85211914D01*
X175861134Y-84972389D01*
X176237041Y-84557423D01*
X176397904Y-84169039D01*
X176363133Y-84105750D01*
X179340510Y-84105750D01*
X179340510Y-84945799D01*
X179437183Y-85179188D01*
X179615811Y-85357817D01*
X179849200Y-85454490D01*
X180689250Y-85454490D01*
X180848000Y-85295740D01*
X180848000Y-83947000D01*
X181102000Y-83947000D01*
X181102000Y-85295740D01*
X181260750Y-85454490D01*
X182100800Y-85454490D01*
X182334189Y-85357817D01*
X182512817Y-85179188D01*
X182609490Y-84945799D01*
X182609490Y-84105750D01*
X182450740Y-83947000D01*
X181102000Y-83947000D01*
X180848000Y-83947000D01*
X179499260Y-83947000D01*
X179340510Y-84105750D01*
X176363133Y-84105750D01*
X176275915Y-83947000D01*
X175133000Y-83947000D01*
X174879000Y-83947000D01*
X173736085Y-83947000D01*
X173614096Y-84169039D01*
X170524763Y-84169039D01*
X171225401Y-83468401D01*
X171390148Y-83221840D01*
X171448000Y-82931000D01*
X171448000Y-77276802D01*
X171764802Y-76960000D01*
X173793005Y-76960000D01*
X173963189Y-77214698D01*
X174345275Y-77470000D01*
X173963189Y-77725302D01*
X173652120Y-78190849D01*
X173542887Y-78740000D01*
X173652120Y-79289151D01*
X173963189Y-79754698D01*
X174345275Y-80010000D01*
X173963189Y-80265302D01*
X173652120Y-80730849D01*
X173542887Y-81280000D01*
X173652120Y-81829151D01*
X173963189Y-82294698D01*
X174367703Y-82564986D01*
X174150866Y-82667611D01*
X173774959Y-83082577D01*
X173614096Y-83470961D01*
X173736085Y-83693000D01*
X174879000Y-83693000D01*
X174879000Y-83673000D01*
X175133000Y-83673000D01*
X175133000Y-83693000D01*
X176275915Y-83693000D01*
X176397904Y-83470961D01*
X176237041Y-83082577D01*
X175861134Y-82667611D01*
X175644297Y-82564986D01*
X176048811Y-82294698D01*
X176218995Y-82040000D01*
X179533407Y-82040000D01*
X179678013Y-82256418D01*
X179615811Y-82282183D01*
X179437183Y-82460812D01*
X179340510Y-82694201D01*
X179340510Y-83534250D01*
X179499260Y-83693000D01*
X180848000Y-83693000D01*
X180848000Y-83673000D01*
X181102000Y-83673000D01*
X181102000Y-83693000D01*
X182450740Y-83693000D01*
X182609490Y-83534250D01*
X182609490Y-82694201D01*
X182512817Y-82460812D01*
X182334189Y-82282183D01*
X182271987Y-82256418D01*
X182485072Y-81937514D01*
X182609490Y-81312022D01*
X182609490Y-81247978D01*
X182485072Y-80622486D01*
X182130759Y-80092219D01*
X182007710Y-80010000D01*
X182130759Y-79927781D01*
X182485072Y-79397514D01*
X182609490Y-78772022D01*
X182609490Y-78707978D01*
X182485072Y-78082486D01*
X182130759Y-77552219D01*
X181600492Y-77197906D01*
X180975000Y-77073488D01*
X180349508Y-77197906D01*
X179819241Y-77552219D01*
X179533407Y-77980000D01*
X176218995Y-77980000D01*
X176048811Y-77725302D01*
X175666725Y-77470000D01*
X176048811Y-77214698D01*
X176359880Y-76749151D01*
X176469113Y-76200000D01*
X176359880Y-75650849D01*
X176048811Y-75185302D01*
X175891000Y-75079856D01*
X175891000Y-72771005D01*
X175891001Y-72771000D01*
X175823633Y-72432326D01*
X175823633Y-72432325D01*
X175631790Y-72145210D01*
X175631787Y-72145208D01*
X171025431Y-67538852D01*
X171172000Y-66802000D01*
X171009483Y-65984971D01*
X170546673Y-65292327D01*
X170172000Y-65041978D01*
X170172000Y-64097132D01*
X170503382Y-63765750D01*
X171587000Y-63765750D01*
X171587000Y-64356309D01*
X171683673Y-64589698D01*
X171862301Y-64768327D01*
X172095690Y-64865000D01*
X172561250Y-64865000D01*
X172720000Y-64706250D01*
X172720000Y-63607000D01*
X172974000Y-63607000D01*
X172974000Y-64706250D01*
X173132750Y-64865000D01*
X173598310Y-64865000D01*
X173831699Y-64768327D01*
X174010327Y-64589698D01*
X174107000Y-64356309D01*
X174107000Y-63865750D01*
X174991000Y-63865750D01*
X174991000Y-64456309D01*
X175087673Y-64689698D01*
X175266301Y-64868327D01*
X175499690Y-64965000D01*
X175990250Y-64965000D01*
X176149000Y-64806250D01*
X176149000Y-63707000D01*
X176403000Y-63707000D01*
X176403000Y-64806250D01*
X176561750Y-64965000D01*
X177052310Y-64965000D01*
X177285699Y-64868327D01*
X177464327Y-64689698D01*
X177561000Y-64456309D01*
X177561000Y-63865750D01*
X177402250Y-63707000D01*
X176403000Y-63707000D01*
X176149000Y-63707000D01*
X175149750Y-63707000D01*
X174991000Y-63865750D01*
X174107000Y-63865750D01*
X174107000Y-63765750D01*
X173948250Y-63607000D01*
X172974000Y-63607000D01*
X172720000Y-63607000D01*
X171745750Y-63607000D01*
X171587000Y-63765750D01*
X170503382Y-63765750D01*
X171587000Y-62682132D01*
X171587000Y-63194250D01*
X171745750Y-63353000D01*
X172720000Y-63353000D01*
X172720000Y-63333000D01*
X172974000Y-63333000D01*
X172974000Y-63353000D01*
X173948250Y-63353000D01*
X174107000Y-63194250D01*
X174107000Y-62603691D01*
X174010327Y-62370302D01*
X173869090Y-62229064D01*
X173923441Y-62194090D01*
X174068431Y-61981890D01*
X174119440Y-61730000D01*
X174119440Y-60230000D01*
X174075162Y-59994683D01*
X173936090Y-59778559D01*
X173933000Y-59776448D01*
X173933000Y-59450000D01*
X174212250Y-59450000D01*
X174371000Y-59291250D01*
X174371000Y-56642000D01*
X174351000Y-56642000D01*
X174351000Y-56388000D01*
X174371000Y-56388000D01*
X174371000Y-53738750D01*
X174212250Y-53580000D01*
X173821690Y-53580000D01*
X173648459Y-53651755D01*
X173599890Y-53618569D01*
X173348000Y-53567560D01*
X172248000Y-53567560D01*
X172012683Y-53611838D01*
X171949522Y-53652481D01*
X171899890Y-53618569D01*
X171648000Y-53567560D01*
X170548000Y-53567560D01*
X170312683Y-53611838D01*
X170096559Y-53750910D01*
X169951569Y-53963110D01*
X169900560Y-54215000D01*
X169900560Y-56354638D01*
X167627320Y-58627878D01*
X167581833Y-58627838D01*
X167238057Y-58769883D01*
X166974808Y-59032673D01*
X166832162Y-59376201D01*
X166831838Y-59748167D01*
X166973883Y-60091943D01*
X167236673Y-60355192D01*
X167580201Y-60497838D01*
X167952167Y-60498162D01*
X168295943Y-60356117D01*
X168559192Y-60093327D01*
X168701838Y-59749799D01*
X168701879Y-59702923D01*
X169900560Y-58504242D01*
X169900560Y-58815000D01*
X169944838Y-59050317D01*
X170083910Y-59266441D01*
X170296110Y-59411431D01*
X170548000Y-59462440D01*
X171648000Y-59462440D01*
X171663000Y-59459618D01*
X171663000Y-59849177D01*
X171249654Y-59931397D01*
X170881434Y-60177434D01*
X168234434Y-62824434D01*
X167988397Y-63192654D01*
X167902000Y-63627000D01*
X167902000Y-64667000D01*
X160035000Y-64667000D01*
X160035000Y-64119750D01*
X159876250Y-63961000D01*
X158877000Y-63961000D01*
X158877000Y-63981000D01*
X158623000Y-63981000D01*
X158623000Y-63961000D01*
X157623750Y-63961000D01*
X157465000Y-64119750D01*
X157465000Y-64667000D01*
X156684518Y-64667000D01*
X156708000Y-64610309D01*
X156708000Y-64019750D01*
X156549250Y-63861000D01*
X155575000Y-63861000D01*
X155575000Y-63881000D01*
X155321000Y-63881000D01*
X155321000Y-63861000D01*
X154346750Y-63861000D01*
X154188000Y-64019750D01*
X154188000Y-64610309D01*
X154211482Y-64667000D01*
X152519000Y-64667000D01*
X152519000Y-64645132D01*
X154188000Y-62976132D01*
X154188000Y-63448250D01*
X154346750Y-63607000D01*
X155321000Y-63607000D01*
X155321000Y-63587000D01*
X155575000Y-63587000D01*
X155575000Y-63607000D01*
X156549250Y-63607000D01*
X156708000Y-63448250D01*
X156708000Y-62857691D01*
X156611327Y-62624302D01*
X156470090Y-62483064D01*
X156524441Y-62448090D01*
X156669431Y-62235890D01*
X156720440Y-61984000D01*
X156720440Y-60484000D01*
X156676162Y-60248683D01*
X156537090Y-60032559D01*
X156534000Y-60030448D01*
X156534000Y-59450000D01*
X156813250Y-59450000D01*
X156972000Y-59291250D01*
X156972000Y-56642000D01*
X156952000Y-56642000D01*
X156952000Y-56388000D01*
X156972000Y-56388000D01*
X156972000Y-53738750D01*
X156813250Y-53580000D01*
X156422690Y-53580000D01*
X156249459Y-53651755D01*
X156200890Y-53618569D01*
X155949000Y-53567560D01*
X154849000Y-53567560D01*
X154613683Y-53611838D01*
X154550522Y-53652481D01*
X154500890Y-53618569D01*
X154249000Y-53567560D01*
X153149000Y-53567560D01*
X152913683Y-53611838D01*
X152697559Y-53750910D01*
X152552569Y-53963110D01*
X152501560Y-54215000D01*
X152501560Y-56200490D01*
X152439000Y-56515000D01*
X152439000Y-56613000D01*
X152448656Y-56661542D01*
X150482320Y-58627878D01*
X150436833Y-58627838D01*
X150093057Y-58769883D01*
X149829808Y-59032673D01*
X149687162Y-59376201D01*
X149686838Y-59748167D01*
X149828883Y-60091943D01*
X150091673Y-60355192D01*
X150435201Y-60497838D01*
X150807167Y-60498162D01*
X151150943Y-60356117D01*
X151414192Y-60093327D01*
X151556838Y-59749799D01*
X151556879Y-59702923D01*
X152501560Y-58758242D01*
X152501560Y-58815000D01*
X152545838Y-59050317D01*
X152684910Y-59266441D01*
X152897110Y-59411431D01*
X153149000Y-59462440D01*
X154249000Y-59462440D01*
X154264000Y-59459618D01*
X154264000Y-60111134D01*
X153890654Y-60185397D01*
X153636538Y-60355192D01*
X153522434Y-60431434D01*
X150581434Y-63372434D01*
X150335397Y-63740654D01*
X150249000Y-64175000D01*
X150249000Y-64667000D01*
X142763000Y-64667000D01*
X142763000Y-64119750D01*
X142604250Y-63961000D01*
X141605000Y-63961000D01*
X141605000Y-63981000D01*
X141351000Y-63981000D01*
X141351000Y-63961000D01*
X140351750Y-63961000D01*
X140193000Y-64119750D01*
X140193000Y-64667000D01*
X139285518Y-64667000D01*
X139309000Y-64610309D01*
X139309000Y-64019750D01*
X139150250Y-63861000D01*
X138176000Y-63861000D01*
X138176000Y-63881000D01*
X137922000Y-63881000D01*
X137922000Y-63861000D01*
X136947750Y-63861000D01*
X136789000Y-64019750D01*
X136789000Y-64610309D01*
X136812482Y-64667000D01*
X134361346Y-64667000D01*
X132106239Y-62411893D01*
X132149133Y-62369000D01*
X136917156Y-62369000D01*
X136959910Y-62435441D01*
X137028006Y-62481969D01*
X136885673Y-62624302D01*
X136789000Y-62857691D01*
X136789000Y-63448250D01*
X136947750Y-63607000D01*
X137922000Y-63607000D01*
X137922000Y-63587000D01*
X138176000Y-63587000D01*
X138176000Y-63607000D01*
X139150250Y-63607000D01*
X139309000Y-63448250D01*
X139309000Y-62857691D01*
X139212327Y-62624302D01*
X139071090Y-62483064D01*
X139125441Y-62448090D01*
X139270431Y-62235890D01*
X139321440Y-61984000D01*
X139321440Y-60484000D01*
X139277162Y-60248683D01*
X139138090Y-60032559D01*
X139135000Y-60030448D01*
X139135000Y-59450000D01*
X139414250Y-59450000D01*
X139573000Y-59291250D01*
X139573000Y-56642000D01*
X139553000Y-56642000D01*
X139553000Y-56388000D01*
X139573000Y-56388000D01*
X139573000Y-53738750D01*
X139414250Y-53580000D01*
X139023690Y-53580000D01*
X138850459Y-53651755D01*
X138801890Y-53618569D01*
X138550000Y-53567560D01*
X137450000Y-53567560D01*
X137214683Y-53611838D01*
X137151522Y-53652481D01*
X137101890Y-53618569D01*
X136850000Y-53567560D01*
X135750000Y-53567560D01*
X135514683Y-53611838D01*
X135298559Y-53750910D01*
X135153569Y-53963110D01*
X135102560Y-54215000D01*
X135102560Y-58815000D01*
X135146838Y-59050317D01*
X135285910Y-59266441D01*
X135360559Y-59317447D01*
X135336162Y-59376201D01*
X135335838Y-59748167D01*
X135477883Y-60091943D01*
X135484928Y-60099000D01*
X131929000Y-60099000D01*
X131929000Y-47650750D01*
X133665000Y-47650750D01*
X133665000Y-52191309D01*
X133761673Y-52424698D01*
X133940301Y-52603327D01*
X134173690Y-52700000D01*
X139414250Y-52700000D01*
X139573000Y-52541250D01*
X139573000Y-47492000D01*
X133823750Y-47492000D01*
X133665000Y-47650750D01*
X131929000Y-47650750D01*
X131929000Y-42667346D01*
X132057655Y-42538691D01*
X133665000Y-42538691D01*
X133665000Y-47079250D01*
X133823750Y-47238000D01*
X139573000Y-47238000D01*
X139573000Y-42188750D01*
X139414250Y-42030000D01*
X134173690Y-42030000D01*
X133940301Y-42126673D01*
X133761673Y-42305302D01*
X133665000Y-42538691D01*
X132057655Y-42538691D01*
X138749673Y-35846673D01*
X139212483Y-35154029D01*
X139375000Y-34337000D01*
X139375000Y-33951346D01*
X140356834Y-32969512D01*
X140342560Y-33040000D01*
X140342560Y-35540000D01*
X140386838Y-35775317D01*
X140525910Y-35991441D01*
X140738110Y-36136431D01*
X140990000Y-36187440D01*
X142178754Y-36187440D01*
X145300000Y-39308686D01*
X145300000Y-42060523D01*
X145226310Y-42030000D01*
X139985750Y-42030000D01*
X139827000Y-42188750D01*
X139827000Y-47238000D01*
X139847000Y-47238000D01*
X139847000Y-47492000D01*
X139827000Y-47492000D01*
X139827000Y-52541250D01*
X139985750Y-52700000D01*
X145226310Y-52700000D01*
X145300000Y-52669477D01*
X145300000Y-54036314D01*
X144297440Y-55038874D01*
X144297440Y-54215000D01*
X144253162Y-53979683D01*
X144114090Y-53763559D01*
X143901890Y-53618569D01*
X143650000Y-53567560D01*
X142550000Y-53567560D01*
X142314683Y-53611838D01*
X142251522Y-53652481D01*
X142201890Y-53618569D01*
X141950000Y-53567560D01*
X140850000Y-53567560D01*
X140614683Y-53611838D01*
X140551433Y-53652538D01*
X140376310Y-53580000D01*
X139985750Y-53580000D01*
X139827000Y-53738750D01*
X139827000Y-56388000D01*
X139847000Y-56388000D01*
X139847000Y-56642000D01*
X139827000Y-56642000D01*
X139827000Y-59291250D01*
X139985750Y-59450000D01*
X140265000Y-59450000D01*
X140265000Y-60083182D01*
X140231569Y-60132110D01*
X140180560Y-60384000D01*
X140180560Y-61884000D01*
X140224838Y-62119317D01*
X140363910Y-62335441D01*
X140576110Y-62480431D01*
X140609490Y-62487191D01*
X140468301Y-62545673D01*
X140289673Y-62724302D01*
X140193000Y-62957691D01*
X140193000Y-63548250D01*
X140351750Y-63707000D01*
X141351000Y-63707000D01*
X141351000Y-63687000D01*
X141605000Y-63687000D01*
X141605000Y-63707000D01*
X142604250Y-63707000D01*
X142763000Y-63548250D01*
X142763000Y-62957691D01*
X142666327Y-62724302D01*
X142487699Y-62545673D01*
X142351713Y-62489346D01*
X142363317Y-62487162D01*
X142579441Y-62348090D01*
X142724431Y-62135890D01*
X142775440Y-61884000D01*
X142775440Y-60384000D01*
X142731162Y-60148683D01*
X142592090Y-59932559D01*
X142535000Y-59893551D01*
X142535000Y-59459402D01*
X142550000Y-59462440D01*
X143650000Y-59462440D01*
X143885317Y-59418162D01*
X144101441Y-59279090D01*
X144246431Y-59066890D01*
X144297440Y-58815000D01*
X144297440Y-57900000D01*
X144780000Y-57900000D01*
X145310017Y-57794573D01*
X145759343Y-57494343D01*
X147664343Y-55589343D01*
X147746493Y-55466397D01*
X147964573Y-55140017D01*
X148070000Y-54610000D01*
X148070000Y-47650750D01*
X151064000Y-47650750D01*
X151064000Y-52191309D01*
X151160673Y-52424698D01*
X151339301Y-52603327D01*
X151572690Y-52700000D01*
X156813250Y-52700000D01*
X156972000Y-52541250D01*
X156972000Y-47492000D01*
X151222750Y-47492000D01*
X151064000Y-47650750D01*
X148070000Y-47650750D01*
X148070000Y-42538691D01*
X151064000Y-42538691D01*
X151064000Y-47079250D01*
X151222750Y-47238000D01*
X156972000Y-47238000D01*
X156972000Y-42188750D01*
X156813250Y-42030000D01*
X151572690Y-42030000D01*
X151339301Y-42126673D01*
X151160673Y-42305302D01*
X151064000Y-42538691D01*
X148070000Y-42538691D01*
X148070000Y-38735000D01*
X147964573Y-38204983D01*
X147664343Y-37755657D01*
X144137440Y-34228754D01*
X144137440Y-33040000D01*
X144105264Y-32869000D01*
X150198654Y-32869000D01*
X153129327Y-35799673D01*
X153821970Y-36262483D01*
X154639000Y-36425000D01*
X155456029Y-36262483D01*
X156148673Y-35799673D01*
X157741560Y-34206786D01*
X157741560Y-35540000D01*
X157785838Y-35775317D01*
X157924910Y-35991441D01*
X158137110Y-36136431D01*
X158389000Y-36187440D01*
X159577754Y-36187440D01*
X162699000Y-39308686D01*
X162699000Y-42060523D01*
X162625310Y-42030000D01*
X157384750Y-42030000D01*
X157226000Y-42188750D01*
X157226000Y-47238000D01*
X157246000Y-47238000D01*
X157246000Y-47492000D01*
X157226000Y-47492000D01*
X157226000Y-52541250D01*
X157384750Y-52700000D01*
X162625310Y-52700000D01*
X162699000Y-52669477D01*
X162699000Y-54036314D01*
X161696440Y-55038874D01*
X161696440Y-54215000D01*
X161652162Y-53979683D01*
X161513090Y-53763559D01*
X161300890Y-53618569D01*
X161049000Y-53567560D01*
X159949000Y-53567560D01*
X159713683Y-53611838D01*
X159650522Y-53652481D01*
X159600890Y-53618569D01*
X159349000Y-53567560D01*
X158249000Y-53567560D01*
X158013683Y-53611838D01*
X157950433Y-53652538D01*
X157775310Y-53580000D01*
X157384750Y-53580000D01*
X157226000Y-53738750D01*
X157226000Y-56388000D01*
X157246000Y-56388000D01*
X157246000Y-56642000D01*
X157226000Y-56642000D01*
X157226000Y-59291250D01*
X157384750Y-59450000D01*
X157664000Y-59450000D01*
X157664000Y-59909974D01*
X157648559Y-59919910D01*
X157503569Y-60132110D01*
X157452560Y-60384000D01*
X157452560Y-61884000D01*
X157496838Y-62119317D01*
X157635910Y-62335441D01*
X157848110Y-62480431D01*
X157881490Y-62487191D01*
X157740301Y-62545673D01*
X157561673Y-62724302D01*
X157465000Y-62957691D01*
X157465000Y-63548250D01*
X157623750Y-63707000D01*
X158623000Y-63707000D01*
X158623000Y-63687000D01*
X158877000Y-63687000D01*
X158877000Y-63707000D01*
X159876250Y-63707000D01*
X160035000Y-63548250D01*
X160035000Y-62957691D01*
X159938327Y-62724302D01*
X159759699Y-62545673D01*
X159623713Y-62489346D01*
X159635317Y-62487162D01*
X159851441Y-62348090D01*
X159996431Y-62135890D01*
X160047440Y-61884000D01*
X160047440Y-60384000D01*
X160003162Y-60148683D01*
X159934000Y-60041202D01*
X159934000Y-59459402D01*
X159949000Y-59462440D01*
X161049000Y-59462440D01*
X161284317Y-59418162D01*
X161500441Y-59279090D01*
X161645431Y-59066890D01*
X161696440Y-58815000D01*
X161696440Y-57900000D01*
X162179000Y-57900000D01*
X162709017Y-57794573D01*
X163158343Y-57494343D01*
X165063343Y-55589343D01*
X165145493Y-55466397D01*
X165363573Y-55140017D01*
X165469000Y-54610000D01*
X165469000Y-47650750D01*
X168463000Y-47650750D01*
X168463000Y-52191309D01*
X168559673Y-52424698D01*
X168738301Y-52603327D01*
X168971690Y-52700000D01*
X174212250Y-52700000D01*
X174371000Y-52541250D01*
X174371000Y-47492000D01*
X168621750Y-47492000D01*
X168463000Y-47650750D01*
X165469000Y-47650750D01*
X165469000Y-42538691D01*
X168463000Y-42538691D01*
X168463000Y-47079250D01*
X168621750Y-47238000D01*
X174371000Y-47238000D01*
X174371000Y-42188750D01*
X174625000Y-42188750D01*
X174625000Y-47238000D01*
X174645000Y-47238000D01*
X174645000Y-47492000D01*
X174625000Y-47492000D01*
X174625000Y-52541250D01*
X174783750Y-52700000D01*
X180024310Y-52700000D01*
X180098000Y-52669477D01*
X180098000Y-53782314D01*
X179095440Y-54784874D01*
X179095440Y-54215000D01*
X179051162Y-53979683D01*
X178912090Y-53763559D01*
X178699890Y-53618569D01*
X178448000Y-53567560D01*
X177348000Y-53567560D01*
X177112683Y-53611838D01*
X177049522Y-53652481D01*
X176999890Y-53618569D01*
X176748000Y-53567560D01*
X175648000Y-53567560D01*
X175412683Y-53611838D01*
X175349433Y-53652538D01*
X175174310Y-53580000D01*
X174783750Y-53580000D01*
X174625000Y-53738750D01*
X174625000Y-56388000D01*
X174645000Y-56388000D01*
X174645000Y-56642000D01*
X174625000Y-56642000D01*
X174625000Y-59291250D01*
X174783750Y-59450000D01*
X175063000Y-59450000D01*
X175063000Y-59829182D01*
X175029569Y-59878110D01*
X174978560Y-60130000D01*
X174978560Y-61630000D01*
X175022838Y-61865317D01*
X175161910Y-62081441D01*
X175374110Y-62226431D01*
X175407490Y-62233191D01*
X175266301Y-62291673D01*
X175087673Y-62470302D01*
X174991000Y-62703691D01*
X174991000Y-63294250D01*
X175149750Y-63453000D01*
X176149000Y-63453000D01*
X176149000Y-63433000D01*
X176403000Y-63433000D01*
X176403000Y-63453000D01*
X177402250Y-63453000D01*
X177561000Y-63294250D01*
X177561000Y-62703691D01*
X177464327Y-62470302D01*
X177285699Y-62291673D01*
X177149713Y-62235346D01*
X177161317Y-62233162D01*
X177377441Y-62094090D01*
X177522431Y-61881890D01*
X177573440Y-61630000D01*
X177573440Y-60130000D01*
X177529162Y-59894683D01*
X177390090Y-59678559D01*
X177333000Y-59639551D01*
X177333000Y-59459402D01*
X177348000Y-59462440D01*
X178448000Y-59462440D01*
X178683317Y-59418162D01*
X178899441Y-59279090D01*
X179044431Y-59066890D01*
X179095440Y-58815000D01*
X179095440Y-57646000D01*
X179578000Y-57646000D01*
X180108017Y-57540573D01*
X180557343Y-57240343D01*
X182462343Y-55335343D01*
X182544493Y-55212397D01*
X182762573Y-54886017D01*
X182868000Y-54356000D01*
X182868000Y-38735000D01*
X182762573Y-38204983D01*
X182462343Y-37755657D01*
X178935440Y-34228754D01*
X178935440Y-33040000D01*
X178891162Y-32804683D01*
X178752090Y-32588559D01*
X178539890Y-32443569D01*
X178288000Y-32392560D01*
X175788000Y-32392560D01*
X175552683Y-32436838D01*
X175336559Y-32575910D01*
X175191569Y-32788110D01*
X175140560Y-33040000D01*
X175140560Y-35540000D01*
X175184838Y-35775317D01*
X175323910Y-35991441D01*
X175536110Y-36136431D01*
X175788000Y-36187440D01*
X176976754Y-36187440D01*
X180098000Y-39308686D01*
X180098000Y-42060523D01*
X180024310Y-42030000D01*
X174783750Y-42030000D01*
X174625000Y-42188750D01*
X174371000Y-42188750D01*
X174212250Y-42030000D01*
X168971690Y-42030000D01*
X168738301Y-42126673D01*
X168559673Y-42305302D01*
X168463000Y-42538691D01*
X165469000Y-42538691D01*
X165469000Y-38735000D01*
X165363573Y-38204983D01*
X165063343Y-37755657D01*
X161536440Y-34228754D01*
X161536440Y-33040000D01*
X161528161Y-32996000D01*
X167390654Y-32996000D01*
X170194327Y-35799673D01*
X170886970Y-36262483D01*
X171704000Y-36425000D01*
X172038000Y-36425000D01*
X172855029Y-36262483D01*
X173547673Y-35799673D01*
X174010483Y-35107029D01*
X174173000Y-34290000D01*
X174010483Y-33472971D01*
X173547673Y-32780327D01*
X172855029Y-32317517D01*
X172724998Y-32291652D01*
X172076518Y-31643172D01*
X180847538Y-31643172D01*
X181252709Y-32623761D01*
X182002293Y-33374655D01*
X182982173Y-33781536D01*
X184043172Y-33782462D01*
X185023761Y-33377291D01*
X185774655Y-32627707D01*
X186181536Y-31647827D01*
X186182462Y-30586828D01*
X185777291Y-29606239D01*
X185027707Y-28855345D01*
X184047827Y-28448464D01*
X182986828Y-28447538D01*
X182006239Y-28852709D01*
X181255345Y-29602293D01*
X180848464Y-30582173D01*
X180847538Y-31643172D01*
X172076518Y-31643172D01*
X169784673Y-29351327D01*
X169092029Y-28888517D01*
X168275000Y-28726000D01*
X158068000Y-28726000D01*
X157250970Y-28888517D01*
X156558327Y-29351327D01*
X154639000Y-31270654D01*
X152592673Y-29224327D01*
X151900029Y-28761517D01*
X151083000Y-28599000D01*
X139573000Y-28599000D01*
X138755970Y-28761517D01*
X138063327Y-29224327D01*
X135730327Y-31557327D01*
X135267517Y-32249971D01*
X135105000Y-33067000D01*
X135105000Y-33452654D01*
X128284327Y-40273327D01*
X127964000Y-40752730D01*
X127964000Y-31643172D01*
X128269538Y-31643172D01*
X128674709Y-32623761D01*
X129424293Y-33374655D01*
X130404173Y-33781536D01*
X131465172Y-33782462D01*
X132445761Y-33377291D01*
X133196655Y-32627707D01*
X133603536Y-31647827D01*
X133604462Y-30586828D01*
X133199291Y-29606239D01*
X132449707Y-28855345D01*
X131469827Y-28448464D01*
X130408828Y-28447538D01*
X129428239Y-28852709D01*
X128677345Y-29602293D01*
X128270464Y-30582173D01*
X128269538Y-31643172D01*
X127964000Y-31643172D01*
X127964000Y-30549931D01*
X128164488Y-29542007D01*
X128695817Y-28746817D01*
X129491007Y-28215488D01*
X130498931Y-28015000D01*
X183329994Y-28015000D01*
X184601098Y-28224082D01*
X184601098Y-28224082D01*
G37*
X184601098Y-28224082D02*
X185624731Y-28859773D01*
X186327176Y-29838800D01*
X186615000Y-31069895D01*
X186615000Y-105340069D01*
X186366175Y-106590995D01*
X185697196Y-107592196D01*
X184695995Y-108261176D01*
X183445069Y-108510000D01*
X130739177Y-108510000D01*
X129660830Y-108338292D01*
X128802766Y-107811493D01*
X128211616Y-106996426D01*
X127964000Y-105961266D01*
X127964000Y-105811172D01*
X128904538Y-105811172D01*
X129309709Y-106791761D01*
X130059293Y-107542655D01*
X131039173Y-107949536D01*
X132100172Y-107950462D01*
X133080761Y-107545291D01*
X133831655Y-106795707D01*
X134238536Y-105815827D01*
X134238540Y-105811172D01*
X180847538Y-105811172D01*
X181252709Y-106791761D01*
X182002293Y-107542655D01*
X182982173Y-107949536D01*
X184043172Y-107950462D01*
X185023761Y-107545291D01*
X185774655Y-106795707D01*
X186181536Y-105815827D01*
X186182462Y-104754828D01*
X185777291Y-103774239D01*
X185027707Y-103023345D01*
X184047827Y-102616464D01*
X182986828Y-102615538D01*
X182006239Y-103020709D01*
X181255345Y-103770293D01*
X180848464Y-104750173D01*
X180847538Y-105811172D01*
X134238540Y-105811172D01*
X134239462Y-104754828D01*
X134103490Y-104425750D01*
X148338540Y-104425750D01*
X148338540Y-104865750D01*
X148435213Y-105099139D01*
X148613842Y-105277767D01*
X148847231Y-105374440D01*
X149287230Y-105374440D01*
X149445980Y-105215690D01*
X149445980Y-104267000D01*
X148497290Y-104267000D01*
X148338540Y-104425750D01*
X134103490Y-104425750D01*
X133834291Y-103774239D01*
X133474931Y-103414250D01*
X148338540Y-103414250D01*
X148338540Y-103854250D01*
X148497290Y-104013000D01*
X149445980Y-104013000D01*
X149445980Y-103064310D01*
X149287230Y-102905560D01*
X148847231Y-102905560D01*
X148613842Y-103002233D01*
X148435213Y-103180861D01*
X148338540Y-103414250D01*
X133474931Y-103414250D01*
X133084707Y-103023345D01*
X132104827Y-102616464D01*
X131043828Y-102615538D01*
X130063239Y-103020709D01*
X129312345Y-103770293D01*
X128905464Y-104750173D01*
X128904538Y-105811172D01*
X127964000Y-105811172D01*
X127964000Y-101504750D01*
X137053000Y-101504750D01*
X137053000Y-102595310D01*
X137149673Y-102828699D01*
X137328302Y-103007327D01*
X137561691Y-103104000D01*
X138652250Y-103104000D01*
X138811000Y-102945250D01*
X138811000Y-101346000D01*
X139065000Y-101346000D01*
X139065000Y-102945250D01*
X139223750Y-103104000D01*
X140314309Y-103104000D01*
X140547698Y-103007327D01*
X140726327Y-102828699D01*
X140823000Y-102595310D01*
X140823000Y-101504750D01*
X140664250Y-101346000D01*
X139065000Y-101346000D01*
X138811000Y-101346000D01*
X137211750Y-101346000D01*
X137053000Y-101504750D01*
X127964000Y-101504750D01*
X127964000Y-99842690D01*
X137053000Y-99842690D01*
X137053000Y-100933250D01*
X137211750Y-101092000D01*
X138811000Y-101092000D01*
X138811000Y-99492750D01*
X138652250Y-99334000D01*
X137561691Y-99334000D01*
X137328302Y-99430673D01*
X137149673Y-99609301D01*
X137053000Y-99842690D01*
X127964000Y-99842690D01*
X127964000Y-87104735D01*
X128347827Y-87679173D01*
X140002654Y-99334000D01*
X139223750Y-99334000D01*
X139065000Y-99492750D01*
X139065000Y-101092000D01*
X140664250Y-101092000D01*
X140823000Y-100933250D01*
X140823000Y-100154346D01*
X141803000Y-101134346D01*
X141803000Y-101219000D01*
X141965517Y-102036029D01*
X142428327Y-102728673D01*
X143120971Y-103191483D01*
X143938000Y-103354000D01*
X144755029Y-103191483D01*
X145447673Y-102728673D01*
X145910483Y-102036029D01*
X145921827Y-101979000D01*
X147641258Y-101979000D01*
X147664838Y-102104317D01*
X147803910Y-102320441D01*
X148016110Y-102465431D01*
X148268000Y-102516440D01*
X149768000Y-102516440D01*
X150003317Y-102472162D01*
X150219441Y-102333090D01*
X150364431Y-102120890D01*
X150367081Y-102107803D01*
X150503910Y-102320441D01*
X150716110Y-102465431D01*
X150958000Y-102514415D01*
X150958000Y-102914492D01*
X150836263Y-102937398D01*
X150620139Y-103076470D01*
X150614544Y-103084659D01*
X150532118Y-103002233D01*
X150298729Y-102905560D01*
X149858730Y-102905560D01*
X149699980Y-103064310D01*
X149699980Y-104013000D01*
X149719980Y-104013000D01*
X149719980Y-104267000D01*
X149699980Y-104267000D01*
X149699980Y-105215690D01*
X149858730Y-105374440D01*
X150298729Y-105374440D01*
X150532118Y-105277767D01*
X150614331Y-105195555D01*
X150819690Y-105335871D01*
X151071580Y-105386880D01*
X152270460Y-105386880D01*
X152505777Y-105342602D01*
X152721901Y-105203530D01*
X152866891Y-104991330D01*
X152917900Y-104739440D01*
X152917900Y-103540560D01*
X152873622Y-103305243D01*
X152734550Y-103089119D01*
X152522350Y-102944129D01*
X152478000Y-102935148D01*
X152478000Y-102514558D01*
X152703317Y-102472162D01*
X152919441Y-102333090D01*
X153064431Y-102120890D01*
X153115440Y-101869000D01*
X153115440Y-100569000D01*
X153071162Y-100333683D01*
X152932090Y-100117559D01*
X152719890Y-99972569D01*
X152468000Y-99921560D01*
X150968000Y-99921560D01*
X150732683Y-99965838D01*
X150516559Y-100104910D01*
X150371569Y-100317110D01*
X150368919Y-100330197D01*
X150232090Y-100117559D01*
X150019890Y-99972569D01*
X149768000Y-99921560D01*
X148268000Y-99921560D01*
X148032683Y-99965838D01*
X147816559Y-100104910D01*
X147671569Y-100317110D01*
X147642836Y-100459000D01*
X146073000Y-100459000D01*
X146073000Y-100250000D01*
X146057869Y-100173933D01*
X146411802Y-99820000D01*
X157546198Y-99820000D01*
X159524960Y-101798762D01*
X159524960Y-103251000D01*
X159569238Y-103486317D01*
X159708310Y-103702441D01*
X159920510Y-103847431D01*
X160172400Y-103898440D01*
X161899600Y-103898440D01*
X162134917Y-103854162D01*
X162351041Y-103715090D01*
X162496031Y-103502890D01*
X162515232Y-103408073D01*
X162673964Y-103585732D01*
X163201209Y-103839709D01*
X163216974Y-103842358D01*
X163449000Y-103721217D01*
X163449000Y-102362000D01*
X163429000Y-102362000D01*
X163429000Y-102108000D01*
X163449000Y-102108000D01*
X163449000Y-102088000D01*
X163703000Y-102088000D01*
X163703000Y-102108000D01*
X163723000Y-102108000D01*
X163723000Y-102362000D01*
X163703000Y-102362000D01*
X163703000Y-103721217D01*
X163935026Y-103842358D01*
X163950791Y-103839709D01*
X164111881Y-103762111D01*
X164143852Y-103922839D01*
X164308599Y-104169401D01*
X164943599Y-104804401D01*
X165190161Y-104969148D01*
X165481000Y-105027000D01*
X166624000Y-105027000D01*
X166914839Y-104969148D01*
X167161401Y-104804401D01*
X168148421Y-103817381D01*
X168656000Y-103918345D01*
X169229489Y-103804271D01*
X169715670Y-103479415D01*
X169926000Y-103164634D01*
X170136330Y-103479415D01*
X170622511Y-103804271D01*
X171196000Y-103918345D01*
X171769489Y-103804271D01*
X172255670Y-103479415D01*
X172466000Y-103164634D01*
X172676330Y-103479415D01*
X173162511Y-103804271D01*
X173736000Y-103918345D01*
X174309489Y-103804271D01*
X174795670Y-103479415D01*
X175120526Y-102993234D01*
X175234600Y-102419745D01*
X175234600Y-102050255D01*
X175120526Y-101476766D01*
X174795670Y-100990585D01*
X174309489Y-100665729D01*
X173736000Y-100551655D01*
X173162511Y-100665729D01*
X172676330Y-100990585D01*
X172466000Y-101305366D01*
X172255670Y-100990585D01*
X171769489Y-100665729D01*
X171196000Y-100551655D01*
X170688421Y-100652619D01*
X170209401Y-100173599D01*
X169962839Y-100008852D01*
X169672000Y-99951000D01*
X165543200Y-99951000D01*
X160908398Y-95316198D01*
X160908398Y-93916349D01*
X161346778Y-93623433D01*
X161704670Y-93087810D01*
X161830345Y-92456000D01*
X161729381Y-91948421D01*
X163558401Y-90119401D01*
X163723148Y-89872839D01*
X163781000Y-89582000D01*
X163781000Y-85496558D01*
X164006317Y-85454162D01*
X164222441Y-85315090D01*
X164367431Y-85102890D01*
X164418440Y-84851000D01*
X164418440Y-84340242D01*
X165959599Y-85881401D01*
X166206161Y-86046148D01*
X166497000Y-86104000D01*
X168275000Y-86104000D01*
X168565839Y-86046148D01*
X168812401Y-85881401D01*
X170524763Y-84169039D01*
X173614096Y-84169039D01*
X173774959Y-84557423D01*
X174150866Y-84972389D01*
X174656959Y-85211914D01*
X174879000Y-85090629D01*
X174879000Y-83947000D01*
X175133000Y-83947000D01*
X175133000Y-85090629D01*
X175355041Y-85211914D01*
X175861134Y-84972389D01*
X176237041Y-84557423D01*
X176397904Y-84169039D01*
X176363133Y-84105750D01*
X179340510Y-84105750D01*
X179340510Y-84945799D01*
X179437183Y-85179188D01*
X179615811Y-85357817D01*
X179849200Y-85454490D01*
X180689250Y-85454490D01*
X180848000Y-85295740D01*
X180848000Y-83947000D01*
X181102000Y-83947000D01*
X181102000Y-85295740D01*
X181260750Y-85454490D01*
X182100800Y-85454490D01*
X182334189Y-85357817D01*
X182512817Y-85179188D01*
X182609490Y-84945799D01*
X182609490Y-84105750D01*
X182450740Y-83947000D01*
X181102000Y-83947000D01*
X180848000Y-83947000D01*
X179499260Y-83947000D01*
X179340510Y-84105750D01*
X176363133Y-84105750D01*
X176275915Y-83947000D01*
X175133000Y-83947000D01*
X174879000Y-83947000D01*
X173736085Y-83947000D01*
X173614096Y-84169039D01*
X170524763Y-84169039D01*
X171225401Y-83468401D01*
X171390148Y-83221840D01*
X171448000Y-82931000D01*
X171448000Y-77276802D01*
X171764802Y-76960000D01*
X173793005Y-76960000D01*
X173963189Y-77214698D01*
X174345275Y-77470000D01*
X173963189Y-77725302D01*
X173652120Y-78190849D01*
X173542887Y-78740000D01*
X173652120Y-79289151D01*
X173963189Y-79754698D01*
X174345275Y-80010000D01*
X173963189Y-80265302D01*
X173652120Y-80730849D01*
X173542887Y-81280000D01*
X173652120Y-81829151D01*
X173963189Y-82294698D01*
X174367703Y-82564986D01*
X174150866Y-82667611D01*
X173774959Y-83082577D01*
X173614096Y-83470961D01*
X173736085Y-83693000D01*
X174879000Y-83693000D01*
X174879000Y-83673000D01*
X175133000Y-83673000D01*
X175133000Y-83693000D01*
X176275915Y-83693000D01*
X176397904Y-83470961D01*
X176237041Y-83082577D01*
X175861134Y-82667611D01*
X175644297Y-82564986D01*
X176048811Y-82294698D01*
X176218995Y-82040000D01*
X179533407Y-82040000D01*
X179678013Y-82256418D01*
X179615811Y-82282183D01*
X179437183Y-82460812D01*
X179340510Y-82694201D01*
X179340510Y-83534250D01*
X179499260Y-83693000D01*
X180848000Y-83693000D01*
X180848000Y-83673000D01*
X181102000Y-83673000D01*
X181102000Y-83693000D01*
X182450740Y-83693000D01*
X182609490Y-83534250D01*
X182609490Y-82694201D01*
X182512817Y-82460812D01*
X182334189Y-82282183D01*
X182271987Y-82256418D01*
X182485072Y-81937514D01*
X182609490Y-81312022D01*
X182609490Y-81247978D01*
X182485072Y-80622486D01*
X182130759Y-80092219D01*
X182007710Y-80010000D01*
X182130759Y-79927781D01*
X182485072Y-79397514D01*
X182609490Y-78772022D01*
X182609490Y-78707978D01*
X182485072Y-78082486D01*
X182130759Y-77552219D01*
X181600492Y-77197906D01*
X180975000Y-77073488D01*
X180349508Y-77197906D01*
X179819241Y-77552219D01*
X179533407Y-77980000D01*
X176218995Y-77980000D01*
X176048811Y-77725302D01*
X175666725Y-77470000D01*
X176048811Y-77214698D01*
X176359880Y-76749151D01*
X176469113Y-76200000D01*
X176359880Y-75650849D01*
X176048811Y-75185302D01*
X175891000Y-75079856D01*
X175891000Y-72771005D01*
X175891001Y-72771000D01*
X175823633Y-72432326D01*
X175823633Y-72432325D01*
X175631790Y-72145210D01*
X175631787Y-72145208D01*
X171025431Y-67538852D01*
X171172000Y-66802000D01*
X171009483Y-65984971D01*
X170546673Y-65292327D01*
X170172000Y-65041978D01*
X170172000Y-64097132D01*
X170503382Y-63765750D01*
X171587000Y-63765750D01*
X171587000Y-64356309D01*
X171683673Y-64589698D01*
X171862301Y-64768327D01*
X172095690Y-64865000D01*
X172561250Y-64865000D01*
X172720000Y-64706250D01*
X172720000Y-63607000D01*
X172974000Y-63607000D01*
X172974000Y-64706250D01*
X173132750Y-64865000D01*
X173598310Y-64865000D01*
X173831699Y-64768327D01*
X174010327Y-64589698D01*
X174107000Y-64356309D01*
X174107000Y-63865750D01*
X174991000Y-63865750D01*
X174991000Y-64456309D01*
X175087673Y-64689698D01*
X175266301Y-64868327D01*
X175499690Y-64965000D01*
X175990250Y-64965000D01*
X176149000Y-64806250D01*
X176149000Y-63707000D01*
X176403000Y-63707000D01*
X176403000Y-64806250D01*
X176561750Y-64965000D01*
X177052310Y-64965000D01*
X177285699Y-64868327D01*
X177464327Y-64689698D01*
X177561000Y-64456309D01*
X177561000Y-63865750D01*
X177402250Y-63707000D01*
X176403000Y-63707000D01*
X176149000Y-63707000D01*
X175149750Y-63707000D01*
X174991000Y-63865750D01*
X174107000Y-63865750D01*
X174107000Y-63765750D01*
X173948250Y-63607000D01*
X172974000Y-63607000D01*
X172720000Y-63607000D01*
X171745750Y-63607000D01*
X171587000Y-63765750D01*
X170503382Y-63765750D01*
X171587000Y-62682132D01*
X171587000Y-63194250D01*
X171745750Y-63353000D01*
X172720000Y-63353000D01*
X172720000Y-63333000D01*
X172974000Y-63333000D01*
X172974000Y-63353000D01*
X173948250Y-63353000D01*
X174107000Y-63194250D01*
X174107000Y-62603691D01*
X174010327Y-62370302D01*
X173869090Y-62229064D01*
X173923441Y-62194090D01*
X174068431Y-61981890D01*
X174119440Y-61730000D01*
X174119440Y-60230000D01*
X174075162Y-59994683D01*
X173936090Y-59778559D01*
X173933000Y-59776448D01*
X173933000Y-59450000D01*
X174212250Y-59450000D01*
X174371000Y-59291250D01*
X174371000Y-56642000D01*
X174351000Y-56642000D01*
X174351000Y-56388000D01*
X174371000Y-56388000D01*
X174371000Y-53738750D01*
X174212250Y-53580000D01*
X173821690Y-53580000D01*
X173648459Y-53651755D01*
X173599890Y-53618569D01*
X173348000Y-53567560D01*
X172248000Y-53567560D01*
X172012683Y-53611838D01*
X171949522Y-53652481D01*
X171899890Y-53618569D01*
X171648000Y-53567560D01*
X170548000Y-53567560D01*
X170312683Y-53611838D01*
X170096559Y-53750910D01*
X169951569Y-53963110D01*
X169900560Y-54215000D01*
X169900560Y-56354638D01*
X167627320Y-58627878D01*
X167581833Y-58627838D01*
X167238057Y-58769883D01*
X166974808Y-59032673D01*
X166832162Y-59376201D01*
X166831838Y-59748167D01*
X166973883Y-60091943D01*
X167236673Y-60355192D01*
X167580201Y-60497838D01*
X167952167Y-60498162D01*
X168295943Y-60356117D01*
X168559192Y-60093327D01*
X168701838Y-59749799D01*
X168701879Y-59702923D01*
X169900560Y-58504242D01*
X169900560Y-58815000D01*
X169944838Y-59050317D01*
X170083910Y-59266441D01*
X170296110Y-59411431D01*
X170548000Y-59462440D01*
X171648000Y-59462440D01*
X171663000Y-59459618D01*
X171663000Y-59849177D01*
X171249654Y-59931397D01*
X170881434Y-60177434D01*
X168234434Y-62824434D01*
X167988397Y-63192654D01*
X167902000Y-63627000D01*
X167902000Y-64667000D01*
X160035000Y-64667000D01*
X160035000Y-64119750D01*
X159876250Y-63961000D01*
X158877000Y-63961000D01*
X158877000Y-63981000D01*
X158623000Y-63981000D01*
X158623000Y-63961000D01*
X157623750Y-63961000D01*
X157465000Y-64119750D01*
X157465000Y-64667000D01*
X156684518Y-64667000D01*
X156708000Y-64610309D01*
X156708000Y-64019750D01*
X156549250Y-63861000D01*
X155575000Y-63861000D01*
X155575000Y-63881000D01*
X155321000Y-63881000D01*
X155321000Y-63861000D01*
X154346750Y-63861000D01*
X154188000Y-64019750D01*
X154188000Y-64610309D01*
X154211482Y-64667000D01*
X152519000Y-64667000D01*
X152519000Y-64645132D01*
X154188000Y-62976132D01*
X154188000Y-63448250D01*
X154346750Y-63607000D01*
X155321000Y-63607000D01*
X155321000Y-63587000D01*
X155575000Y-63587000D01*
X155575000Y-63607000D01*
X156549250Y-63607000D01*
X156708000Y-63448250D01*
X156708000Y-62857691D01*
X156611327Y-62624302D01*
X156470090Y-62483064D01*
X156524441Y-62448090D01*
X156669431Y-62235890D01*
X156720440Y-61984000D01*
X156720440Y-60484000D01*
X156676162Y-60248683D01*
X156537090Y-60032559D01*
X156534000Y-60030448D01*
X156534000Y-59450000D01*
X156813250Y-59450000D01*
X156972000Y-59291250D01*
X156972000Y-56642000D01*
X156952000Y-56642000D01*
X156952000Y-56388000D01*
X156972000Y-56388000D01*
X156972000Y-53738750D01*
X156813250Y-53580000D01*
X156422690Y-53580000D01*
X156249459Y-53651755D01*
X156200890Y-53618569D01*
X155949000Y-53567560D01*
X154849000Y-53567560D01*
X154613683Y-53611838D01*
X154550522Y-53652481D01*
X154500890Y-53618569D01*
X154249000Y-53567560D01*
X153149000Y-53567560D01*
X152913683Y-53611838D01*
X152697559Y-53750910D01*
X152552569Y-53963110D01*
X152501560Y-54215000D01*
X152501560Y-56200490D01*
X152439000Y-56515000D01*
X152439000Y-56613000D01*
X152448656Y-56661542D01*
X150482320Y-58627878D01*
X150436833Y-58627838D01*
X150093057Y-58769883D01*
X149829808Y-59032673D01*
X149687162Y-59376201D01*
X149686838Y-59748167D01*
X149828883Y-60091943D01*
X150091673Y-60355192D01*
X150435201Y-60497838D01*
X150807167Y-60498162D01*
X151150943Y-60356117D01*
X151414192Y-60093327D01*
X151556838Y-59749799D01*
X151556879Y-59702923D01*
X152501560Y-58758242D01*
X152501560Y-58815000D01*
X152545838Y-59050317D01*
X152684910Y-59266441D01*
X152897110Y-59411431D01*
X153149000Y-59462440D01*
X154249000Y-59462440D01*
X154264000Y-59459618D01*
X154264000Y-60111134D01*
X153890654Y-60185397D01*
X153636538Y-60355192D01*
X153522434Y-60431434D01*
X150581434Y-63372434D01*
X150335397Y-63740654D01*
X150249000Y-64175000D01*
X150249000Y-64667000D01*
X142763000Y-64667000D01*
X142763000Y-64119750D01*
X142604250Y-63961000D01*
X141605000Y-63961000D01*
X141605000Y-63981000D01*
X141351000Y-63981000D01*
X141351000Y-63961000D01*
X140351750Y-63961000D01*
X140193000Y-64119750D01*
X140193000Y-64667000D01*
X139285518Y-64667000D01*
X139309000Y-64610309D01*
X139309000Y-64019750D01*
X139150250Y-63861000D01*
X138176000Y-63861000D01*
X138176000Y-63881000D01*
X137922000Y-63881000D01*
X137922000Y-63861000D01*
X136947750Y-63861000D01*
X136789000Y-64019750D01*
X136789000Y-64610309D01*
X136812482Y-64667000D01*
X134361346Y-64667000D01*
X132106239Y-62411893D01*
X132149133Y-62369000D01*
X136917156Y-62369000D01*
X136959910Y-62435441D01*
X137028006Y-62481969D01*
X136885673Y-62624302D01*
X136789000Y-62857691D01*
X136789000Y-63448250D01*
X136947750Y-63607000D01*
X137922000Y-63607000D01*
X137922000Y-63587000D01*
X138176000Y-63587000D01*
X138176000Y-63607000D01*
X139150250Y-63607000D01*
X139309000Y-63448250D01*
X139309000Y-62857691D01*
X139212327Y-62624302D01*
X139071090Y-62483064D01*
X139125441Y-62448090D01*
X139270431Y-62235890D01*
X139321440Y-61984000D01*
X139321440Y-60484000D01*
X139277162Y-60248683D01*
X139138090Y-60032559D01*
X139135000Y-60030448D01*
X139135000Y-59450000D01*
X139414250Y-59450000D01*
X139573000Y-59291250D01*
X139573000Y-56642000D01*
X139553000Y-56642000D01*
X139553000Y-56388000D01*
X139573000Y-56388000D01*
X139573000Y-53738750D01*
X139414250Y-53580000D01*
X139023690Y-53580000D01*
X138850459Y-53651755D01*
X138801890Y-53618569D01*
X138550000Y-53567560D01*
X137450000Y-53567560D01*
X137214683Y-53611838D01*
X137151522Y-53652481D01*
X137101890Y-53618569D01*
X136850000Y-53567560D01*
X135750000Y-53567560D01*
X135514683Y-53611838D01*
X135298559Y-53750910D01*
X135153569Y-53963110D01*
X135102560Y-54215000D01*
X135102560Y-58815000D01*
X135146838Y-59050317D01*
X135285910Y-59266441D01*
X135360559Y-59317447D01*
X135336162Y-59376201D01*
X135335838Y-59748167D01*
X135477883Y-60091943D01*
X135484928Y-60099000D01*
X131929000Y-60099000D01*
X131929000Y-47650750D01*
X133665000Y-47650750D01*
X133665000Y-52191309D01*
X133761673Y-52424698D01*
X133940301Y-52603327D01*
X134173690Y-52700000D01*
X139414250Y-52700000D01*
X139573000Y-52541250D01*
X139573000Y-47492000D01*
X133823750Y-47492000D01*
X133665000Y-47650750D01*
X131929000Y-47650750D01*
X131929000Y-42667346D01*
X132057655Y-42538691D01*
X133665000Y-42538691D01*
X133665000Y-47079250D01*
X133823750Y-47238000D01*
X139573000Y-47238000D01*
X139573000Y-42188750D01*
X139414250Y-42030000D01*
X134173690Y-42030000D01*
X133940301Y-42126673D01*
X133761673Y-42305302D01*
X133665000Y-42538691D01*
X132057655Y-42538691D01*
X138749673Y-35846673D01*
X139212483Y-35154029D01*
X139375000Y-34337000D01*
X139375000Y-33951346D01*
X140356834Y-32969512D01*
X140342560Y-33040000D01*
X140342560Y-35540000D01*
X140386838Y-35775317D01*
X140525910Y-35991441D01*
X140738110Y-36136431D01*
X140990000Y-36187440D01*
X142178754Y-36187440D01*
X145300000Y-39308686D01*
X145300000Y-42060523D01*
X145226310Y-42030000D01*
X139985750Y-42030000D01*
X139827000Y-42188750D01*
X139827000Y-47238000D01*
X139847000Y-47238000D01*
X139847000Y-47492000D01*
X139827000Y-47492000D01*
X139827000Y-52541250D01*
X139985750Y-52700000D01*
X145226310Y-52700000D01*
X145300000Y-52669477D01*
X145300000Y-54036314D01*
X144297440Y-55038874D01*
X144297440Y-54215000D01*
X144253162Y-53979683D01*
X144114090Y-53763559D01*
X143901890Y-53618569D01*
X143650000Y-53567560D01*
X142550000Y-53567560D01*
X142314683Y-53611838D01*
X142251522Y-53652481D01*
X142201890Y-53618569D01*
X141950000Y-53567560D01*
X140850000Y-53567560D01*
X140614683Y-53611838D01*
X140551433Y-53652538D01*
X140376310Y-53580000D01*
X139985750Y-53580000D01*
X139827000Y-53738750D01*
X139827000Y-56388000D01*
X139847000Y-56388000D01*
X139847000Y-56642000D01*
X139827000Y-56642000D01*
X139827000Y-59291250D01*
X139985750Y-59450000D01*
X140265000Y-59450000D01*
X140265000Y-60083182D01*
X140231569Y-60132110D01*
X140180560Y-60384000D01*
X140180560Y-61884000D01*
X140224838Y-62119317D01*
X140363910Y-62335441D01*
X140576110Y-62480431D01*
X140609490Y-62487191D01*
X140468301Y-62545673D01*
X140289673Y-62724302D01*
X140193000Y-62957691D01*
X140193000Y-63548250D01*
X140351750Y-63707000D01*
X141351000Y-63707000D01*
X141351000Y-63687000D01*
X141605000Y-63687000D01*
X141605000Y-63707000D01*
X142604250Y-63707000D01*
X142763000Y-63548250D01*
X142763000Y-62957691D01*
X142666327Y-62724302D01*
X142487699Y-62545673D01*
X142351713Y-62489346D01*
X142363317Y-62487162D01*
X142579441Y-62348090D01*
X142724431Y-62135890D01*
X142775440Y-61884000D01*
X142775440Y-60384000D01*
X142731162Y-60148683D01*
X142592090Y-59932559D01*
X142535000Y-59893551D01*
X142535000Y-59459402D01*
X142550000Y-59462440D01*
X143650000Y-59462440D01*
X143885317Y-59418162D01*
X144101441Y-59279090D01*
X144246431Y-59066890D01*
X144297440Y-58815000D01*
X144297440Y-57900000D01*
X144780000Y-57900000D01*
X145310017Y-57794573D01*
X145759343Y-57494343D01*
X147664343Y-55589343D01*
X147746493Y-55466397D01*
X147964573Y-55140017D01*
X148070000Y-54610000D01*
X148070000Y-47650750D01*
X151064000Y-47650750D01*
X151064000Y-52191309D01*
X151160673Y-52424698D01*
X151339301Y-52603327D01*
X151572690Y-52700000D01*
X156813250Y-52700000D01*
X156972000Y-52541250D01*
X156972000Y-47492000D01*
X151222750Y-47492000D01*
X151064000Y-47650750D01*
X148070000Y-47650750D01*
X148070000Y-42538691D01*
X151064000Y-42538691D01*
X151064000Y-47079250D01*
X151222750Y-47238000D01*
X156972000Y-47238000D01*
X156972000Y-42188750D01*
X156813250Y-42030000D01*
X151572690Y-42030000D01*
X151339301Y-42126673D01*
X151160673Y-42305302D01*
X151064000Y-42538691D01*
X148070000Y-42538691D01*
X148070000Y-38735000D01*
X147964573Y-38204983D01*
X147664343Y-37755657D01*
X144137440Y-34228754D01*
X144137440Y-33040000D01*
X144105264Y-32869000D01*
X150198654Y-32869000D01*
X153129327Y-35799673D01*
X153821970Y-36262483D01*
X154639000Y-36425000D01*
X155456029Y-36262483D01*
X156148673Y-35799673D01*
X157741560Y-34206786D01*
X157741560Y-35540000D01*
X157785838Y-35775317D01*
X157924910Y-35991441D01*
X158137110Y-36136431D01*
X158389000Y-36187440D01*
X159577754Y-36187440D01*
X162699000Y-39308686D01*
X162699000Y-42060523D01*
X162625310Y-42030000D01*
X157384750Y-42030000D01*
X157226000Y-42188750D01*
X157226000Y-47238000D01*
X157246000Y-47238000D01*
X157246000Y-47492000D01*
X157226000Y-47492000D01*
X157226000Y-52541250D01*
X157384750Y-52700000D01*
X162625310Y-52700000D01*
X162699000Y-52669477D01*
X162699000Y-54036314D01*
X161696440Y-55038874D01*
X161696440Y-54215000D01*
X161652162Y-53979683D01*
X161513090Y-53763559D01*
X161300890Y-53618569D01*
X161049000Y-53567560D01*
X159949000Y-53567560D01*
X159713683Y-53611838D01*
X159650522Y-53652481D01*
X159600890Y-53618569D01*
X159349000Y-53567560D01*
X158249000Y-53567560D01*
X158013683Y-53611838D01*
X157950433Y-53652538D01*
X157775310Y-53580000D01*
X157384750Y-53580000D01*
X157226000Y-53738750D01*
X157226000Y-56388000D01*
X157246000Y-56388000D01*
X157246000Y-56642000D01*
X157226000Y-56642000D01*
X157226000Y-59291250D01*
X157384750Y-59450000D01*
X157664000Y-59450000D01*
X157664000Y-59909974D01*
X157648559Y-59919910D01*
X157503569Y-60132110D01*
X157452560Y-60384000D01*
X157452560Y-61884000D01*
X157496838Y-62119317D01*
X157635910Y-62335441D01*
X157848110Y-62480431D01*
X157881490Y-62487191D01*
X157740301Y-62545673D01*
X157561673Y-62724302D01*
X157465000Y-62957691D01*
X157465000Y-63548250D01*
X157623750Y-63707000D01*
X158623000Y-63707000D01*
X158623000Y-63687000D01*
X158877000Y-63687000D01*
X158877000Y-63707000D01*
X159876250Y-63707000D01*
X160035000Y-63548250D01*
X160035000Y-62957691D01*
X159938327Y-62724302D01*
X159759699Y-62545673D01*
X159623713Y-62489346D01*
X159635317Y-62487162D01*
X159851441Y-62348090D01*
X159996431Y-62135890D01*
X160047440Y-61884000D01*
X160047440Y-60384000D01*
X160003162Y-60148683D01*
X159934000Y-60041202D01*
X159934000Y-59459402D01*
X159949000Y-59462440D01*
X161049000Y-59462440D01*
X161284317Y-59418162D01*
X161500441Y-59279090D01*
X161645431Y-59066890D01*
X161696440Y-58815000D01*
X161696440Y-57900000D01*
X162179000Y-57900000D01*
X162709017Y-57794573D01*
X163158343Y-57494343D01*
X165063343Y-55589343D01*
X165145493Y-55466397D01*
X165363573Y-55140017D01*
X165469000Y-54610000D01*
X165469000Y-47650750D01*
X168463000Y-47650750D01*
X168463000Y-52191309D01*
X168559673Y-52424698D01*
X168738301Y-52603327D01*
X168971690Y-52700000D01*
X174212250Y-52700000D01*
X174371000Y-52541250D01*
X174371000Y-47492000D01*
X168621750Y-47492000D01*
X168463000Y-47650750D01*
X165469000Y-47650750D01*
X165469000Y-42538691D01*
X168463000Y-42538691D01*
X168463000Y-47079250D01*
X168621750Y-47238000D01*
X174371000Y-47238000D01*
X174371000Y-42188750D01*
X174625000Y-42188750D01*
X174625000Y-47238000D01*
X174645000Y-47238000D01*
X174645000Y-47492000D01*
X174625000Y-47492000D01*
X174625000Y-52541250D01*
X174783750Y-52700000D01*
X180024310Y-52700000D01*
X180098000Y-52669477D01*
X180098000Y-53782314D01*
X179095440Y-54784874D01*
X179095440Y-54215000D01*
X179051162Y-53979683D01*
X178912090Y-53763559D01*
X178699890Y-53618569D01*
X178448000Y-53567560D01*
X177348000Y-53567560D01*
X177112683Y-53611838D01*
X177049522Y-53652481D01*
X176999890Y-53618569D01*
X176748000Y-53567560D01*
X175648000Y-53567560D01*
X175412683Y-53611838D01*
X175349433Y-53652538D01*
X175174310Y-53580000D01*
X174783750Y-53580000D01*
X174625000Y-53738750D01*
X174625000Y-56388000D01*
X174645000Y-56388000D01*
X174645000Y-56642000D01*
X174625000Y-56642000D01*
X174625000Y-59291250D01*
X174783750Y-59450000D01*
X175063000Y-59450000D01*
X175063000Y-59829182D01*
X175029569Y-59878110D01*
X174978560Y-60130000D01*
X174978560Y-61630000D01*
X175022838Y-61865317D01*
X175161910Y-62081441D01*
X175374110Y-62226431D01*
X175407490Y-62233191D01*
X175266301Y-62291673D01*
X175087673Y-62470302D01*
X174991000Y-62703691D01*
X174991000Y-63294250D01*
X175149750Y-63453000D01*
X176149000Y-63453000D01*
X176149000Y-63433000D01*
X176403000Y-63433000D01*
X176403000Y-63453000D01*
X177402250Y-63453000D01*
X177561000Y-63294250D01*
X177561000Y-62703691D01*
X177464327Y-62470302D01*
X177285699Y-62291673D01*
X177149713Y-62235346D01*
X177161317Y-62233162D01*
X177377441Y-62094090D01*
X177522431Y-61881890D01*
X177573440Y-61630000D01*
X177573440Y-60130000D01*
X177529162Y-59894683D01*
X177390090Y-59678559D01*
X177333000Y-59639551D01*
X177333000Y-59459402D01*
X177348000Y-59462440D01*
X178448000Y-59462440D01*
X178683317Y-59418162D01*
X178899441Y-59279090D01*
X179044431Y-59066890D01*
X179095440Y-58815000D01*
X179095440Y-57646000D01*
X179578000Y-57646000D01*
X180108017Y-57540573D01*
X180557343Y-57240343D01*
X182462343Y-55335343D01*
X182544493Y-55212397D01*
X182762573Y-54886017D01*
X182868000Y-54356000D01*
X182868000Y-38735000D01*
X182762573Y-38204983D01*
X182462343Y-37755657D01*
X178935440Y-34228754D01*
X178935440Y-33040000D01*
X178891162Y-32804683D01*
X178752090Y-32588559D01*
X178539890Y-32443569D01*
X178288000Y-32392560D01*
X175788000Y-32392560D01*
X175552683Y-32436838D01*
X175336559Y-32575910D01*
X175191569Y-32788110D01*
X175140560Y-33040000D01*
X175140560Y-35540000D01*
X175184838Y-35775317D01*
X175323910Y-35991441D01*
X175536110Y-36136431D01*
X175788000Y-36187440D01*
X176976754Y-36187440D01*
X180098000Y-39308686D01*
X180098000Y-42060523D01*
X180024310Y-42030000D01*
X174783750Y-42030000D01*
X174625000Y-42188750D01*
X174371000Y-42188750D01*
X174212250Y-42030000D01*
X168971690Y-42030000D01*
X168738301Y-42126673D01*
X168559673Y-42305302D01*
X168463000Y-42538691D01*
X165469000Y-42538691D01*
X165469000Y-38735000D01*
X165363573Y-38204983D01*
X165063343Y-37755657D01*
X161536440Y-34228754D01*
X161536440Y-33040000D01*
X161528161Y-32996000D01*
X167390654Y-32996000D01*
X170194327Y-35799673D01*
X170886970Y-36262483D01*
X171704000Y-36425000D01*
X172038000Y-36425000D01*
X172855029Y-36262483D01*
X173547673Y-35799673D01*
X174010483Y-35107029D01*
X174173000Y-34290000D01*
X174010483Y-33472971D01*
X173547673Y-32780327D01*
X172855029Y-32317517D01*
X172724998Y-32291652D01*
X172076518Y-31643172D01*
X180847538Y-31643172D01*
X181252709Y-32623761D01*
X182002293Y-33374655D01*
X182982173Y-33781536D01*
X184043172Y-33782462D01*
X185023761Y-33377291D01*
X185774655Y-32627707D01*
X186181536Y-31647827D01*
X186182462Y-30586828D01*
X185777291Y-29606239D01*
X185027707Y-28855345D01*
X184047827Y-28448464D01*
X182986828Y-28447538D01*
X182006239Y-28852709D01*
X181255345Y-29602293D01*
X180848464Y-30582173D01*
X180847538Y-31643172D01*
X172076518Y-31643172D01*
X169784673Y-29351327D01*
X169092029Y-28888517D01*
X168275000Y-28726000D01*
X158068000Y-28726000D01*
X157250970Y-28888517D01*
X156558327Y-29351327D01*
X154639000Y-31270654D01*
X152592673Y-29224327D01*
X151900029Y-28761517D01*
X151083000Y-28599000D01*
X139573000Y-28599000D01*
X138755970Y-28761517D01*
X138063327Y-29224327D01*
X135730327Y-31557327D01*
X135267517Y-32249971D01*
X135105000Y-33067000D01*
X135105000Y-33452654D01*
X128284327Y-40273327D01*
X127964000Y-40752730D01*
X127964000Y-31643172D01*
X128269538Y-31643172D01*
X128674709Y-32623761D01*
X129424293Y-33374655D01*
X130404173Y-33781536D01*
X131465172Y-33782462D01*
X132445761Y-33377291D01*
X133196655Y-32627707D01*
X133603536Y-31647827D01*
X133604462Y-30586828D01*
X133199291Y-29606239D01*
X132449707Y-28855345D01*
X131469827Y-28448464D01*
X130408828Y-28447538D01*
X129428239Y-28852709D01*
X128677345Y-29602293D01*
X128270464Y-30582173D01*
X128269538Y-31643172D01*
X127964000Y-31643172D01*
X127964000Y-30549931D01*
X128164488Y-29542007D01*
X128695817Y-28746817D01*
X129491007Y-28215488D01*
X130498931Y-28015000D01*
X183329994Y-28015000D01*
X184601098Y-28224082D01*
G36*
X143951887Y-80899000D02*
X144061120Y-81448151D01*
X144372189Y-81913698D01*
X144837736Y-82224767D01*
X145386887Y-82334000D01*
X145443113Y-82334000D01*
X145720102Y-82278904D01*
X149068599Y-85627401D01*
X149315161Y-85792148D01*
X149606000Y-85850000D01*
X157546198Y-85850000D01*
X159387000Y-87690802D01*
X159387000Y-88252560D01*
X159131000Y-88252560D01*
X158895683Y-88296838D01*
X158679559Y-88435910D01*
X158534569Y-88648110D01*
X158483560Y-88900000D01*
X158483560Y-90352758D01*
X158000440Y-89869638D01*
X158000440Y-88900000D01*
X157956162Y-88664683D01*
X157817090Y-88448559D01*
X157604890Y-88303569D01*
X157353000Y-88252560D01*
X155321000Y-88252560D01*
X155085683Y-88296838D01*
X154869559Y-88435910D01*
X154724569Y-88648110D01*
X154673560Y-88900000D01*
X154673560Y-90932000D01*
X154686483Y-91000681D01*
X154063440Y-90377638D01*
X154063440Y-88900000D01*
X154019162Y-88664683D01*
X153880090Y-88448559D01*
X153667890Y-88303569D01*
X153416000Y-88252560D01*
X151384000Y-88252560D01*
X151148683Y-88296838D01*
X150932559Y-88435910D01*
X150787569Y-88648110D01*
X150736560Y-88900000D01*
X150736560Y-90932000D01*
X150780838Y-91167317D01*
X150919910Y-91383441D01*
X151068837Y-91485198D01*
X150842330Y-91824190D01*
X150716655Y-92456000D01*
X150842330Y-93087810D01*
X151200222Y-93623433D01*
X151735845Y-93981325D01*
X152367655Y-94107000D01*
X152432345Y-94107000D01*
X153064155Y-93981325D01*
X153599778Y-93623433D01*
X153678644Y-93505402D01*
X153729852Y-93762839D01*
X153894599Y-94009401D01*
X154783599Y-94898401D01*
X155030161Y-95063148D01*
X155321000Y-95121000D01*
X157290800Y-95121000D01*
X162930495Y-100760695D01*
X162673964Y-100884268D01*
X162517093Y-101059845D01*
X162502762Y-100983683D01*
X162363690Y-100767559D01*
X162151490Y-100622569D01*
X161899600Y-100571560D01*
X160447362Y-100571560D01*
X158398401Y-98522599D01*
X158151839Y-98357852D01*
X157861000Y-98300000D01*
X146097000Y-98300000D01*
X145806161Y-98357852D01*
X145559599Y-98522599D01*
X145394772Y-98687426D01*
X131992500Y-85285154D01*
X131992500Y-85109302D01*
X133000362Y-84101440D01*
X133766000Y-84101440D01*
X134001317Y-84057162D01*
X134217441Y-83918090D01*
X134362431Y-83705890D01*
X134365081Y-83692803D01*
X134501910Y-83905441D01*
X134714110Y-84050431D01*
X134966000Y-84101440D01*
X136466000Y-84101440D01*
X136701317Y-84057162D01*
X136917441Y-83918090D01*
X137062431Y-83705890D01*
X137091164Y-83564000D01*
X137829560Y-83564000D01*
X137829560Y-83603000D01*
X137873838Y-83838317D01*
X138012910Y-84054441D01*
X138225110Y-84199431D01*
X138477000Y-84250440D01*
X139277000Y-84250440D01*
X139512317Y-84206162D01*
X139728441Y-84067090D01*
X139827633Y-83921917D01*
X139912910Y-84054441D01*
X140125110Y-84199431D01*
X140377000Y-84250440D01*
X141177000Y-84250440D01*
X141412317Y-84206162D01*
X141628441Y-84067090D01*
X141773431Y-83854890D01*
X141824440Y-83603000D01*
X141824440Y-83399386D01*
X142046839Y-83355148D01*
X142293401Y-83190401D01*
X143539401Y-81944401D01*
X143704148Y-81697839D01*
X143762000Y-81407000D01*
X143762000Y-81086802D01*
X143952405Y-80896397D01*
X143951887Y-80899000D01*
X143951887Y-80899000D01*
G37*
X143951887Y-80899000D02*
X144061120Y-81448151D01*
X144372189Y-81913698D01*
X144837736Y-82224767D01*
X145386887Y-82334000D01*
X145443113Y-82334000D01*
X145720102Y-82278904D01*
X149068599Y-85627401D01*
X149315161Y-85792148D01*
X149606000Y-85850000D01*
X157546198Y-85850000D01*
X159387000Y-87690802D01*
X159387000Y-88252560D01*
X159131000Y-88252560D01*
X158895683Y-88296838D01*
X158679559Y-88435910D01*
X158534569Y-88648110D01*
X158483560Y-88900000D01*
X158483560Y-90352758D01*
X158000440Y-89869638D01*
X158000440Y-88900000D01*
X157956162Y-88664683D01*
X157817090Y-88448559D01*
X157604890Y-88303569D01*
X157353000Y-88252560D01*
X155321000Y-88252560D01*
X155085683Y-88296838D01*
X154869559Y-88435910D01*
X154724569Y-88648110D01*
X154673560Y-88900000D01*
X154673560Y-90932000D01*
X154686483Y-91000681D01*
X154063440Y-90377638D01*
X154063440Y-88900000D01*
X154019162Y-88664683D01*
X153880090Y-88448559D01*
X153667890Y-88303569D01*
X153416000Y-88252560D01*
X151384000Y-88252560D01*
X151148683Y-88296838D01*
X150932559Y-88435910D01*
X150787569Y-88648110D01*
X150736560Y-88900000D01*
X150736560Y-90932000D01*
X150780838Y-91167317D01*
X150919910Y-91383441D01*
X151068837Y-91485198D01*
X150842330Y-91824190D01*
X150716655Y-92456000D01*
X150842330Y-93087810D01*
X151200222Y-93623433D01*
X151735845Y-93981325D01*
X152367655Y-94107000D01*
X152432345Y-94107000D01*
X153064155Y-93981325D01*
X153599778Y-93623433D01*
X153678644Y-93505402D01*
X153729852Y-93762839D01*
X153894599Y-94009401D01*
X154783599Y-94898401D01*
X155030161Y-95063148D01*
X155321000Y-95121000D01*
X157290800Y-95121000D01*
X162930495Y-100760695D01*
X162673964Y-100884268D01*
X162517093Y-101059845D01*
X162502762Y-100983683D01*
X162363690Y-100767559D01*
X162151490Y-100622569D01*
X161899600Y-100571560D01*
X160447362Y-100571560D01*
X158398401Y-98522599D01*
X158151839Y-98357852D01*
X157861000Y-98300000D01*
X146097000Y-98300000D01*
X145806161Y-98357852D01*
X145559599Y-98522599D01*
X145394772Y-98687426D01*
X131992500Y-85285154D01*
X131992500Y-85109302D01*
X133000362Y-84101440D01*
X133766000Y-84101440D01*
X134001317Y-84057162D01*
X134217441Y-83918090D01*
X134362431Y-83705890D01*
X134365081Y-83692803D01*
X134501910Y-83905441D01*
X134714110Y-84050431D01*
X134966000Y-84101440D01*
X136466000Y-84101440D01*
X136701317Y-84057162D01*
X136917441Y-83918090D01*
X137062431Y-83705890D01*
X137091164Y-83564000D01*
X137829560Y-83564000D01*
X137829560Y-83603000D01*
X137873838Y-83838317D01*
X138012910Y-84054441D01*
X138225110Y-84199431D01*
X138477000Y-84250440D01*
X139277000Y-84250440D01*
X139512317Y-84206162D01*
X139728441Y-84067090D01*
X139827633Y-83921917D01*
X139912910Y-84054441D01*
X140125110Y-84199431D01*
X140377000Y-84250440D01*
X141177000Y-84250440D01*
X141412317Y-84206162D01*
X141628441Y-84067090D01*
X141773431Y-83854890D01*
X141824440Y-83603000D01*
X141824440Y-83399386D01*
X142046839Y-83355148D01*
X142293401Y-83190401D01*
X143539401Y-81944401D01*
X143704148Y-81697839D01*
X143762000Y-81407000D01*
X143762000Y-81086802D01*
X143952405Y-80896397D01*
X143951887Y-80899000D01*
G36*
X164765560Y-69073000D02*
X164765560Y-70045638D01*
X163529638Y-71281560D01*
X162094000Y-71281560D01*
X161858683Y-71325838D01*
X161642559Y-71464910D01*
X161497569Y-71677110D01*
X161446560Y-71929000D01*
X161446560Y-72433534D01*
X161353698Y-72340673D01*
X161120309Y-72244000D01*
X160329750Y-72244000D01*
X160171000Y-72402750D01*
X160171000Y-73152000D01*
X161470250Y-73152000D01*
X161556262Y-73065988D01*
X161629910Y-73180441D01*
X161775083Y-73279633D01*
X161642559Y-73364910D01*
X161555936Y-73491686D01*
X161470250Y-73406000D01*
X160171000Y-73406000D01*
X160171000Y-74155250D01*
X160329750Y-74314000D01*
X161120309Y-74314000D01*
X161353698Y-74217327D01*
X161446560Y-74124466D01*
X161446560Y-74629000D01*
X161490838Y-74864317D01*
X161629910Y-75080441D01*
X161842110Y-75225431D01*
X162094000Y-75276440D01*
X162261000Y-75276440D01*
X162261000Y-75666442D01*
X162035683Y-75708838D01*
X161819559Y-75847910D01*
X161674569Y-76060110D01*
X161671919Y-76073197D01*
X161535090Y-75860559D01*
X161322890Y-75715569D01*
X161071000Y-75664560D01*
X159571000Y-75664560D01*
X159335683Y-75708838D01*
X159119559Y-75847910D01*
X158974569Y-76060110D01*
X158923560Y-76312000D01*
X158923560Y-77612000D01*
X158967838Y-77847317D01*
X159106910Y-78063441D01*
X159319110Y-78208431D01*
X159561000Y-78257415D01*
X159561000Y-82905442D01*
X159335683Y-82947838D01*
X159119559Y-83086910D01*
X158974569Y-83299110D01*
X158923560Y-83551000D01*
X158923560Y-84851000D01*
X158967838Y-85086317D01*
X159032308Y-85186506D01*
X158398401Y-84552599D01*
X158151839Y-84387852D01*
X157861000Y-84330000D01*
X149920802Y-84330000D01*
X146813688Y-81222886D01*
X146878113Y-80899000D01*
X146776668Y-80389000D01*
X151673332Y-80389000D01*
X151571887Y-80899000D01*
X151681120Y-81448151D01*
X151992189Y-81913698D01*
X152457736Y-82224767D01*
X153006887Y-82334000D01*
X153063113Y-82334000D01*
X153612264Y-82224767D01*
X154077811Y-81913698D01*
X154247995Y-81659000D01*
X154559000Y-81659000D01*
X154849839Y-81601148D01*
X155096401Y-81436401D01*
X156874401Y-79658401D01*
X157039148Y-79411839D01*
X157097000Y-79121000D01*
X157097000Y-73564750D01*
X158459000Y-73564750D01*
X158459000Y-73805310D01*
X158555673Y-74038699D01*
X158734302Y-74217327D01*
X158967691Y-74314000D01*
X159758250Y-74314000D01*
X159917000Y-74155250D01*
X159917000Y-73406000D01*
X158617750Y-73406000D01*
X158459000Y-73564750D01*
X157097000Y-73564750D01*
X157097000Y-72752690D01*
X158459000Y-72752690D01*
X158459000Y-72993250D01*
X158617750Y-73152000D01*
X159917000Y-73152000D01*
X159917000Y-72402750D01*
X159758250Y-72244000D01*
X158967691Y-72244000D01*
X158734302Y-72340673D01*
X158555673Y-72519301D01*
X158459000Y-72752690D01*
X157097000Y-72752690D01*
X157097000Y-71555463D01*
X157129192Y-71523327D01*
X157271838Y-71179799D01*
X157272162Y-70807833D01*
X157130117Y-70464057D01*
X156867327Y-70200808D01*
X156523799Y-70058162D01*
X156151833Y-70057838D01*
X155808057Y-70199883D01*
X155544808Y-70462673D01*
X155402162Y-70806201D01*
X155401838Y-71178167D01*
X155543883Y-71521943D01*
X155577000Y-71555118D01*
X155577000Y-78806198D01*
X154246474Y-80136724D01*
X154077811Y-79884302D01*
X153695725Y-79629000D01*
X154077811Y-79373698D01*
X154388880Y-78908151D01*
X154498113Y-78359000D01*
X154388880Y-77809849D01*
X154077811Y-77344302D01*
X153695725Y-77089000D01*
X154077811Y-76833698D01*
X154388880Y-76368151D01*
X154498113Y-75819000D01*
X154388880Y-75269849D01*
X154077811Y-74804302D01*
X153673297Y-74534014D01*
X153890134Y-74431389D01*
X154266041Y-74016423D01*
X154426904Y-73628039D01*
X154304915Y-73406000D01*
X153162000Y-73406000D01*
X153162000Y-73426000D01*
X152908000Y-73426000D01*
X152908000Y-73406000D01*
X151765085Y-73406000D01*
X151643096Y-73628039D01*
X151699823Y-73765000D01*
X146781442Y-73765000D01*
X146878113Y-73279000D01*
X146808685Y-72929961D01*
X151643096Y-72929961D01*
X151765085Y-73152000D01*
X152908000Y-73152000D01*
X152908000Y-72008371D01*
X153162000Y-72008371D01*
X153162000Y-73152000D01*
X154304915Y-73152000D01*
X154426904Y-72929961D01*
X154266041Y-72541577D01*
X153890134Y-72126611D01*
X153384041Y-71887086D01*
X153162000Y-72008371D01*
X152908000Y-72008371D01*
X152685959Y-71887086D01*
X152179866Y-72126611D01*
X151803959Y-72541577D01*
X151643096Y-72929961D01*
X146808685Y-72929961D01*
X146768880Y-72729849D01*
X146744387Y-72693193D01*
X150500579Y-68937000D01*
X164793101Y-68937000D01*
X164765560Y-69073000D01*
X164765560Y-69073000D01*
G37*
X164765560Y-69073000D02*
X164765560Y-70045638D01*
X163529638Y-71281560D01*
X162094000Y-71281560D01*
X161858683Y-71325838D01*
X161642559Y-71464910D01*
X161497569Y-71677110D01*
X161446560Y-71929000D01*
X161446560Y-72433534D01*
X161353698Y-72340673D01*
X161120309Y-72244000D01*
X160329750Y-72244000D01*
X160171000Y-72402750D01*
X160171000Y-73152000D01*
X161470250Y-73152000D01*
X161556262Y-73065988D01*
X161629910Y-73180441D01*
X161775083Y-73279633D01*
X161642559Y-73364910D01*
X161555936Y-73491686D01*
X161470250Y-73406000D01*
X160171000Y-73406000D01*
X160171000Y-74155250D01*
X160329750Y-74314000D01*
X161120309Y-74314000D01*
X161353698Y-74217327D01*
X161446560Y-74124466D01*
X161446560Y-74629000D01*
X161490838Y-74864317D01*
X161629910Y-75080441D01*
X161842110Y-75225431D01*
X162094000Y-75276440D01*
X162261000Y-75276440D01*
X162261000Y-75666442D01*
X162035683Y-75708838D01*
X161819559Y-75847910D01*
X161674569Y-76060110D01*
X161671919Y-76073197D01*
X161535090Y-75860559D01*
X161322890Y-75715569D01*
X161071000Y-75664560D01*
X159571000Y-75664560D01*
X159335683Y-75708838D01*
X159119559Y-75847910D01*
X158974569Y-76060110D01*
X158923560Y-76312000D01*
X158923560Y-77612000D01*
X158967838Y-77847317D01*
X159106910Y-78063441D01*
X159319110Y-78208431D01*
X159561000Y-78257415D01*
X159561000Y-82905442D01*
X159335683Y-82947838D01*
X159119559Y-83086910D01*
X158974569Y-83299110D01*
X158923560Y-83551000D01*
X158923560Y-84851000D01*
X158967838Y-85086317D01*
X159032308Y-85186506D01*
X158398401Y-84552599D01*
X158151839Y-84387852D01*
X157861000Y-84330000D01*
X149920802Y-84330000D01*
X146813688Y-81222886D01*
X146878113Y-80899000D01*
X146776668Y-80389000D01*
X151673332Y-80389000D01*
X151571887Y-80899000D01*
X151681120Y-81448151D01*
X151992189Y-81913698D01*
X152457736Y-82224767D01*
X153006887Y-82334000D01*
X153063113Y-82334000D01*
X153612264Y-82224767D01*
X154077811Y-81913698D01*
X154247995Y-81659000D01*
X154559000Y-81659000D01*
X154849839Y-81601148D01*
X155096401Y-81436401D01*
X156874401Y-79658401D01*
X157039148Y-79411839D01*
X157097000Y-79121000D01*
X157097000Y-73564750D01*
X158459000Y-73564750D01*
X158459000Y-73805310D01*
X158555673Y-74038699D01*
X158734302Y-74217327D01*
X158967691Y-74314000D01*
X159758250Y-74314000D01*
X159917000Y-74155250D01*
X159917000Y-73406000D01*
X158617750Y-73406000D01*
X158459000Y-73564750D01*
X157097000Y-73564750D01*
X157097000Y-72752690D01*
X158459000Y-72752690D01*
X158459000Y-72993250D01*
X158617750Y-73152000D01*
X159917000Y-73152000D01*
X159917000Y-72402750D01*
X159758250Y-72244000D01*
X158967691Y-72244000D01*
X158734302Y-72340673D01*
X158555673Y-72519301D01*
X158459000Y-72752690D01*
X157097000Y-72752690D01*
X157097000Y-71555463D01*
X157129192Y-71523327D01*
X157271838Y-71179799D01*
X157272162Y-70807833D01*
X157130117Y-70464057D01*
X156867327Y-70200808D01*
X156523799Y-70058162D01*
X156151833Y-70057838D01*
X155808057Y-70199883D01*
X155544808Y-70462673D01*
X155402162Y-70806201D01*
X155401838Y-71178167D01*
X155543883Y-71521943D01*
X155577000Y-71555118D01*
X155577000Y-78806198D01*
X154246474Y-80136724D01*
X154077811Y-79884302D01*
X153695725Y-79629000D01*
X154077811Y-79373698D01*
X154388880Y-78908151D01*
X154498113Y-78359000D01*
X154388880Y-77809849D01*
X154077811Y-77344302D01*
X153695725Y-77089000D01*
X154077811Y-76833698D01*
X154388880Y-76368151D01*
X154498113Y-75819000D01*
X154388880Y-75269849D01*
X154077811Y-74804302D01*
X153673297Y-74534014D01*
X153890134Y-74431389D01*
X154266041Y-74016423D01*
X154426904Y-73628039D01*
X154304915Y-73406000D01*
X153162000Y-73406000D01*
X153162000Y-73426000D01*
X152908000Y-73426000D01*
X152908000Y-73406000D01*
X151765085Y-73406000D01*
X151643096Y-73628039D01*
X151699823Y-73765000D01*
X146781442Y-73765000D01*
X146878113Y-73279000D01*
X146808685Y-72929961D01*
X151643096Y-72929961D01*
X151765085Y-73152000D01*
X152908000Y-73152000D01*
X152908000Y-72008371D01*
X153162000Y-72008371D01*
X153162000Y-73152000D01*
X154304915Y-73152000D01*
X154426904Y-72929961D01*
X154266041Y-72541577D01*
X153890134Y-72126611D01*
X153384041Y-71887086D01*
X153162000Y-72008371D01*
X152908000Y-72008371D01*
X152685959Y-71887086D01*
X152179866Y-72126611D01*
X151803959Y-72541577D01*
X151643096Y-72929961D01*
X146808685Y-72929961D01*
X146768880Y-72729849D01*
X146744387Y-72693193D01*
X150500579Y-68937000D01*
X164793101Y-68937000D01*
X164765560Y-69073000D01*
G36*
X173611000Y-73466802D02*
X173611000Y-74294196D01*
X172973196Y-74932000D01*
X171196000Y-74932000D01*
X170905161Y-74989852D01*
X170658599Y-75154599D01*
X169515599Y-76297599D01*
X169350852Y-76544161D01*
X169293000Y-76835000D01*
X169293000Y-80838198D01*
X168848595Y-81282603D01*
X168849113Y-81280000D01*
X168739880Y-80730849D01*
X168428811Y-80265302D01*
X168146000Y-80076333D01*
X168146000Y-79943667D01*
X168428811Y-79754698D01*
X168739880Y-79289151D01*
X168849113Y-78740000D01*
X168739880Y-78190849D01*
X168428811Y-77725302D01*
X168046725Y-77470000D01*
X168428811Y-77214698D01*
X168739880Y-76749151D01*
X168849113Y-76200000D01*
X168739880Y-75650849D01*
X168428811Y-75185302D01*
X167963264Y-74874233D01*
X167414113Y-74765000D01*
X167357887Y-74765000D01*
X166808736Y-74874233D01*
X166343189Y-75185302D01*
X166032120Y-75650849D01*
X165922887Y-76200000D01*
X166032120Y-76749151D01*
X166343189Y-77214698D01*
X166725275Y-77470000D01*
X166343189Y-77725302D01*
X166032120Y-78190849D01*
X165922887Y-78740000D01*
X166032120Y-79289151D01*
X166343189Y-79754698D01*
X166626000Y-79943667D01*
X166626000Y-80076333D01*
X166343189Y-80265302D01*
X166032120Y-80730849D01*
X165922887Y-81280000D01*
X165987312Y-81603886D01*
X165290500Y-82300698D01*
X163781000Y-80791198D01*
X163781000Y-78257558D01*
X164006317Y-78215162D01*
X164222441Y-78076090D01*
X164367431Y-77863890D01*
X164418440Y-77612000D01*
X164418440Y-76312000D01*
X164374162Y-76076683D01*
X164235090Y-75860559D01*
X164022890Y-75715569D01*
X163781000Y-75666585D01*
X163781000Y-75276440D01*
X163994000Y-75276440D01*
X164229317Y-75232162D01*
X164445441Y-75093090D01*
X164590431Y-74880890D01*
X164641440Y-74629000D01*
X164641440Y-73829000D01*
X164597162Y-73593683D01*
X164458090Y-73377559D01*
X164312917Y-73278367D01*
X164445441Y-73193090D01*
X164590431Y-72980890D01*
X164641440Y-72729000D01*
X164641440Y-72319362D01*
X165940362Y-71020440D01*
X166913000Y-71020440D01*
X167148317Y-70976162D01*
X167364441Y-70837090D01*
X167509431Y-70624890D01*
X167512081Y-70611803D01*
X167648910Y-70824441D01*
X167861110Y-70969431D01*
X168113000Y-71020440D01*
X169613000Y-71020440D01*
X169848317Y-70976162D01*
X170064441Y-70837090D01*
X170209431Y-70624890D01*
X170238164Y-70483000D01*
X170627198Y-70483000D01*
X173611000Y-73466802D01*
X173611000Y-73466802D01*
G37*
X173611000Y-73466802D02*
X173611000Y-74294196D01*
X172973196Y-74932000D01*
X171196000Y-74932000D01*
X170905161Y-74989852D01*
X170658599Y-75154599D01*
X169515599Y-76297599D01*
X169350852Y-76544161D01*
X169293000Y-76835000D01*
X169293000Y-80838198D01*
X168848595Y-81282603D01*
X168849113Y-81280000D01*
X168739880Y-80730849D01*
X168428811Y-80265302D01*
X168146000Y-80076333D01*
X168146000Y-79943667D01*
X168428811Y-79754698D01*
X168739880Y-79289151D01*
X168849113Y-78740000D01*
X168739880Y-78190849D01*
X168428811Y-77725302D01*
X168046725Y-77470000D01*
X168428811Y-77214698D01*
X168739880Y-76749151D01*
X168849113Y-76200000D01*
X168739880Y-75650849D01*
X168428811Y-75185302D01*
X167963264Y-74874233D01*
X167414113Y-74765000D01*
X167357887Y-74765000D01*
X166808736Y-74874233D01*
X166343189Y-75185302D01*
X166032120Y-75650849D01*
X165922887Y-76200000D01*
X166032120Y-76749151D01*
X166343189Y-77214698D01*
X166725275Y-77470000D01*
X166343189Y-77725302D01*
X166032120Y-78190849D01*
X165922887Y-78740000D01*
X166032120Y-79289151D01*
X166343189Y-79754698D01*
X166626000Y-79943667D01*
X166626000Y-80076333D01*
X166343189Y-80265302D01*
X166032120Y-80730849D01*
X165922887Y-81280000D01*
X165987312Y-81603886D01*
X165290500Y-82300698D01*
X163781000Y-80791198D01*
X163781000Y-78257558D01*
X164006317Y-78215162D01*
X164222441Y-78076090D01*
X164367431Y-77863890D01*
X164418440Y-77612000D01*
X164418440Y-76312000D01*
X164374162Y-76076683D01*
X164235090Y-75860559D01*
X164022890Y-75715569D01*
X163781000Y-75666585D01*
X163781000Y-75276440D01*
X163994000Y-75276440D01*
X164229317Y-75232162D01*
X164445441Y-75093090D01*
X164590431Y-74880890D01*
X164641440Y-74629000D01*
X164641440Y-73829000D01*
X164597162Y-73593683D01*
X164458090Y-73377559D01*
X164312917Y-73278367D01*
X164445441Y-73193090D01*
X164590431Y-72980890D01*
X164641440Y-72729000D01*
X164641440Y-72319362D01*
X165940362Y-71020440D01*
X166913000Y-71020440D01*
X167148317Y-70976162D01*
X167364441Y-70837090D01*
X167509431Y-70624890D01*
X167512081Y-70611803D01*
X167648910Y-70824441D01*
X167861110Y-70969431D01*
X168113000Y-71020440D01*
X169613000Y-71020440D01*
X169848317Y-70976162D01*
X170064441Y-70837090D01*
X170209431Y-70624890D01*
X170238164Y-70483000D01*
X170627198Y-70483000D01*
X173611000Y-73466802D01*
G36*
X143951887Y-75819000D02*
X144061120Y-76368151D01*
X144372189Y-76833698D01*
X144754275Y-77089000D01*
X144372189Y-77344302D01*
X144061120Y-77809849D01*
X143951887Y-78359000D01*
X144056821Y-78886540D01*
X143854161Y-78926852D01*
X143607599Y-79091599D01*
X142464599Y-80234599D01*
X142299852Y-80481161D01*
X142242000Y-80772000D01*
X142242000Y-81092198D01*
X141793837Y-81540361D01*
X141780162Y-81467683D01*
X141641090Y-81251559D01*
X141428890Y-81106569D01*
X141177000Y-81055560D01*
X140672466Y-81055560D01*
X140765327Y-80962698D01*
X140862000Y-80729309D01*
X140862000Y-79938750D01*
X140703250Y-79780000D01*
X139954000Y-79780000D01*
X139954000Y-81079250D01*
X140040012Y-81165262D01*
X139925559Y-81238910D01*
X139826367Y-81384083D01*
X139741090Y-81251559D01*
X139614314Y-81164936D01*
X139700000Y-81079250D01*
X139700000Y-79780000D01*
X138950750Y-79780000D01*
X138792000Y-79938750D01*
X138792000Y-80729309D01*
X138888673Y-80962698D01*
X138981534Y-81055560D01*
X138477000Y-81055560D01*
X138241683Y-81099838D01*
X138025559Y-81238910D01*
X137880569Y-81451110D01*
X137829560Y-81703000D01*
X137829560Y-82044000D01*
X137092742Y-82044000D01*
X137069162Y-81918683D01*
X136930090Y-81702559D01*
X136717890Y-81557569D01*
X136466000Y-81506560D01*
X136429020Y-81506560D01*
X136429020Y-81353669D01*
X136503777Y-81339602D01*
X136719901Y-81200530D01*
X136864891Y-80988330D01*
X136915900Y-80736440D01*
X136915900Y-79537560D01*
X136871622Y-79302243D01*
X136732550Y-79086119D01*
X136520350Y-78941129D01*
X136268460Y-78890120D01*
X135069580Y-78890120D01*
X134834263Y-78934398D01*
X134618139Y-79073470D01*
X134612544Y-79081659D01*
X134530118Y-78999233D01*
X134296729Y-78902560D01*
X133856730Y-78902560D01*
X133697980Y-79061310D01*
X133697980Y-80010000D01*
X133717980Y-80010000D01*
X133717980Y-80264000D01*
X133697980Y-80264000D01*
X133697980Y-81212690D01*
X133856730Y-81371440D01*
X134296729Y-81371440D01*
X134530118Y-81274767D01*
X134612331Y-81192555D01*
X134817690Y-81332871D01*
X134909020Y-81351366D01*
X134909020Y-81517282D01*
X134730683Y-81550838D01*
X134514559Y-81689910D01*
X134369569Y-81902110D01*
X134366919Y-81915197D01*
X134230090Y-81702559D01*
X134017890Y-81557569D01*
X133766000Y-81506560D01*
X132266000Y-81506560D01*
X132030683Y-81550838D01*
X131992500Y-81575408D01*
X131992500Y-80422750D01*
X132336540Y-80422750D01*
X132336540Y-80862750D01*
X132433213Y-81096139D01*
X132611842Y-81274767D01*
X132845231Y-81371440D01*
X133285230Y-81371440D01*
X133443980Y-81212690D01*
X133443980Y-80264000D01*
X132495290Y-80264000D01*
X132336540Y-80422750D01*
X131992500Y-80422750D01*
X131992500Y-79411250D01*
X132336540Y-79411250D01*
X132336540Y-79851250D01*
X132495290Y-80010000D01*
X133443980Y-80010000D01*
X133443980Y-79061310D01*
X133285230Y-78902560D01*
X132845231Y-78902560D01*
X132611842Y-78999233D01*
X132433213Y-79177861D01*
X132336540Y-79411250D01*
X131992500Y-79411250D01*
X131992500Y-78576691D01*
X138792000Y-78576691D01*
X138792000Y-79367250D01*
X138950750Y-79526000D01*
X139700000Y-79526000D01*
X139700000Y-78226750D01*
X139954000Y-78226750D01*
X139954000Y-79526000D01*
X140703250Y-79526000D01*
X140862000Y-79367250D01*
X140862000Y-78576691D01*
X140765327Y-78343302D01*
X140586699Y-78164673D01*
X140353310Y-78068000D01*
X140112750Y-78068000D01*
X139954000Y-78226750D01*
X139700000Y-78226750D01*
X139541250Y-78068000D01*
X139300690Y-78068000D01*
X139067301Y-78164673D01*
X138888673Y-78343302D01*
X138792000Y-78576691D01*
X131992500Y-78576691D01*
X131992500Y-75693890D01*
X132141110Y-75795431D01*
X132393000Y-75846440D01*
X133893000Y-75846440D01*
X134128317Y-75802162D01*
X134344441Y-75663090D01*
X134489431Y-75450890D01*
X134492081Y-75437803D01*
X134628910Y-75650441D01*
X134841110Y-75795431D01*
X135093000Y-75846440D01*
X136593000Y-75846440D01*
X136828317Y-75802162D01*
X137044441Y-75663090D01*
X137189431Y-75450890D01*
X137218164Y-75309000D01*
X137829560Y-75309000D01*
X137829560Y-75475000D01*
X137873838Y-75710317D01*
X138012910Y-75926441D01*
X138225110Y-76071431D01*
X138477000Y-76122440D01*
X139277000Y-76122440D01*
X139512317Y-76078162D01*
X139728441Y-75939090D01*
X139827633Y-75793917D01*
X139912910Y-75926441D01*
X140125110Y-76071431D01*
X140377000Y-76122440D01*
X141177000Y-76122440D01*
X141412317Y-76078162D01*
X141628441Y-75939090D01*
X141773431Y-75726890D01*
X141824440Y-75475000D01*
X141824440Y-75285000D01*
X144058106Y-75285000D01*
X143951887Y-75819000D01*
X143951887Y-75819000D01*
G37*
X143951887Y-75819000D02*
X144061120Y-76368151D01*
X144372189Y-76833698D01*
X144754275Y-77089000D01*
X144372189Y-77344302D01*
X144061120Y-77809849D01*
X143951887Y-78359000D01*
X144056821Y-78886540D01*
X143854161Y-78926852D01*
X143607599Y-79091599D01*
X142464599Y-80234599D01*
X142299852Y-80481161D01*
X142242000Y-80772000D01*
X142242000Y-81092198D01*
X141793837Y-81540361D01*
X141780162Y-81467683D01*
X141641090Y-81251559D01*
X141428890Y-81106569D01*
X141177000Y-81055560D01*
X140672466Y-81055560D01*
X140765327Y-80962698D01*
X140862000Y-80729309D01*
X140862000Y-79938750D01*
X140703250Y-79780000D01*
X139954000Y-79780000D01*
X139954000Y-81079250D01*
X140040012Y-81165262D01*
X139925559Y-81238910D01*
X139826367Y-81384083D01*
X139741090Y-81251559D01*
X139614314Y-81164936D01*
X139700000Y-81079250D01*
X139700000Y-79780000D01*
X138950750Y-79780000D01*
X138792000Y-79938750D01*
X138792000Y-80729309D01*
X138888673Y-80962698D01*
X138981534Y-81055560D01*
X138477000Y-81055560D01*
X138241683Y-81099838D01*
X138025559Y-81238910D01*
X137880569Y-81451110D01*
X137829560Y-81703000D01*
X137829560Y-82044000D01*
X137092742Y-82044000D01*
X137069162Y-81918683D01*
X136930090Y-81702559D01*
X136717890Y-81557569D01*
X136466000Y-81506560D01*
X136429020Y-81506560D01*
X136429020Y-81353669D01*
X136503777Y-81339602D01*
X136719901Y-81200530D01*
X136864891Y-80988330D01*
X136915900Y-80736440D01*
X136915900Y-79537560D01*
X136871622Y-79302243D01*
X136732550Y-79086119D01*
X136520350Y-78941129D01*
X136268460Y-78890120D01*
X135069580Y-78890120D01*
X134834263Y-78934398D01*
X134618139Y-79073470D01*
X134612544Y-79081659D01*
X134530118Y-78999233D01*
X134296729Y-78902560D01*
X133856730Y-78902560D01*
X133697980Y-79061310D01*
X133697980Y-80010000D01*
X133717980Y-80010000D01*
X133717980Y-80264000D01*
X133697980Y-80264000D01*
X133697980Y-81212690D01*
X133856730Y-81371440D01*
X134296729Y-81371440D01*
X134530118Y-81274767D01*
X134612331Y-81192555D01*
X134817690Y-81332871D01*
X134909020Y-81351366D01*
X134909020Y-81517282D01*
X134730683Y-81550838D01*
X134514559Y-81689910D01*
X134369569Y-81902110D01*
X134366919Y-81915197D01*
X134230090Y-81702559D01*
X134017890Y-81557569D01*
X133766000Y-81506560D01*
X132266000Y-81506560D01*
X132030683Y-81550838D01*
X131992500Y-81575408D01*
X131992500Y-80422750D01*
X132336540Y-80422750D01*
X132336540Y-80862750D01*
X132433213Y-81096139D01*
X132611842Y-81274767D01*
X132845231Y-81371440D01*
X133285230Y-81371440D01*
X133443980Y-81212690D01*
X133443980Y-80264000D01*
X132495290Y-80264000D01*
X132336540Y-80422750D01*
X131992500Y-80422750D01*
X131992500Y-79411250D01*
X132336540Y-79411250D01*
X132336540Y-79851250D01*
X132495290Y-80010000D01*
X133443980Y-80010000D01*
X133443980Y-79061310D01*
X133285230Y-78902560D01*
X132845231Y-78902560D01*
X132611842Y-78999233D01*
X132433213Y-79177861D01*
X132336540Y-79411250D01*
X131992500Y-79411250D01*
X131992500Y-78576691D01*
X138792000Y-78576691D01*
X138792000Y-79367250D01*
X138950750Y-79526000D01*
X139700000Y-79526000D01*
X139700000Y-78226750D01*
X139954000Y-78226750D01*
X139954000Y-79526000D01*
X140703250Y-79526000D01*
X140862000Y-79367250D01*
X140862000Y-78576691D01*
X140765327Y-78343302D01*
X140586699Y-78164673D01*
X140353310Y-78068000D01*
X140112750Y-78068000D01*
X139954000Y-78226750D01*
X139700000Y-78226750D01*
X139541250Y-78068000D01*
X139300690Y-78068000D01*
X139067301Y-78164673D01*
X138888673Y-78343302D01*
X138792000Y-78576691D01*
X131992500Y-78576691D01*
X131992500Y-75693890D01*
X132141110Y-75795431D01*
X132393000Y-75846440D01*
X133893000Y-75846440D01*
X134128317Y-75802162D01*
X134344441Y-75663090D01*
X134489431Y-75450890D01*
X134492081Y-75437803D01*
X134628910Y-75650441D01*
X134841110Y-75795431D01*
X135093000Y-75846440D01*
X136593000Y-75846440D01*
X136828317Y-75802162D01*
X137044441Y-75663090D01*
X137189431Y-75450890D01*
X137218164Y-75309000D01*
X137829560Y-75309000D01*
X137829560Y-75475000D01*
X137873838Y-75710317D01*
X138012910Y-75926441D01*
X138225110Y-76071431D01*
X138477000Y-76122440D01*
X139277000Y-76122440D01*
X139512317Y-76078162D01*
X139728441Y-75939090D01*
X139827633Y-75793917D01*
X139912910Y-75926441D01*
X140125110Y-76071431D01*
X140377000Y-76122440D01*
X141177000Y-76122440D01*
X141412317Y-76078162D01*
X141628441Y-75939090D01*
X141773431Y-75726890D01*
X141824440Y-75475000D01*
X141824440Y-75285000D01*
X144058106Y-75285000D01*
X143951887Y-75819000D01*
G36*
X145016806Y-71917614D02*
X144837736Y-71953233D01*
X144372189Y-72264302D01*
X144061120Y-72729849D01*
X143951887Y-73279000D01*
X144048558Y-73765000D01*
X141824440Y-73765000D01*
X141824440Y-73575000D01*
X141780162Y-73339683D01*
X141641090Y-73123559D01*
X141428890Y-72978569D01*
X141177000Y-72927560D01*
X140672466Y-72927560D01*
X140765327Y-72834698D01*
X140862000Y-72601309D01*
X140862000Y-71810750D01*
X140703250Y-71652000D01*
X139954000Y-71652000D01*
X139954000Y-72951250D01*
X140040012Y-73037262D01*
X139925559Y-73110910D01*
X139826367Y-73256083D01*
X139741090Y-73123559D01*
X139614314Y-73036936D01*
X139700000Y-72951250D01*
X139700000Y-71652000D01*
X138950750Y-71652000D01*
X138792000Y-71810750D01*
X138792000Y-72601309D01*
X138888673Y-72834698D01*
X138981534Y-72927560D01*
X138477000Y-72927560D01*
X138241683Y-72971838D01*
X138025559Y-73110910D01*
X137880569Y-73323110D01*
X137829560Y-73575000D01*
X137829560Y-73789000D01*
X137219742Y-73789000D01*
X137196162Y-73663683D01*
X137057090Y-73447559D01*
X136844890Y-73302569D01*
X136593000Y-73251560D01*
X136556020Y-73251560D01*
X136556020Y-72844669D01*
X136630777Y-72830602D01*
X136846901Y-72691530D01*
X136991891Y-72479330D01*
X137042900Y-72227440D01*
X137042900Y-71028560D01*
X136998622Y-70793243D01*
X136859550Y-70577119D01*
X136671590Y-70448691D01*
X138792000Y-70448691D01*
X138792000Y-71239250D01*
X138950750Y-71398000D01*
X139700000Y-71398000D01*
X139700000Y-70098750D01*
X139954000Y-70098750D01*
X139954000Y-71398000D01*
X140703250Y-71398000D01*
X140862000Y-71239250D01*
X140862000Y-70448691D01*
X140765327Y-70215302D01*
X140586699Y-70036673D01*
X140353310Y-69940000D01*
X140112750Y-69940000D01*
X139954000Y-70098750D01*
X139700000Y-70098750D01*
X139541250Y-69940000D01*
X139300690Y-69940000D01*
X139067301Y-70036673D01*
X138888673Y-70215302D01*
X138792000Y-70448691D01*
X136671590Y-70448691D01*
X136647350Y-70432129D01*
X136395460Y-70381120D01*
X135196580Y-70381120D01*
X134961263Y-70425398D01*
X134745139Y-70564470D01*
X134739544Y-70572659D01*
X134657118Y-70490233D01*
X134423729Y-70393560D01*
X133983730Y-70393560D01*
X133824980Y-70552310D01*
X133824980Y-71501000D01*
X133844980Y-71501000D01*
X133844980Y-71755000D01*
X133824980Y-71755000D01*
X133824980Y-72703690D01*
X133983730Y-72862440D01*
X134423729Y-72862440D01*
X134657118Y-72765767D01*
X134739331Y-72683555D01*
X134944690Y-72823871D01*
X135036020Y-72842366D01*
X135036020Y-73262282D01*
X134857683Y-73295838D01*
X134641559Y-73434910D01*
X134496569Y-73647110D01*
X134493919Y-73660197D01*
X134357090Y-73447559D01*
X134144890Y-73302569D01*
X133893000Y-73251560D01*
X133735165Y-73251560D01*
X133680401Y-73169599D01*
X133373242Y-72862440D01*
X133412230Y-72862440D01*
X133570980Y-72703690D01*
X133570980Y-71755000D01*
X132622290Y-71755000D01*
X132463540Y-71913750D01*
X132463540Y-71952738D01*
X131992500Y-71481698D01*
X131992500Y-71305846D01*
X132511230Y-70787116D01*
X132463540Y-70902250D01*
X132463540Y-71342250D01*
X132622290Y-71501000D01*
X133570980Y-71501000D01*
X133570980Y-70552310D01*
X133412230Y-70393560D01*
X132972231Y-70393560D01*
X132857095Y-70441251D01*
X134361346Y-68937000D01*
X147997421Y-68937000D01*
X145016806Y-71917614D01*
X145016806Y-71917614D01*
G37*
X145016806Y-71917614D02*
X144837736Y-71953233D01*
X144372189Y-72264302D01*
X144061120Y-72729849D01*
X143951887Y-73279000D01*
X144048558Y-73765000D01*
X141824440Y-73765000D01*
X141824440Y-73575000D01*
X141780162Y-73339683D01*
X141641090Y-73123559D01*
X141428890Y-72978569D01*
X141177000Y-72927560D01*
X140672466Y-72927560D01*
X140765327Y-72834698D01*
X140862000Y-72601309D01*
X140862000Y-71810750D01*
X140703250Y-71652000D01*
X139954000Y-71652000D01*
X139954000Y-72951250D01*
X140040012Y-73037262D01*
X139925559Y-73110910D01*
X139826367Y-73256083D01*
X139741090Y-73123559D01*
X139614314Y-73036936D01*
X139700000Y-72951250D01*
X139700000Y-71652000D01*
X138950750Y-71652000D01*
X138792000Y-71810750D01*
X138792000Y-72601309D01*
X138888673Y-72834698D01*
X138981534Y-72927560D01*
X138477000Y-72927560D01*
X138241683Y-72971838D01*
X138025559Y-73110910D01*
X137880569Y-73323110D01*
X137829560Y-73575000D01*
X137829560Y-73789000D01*
X137219742Y-73789000D01*
X137196162Y-73663683D01*
X137057090Y-73447559D01*
X136844890Y-73302569D01*
X136593000Y-73251560D01*
X136556020Y-73251560D01*
X136556020Y-72844669D01*
X136630777Y-72830602D01*
X136846901Y-72691530D01*
X136991891Y-72479330D01*
X137042900Y-72227440D01*
X137042900Y-71028560D01*
X136998622Y-70793243D01*
X136859550Y-70577119D01*
X136671590Y-70448691D01*
X138792000Y-70448691D01*
X138792000Y-71239250D01*
X138950750Y-71398000D01*
X139700000Y-71398000D01*
X139700000Y-70098750D01*
X139954000Y-70098750D01*
X139954000Y-71398000D01*
X140703250Y-71398000D01*
X140862000Y-71239250D01*
X140862000Y-70448691D01*
X140765327Y-70215302D01*
X140586699Y-70036673D01*
X140353310Y-69940000D01*
X140112750Y-69940000D01*
X139954000Y-70098750D01*
X139700000Y-70098750D01*
X139541250Y-69940000D01*
X139300690Y-69940000D01*
X139067301Y-70036673D01*
X138888673Y-70215302D01*
X138792000Y-70448691D01*
X136671590Y-70448691D01*
X136647350Y-70432129D01*
X136395460Y-70381120D01*
X135196580Y-70381120D01*
X134961263Y-70425398D01*
X134745139Y-70564470D01*
X134739544Y-70572659D01*
X134657118Y-70490233D01*
X134423729Y-70393560D01*
X133983730Y-70393560D01*
X133824980Y-70552310D01*
X133824980Y-71501000D01*
X133844980Y-71501000D01*
X133844980Y-71755000D01*
X133824980Y-71755000D01*
X133824980Y-72703690D01*
X133983730Y-72862440D01*
X134423729Y-72862440D01*
X134657118Y-72765767D01*
X134739331Y-72683555D01*
X134944690Y-72823871D01*
X135036020Y-72842366D01*
X135036020Y-73262282D01*
X134857683Y-73295838D01*
X134641559Y-73434910D01*
X134496569Y-73647110D01*
X134493919Y-73660197D01*
X134357090Y-73447559D01*
X134144890Y-73302569D01*
X133893000Y-73251560D01*
X133735165Y-73251560D01*
X133680401Y-73169599D01*
X133373242Y-72862440D01*
X133412230Y-72862440D01*
X133570980Y-72703690D01*
X133570980Y-71755000D01*
X132622290Y-71755000D01*
X132463540Y-71913750D01*
X132463540Y-71952738D01*
X131992500Y-71481698D01*
X131992500Y-71305846D01*
X132511230Y-70787116D01*
X132463540Y-70902250D01*
X132463540Y-71342250D01*
X132622290Y-71501000D01*
X133570980Y-71501000D01*
X133570980Y-70552310D01*
X133412230Y-70393560D01*
X132972231Y-70393560D01*
X132857095Y-70441251D01*
X134361346Y-68937000D01*
X147997421Y-68937000D01*
X145016806Y-71917614D01*
M02*
