G04 #@! TF.FileFunction,Legend,Bot*
%FSLAX46Y46*%
G04 Gerber Fmt 4.6, Leading zero omitted, Abs format (unit mm)*
G04 Created by KiCad (PCBNEW 4.0.6) date Sunday, 24 September 2017 'AMt' 11:09:54*
%MOMM*%
%LPD*%
G01*
G04 APERTURE LIST*
%ADD10C,0.100000*%
%ADD11C,0.150000*%
G04 APERTURE END LIST*
D10*
D11*
X147201000Y-72365500D02*
X148201000Y-72365500D01*
X148201000Y-74065500D02*
X147201000Y-74065500D01*
X170522000Y-76462000D02*
X170522000Y-77462000D01*
X168822000Y-77462000D02*
X168822000Y-76462000D01*
X149343857Y-74767881D02*
X149248618Y-74767881D01*
X149153380Y-74815500D01*
X149105761Y-74863119D01*
X149058142Y-74958357D01*
X149010523Y-75148833D01*
X149010523Y-75386929D01*
X149058142Y-75577405D01*
X149105761Y-75672643D01*
X149153380Y-75720262D01*
X149248618Y-75767881D01*
X149343857Y-75767881D01*
X149439095Y-75720262D01*
X149486714Y-75672643D01*
X149534333Y-75577405D01*
X149581952Y-75386929D01*
X149581952Y-75148833D01*
X149534333Y-74958357D01*
X149486714Y-74863119D01*
X149439095Y-74815500D01*
X149343857Y-74767881D01*
X148581952Y-75672643D02*
X148534333Y-75720262D01*
X148581952Y-75767881D01*
X148629571Y-75720262D01*
X148581952Y-75672643D01*
X148581952Y-75767881D01*
X147581952Y-75767881D02*
X148153381Y-75767881D01*
X147867667Y-75767881D02*
X147867667Y-74767881D01*
X147962905Y-74910738D01*
X148058143Y-75005976D01*
X148153381Y-75053595D01*
X146724809Y-75101214D02*
X146724809Y-75767881D01*
X147153381Y-75101214D02*
X147153381Y-75625024D01*
X147105762Y-75720262D01*
X147010524Y-75767881D01*
X146867666Y-75767881D01*
X146772428Y-75720262D01*
X146724809Y-75672643D01*
X145915285Y-75244071D02*
X146248619Y-75244071D01*
X146248619Y-75767881D02*
X146248619Y-74767881D01*
X145772428Y-74767881D01*
X167024381Y-75319143D02*
X167024381Y-75414382D01*
X167072000Y-75509620D01*
X167119619Y-75557239D01*
X167214857Y-75604858D01*
X167405333Y-75652477D01*
X167643429Y-75652477D01*
X167833905Y-75604858D01*
X167929143Y-75557239D01*
X167976762Y-75509620D01*
X168024381Y-75414382D01*
X168024381Y-75319143D01*
X167976762Y-75223905D01*
X167929143Y-75176286D01*
X167833905Y-75128667D01*
X167643429Y-75081048D01*
X167405333Y-75081048D01*
X167214857Y-75128667D01*
X167119619Y-75176286D01*
X167072000Y-75223905D01*
X167024381Y-75319143D01*
X167929143Y-76081048D02*
X167976762Y-76128667D01*
X168024381Y-76081048D01*
X167976762Y-76033429D01*
X167929143Y-76081048D01*
X168024381Y-76081048D01*
X168024381Y-77081048D02*
X168024381Y-76509619D01*
X168024381Y-76795333D02*
X167024381Y-76795333D01*
X167167238Y-76700095D01*
X167262476Y-76604857D01*
X167310095Y-76509619D01*
X167357714Y-77938191D02*
X168024381Y-77938191D01*
X167357714Y-77509619D02*
X167881524Y-77509619D01*
X167976762Y-77557238D01*
X168024381Y-77652476D01*
X168024381Y-77795334D01*
X167976762Y-77890572D01*
X167929143Y-77938191D01*
X167500571Y-78747715D02*
X167500571Y-78414381D01*
X168024381Y-78414381D02*
X167024381Y-78414381D01*
X167024381Y-78890572D01*
M02*
